<svg xmlns="http://www.w3.org/2000/svg" xmlns:xlink="http://www.w3.org/1999/xlink" viewBox="0 0 493 362" width="493" height="362" preserveAspectRatio="xMidYMid meet" style="width: 100%; height: 100%; transform: translate3d(0px, 0px, 0px); content-visibility: visible;"><defs><clipPath id="__lottie_element_3255"><rect width="493" height="362" x="0" y="0"/></clipPath><clipPath id="__lottie_element_3257"><path d="M0,0 L987,0 L987,724 L0,724z"/></clipPath><clipPath id="__lottie_element_3267"><path d="M0,0 L987,0 L987,724 L0,724z"/></clipPath><clipPath id="__lottie_element_3436"><path d="M0,0 L987,0 L987,724 L0,724z"/></clipPath></defs><g clip-path="url(#__lottie_element_3255)"><g clip-path="url(#__lottie_element_3257)" transform="matrix(0.5,0,0,0.5,0,0)" opacity="1" style="display: block;"><g clip-path="url(#__lottie_element_3436)" transform="matrix(1,0,0,1,0,0)" opacity="1" style="display: block;"><g transform="matrix(1,0,0,1,244.5659942626953,117.39999389648438)" opacity="1" style="display: block;"><g opacity="1" transform="matrix(1,0,0,1,38.73500061035156,42.83399963378906)"><path fill="rgb(247,247,247)" fill-opacity="1" d=" M-34.112998962402344,-25.541000366210938 C-31.812999725341797,-39.15999984741211 -21.017000198364258,-42.58399963378906 -9.496999740600586,-41.83399963378906 C-9.496999740600586,-41.83399963378906 38.48500061035156,-32.8380012512207 38.48500061035156,-32.8380012512207 C17.792999267578125,-21.591999053955078 3.6470000743865967,22.141000747680664 -0.8510000109672546,42.58399963378906 C-0.8510000109672546,42.58399963378906 -1.1009999513626099,42.284000396728516 -1.1009999513626099,42.284000396728516 C-16.145000457763672,25.489999771118164 -38.48500061035156,0.49900001287460327 -34.112998962402344,-25.541000366210938z"/></g></g><g transform="matrix(1,0,0,1,239.9659881591797,107.75199890136719)" opacity="1" style="display: block;"><g opacity="1" transform="matrix(1,0,0,1,37.9119987487793,48.78300094604492)"><path stroke-linecap="round" stroke-linejoin="round" fill-opacity="0" stroke="rgb(73,73,73)" stroke-opacity="1" stroke-width="4" d=" M33.9119987487793,-30.663000106811523 C20.091999053955078,-34.6619987487793 -17.218000411987305,-44.78300094604492 -23.56599998474121,-28.68899917602539 C-33.9119987487793,-2.624000072479248 -13.569999694824219,26.139999389648438 3.3480000495910645,44.78300094604492"/></g></g><g transform="matrix(1,0,0,1,252.2059783935547,132.19400024414062)" opacity="1" style="display: block;"><g opacity="1" transform="matrix(1,0,0,1,31.641000747680664,37.87300109863281)"><path fill="rgb(73,73,73)" fill-opacity="0.06" d=" M-0.32100000977516174,37.87300109863281 C-0.17100000381469727,21.57900047302246 8.89900016784668,-6.360000133514404 31.641000747680664,-37.87300109863281 C16.913000106811523,-31.621999740600586 4.247000217437744,-21.34000015258789 -4.894999980926514,-8.208999633789062 C-5.39300012588501,-7.50600004196167 -6.046999931335449,-6.929999828338623 -6.809000015258789,-6.5269999504089355 C-7.568999767303467,-6.124000072479248 -8.413000106811523,-5.90500020980835 -9.274999618530273,-5.888000011444092 C-10.135000228881836,-5.870999813079834 -10.986000061035156,-6.056000232696533 -11.76200008392334,-6.428999900817871 C-12.538000106811523,-6.802000045776367 -13.217000007629395,-7.3520002365112305 -13.741000175476074,-8.034000396728516 C-25.611000061035156,-24.077999114990234 -32.808998107910156,-38.02299880981445 -31.485000610351562,-32.07500076293945 C-30.01099967956543,-25.427000045776367 -35.409000396728516,2.486999988555908 -0.32100000977516174,37.87300109863281z"/></g></g></g><g transform="matrix(1,0,0,1,74.73202514648438,594.8900146484375)" opacity="1" style="display: block;"><g opacity="1" transform="matrix(1,0,0,1,413.4419860839844,44.38999938964844)"><path fill="rgb(73,73,73)" fill-opacity="0.06" d=" M410.2380065917969,-2.305999994277954 C443.489990234375,56.63399887084961 207.8560028076172,58.249000549316406 169.0970001220703,11.163000106811523 C117.58399963378906,23.107999801635742 68.05799865722656,19.58300018310547 25.920000076293945,6.144000053405762 C-16.309999465942383,52.87900161743164 -80.23400115966797,26.257999420166016 -110.7959976196289,25.408000946044922 C-214.70599365234375,35.97999954223633 -259.35198974609375,37.9630012512207 -311.7070007324219,31.84000015258789 C-323.3800048828125,30.516000747680664 -336.4830017089844,25.889999389648438 -346.7179870605469,25.408000946044922 C-413.7489929199219,22.2549991607666 -413.4419860839844,6.540999889373779 -413.4419860839844,-2.305999994277954 C-413.4419860839844,-25.547000885009766 -229.06399536132812,-44.38999938964844 -1.6019999980926514,-44.38999938964844 C225.86000061035156,-44.38999938964844 410.2380065917969,-25.547000885009766 410.2380065917969,-2.305999994277954z"/></g></g><g transform="matrix(1,0,0,1,199.20797729492188,218.36199951171875)" opacity="1" style="display: block;"><g opacity="1" transform="matrix(1,0,0,1,92.1520004272461,108.8949966430664)"><path fill="rgb(247,247,247)" fill-opacity="1" d=" M91.9020004272461,17.655000686645508 C63.38800048828125,35.37300109863281 12.182000160217285,37.797000885009766 -6.285999774932861,53.06700134277344 C-35.99800109863281,108.6449966430664 -91.9020004272461,69.03500366210938 -75.05799865722656,28.674999237060547 C-54.465999603271484,-20.5049991607666 -18.829999923706055,-11.883000373840332 5.809999942779541,-37.29899978637695 C12.458000183105469,-44.17100143432617 74.43399810791016,-21.77899932861328 40.19599914550781,-108.6449966430664"/></g></g><g transform="matrix(1,0,0,1,206.45599365234375,317.3219909667969)" opacity="1" style="display: block;"><g opacity="1" transform="matrix(1,0,0,1,39.49700164794922,54.62900161743164)"><path fill="rgb(255,255,255)" fill-opacity="1" d=" M-21.7549991607666,-29.76300048828125 C-37.89899826049805,-10.494999885559082 -39.24700164794922,10.996999740600586 -15.583000183105469,30.839000701904297 C12.532999992370605,54.37900161743164 32.775001525878906,19.843000411987305 39.24700164794922,8.347000122070312 C15.630999565124512,-5.9710001945495605 4.910999774932861,-33.137001037597656 4.261000156402588,-54.37900161743164 C-5.160999774932861,-52.67900085449219 -11.083000183105469,-42.606998443603516 -21.7549991607666,-29.76300048828125z"/></g></g><g transform="matrix(1,0,0,1,195.00799560546875,214.66200256347656)" opacity="1" style="display: block;"><g opacity="1" transform="matrix(1,0,0,1,92.7030029296875,113.03199768066406)"><path stroke-linecap="round" stroke-linejoin="round" fill-opacity="0" stroke="rgb(73,73,73)" stroke-opacity="1" stroke-width="4" d=" M88.7030029296875,21.441999435424805 C62.8129997253418,39.159000396728516 14.807000160217285,38.935001373291016 -2.510999917984009,53.38100051879883 C-32.249000549316406,109.03199768066406 -88.7030029296875,69.27300262451172 -71.83499908447266,29.014999389648438 C-66.39099884033203,16.01300048828125 -59.75299835205078,7.10099983215332 -52.47700119018555,0.5529999732971191 M44.47100067138672,-109.03199768066406 C78.23300170898438,-19.841999053955078 17.731000900268555,-43.13399887084961 11.083000183105469,-36.2859992980957 C-1.875,-22.9060001373291 -18.44300079345703,-19.141000747680664 -34.233001708984375,-11.425000190734863"/></g></g><g transform="matrix(1,0,0,1,214.85202026367188,228.65899658203125)" opacity="1" style="display: block;"><g opacity="1" transform="matrix(1,0,0,1,90.20099639892578,89.76399993896484)"><path fill="rgb(73,73,73)" fill-opacity="1" d=" M-66.03500366210938,88.79100036621094 C-49.117000579833984,92.16300201416016 -34.52299880981445,87.59100341796875 -21.05299949645996,61.95100021362305 C33.45100021362305,43.882999420166016 62.93899917602539,34.46099853515625 80.58300018310547,25.839000701904297 C59.99100112915039,0.625 96.3270034790039,-66.29900360107422 89.27899932861328,-89.76499938964844 C72.26100158691406,-58.82699966430664 54.74300003051758,-26.614999771118164 60.74100112915039,3.8469998836517334 C53.24300003051758,18.993000030517578 -11.307000160217285,26.538999557495117 -27.524999618530273,38.834999084472656 C-47.266998291015625,70.1969985961914 -60.01300048828125,86.61499786376953 -90.20099639892578,65.2750015258789 C-89.2770004272461,73.84500122070312 -81.1050033569336,81.29299926757812 -66.03500366210938,88.79100036621094z"/></g></g><g transform="matrix(1,0,0,1,78.80401611328125,351.78497314453125)" opacity="1" style="display: block;"><g opacity="1" transform="matrix(1,0,0,1,225.91299438476562,156.4510040283203)"><path fill="rgb(255,255,255)" fill-opacity="1" d=" M2.3269999027252197,138.7830047607422 C-12.45300006866455,149.27499389648438 -132.12600708007812,144.2689971923828 -138.531005859375,144.2689971923828 C-174.91400146484375,141.10499572753906 -209.16600036621094,111.55599975585938 -215.45700073242188,83.9020004272461 C-225.66299438476562,49.944000244140625 -224.52699279785156,-34.03200149536133 -138.67100524902344,-95.60099792480469 C-102.93499755859375,-124.01499938964844 -76.47100067138672,-125.91400146484375 -41.382999420166016,-147.67999267578125 C-41.382999420166016,-147.67999267578125 26.614999771118164,-156.2010040283203 26.614999771118164,-156.2010040283203 C26.614999771118164,-156.2010040283203 88.36499786376953,-156.2010040283203 88.36499786376953,-156.2010040283203 C88.36499786376953,-156.2010040283203 154.56500244140625,-142.78199768066406 154.56500244140625,-142.78199768066406 C154.56500244140625,-142.78199768066406 201.072998046875,-127.51200103759766 201.072998046875,-127.51200103759766 C201.072998046875,-127.51200103759766 225.66299438476562,118.16799926757812 184.80299377441406,137.0330047607422 C184.80299377441406,137.0330047607422 160.46299743652344,156.20199584960938 80.59300231933594,138.98399353027344 C80.59300231933594,138.98399353027344 11.64900016784668,138.8090057373047 11.64900016784668,138.8090057373047 C11.64900016784668,138.8090057373047 2.3269999027252197,138.7830047607422 2.3269999027252197,138.7830047607422z"/></g></g><g transform="matrix(1,0,0,1,134.3839874267578,351.78399658203125)" opacity="1" style="display: block;"><g opacity="1" transform="matrix(1,0,0,1,125.36399841308594,115.06800079345703)"><path fill="rgb(247,247,247)" fill-opacity="1" d=" M25.22599983215332,34.70000076293945 C71.08399963378906,44.69599914550781 87.7020034790039,15.305999755859375 88.9020004272461,-12.357999801635742 C125.11399841308594,-38.27199935913086 92.1259994506836,-79.60600280761719 84.10399627685547,-84.7030029296875 C63.63600158691406,-97.6989974975586 45.71799850463867,-114.81800079345703 -14.807999610900879,-96.1240005493164 C-47.145999908447266,-84.7300033569336 -105.09700012207031,-59.34000015258789 -124.41500091552734,-23.15399932861328 C-125.11399841308594,-3.1589999198913574 -114.89299774169922,82.40599822998047 -75.30899810791016,96.8010025024414 C-25.827999114990234,114.81800079345703 15.779999732971191,46.97100067138672 25.22599983215332,34.70000076293945z"/></g></g><g transform="matrix(1,0,0,1,374.114013671875,538.5859985351562)" opacity="1" style="display: block;"><g opacity="1" transform="matrix(1,0,0,1,51.86899948120117,24.242000579833984)"><path stroke-linecap="round" stroke-linejoin="round" fill-opacity="0" stroke="rgb(73,73,73)" stroke-opacity="1" stroke-width="4" d=" M47.86899948120117,-9.746000289916992 C31.999000549316406,-12.246000289916992 -28.976999282836914,-20.242000579833984 -47.86899948120117,20.242000579833984"/></g></g><g transform="matrix(1,0,0,1,316.5069885253906,601.3619995117188)" opacity="1" style="display: block;"><g opacity="1" transform="matrix(1,0,0,1,97.85299682617188,38.986000061035156)"><path stroke-linecap="round" stroke-linejoin="round" fill-opacity="0" stroke="rgb(73,73,73)" stroke-opacity="1" stroke-width="4" d=" M90.58000183105469,-34.986000061035156 C93.8270034790039,-18.194000244140625 93.85299682617188,34.986000061035156 -29.049999237060547,6.870999813079834 C-29.049999237060547,6.870999813079834 -93.85299682617188,6.870999813079834 -93.85299682617188,6.870999813079834"/></g></g><g transform="matrix(1,0,0,1,300.39300537109375,421.906005859375)" opacity="1" style="display: block;"><g opacity="1" transform="matrix(1,0,0,1,61.3650016784668,67.30000305175781)"><path stroke-linecap="round" stroke-linejoin="round" fill-opacity="0" stroke="rgb(73,73,73)" stroke-opacity="1" stroke-width="4" d=" M57.3650016784668,63.29999923706055 C45.32099914550781,-43.08399963378906 -42.07099914550781,-30.238000869750977 -57.3650016784668,-63.29999923706055"/></g></g><g transform="matrix(1,0,0,1,516.302001953125,591.6849975585938)" opacity="1" style="display: block;"><g opacity="1" transform="matrix(1,0,0,1,71.98999786376953,30.249000549316406)"><path fill="rgb(247,247,247)" fill-opacity="1" d=" M-71.4219970703125,-29.527999877929688 C-71.73999786376953,14.305999755859375 11.258000373840332,29.999000549316406 38.83000183105469,-0.23000000417232513 C38.83000183105469,-0.23000000417232513 71.73999786376953,-19.530000686645508 71.73999786376953,-19.530000686645508 C71.73999786376953,-19.530000686645508 -17.60700035095215,-29.527999877929688 -17.60700035095215,-29.527999877929688 C-17.60700035095215,-29.527999877929688 -49.21799850463867,-29.999000549316406 -49.21799850463867,-29.999000549316406 C-49.21799850463867,-29.999000549316406 -71.4219970703125,-29.527999877929688 -71.4219970703125,-29.527999877929688z"/></g></g><g transform="matrix(1,0,0,1,527.9710083007812,618.68701171875)" opacity="1" style="display: block;"><g opacity="1" transform="matrix(1,0,0,1,39.6349983215332,12.338000297546387)"><path stroke-linecap="round" stroke-linejoin="round" fill-opacity="0" stroke="rgb(73,73,73)" stroke-opacity="1" stroke-width="4" d=" M35.63600158691406,4.4730000495910645 C10.696000099182129,8.336999893188477 -23.007999420166016,2.3929998874664307 -35.63600158691406,-8.338000297546387"/></g></g><g transform="matrix(1,0,0,1,396.73199462890625,238.22801208496094)" opacity="1" style="display: block;"><g opacity="1" transform="matrix(1,0,0,1,134.1840057373047,99.14900207519531)"><path fill="rgb(247,247,247)" fill-opacity="1" d=" M-18.3799991607666,-98.89900207519531 C-18.3799991607666,-98.89900207519531 12.083999633789062,-60.51300048828125 62.41400146484375,-52.64099884033203 C62.41400146484375,-52.64099884033203 133.9340057373047,-39.42100143432617 127.93599700927734,13.782999992370605 C127.93599700927734,13.782999992370605 6.184999942779541,98.89900207519531 -133.9340057373047,66.76300048828125 C-133.9340057373047,66.76300048828125 -96.30000305175781,-65.48699951171875 -96.30000305175781,-65.48699951171875 C-96.30000305175781,-65.48699951171875 -18.3799991607666,-98.89900207519531 -18.3799991607666,-98.89900207519531z"/></g></g><g transform="matrix(1,0,0,1,282,4.76800537109375)" opacity="1" style="display: block;"><g opacity="1" transform="matrix(1,0,0,1,125.75199890136719,189.45199584960938)"><path fill="rgb(247,247,247)" fill-opacity="1" d=" M36.36199951171875,179.5050048828125 C31.36199951171875,181.7790069580078 14.744000434875488,188.7779998779297 1.899999976158142,189.20199584960938 C-65.80000305175781,182.52999877929688 -84.21800231933594,138.99600219726562 -94.18800354003906,101.51200103759766 C-102.89800262451172,93.87000274658203 -124.95999908447266,72.73899841308594 -125.50199890136719,24.891000747680664 C-124.8759994506836,-44.78300094604492 -67.4739990234375,-100.33499908447266 -10.946000099182129,-98.51100158691406 C-7.822000026702881,-126.2750015258789 -3.624000072479248,-138.69500732421875 10.246000289916992,-153.1649932861328 C47.28200149536133,-189.2010040283203 59.45199966430664,-100.36100006103516 64.54900360107422,-94.31300354003906 C88.26499938964844,-84.84300231933594 85.21800231933594,-88.51499938964844 93.01300048828125,-70.22200012207031 C120.177001953125,-39.88399887084961 125.50199890136719,12.897000312805176 112.10600280761719,60.652000427246094 C112.10600280761719,60.652000427246094 36.36199951171875,179.5050048828125 36.36199951171875,179.5050048828125z"/></g></g><g transform="matrix(1,0,0,1,283.2760009765625,105.20399475097656)" opacity="1" style="display: block;"><g opacity="1" transform="matrix(1,0,0,1,76.66999816894531,105.09700012207031)"><path fill="rgb(255,255,255)" fill-opacity="1" d=" M-76.41999816894531,-22.128999710083008 C-64.94999694824219,-24.327999114990234 -36.43600082397461,-2.26200008392334 -46.43199920654297,20.18000030517578 C-53.18000030517578,35.948001861572266 -59.85200119018555,49.518001556396484 -60.402000427246094,60.16400146484375 C-61.625999450683594,83.00599670410156 -23.666000366210938,104.84600067138672 5.947999954223633,95.3499984741211 C76.41999816894531,72.86000061035156 67.697998046875,-17.930999755859375 -6.297999858856201,-12.407999992370605 C-23.591999053955078,-11.107999801635742 -32.512001037597656,-58.84000015258789 -20.218000411987305,-92.62699890136719 C-25.790000915527344,-104.84700012207031 -58.577999114990234,-67.08699798583984 -76.41999816894531,-22.128999710083008z"/></g></g><g transform="matrix(1,0,0,1,469.4770202636719,95.30799865722656)" opacity="1" style="display: block;"><g opacity="1" transform="matrix(1,0,0,1,33.30099868774414,92.71499633789062)"><path stroke-linecap="round" stroke-linejoin="round" fill-opacity="0" stroke="rgb(73,73,73)" stroke-opacity="1" stroke-width="4" d=" M3.111999988555908,88.71499633789062 C29.302000045776367,53.92900085449219 24.40399932861328,6.248000144958496 24.40399932861328,6.248000144958496 C22.854000091552734,-32.23699951171875 -0.5870000123977661,-71.77200317382812 -29.301000595092773,-88.71499633789062"/></g></g><g transform="matrix(1,0,0,1,423.02001953125,58.47100067138672)" opacity="1" style="display: block;"><g opacity="1" transform="matrix(1,0,0,1,8.998000144958496,23.280000686645508)"><path stroke-linecap="round" stroke-linejoin="miter" fill-opacity="0" stroke-miterlimit="4" stroke="rgb(73,73,73)" stroke-opacity="1" stroke-width="4" d=" M-4.998000144958496,19.280000686645508 C-4.797999858856201,4.585999965667725 -4.0320000648498535,-5.659999847412109 -2.700000047683716,-11.458000183105469 C-1.7740000486373901,-15.531000137329102 2.2980000972747803,-19.280000686645508 4.998000144958496,-18.229999542236328"/></g></g><g transform="matrix(1,0,0,1,324.3340148925781,227.30599975585938)" opacity="1" style="display: block;"><g opacity="1" transform="matrix(1,0,0,1,6.14900016784668,5.361999988555908)"><path stroke-linecap="round" stroke-linejoin="round" fill-opacity="0" stroke="rgb(73,73,73)" stroke-opacity="1" stroke-width="4" d=" M0.3490000069141388,1.3619999885559082 C0.3490000069141388,1.3619999885559082 -2.1489999294281006,0.31200000643730164 -2.1489999294281006,0.31200000643730164 C-2.1489999294281006,0.31200000643730164 2.1489999294281006,-1.3619999885559082 2.1489999294281006,-1.3619999885559082"/></g></g><g transform="matrix(1,0,0,1,368.0920104980469,201.11599731445312)" opacity="1" style="display: block;"><g opacity="1" transform="matrix(1,0,0,1,15.095000267028809,9.097999572753906)"><path stroke-linecap="round" stroke-linejoin="round" fill-opacity="0" stroke="rgb(73,73,73)" stroke-opacity="1" stroke-width="4" d=" M-11.095000267028809,5.0980000495910645 C-5.298999786376953,-2.0239999294281006 1.725000023841858,-5.0980000495910645 11.095000267028809,-1.100000023841858"/></g></g><g transform="matrix(1,0,0,1,282.6739807128906,232.87998962402344)" opacity="1" style="display: block;"><g opacity="1" transform="matrix(1,0,0,1,13.470999717712402,9.65999984741211)"><path stroke-linecap="round" stroke-linejoin="round" fill-opacity="0" stroke="rgb(73,73,73)" stroke-opacity="1" stroke-width="4" d=" M-9.470999717712402,5.659999847412109 C-5.4730000495910645,-2.611999988555908 -0.5490000247955322,-5.659999847412109 9.470999717712402,-3.861999988555908"/></g></g><g transform="matrix(1,0,0,1,328.8320007324219,232.02999877929688)" opacity="1" style="display: block;"><g opacity="1" transform="matrix(1,0,0,1,2.986999988555908,6.136000156402588)"><path stroke-linecap="round" stroke-linejoin="round" fill-opacity="0" stroke="rgb(73,73,73)" stroke-opacity="1" stroke-width="4" d=" M-0.9869999885559082,-4.136000156402588 C-0.9869999885559082,-4.136000156402588 0.9869999885559082,4.136000156402588 0.9869999885559082,4.136000156402588"/></g></g><g transform="matrix(1,0,0,1,308.63800048828125,238.302001953125)" opacity="1" style="display: block;"><g opacity="1" transform="matrix(1,0,0,1,14.083999633789062,13.571000099182129)"><path stroke-linecap="round" stroke-linejoin="round" fill-opacity="0" stroke="rgb(73,73,73)" stroke-opacity="1" stroke-width="4" d=" M-10.083999633789062,1.2990000247955322 C0.5619999766349792,9.571000099182129 10.083999633789062,-9.571000099182129 10.083999633789062,-9.571000099182129"/></g></g><g transform="matrix(1,0,0,1,330.0559997558594,236.8280029296875)" opacity="1" style="display: block;"><g opacity="1" transform="matrix(1,0,0,1,15.407999992370605,10.371999740600586)"><path stroke-linecap="round" stroke-linejoin="round" fill-opacity="0" stroke="rgb(73,73,73)" stroke-opacity="1" stroke-width="4" d=" M11.407999992370605,-6.372000217437744 C7.059999942779541,6.372000217437744 -11.407999992370605,-4.374000072479248 -11.407999992370605,-4.374000072479248"/></g></g><g transform="matrix(1,0,0,1,253.13601684570312,92.03399658203125)" opacity="1" style="display: block;"><g opacity="1" transform="matrix(1,0,0,1,68.63700103759766,106.28600311279297)"><path stroke-linecap="round" stroke-linejoin="round" fill-opacity="0" stroke="rgb(73,73,73)" stroke-opacity="1" stroke-width="4" d=" M64.63700103759766,-102.28600311279297 C61.0629997253418,-101.93599700927734 57.915000915527344,-101.48500061035156 56.165000915527344,-101.20999908447266 C-22.52899932861328,-85.44100189208984 -64.63700103759766,7.998000144958496 -25.82699966430664,76.22200012207031 C-21.55500030517578,83.44400024414062 -10.458999633789062,98.71199798583984 -0.21299999952316284,102.28600311279297"/></g></g><g transform="matrix(1,0,0,1,392.98199462890625,21.085002899169922)" opacity="1" style="display: block;"><g opacity="1" transform="matrix(1,0,0,1,41.64899826049805,42.08599853515625)"><path stroke-linecap="round" stroke-linejoin="round" fill-opacity="0" stroke="rgb(73,73,73)" stroke-opacity="1" stroke-width="4" d=" M37.64799880981445,34.71099853515625 C31.573999404907227,7.946000099182129 20.827999114990234,-25.639999389648438 3.5360000133514404,-32.5620002746582 C-10.3100004196167,-38.084999084472656 -36.624000549316406,-16.01799964904785 -37.64799880981445,38.08599853515625"/></g></g><g transform="matrix(1,0,0,1,221.40000915527344,259.8699951171875)" opacity="1" style="display: block;"><g opacity="1" transform="matrix(1,0,0,1,117.19200134277344,72.1969985961914)"><path fill="rgb(247,247,247)" fill-opacity="1" d=" M76.38200378417969,71.9469985961914 C39.821998596191406,68 -6.085999965667725,35.51100158691406 -32.2760009765625,36.23699951171875 C-95.50199890136719,64.20099639892578 -116.94200134277344,-7.796999931335449 -75.23400115966797,-31.23699951171875 C-24.253999710083008,-59.777000427246094 0.6620000004768372,-28.288999557495117 39.09600067138672,-33.58700180053711 C49.46799850463867,-35.0369987487793 84.55400085449219,-62.67499923706055 116.94200134277344,-71.9469985961914"/></g></g><g transform="matrix(1,0,0,1,236.69398498535156,285.4599914550781)" opacity="1" style="display: block;"><g opacity="1" transform="matrix(1,0,0,1,41.04600143432617,52.380001068115234)"><path fill="rgb(255,255,255)" fill-opacity="1" d=" M1.6859999895095825,-43.63399887084961 C-25.277999877929688,-37.90999984741211 -40.79600143432617,-20.242000579833984 -33.900001525878906,12.843999862670898 C-25.527999877929688,52.130001068115234 15.232000350952148,35.986000061035156 28.576000213623047,30.33799934387207 C17.856000900268555,2.049999952316284 26.95199966430664,-28.639999389648438 40.79600143432617,-47.38199996948242 C31.576000213623047,-52.130001068115234 19.65399932861328,-47.43199920654297 1.6859999895095825,-43.63399887084961z"/></g></g><g transform="matrix(1,0,0,1,216.9499969482422,268.666015625)" opacity="1" style="display: block;"><g opacity="1" transform="matrix(1,0,0,1,147.40699768066406,69.18699645996094)"><path stroke-linecap="round" stroke-linejoin="round" fill-opacity="0" stroke="rgb(73,73,73)" stroke-opacity="1" stroke-width="4" d=" M41.87099838256836,65.18699645996094 C7.559000015258789,63.0629997253418 -33.79800033569336,30.575000762939453 -58.439998626708984,31.174999237060547 C-121.66400146484375,59.138999938964844 -143.40699768066406,-13.282999992370605 -101.822998046875,-36.64899826049805 C-50.84299850463867,-65.18699645996094 -24.60300064086914,-31.650999069213867 13.831000328063965,-37.02299880981445 C24.177000045776367,-38.44900131225586 71.30899810791016,-64.08899688720703 143.40699768066406,-49.345001220703125"/></g></g><g transform="matrix(1,0,0,1,517.9580078125,242.37599182128906)" opacity="1" style="display: block;"><g opacity="1" transform="matrix(1,0,0,1,70.2239990234375,42.73500061035156)"><path stroke-linecap="round" stroke-linejoin="round" fill-opacity="0" stroke="rgb(73,73,73)" stroke-opacity="1" stroke-width="4" d=" M66.2239990234375,38.73500061035156 C35.334999084472656,-9.647000312805176 -32.3390007019043,4.947000026702881 -66.2239990234375,-38.73500061035156"/></g></g><g transform="matrix(1,0,0,1,85.33999633789062,366.41900634765625)" opacity="1" style="display: block;"><g opacity="1" transform="matrix(1,0,0,1,82.58000183105469,80.30000305175781)"><path stroke-linecap="round" stroke-linejoin="round" fill-opacity="0" stroke="rgb(73,73,73)" stroke-opacity="1" stroke-width="4" d=" M-78.58000183105469,76.30000305175781 C-69.32599639892578,39.209999084472656 -49.33399963378906,1.565000057220459 -11.847000122070312,-28.23699951171875 C14.243000030517578,-48.979000091552734 45.358001708984375,-61.446998596191406 68.5479965209961,-71.97000122070312 C71.19000244140625,-73.25599670410156 75.06400299072266,-75.12799835205078 78.58000183105469,-76.30000305175781"/></g></g><g transform="matrix(1,0,0,1,443.93701171875,241.2750244140625)" opacity="1" style="display: block;"><g opacity="1" transform="matrix(1,0,0,1,222.69200134277344,205.718994140625)"><path fill="rgb(255,255,255)" fill-opacity="1" d=" M-193.8280029296875,54.70500183105469 C-194.31199645996094,61.79499816894531 -196.52699279785156,68.65899658203125 -200.27699279785156,74.6969985961914 C-222.4429931640625,111.65699768066406 -193.45599365234375,157.04100036621094 -179.41000366210938,159.13900756835938 C-160.51699829101562,175.5330047607422 -124.13999938964844,171.0189971923828 -98.54000091552734,159.13900756835938 C-57.38600158691406,205.468994140625 11.196999549865723,192.08900451660156 31.062000274658203,143.62100219726562 C222.4429931640625,100.53900146484375 89.14199829101562,-91.1510009765625 52.37699890136719,-105.23300170898438 C-163.81300354003906,-205.468994140625 -190.8300018310547,1.2009999752044678 -193.8280029296875,54.70500183105469z"/></g></g><g transform="matrix(1,0,0,1,622.1950073242188,331.49200439453125)" opacity="1" style="display: block;"><g opacity="1" transform="matrix(1,0,0,1,116.52899932861328,104.27200317382812)"><path fill="rgb(247,247,247)" fill-opacity="1" d=" M-58.32699966430664,31.149999618530273 C-52.90299987792969,82.7300033569336 -6.580999851226807,66.45600128173828 7.263999938964844,73.35399627685547 C16.81800079345703,98 33.9370002746582,104.02200317382812 80.56900024414062,98 C105.78399658203125,99.27400207519531 89.96299743652344,98.75 98.78500366210938,76.18399810791016 C107.60800170898438,53.61800003051758 116.27999877929688,0.43799999356269836 96.88899993896484,-32.45000076293945 C79.3949966430664,-62.013999938964844 -17.017000198364258,-91.97599792480469 -56.20399856567383,-104.02200317382812 C-75.94499969482422,-100.8740005493164 -101.53700256347656,-92.75199890136719 -108.08499908447266,-51.11800003051758 C-116.27999877929688,0.8880000114440918 -63.375999450683594,-16.93000030517578 -58.32699966430664,31.149999618530273z"/></g></g><g transform="matrix(1,0,0,1,724.031005859375,265.24200439453125)" opacity="1" style="display: block;"><g opacity="1" transform="matrix(1,0,0,1,86.92900085449219,161.2010040283203)"><path fill="rgb(247,247,247)" fill-opacity="1" d=" M-78.95700073242188,-38.696998596191406 C-78.95700073242188,-38.696998596191406 -48.970001220703125,34.972999572753906 -47.220001220703125,104.0469970703125 C-46.22200012207031,142.10699462890625 0.43700000643730164,160.9499969482422 27.400999069213867,134.03500366210938 C42.62099838256836,118.84100341796875 57.96500015258789,92.52799987792969 71.15899658203125,48.77000045776367 C71.15899658203125,48.77000045776367 86.67900085449219,1.2879999876022339 33.67300033569336,-16.6299991607666 C-7.585000038146973,-38.74599838256836 -28.452999114990234,-160.9499969482422 -86.67900085449219,-82.37999725341797"/></g></g><g transform="matrix(1,0,0,1,410.2979736328125,245.35000610351562)" opacity="1" style="display: block;"><g opacity="1" transform="matrix(1,0,0,1,90.74199676513672,147.43099975585938)"><path fill="rgb(255,255,255)" fill-opacity="1" d=" M-43.60599899291992,147.18099975585938 C-46.10599899291992,145.20700073242188 -73.59500122070312,104.0469970703125 -86.08899688720703,64.08699798583984 C-89.49099731445312,53.85100173950195 -90.49199676513672,42.96699905395508 -89.01599884033203,32.28200149536133 C-87.53800201416016,21.594999313354492 -83.61900329589844,11.390999794006348 -77.56700134277344,2.4609999656677246 C-69.24700164794922,-9.381999969482422 -55.902000427246094,-20.2549991607666 -34.459999084472656,-24.152999877929688 C6.473999977111816,-38.89699935913086 44.63399887084961,-147.18099975585938 90.49199676513672,-73.00900268554688"/></g></g><g transform="matrix(1,0,0,1,471.6780090332031,414.6600036621094)" opacity="1" style="display: block;"><g opacity="1" transform="matrix(1,0,0,1,44.180999755859375,51.56100082397461)"><path fill="rgb(247,247,247)" fill-opacity="1" d=" M23.216999053955078,50.69900131225586 C7.298999786376953,46.82500076293945 -14.392999649047852,42.82699966430664 -26.888999938964844,45.928001403808594 C-32.45100021362305,47.30699920654297 -38.32899856567383,46.49300003051758 -43.30699920654297,43.65299987792969 C-43.30699920654297,43.65299987792969 -43.930999755859375,43.303001403808594 -43.930999755859375,43.303001403808594 C-43.930999755859375,43.303001403808594 -26.76300048828125,-51.31100082397461 -26.76300048828125,-51.31100082397461 C-26.76300048828125,-51.31100082397461 40.71099853515625,-44.112998962402344 43.808998107910156,33.654998779296875 C43.930999755859375,36.244998931884766 43.448001861572266,38.82899856567383 42.4010009765625,41.19900131225586 C41.35100173950195,43.57099914550781 39.766998291015625,45.66699981689453 37.76900100708008,47.319000244140625 C35.770999908447266,48.972999572753906 33.41699981689453,50.138999938964844 30.891000747680664,50.724998474121094 C28.365999221801758,51.31100082397461 25.738000869750977,51.303001403808594 23.216999053955078,50.69900131225586z"/></g></g><g transform="matrix(1,0,0,1,638.926025390625,503.3139953613281)" opacity="1" style="display: block;"><g opacity="1" transform="matrix(1,0,0,1,26.893999099731445,8.626999855041504)"><path stroke-linecap="round" stroke-linejoin="round" fill-opacity="0" stroke="rgb(73,73,73)" stroke-opacity="1" stroke-width="4" d=" M-22.89299964904785,4.626999855041504 C-16.55900001525879,-0.7049999833106995 -8.651000022888184,-3.811000108718872 -0.3799999952316284,-4.21999979019165 C7.888999938964844,-4.626999855041504 16.065000534057617,-2.311000108718872 22.89299964904785,2.372999906539917"/></g></g><g transform="matrix(1,0,0,1,501.17401123046875,487.70599365234375)" opacity="1" style="display: block;"><g opacity="1" transform="matrix(1,0,0,1,22.42799949645996,10.904000282287598)"><path stroke-linecap="round" stroke-linejoin="round" fill-opacity="0" stroke="rgb(73,73,73)" stroke-opacity="1" stroke-width="4" d=" M18.429000854492188,6.9039998054504395 C10.517000198364258,-2.563999891281128 -3.9260001182556152,-6.9039998054504395 -18.429000854492188,-2.7839999198913574"/></g></g><g transform="matrix(1,0,0,1,426.52001953125,257.593994140625)" opacity="1" style="display: block;"><g opacity="1" transform="matrix(1,0,0,1,235.55299377441406,203.58200073242188)"><path stroke-linecap="round" stroke-linejoin="round" fill-opacity="0" stroke="rgb(73,73,73)" stroke-opacity="1" stroke-width="4" d=" M-161.48199462890625,-73.27999877929688 C-95.20800018310547,-199.58200073242188 62.15800094604492,-117.06400299072266 62.15800094604492,-117.06400299072266 C120.38300323486328,-195.63400268554688 143.62100219726562,-75.14600372314453 182.50900268554688,-51.31399917602539 C231.55299377441406,-21.260000228881836 219.99600219726562,14.085000038146973 219.99600219726562,14.085000038146973 C206.80099487304688,57.84299850463867 191.45799255371094,84.05799865722656 176.23800659179688,99.35199737548828 C134.06500244140625,141.35000610351562 95.39299774169922,77.7760009765625 82.37899780273438,48.959999084472656 C54.72700119018555,-12.270000457763672 69.87899780273438,-73.43000030517578 69.87899780273438,-73.43000030517578 M29.493999481201172,126.01799774169922 C35.34199905395508,168.68800354003906 -48.76300048828125,199.58200073242188 -88.26100158691406,149.83200073242188 C-89.5780029296875,148.21299743652344 -91.41300201416016,147.09800720214844 -93.45700073242188,146.67300415039062 C-95.5009994506836,146.25100708007812 -97.62999725341797,146.5449981689453 -99.48200225830078,147.5070037841797 C-152.51800537109375,182.67999267578125 -231.5540008544922,127.15399932861328 -195.77000427246094,62.16600036621094 C-192.01600646972656,56.12900161743164 -189.802001953125,49.26599884033203 -189.32200622558594,42.17300033569336 C-186.9720001220703,5.388000011444092 -180.9499969482422,-24.52400016784668 -172.25399780273438,-48.715999603271484 M-168.2790069580078,-58.93600082397461 C-167.40499877929688,-60.986000061035156 -166.52999877929688,-62.98400115966797 -165.6320037841797,-64.93399810791016 C-165.6320037841797,-64.93399810791016 -168.2790069580078,-58.93600082397461 -168.2790069580078,-58.93600082397461z"/></g></g><g transform="matrix(1,0,0,1,532.427978515625,532.0339965820312)" opacity="1" style="display: block;"><g opacity="1" transform="matrix(1,0,0,1,41.85900115966797,31.225000381469727)"><path fill="rgb(235,235,235)" fill-opacity="1" d=" M36.6609992980957,7.410999774932861 C33.387001037597656,18.204999923706055 7.623000144958496,30.975000381469727 -8.319999694824219,26.12700080871582 C-24.263999938964844,21.27899932861328 -41.60900115966797,2.312999963760376 -38.308998107910156,-8.508999824523926 C-33.1870002746582,-30.975000381469727 41.60900115966797,-18.429000854492188 36.6609992980957,7.410999774932861z"/></g></g><g transform="matrix(1,0,0,1,528.677978515625,528.2839965820312)" opacity="1" style="display: block;"><g opacity="1" transform="matrix(1,0,0,1,45.60900115966797,34.974998474121094)"><path stroke-linecap="round" stroke-linejoin="round" fill-opacity="0" stroke="rgb(73,73,73)" stroke-opacity="1" stroke-width="4" d=" M36.6609992980957,7.410999774932861 C33.387001037597656,18.204999923706055 7.623000144958496,30.975000381469727 -8.319999694824219,26.12700080871582 C-24.263999938964844,21.27899932861328 -41.60900115966797,2.312999963760376 -38.308998107910156,-8.508999824523926 C-33.1870002746582,-30.975000381469727 41.60900115966797,-18.429000854492188 36.6609992980957,7.410999774932861z"/></g></g><g transform="matrix(1,0,0,1,651.8809814453125,539.7119750976562)" opacity="1" style="display: block;"><g opacity="1" transform="matrix(1,0,0,1,127.4010009765625,63.41899871826172)"><path fill="rgb(255,255,255)" fill-opacity="1" d=" M85.74400329589844,-63.16899871826172 C85.74400329589844,-63.16899871826172 60.50199890136719,-36.27899932861328 60.50199890136719,-36.27899932861328 C60.50199890136719,-36.27899932861328 30.790000915527344,-20.136999130249023 30.790000915527344,-20.136999130249023 C30.790000915527344,-20.136999130249023 22.816999435424805,-29.606000900268555 22.816999435424805,-29.606000900268555 C22.816999435424805,-29.606000900268555 16.29400062561035,-37.10499954223633 16.29400062561035,-37.10499954223633 C7.896999835968018,-44.37699890136719 -6.646999835968018,-47.85100173950195 -12.395000457763672,-49.77399826049805 C-31.01300048828125,-55.14699935913086 -62.374000549316406,-56.82099914550781 -85.39099884033203,-33.23099899291992 C-104.80899810791016,-13.388999938964844 -127.1510009765625,42.415000915527344 -69.2959976196289,55.23500061035156 C-33.36399841308594,63.16899871826172 4.060999870300293,60.999000549316406 38.83599853515625,48.9630012512207 C51.332000732421875,47.26300048828125 66.89900207519531,50.9370002746582 83.12000274658203,36.46699905395508 C127.1510009765625,-5.7170000076293945 85.74400329589844,-63.16899871826172 85.74400329589844,-63.16899871826172z"/></g></g><g transform="matrix(1,0,0,1,648.1320190429688,532.0880126953125)" opacity="1" style="display: block;"><g opacity="1" transform="matrix(1,0,0,1,124.87799835205078,69.03700256347656)"><path stroke-linecap="round" stroke-linejoin="round" fill-opacity="0" stroke="rgb(73,73,73)" stroke-opacity="1" stroke-width="4" d=" M39.65999984741211,-13.956999778747559 C26.016000747680664,-37.87300109863281 -0.3240000009536743,-45.86899948120117 -6.122000217437744,-47.792999267578125 C-24.739999771118164,-53.16699981689453 -56.10200119018555,-54.840999603271484 -79.11799621582031,-31.249000549316406 C-98.53600311279297,-11.406999588012695 -120.87799835205078,44.39500045776367 -63.02399826049805,57.21500015258789 C-27.788000106811523,65.03700256347656 18.194000244140625,63.66299819946289 45.108001708984375,50.94300079345703 C64.34200286865234,49.01300048828125 80.36399841308594,48.89699935913086 94.68800354003906,33.17499923706055 C111.98200225830078,14.107000350952148 120.87799835205078,-16.80500030517578 89.56600189208984,-65.03700256347656"/></g></g><g transform="matrix(1,0,0,1,406.572021484375,248.24798583984375)" opacity="1" style="display: block;"><g opacity="1" transform="matrix(1,0,0,1,91.81800079345703,148.58200073242188)"><path stroke-linecap="round" stroke-linejoin="round" fill-opacity="0" stroke="rgb(73,73,73)" stroke-opacity="1" stroke-width="4" d=" M87.81800079345703,-86.05400085449219 C47.83399963378906,-144.58200073242188 4.785999774932861,-41.194000244140625 -31.785999298095703,-28.20199966430664 C-52.959999084472656,-20.679000854492188 -66.5719985961914,-13.430999755859375 -74.89399719238281,-1.5880000591278076 C-80.94599914550781,7.3420000076293945 -84.86199951171875,17.54599952697754 -86.33999633789062,28.232999801635742 C-87.81800079345703,38.917999267578125 -86.81800079345703,49.801998138427734 -83.41600036621094,60.03799819946289 C-74.54399871826172,88.37799835205078 -43.779998779296875,144.58200073242188 -37.13399887084961,137.03399658203125"/></g></g><g transform="matrix(1,0,0,1,564.6649780273438,597.1619873046875)" opacity="1" style="display: block;"><g opacity="1" transform="matrix(1,0,0,1,6.598999977111816,8.923999786376953)"><path stroke-linecap="round" stroke-linejoin="round" fill-opacity="0" stroke="rgb(73,73,73)" stroke-opacity="1" stroke-width="4" d=" M-2.5989999771118164,-4.923999786376953 C-1.7649999856948853,-1.2400000095367432 0.028999999165534973,2.1579999923706055 2.5989999771118164,4.923999786376953"/></g></g><g transform="matrix(1,0,0,1,251.48800659179688,270.4410095214844)" opacity="1" style="display: block;"><g opacity="1" transform="matrix(1,0,0,1,103.03500366210938,21.95199966430664)"><path fill="rgb(73,73,73)" fill-opacity="0.06" d=" M-59.926998138427734,-21.952999114990234 C-46.37300109863281,-14.6850004196167 -31.979000091552734,-9.102999687194824 -17.069000244140625,-5.333000183105469 C-6.605000019073486,-2.8589999675750732 4.315000057220459,-3.0829999446868896 14.668999671936035,-5.982999801635742 C31.46299934387207,-10.656999588012695 66.1989974975586,-17.55299949645996 103.03500366210938,-8.482999801635742 C103.03500366210938,-8.482999801635742 43.28300094604492,17.207000732421875 43.28300094604492,17.207000732421875 C31.628999710083008,22.198999404907227 18.67099952697754,23.28700065612793 6.3470001220703125,20.30699920654297 C-39.03499984741211,-0.03500000014901161 -82.16899871826172,1.8890000581741333 -103.03500366210938,18.207000732421875 C-103.03500366210938,18.207000732421875 -79.54499816894531,-6.658999919891357 -49.48099899291992,-2.884999990463257 C-49.48099899291992,-2.884999990463257 -59.926998138427734,-21.952999114990234 -59.926998138427734,-21.952999114990234z"/></g></g><g transform="matrix(1,0,0,1,413.6009826660156,30.562999725341797)" opacity="1" style="display: block;"><g opacity="1" transform="matrix(1,0,0,1,27.87700080871582,30.611000061035156)"><path fill="rgb(73,73,73)" fill-opacity="0.06" d=" M-27.87700080871582,-18.694000244140625 C-27.87700080871582,-18.694000244140625 -0.3869999945163727,-39.76100158691406 27.87700080871582,30.61199951171875 C27.87700080871582,30.61199951171875 12.633000373840332,-63.027000427246094 -27.87700080871582,-18.694000244140625z"/></g></g><g transform="matrix(1,0,0,1,729.448974609375,414.9100036621094)" opacity="1" style="display: block;"><g opacity="1" transform="matrix(1,0,0,1,29.63800048828125,73.93399810791016)"><path fill="rgb(73,73,73)" fill-opacity="0.06" d=" M-29.084999084472656,-73.93399810791016 C-22.927000045776367,-27.77199935913086 -6.857999801635742,1.5399999618530273 18.67099952697754,36.99800109863281 C24.4689998626709,45.444000244140625 31.541000366210938,59.263999938964844 29.16699981689453,73.93399810791016 C29.16699981689453,73.93399810791016 12.798999786376953,65.91200256347656 12.798999786376953,65.91200256347656 C12.798999786376953,65.91200256347656 -1.7130000591278076,45.69599914550781 -1.7130000591278076,45.69599914550781 C-1.7130000591278076,45.69599914550781 -34.233001708984375,14.005000114440918 -29.084999084472656,-73.93399810791016z"/></g></g><g transform="matrix(1,0,0,1,693.8919677734375,532.4140014648438)" opacity="1" style="display: block;"><g opacity="1" transform="matrix(1,0,0,1,94.69100189208984,65.59600067138672)"><path fill="rgb(73,73,73)" fill-opacity="0.06" d=" M18.989999771118164,-17.964000701904297 C18.989999771118164,-17.964000701904297 46.279998779296875,-11.541999816894531 61.99800109863281,-20.464000701904297 C63.13600158691406,-21.118000030517578 64.41600036621094,-21.489999771118164 65.72699737548828,-21.54199981689453 C67.04000091552734,-21.5939998626709 68.34500122070312,-21.327999114990234 69.53399658203125,-20.766000747680664 C70.71900177001953,-20.20199966430664 71.75199890136719,-19.360000610351562 72.54199981689453,-18.309999465942383 C73.33200073242188,-17.261999130249023 73.8550033569336,-16.035999298095703 74.06800079345703,-14.739999771118164 C76.56800079345703,1.4780000448226929 76.94200134277344,27.0939998626709 56.974998474121094,40.66400146484375 C51.76499938964844,44.06399917602539 45.4370002746582,45.29999923706055 39.332000732421875,44.11199951171875 C39.332000732421875,44.11199951171875 31.833999633789062,42.737998962402344 31.833999633789062,42.737998962402344 C28.777999877929688,42.1879997253418 25.628000259399414,42.5359992980957 22.76300048828125,43.736000061035156 C6.145999908447266,50.709999084472656 -55.106998443603516,73.9000015258789 -94.69100189208984,54.757999420166016 C-94.69100189208984,54.757999420166016 -21.645000457763672,79.74800109863281 31.684999465942383,53.83399963378906 C31.684999465942383,53.83399963378906 72.79399871826172,59.279998779296875 89.53800201416016,20.6200008392334 C89.53800201416016,20.6200008392334 109.67900085449219,-20.238000869750977 70.31999969482422,-65.59600067138672 C70.31999969482422,-65.59600067138672 54.974998474121094,-17.363000869750977 13.491999626159668,-24.485000610351562 C13.491999626159668,-24.485000610351562 18.989999771118164,-17.964000701904297 18.989999771118164,-17.964000701904297z"/></g></g><g transform="matrix(1,0,0,1,531.22998046875,406.2039794921875)" opacity="1" style="display: block;"><g opacity="1" transform="matrix(1,0,0,1,120.27799987792969,115.35600280761719)"><path fill="rgb(73,73,73)" fill-opacity="0.06" d=" M92.21399688720703,-15.0600004196167 C92.21399688720703,-15.0600004196167 101.49299621582031,5.8480000495910645 101.49299621582031,5.8480000495910645 C101.49299621582031,5.8480000495910645 120.2770004272461,33.16999816894531 120.2770004272461,33.16999816894531 C103.93399810791016,25.148000717163086 65.5250015258789,32.895999908447266 65.5250015258789,32.895999908447266 C24.86199951171875,50.87799835205078 22.96299934387207,83.29199981689453 22.21500015258789,96.06600189208984 C21.98699951171875,99.93399810791016 21.868000030517578,102 20.80900001525879,101.31999969482422 C20.80900001525879,107.08799743652344 -3.6600000858306885,114.25 -3.6600000858306885,114.25 C-3.6600000858306885,114.25 -24.52199935913086,115.23799896240234 -24.52199935913086,115.23799896240234 C-24.52199935913086,115.23799896240234 -45.763999938964844,112.12999725341797 -45.763999938964844,112.12999725341797 C-45.763999938964844,112.12999725341797 -51.5260009765625,116.08000183105469 -55.21500015258789,115.23799896240234 C-63.49100112915039,113.3479995727539 -71.41300201416016,110.05400085449219 -77.7699966430664,104.61799621582031 C-79.39600372314453,102.97799682617188 -82.02300262451172,100.58000183105469 -84.2770004272461,100.06600189208984 C-86.52899932861328,99.552001953125 -90.25499725341797,100.5459976196289 -92.43099975585938,101.31999969482422 C-94.33100128173828,101.55799865722656 -96.4489974975586,102.08799743652344 -98.66300201416016,102.63999938964844 C-106.35399627685547,104.55999755859375 -115.22699737548828,106.7760009765625 -120.2770004272461,98.18399810791016 C-120.2770004272461,98.18399810791016 -106.80899810791016,95.25299835205078 -106.80899810791016,95.25299835205078 C-100.20800018310547,93.54399871826172 -88.04000091552734,86.14199829101562 -88.04000091552734,86.14199829101562 C-88.04000091552734,86.14199829101562 -80.24400329589844,87.19999694824219 -80.24400329589844,87.19999694824219 C-78.8479995727539,88.44400024414062 -77.447998046875,89.62799835205078 -76.0459976196289,90.75599670410156 C-80.16200256347656,85.44599914550781 -82.8270034790039,78.86000061035156 -82.84500122070312,70.70600128173828 C-82.84500122070312,70.70600128173828 -73.37200164794922,73.33000183105469 -73.37200164794922,73.33000183105469 C-73.37200164794922,73.33000183105469 -73.82599639892578,94.12000274658203 -46.19499969482422,106.81600189208984 C-26.426000595092773,112.80599975585938 -8.414999961853027,109.93199920654297 3.3480000495910645,105.26799774169922 C6.290999889373779,104.11399841308594 8.819999694824219,102.0979995727539 10.604999542236328,99.48600006103516 C12.38599967956543,96.8740005493164 13.340999603271484,93.78600311279297 13.343000411987305,90.6240005493164 C13.020000457763672,16.70199966430664 96.26200103759766,18.302000045776367 96.26200103759766,18.302000045776367 C96.26200103759766,18.302000045776367 87.01699829101562,3.308000087738037 87.01699829101562,3.308000087738037 C57.979000091552734,-44.70000076293945 77.8550033569336,-115.35600280761719 77.8550033569336,-115.35600280761719 C71.58000183105469,-46.70600128173828 92.21399688720703,-15.0600004196167 92.21399688720703,-15.0600004196167z"/></g></g><g transform="matrix(1,0,0,1,574.7890014648438,544.1539916992188)" opacity="1" style="display: block;"><g opacity="1" transform="matrix(1,0,0,1,17.97100067138672,22.766000747680664)"><path fill="rgb(73,73,73)" fill-opacity="0.06" d=" M-17.97100067138672,-22.766000747680664 C-17.97100067138672,-22.766000747680664 33.082000732421875,4.375 -11.475000381469727,22.766000747680664 C-11.475000381469727,22.766000747680664 26.459999084472656,14.744999885559082 16.21500015258789,-5.8979997634887695 C16.291000366210938,-5.8979997634887695 9.993000030517578,-18.167999267578125 -17.97100067138672,-22.766000747680664z"/></g></g><g transform="matrix(1,0,0,1,412.04998779296875,294.0879821777344)" opacity="1" style="display: block;"><g opacity="1" transform="matrix(1,0,0,1,89.7030029296875,119.86299896240234)"><path fill="rgb(73,73,73)" fill-opacity="0.06" d=" M33.92399978637695,-109.79900360107422 C40.41400146484375,-110.58499908447266 46.986000061035156,-110.45899963378906 53.44200134277344,-109.4229965209961 C55.159000396728516,-109.06500244140625 56.71799850463867,-108.1729965209961 57.9010009765625,-106.87699890136719 C59.082000732421875,-105.58100128173828 59.82699966430664,-103.94499969482422 60.02799987792969,-102.20099639892578 C60.224998474121094,-100.45899963378906 59.869998931884766,-98.6969985961914 59.0099983215332,-97.16699981689453 C58.15299987792969,-95.63700103759766 56.83300018310547,-94.41699981689453 55.24100112915039,-93.67900085449219 C33.92499923706055,-83.68299865722656 -10.15999984741211,-57.143001556396484 -21.854000091552734,-5.7129998207092285 C-21.854000091552734,-5.7129998207092285 -33.97600173950195,25.548999786376953 -37.7239990234375,75.20500183105469 C-37.84600067138672,76.74700164794922 -38.34700012207031,78.23500061035156 -39.1870002746582,79.53399658203125 C-40.027000427246094,80.83300018310547 -41.178001403808594,81.9010009765625 -42.534000396728516,82.6449966430664 C-43.888999938964844,83.38899993896484 -45.40999984741211,83.78399658203125 -46.95600128173828,83.79299926757812 C-48.50400161743164,83.8030014038086 -50.027000427246094,83.42900085449219 -51.393001556396484,82.7030029296875 C-63.03900146484375,76.42900085449219 -79.75800323486328,62.435001373291016 -89.7040023803711,31.597000122070312 C-89.7040023803711,31.597000122070312 -60.612998962402344,116.38899993896484 -40.49700164794922,119.86399841308594 C-40.49700164794922,119.86399841308594 -29.975000381469727,96.22100067138672 -29.975000381469727,96.22100067138672 C-29.975000381469727,96.22100067138672 -25.466999053955078,15.074000358581543 -6.422999858856201,-14.48900032043457 C-6.422999858856201,-14.48900032043457 23.70199966430664,-89.68099975585938 89.7030029296875,-94.22899627685547 C89.8030014038086,-94.17900085449219 69.81099700927734,-139.43699645996094 33.92399978637695,-109.79900360107422z"/></g></g><g transform="matrix(1,0,0,1,313.38800048828125,304.1519775390625)" opacity="1" style="display: block;"><g opacity="1" transform="matrix(1,0,0,1,111.09600067138672,175.25999450683594)"><path fill="rgb(73,73,73)" fill-opacity="0.06" d=" M-35.04899978637695,-65.00199890136719 C-52.91699981689453,-72.5739974975586 -73.28500366210938,-93.83999633789062 -73.28500366210938,-93.83999633789062 C-45.583797454833984,-80.71240234375 -22.652000427246094,-78.14700317382812 -22.75200080871582,-78.14700317382812 C-16.6299991607666,-112.08399963378906 33.349998474121094,-123.62999725341797 33.349998474121094,-123.62999725341797 C50.444000244140625,-123.62999725341797 111.09600067138672,-175.25999450683594 111.09600067138672,-175.25999450683594 C86.15599822998047,-140.07200622558594 42.02199935913086,-110.78399658203125 42.02199935913086,-110.78399658203125 C8.585000038146973,-107.41000366210938 -1.0870000123977661,-84.16999816894531 -1.0870000123977661,-84.16999816894531 C-44.64500045776367,-24.417999267578125 36.67399978637695,54.45199966430664 36.67399978637695,54.45199966430664 C36.67399978637695,54.45199966430664 32.97600173950195,71.2959976196289 32.97600173950195,71.2959976196289 C33.2599983215332,123.22899627685547 74.11599731445312,136.93499755859375 81.447998046875,136.53599548339844 C74.25199890136719,191.51800537109375 -9.258999824523926,171.83200073242188 -9.258999824523926,171.83200073242188 C25.90399932861328,175.85299682617188 45.172000885009766,166.9340057373047 55.417999267578125,157.93499755859375 C56.683998107910156,156.81300354003906 57.6349983215332,155.3800048828125 58.17499923706055,153.77499389648438 C58.71500015258789,152.1739959716797 58.827999114990234,150.45599365234375 58.5,148.79600524902344 C58.172000885009766,147.13600158691406 57.41400146484375,145.58999633789062 56.30400085449219,144.31300354003906 C55.19200134277344,143.03599548339844 53.768001556396484,142.07400512695312 52.167999267578125,141.51800537109375 C35.42399978637695,135.1199951171875 27.577999114990234,112.50399780273438 24.354000091552734,99.18399810791016 C23.45800018310547,95.52999877929688 21.47599983215332,92.23400115966797 18.670000076293945,89.72699737548828 C15.86400032043457,87.22000122070312 12.366000175476074,85.62200164794922 8.63599967956543,85.13999938964844 C-11.555999755859375,82.41600036621094 -36.22200012207031,89.33799743652344 -36.22200012207031,89.33799743652344 C-33.68600082397461,86.18900299072266 -31.107999801635742,83.37999725341797 -28.516000747680664,80.87200164794922 C-28.58799934387207,80.9020004272461 -28.62700080871582,80.91600036621094 -28.62700080871582,80.91600036621094 C-15.880999565124512,69.4219970703125 -19.27899932861328,51.85200119018555 -26.527000427246094,36.15800094604492 C-33.775001525878906,20.465999603271484 -46.994998931884766,4.372000217437744 -62.7130012512207,-2.8259999752044678 C-88.15299987792969,-14.397000312805176 -111.09500122070312,-42.81100082397461 -111.09500122070312,-42.81100082397461 C-111.09500122070312,-42.81100082397461 -73.28199768066406,-21.694000244140625 -73.28199768066406,-21.694000244140625 C-24.847999572753906,-10.20199966430664 -10.204000473022461,45.7140007019043 -6.464000225067139,65.8239974975586 C-2.1700000762939453,63.93199920654297 1.88100004196167,62.67399978637695 5.511000156402588,61.847999572753906 C6.999000072479248,61.518001556396484 8.380000114440918,60.810001373291016 9.513999938964844,59.790000915527344 C10.64799976348877,58.76900100708008 11.498000144958496,57.4739990234375 11.984000205993652,56.02799987792969 C12.468000411987305,54.582000732421875 12.571000099182129,53.034000396728516 12.282999992370605,51.5359992980957 C11.993000030517578,50.03799819946289 11.321999549865723,48.641998291015625 10.333999633789062,47.479000091552734 C-22.652000427246094,8.244000434875488 -26.052000045776367,-28.739999771118164 -24.902000427246094,-48.20800018310547 C-24.652000427246094,-51.71200180053711 -25.493999481201172,-55.20800018310547 -27.312000274658203,-58.2140007019043 C-29.128000259399414,-61.22200012207031 -31.83099937438965,-63.59199905395508 -35.04899978637695,-65.00199890136719z"/></g></g><g clip-path="url(#__lottie_element_3267)" transform="matrix(1,0,0,1,0,0)" opacity="1" style="display: block;"><g transform="matrix(1,0,0,1,83.62899780273438,552.27001953125)" opacity="1" style="display: block;"><g opacity="1" transform="matrix(1,0,0,1,53.7140007019043,49.77299880981445)"><path fill="rgb(247,247,247)" fill-opacity="1" d=" M-50.14099884033203,-35.40399932861328 C-50.14099884033203,-35.40399932861328 -21.077999114990234,-49.52299880981445 0.06400000303983688,-9.586999893188477 C0.06400000303983688,-9.586999893188477 35.58700180053711,-13.12600040435791 46.89400100708008,16.42799949645996 C53.4640007019043,33.60300064086914 41.986000061035156,49.52399826049805 23.663000106811523,47.999000549316406 C-7.136000156402588,45.4379997253418 -53.4630012512207,26.698999404907227 -50.14099884033203,-35.40399932861328z"/></g></g><g transform="matrix(1,0,0,1,75.36500549316406,527.0399780273438)" opacity="1" style="display: block;"><g opacity="1" transform="matrix(1,0,0,1,125.52799987792969,67.9520034790039)"><path stroke-linecap="round" stroke-linejoin="round" fill-opacity="0" stroke="rgb(73,73,73)" stroke-opacity="1" stroke-width="4" d=" M-46.518001556396484,-63.95199966430664 C-33.198001861572266,10.644000053405762 60.016998291015625,1.4520000219345093 107.25299835205078,28.312000274658203 C118.64900207519531,34.79199981689453 121.52799987792969,48.86600112915039 105.09200286865234,53.61600112915039 C95.26799774169922,56.45399856567383 65.99700164794922,58.00600051879883 37.07699966430664,58.854000091552734 C-8.413999557495117,60.1879997253418 -60.611000061035156,63.95199966430664 -92.03600311279297,31.031999588012695 C-121.52799987792969,0.1379999965429306 -115.76599884033203,-44.88399887084961 -113.2699966430664,-63.95199966430664"/></g></g><g transform="matrix(1,0,0,1,155.42599487304688,537.31201171875)" opacity="1" style="display: block;"><g opacity="1" transform="matrix(1,0,0,1,80.08100128173828,58.893001556396484)"><path fill="rgb(73,73,73)" fill-opacity="0.06" d=" M-80.08100128173828,-58.893001556396484 C-79.79399871826172,-54.11000061035156 -82.18900299072266,3.1419999599456787 33.89699935913086,24.393999099731445 C46.31100082397461,26.66900062561035 58.95500183105469,33.09000015258789 59.861000061035156,37.32099914550781 C61.90299987792969,46.85900115966797 50.180999755859375,54.465999603271484 -4.580999851226807,58.891998291015625 C-9.970999717712402,52.77899932861328 98.99299621582031,67.29399871826172 78.28700256347656,31.422000885009766 C78.28700256347656,31.422000885009766 54.37099838256836,18.93000030517578 36.62900161743164,11.876999855041504 C-28.315000534057617,-3.9059998989105225 -48.02399826049805,-14.121999740600586 -58.9370002746582,-24.40999984741211 C-58.9370002746582,-24.458999633789062 -66.28700256347656,-27.95599937438965 -80.08100128173828,-58.893001556396484z"/></g></g></g><g transform="matrix(1,0,0,1,488.74700927734375,110.6780014038086)" opacity="1" style="display: block;"><g opacity="1" transform="matrix(1,0,0,1,81.54199981689453,104.97699737548828)"><path fill="rgb(73,73,73)" fill-opacity="0.06" d=" M-81.54199981689453,-104.97699737548828 C-81.54199981689453,-104.97699737548828 -34.06100082397461,-33.22999954223633 -63,43.691001892089844 C-63.94599914550781,46.0989990234375 -63.94599914550781,48.777000427246094 -63,51.1870002746582 C-61.625999450683594,54.435001373291016 -58.25199890136719,57.28499984741211 -50.05400085449219,52.6609992980957 C-48.15999984741211,51.569000244140625 -45.965999603271484,51.106998443603516 -43.790000915527344,51.345001220703125 C-41.61600112915039,51.584999084472656 -39.57400131225586,52.50899887084961 -37.959999084472656,53.98699951171875 C-29.312999725341797,62.03300094604492 -10.196000099182129,76.0270004272461 21.242000579833984,80.17500305175781 C27.718000411987305,80.9729995727539 34.00400161743164,82.9010009765625 39.810001373291016,85.87300109863281 C47.356998443603516,89.80899810791016 57.159000396728516,95.86100006103516 62.595001220703125,102.94499969482422 C62.595001220703125,102.94499969482422 81.54199981689453,104.97699737548828 81.54199981689453,104.97699737548828 C73.30999755859375,91.94300079345703 53.72600173950195,73.33100128173828 7.447999954223633,63.957000732421875 C7.447999954223633,63.957000732421875 -34.06100082397461,60.382999420166016 -48.380001068115234,27.97100067138672 C-51.05400085449219,13.00100040435791 -14.418000221252441,-14.937000274658203 -81.54199981689453,-104.97699737548828z"/></g></g><g transform="matrix(1,0,0,1,212.7779998779297,321.3719787597656)" opacity="1" style="display: block;"><g opacity="1" transform="matrix(1,0,0,1,20.767000198364258,30.950000762939453)"><path fill="rgb(73,73,73)" fill-opacity="0.06" d=" M-3.625,-17.305999755859375 C-2.3550000190734863,-13.814000129699707 -1.3530000448226929,-10.229999542236328 -0.625,-6.585999965667725 C-0.03099999949336052,-3.6459999084472656 -0.10899999737739563,-0.6119999885559082 -0.8569999933242798,2.2920000553131104 C-1.6030000448226929,5.196000099182129 -2.996999979019165,7.892000198364258 -4.936999797821045,10.180000305175781 C-6.875,12.465999603271484 -9.307000160217285,14.284000396728516 -12.048999786376953,15.498000144958496 C-14.791000366210938,16.709999084472656 -17.770999908447266,17.285999298095703 -20.767000198364258,17.18000030517578 C-20.767000198364258,17.18000030517578 -16.7189998626709,30.950000762939453 -16.7189998626709,30.950000762939453 C-16.7189998626709,30.950000762939453 20.767000198364258,15.531000137329102 20.767000198364258,15.531000137329102 C20.767000198364258,15.531000137329102 -2.575000047683716,6.834000110626221 10.770999908447266,-30.950000762939453 C10.770999908447266,-30.950000762939453 -3.625,-17.305999755859375 -3.625,-17.305999755859375z"/></g></g></g></g></svg>