<svg xmlns="http://www.w3.org/2000/svg" width="150" height="150" viewBox="0 0 150 150" fill="none">
<path fill-rule="evenodd" clip-rule="evenodd" d="M108.008 121.53C108.008 121.53 128.008 123.042 127.973 130.203H81.631" fill="#ECECEC"/>
<path d="M108.607 121.53C108.607 121.53 129.062 123.042 129.026 130.203H81.631" stroke="#4A4A4A" stroke-width="1.875" stroke-linecap="round" stroke-linejoin="round"/>
<path fill-rule="evenodd" clip-rule="evenodd" d="M52.2348 69.0043C52.2348 69.0043 36.7512 58.2277 40.8998 52.0954C45.0057 46.0229 57.7002 54.0968 57.7002 54.0968" fill="white"/>
<path d="M52.2348 69.0043C52.2348 69.0043 36.7512 58.2277 40.8998 52.0954C45.0057 46.0229 57.7002 54.0968 57.7002 54.0968" stroke="#4A4A4A" stroke-width="1.875" stroke-linecap="round" stroke-linejoin="round"/>
<path fill-rule="evenodd" clip-rule="evenodd" d="M46.7022 54.4364C46.7022 54.4364 45.9396 55.9982 48.456 57.8019L50.4082 59.2016" fill="#F7F7F7"/>
<path d="M46.7022 54.4364C46.7022 54.4364 45.9396 55.9982 48.456 57.8019L50.4082 59.2016" stroke="#4A4A4A" stroke-width="1.875" stroke-linecap="round" stroke-linejoin="round"/>
<path fill-rule="evenodd" clip-rule="evenodd" d="M65.081 48.0783C65.081 48.0783 64.4683 34.6701 71.0319 34.2121C77.6583 33.7498 79.1264 50.5207 79.1264 50.5207" fill="white"/>
<path d="M65.081 48.0783C65.081 48.0783 64.4683 34.6701 71.0319 34.2121C77.6583 33.7498 79.1264 50.5207 79.1264 50.5207" stroke="#4A4A4A" stroke-width="1.875" stroke-linecap="round" stroke-linejoin="round"/>
<path fill-rule="evenodd" clip-rule="evenodd" d="M28.6208 81.2174C28.6208 81.2174 48.2588 79.1222 48.6501 82.2829C49.0414 85.445 47.8018 86.1022 51.0293 88.472C54.2583 90.8405 60.8519 111.52 60.8519 111.52C60.8519 111.52 54.4482 126.682 53.6885 126.691C52.9287 126.698 31.1229 125.805 30.8301 125.675C27.9739 124.416 25.8788 83.1349 25.8788 83.1349L28.6208 81.2174Z" fill="white"/>
<path fill-rule="evenodd" clip-rule="evenodd" d="M50.0314 105.122C50.0314 105.122 52.2106 105.122 50.7982 110.336C50.2727 112.271 49.8086 114.227 49.6101 116.224C49.3187 119.168 49.3373 121.575 49.2902 121.841C49.2245 122.221 44.7245 124.039 44.7245 124.039C44.7245 124.039 45.6313 103.742 50.0314 105.122Z" fill="#4A4A4A" fill-opacity="0.04"/>
<path fill-rule="evenodd" clip-rule="evenodd" d="M28.7086 90.1884C28.7086 90.1884 25.5182 92.5212 26.1437 95.1471C26.7778 96.4686 29.5341 97.763 31.9761 98.214C33.5756 98.5084 35.2451 98.2552 36.766 97.6763C44.6806 94.6606 40.1592 94.9722 39.2424 94.9878C33.8984 95.076 28.7086 90.1884 28.7086 90.1884Z" fill="#4A4A4A" fill-opacity="0.04"/>
<path fill-rule="evenodd" clip-rule="evenodd" d="M20.9754 85.9099C20.9754 85.9099 14.1933 80.1773 15.3715 77.2869C16.4326 74.6866 22.7334 74.4562 23.4932 74.5372" fill="white"/>
<mask id="mask0_1707_1303" style="mask-type:alpha" maskUnits="userSpaceOnUse" x="15" y="74" width="9" height="12">
<path d="M15.3715 77.288C14.1933 80.1771 20.9754 85.9096 20.9754 85.9096L23.4932 74.537C23.4189 74.5284 23.2918 74.5242 23.1218 74.5242C21.5524 74.5242 16.3297 74.9424 15.3715 77.288Z" fill="white"/>
</mask>
<g mask="url(#mask0_1707_1303)">
<path fill-rule="evenodd" clip-rule="evenodd" d="M22.0954 72.9383C22.0954 72.9383 17.8267 77.1715 18.9249 83.2711C20.0246 89.3706 23.9962 87.8628 24.3418 87.3464C24.6874 86.8301 25.0344 73.5698 24.9202 73.2256C24.8031 72.8814 22.0954 72.9383 22.0954 72.9383Z" fill="#4A4A4A" fill-opacity="0.04"/>
</g>
<path d="M20.9754 85.9099C20.9754 85.9099 14.1933 80.1774 15.3715 77.2869C16.4326 74.6866 22.7334 74.4562 23.4932 74.5373" stroke="#4A4A4A" stroke-width="1.875" stroke-linecap="round" stroke-linejoin="round"/>
<path fill-rule="evenodd" clip-rule="evenodd" d="M44.7986 72.3937C44.7986 72.3937 43.539 64.7878 40.6171 64.2985C37.9879 63.8575 34.6704 68.7949 34.3591 69.4435" fill="white"/>
<path d="M44.7986 72.3937C44.7986 72.3937 43.539 64.7878 40.6171 64.2985C37.9879 63.8575 34.6704 68.7949 34.3591 69.4435" stroke="#4A4A4A" stroke-width="1.875" stroke-linecap="round" stroke-linejoin="round"/>
<path fill-rule="evenodd" clip-rule="evenodd" d="M36.5939 105.608V130.187H26.2087C25.1119 130.187 24.2822 129.201 24.4793 128.127C24.7935 126.404 25.8003 124.079 28.8493 123.123L27.9467 101.945" fill="white"/>
<mask id="mask1_1707_1303" style="mask-type:alpha" maskUnits="userSpaceOnUse" x="24" y="101" width="13" height="30">
<path d="M28.8486 123.124C25.8011 124.079 24.7942 126.404 24.4786 128.127C24.283 129.201 25.1113 130.187 26.2081 130.187H36.5947V105.608L27.9475 101.945L28.8486 123.124Z" fill="white"/>
</mask>
<g mask="url(#mask1_1707_1303)">
<path fill-rule="evenodd" clip-rule="evenodd" d="M33.4252 105.116C33.4252 105.116 31.9372 105.281 33.8994 106.354L33.6123 122.846C33.6123 122.846 29.9249 125.78 30.6433 129.457C31.3602 133.134 37.1755 130.235 37.1755 130.235L36.5942 105.608L33.4252 105.116Z" fill="#4A4A4A" fill-opacity="0.04"/>
</g>
<path d="M36.5939 105.608V130.187H26.2087C25.1119 130.187 24.2822 129.201 24.4793 128.127C24.7935 126.404 25.8003 124.079 28.8493 123.123L27.9467 101.945" stroke="#4A4A4A" stroke-width="1.875" stroke-linecap="round" stroke-linejoin="round"/>
<path fill-rule="evenodd" clip-rule="evenodd" d="M25.2723 93.4029C24.2726 92.548 23.3872 91.4143 22.6446 89.9662C19.1428 83.1213 21.8734 74.7472 28.7455 71.2579C35.6147 67.7686 44.0248 70.4898 47.5266 77.3333C49.3217 80.8411 49.5602 84.2265 48.2449 86.9662" fill="white"/>
<mask id="mask2_1707_1303" style="mask-type:alpha" maskUnits="userSpaceOnUse" x="21" y="69" width="29" height="25">
<path d="M28.7444 71.2568C21.8737 74.7461 19.1432 83.1216 22.6449 89.9665C23.3861 91.4131 24.273 92.5483 25.2726 93.4032L48.2438 86.9651C49.5605 84.2268 49.322 80.8399 47.5269 77.3335C45.0591 72.5114 40.1578 69.7376 35.0738 69.7376C32.9416 69.7376 30.7752 70.2255 28.7444 71.2568Z" fill="white"/>
</mask>
<g mask="url(#mask2_1707_1303)">
<path fill-rule="evenodd" clip-rule="evenodd" d="M28.745 71.2573C28.745 71.2573 21.6115 82.6883 27.8124 89.4706C32.1938 94.2629 37.7692 94.7665 37.7692 94.7665L19.2137 96.3013L18.0341 83.0069L26.5228 69.2076L28.745 71.2573Z" fill="#4A4A4A" fill-opacity="0.04"/>
</g>
<path d="M25.2723 93.4029C24.2726 92.548 23.3872 91.4143 22.6446 89.9662C19.1428 83.1213 21.8734 74.7472 28.7455 71.2579C35.6147 67.7686 44.0248 70.4898 47.5266 77.3333C49.3217 80.8411 49.5602 84.2265 48.2449 86.9662" stroke="#4A4A4A" stroke-width="1.875" stroke-linecap="round" stroke-linejoin="round"/>
<path d="M28.9764 124.726L28.8679 123.351" stroke="#4A4A4A" stroke-width="1.875" stroke-linecap="round" stroke-linejoin="round"/>
<path fill-rule="evenodd" clip-rule="evenodd" d="M48.7552 104.691C48.7552 104.691 47.8498 103.87 45.5405 105.61C42.59 107.836 42.9556 119.628 42.9556 119.628C42.9556 119.628 38.4228 119.244 36.5934 121.199C34.7654 123.153 37.0789 124.416 37.0789 124.416L45.5405 122.544L48.7552 104.691Z" fill="#4A4A4A" fill-opacity="0.04"/>
<path fill-rule="evenodd" clip-rule="evenodd" d="M41.4697 104.845C38.5977 106.443 38.0079 111.484 37.9065 111.841L37.0797 104.223" fill="#4A4A4A" fill-opacity="0.04"/>
<path d="M36.594 130.187V107.204" stroke="#4A4A4A" stroke-width="1.875" stroke-linecap="round" stroke-linejoin="round"/>
<path fill-rule="evenodd" clip-rule="evenodd" d="M49.6548 89.5578C49.6548 89.5578 69.5041 94.2633 64.4529 130.186H33.35C33.35 130.186 33.7885 123.831 39.6023 122.819C44.3936 122.457 56.3455 122.932 56.3455 118.199" fill="white"/>
<mask id="mask3_1707_1303" style="mask-type:alpha" maskUnits="userSpaceOnUse" x="33" y="89" width="33" height="42">
<path d="M56.3441 118.198C56.3441 122.932 44.3936 122.457 39.6023 122.818C33.7885 123.83 33.35 130.187 33.35 130.187H64.4529C69.5041 94.2623 49.6548 89.5582 49.6548 89.5582" fill="white"/>
</mask>
<g mask="url(#mask3_1707_1303)">
<path fill-rule="evenodd" clip-rule="evenodd" d="M50.1332 81.9371L49.6277 85.5075C48.3281 88.1092 48.8936 91.2372 51.0086 93.2372C54.3261 96.3737 57.8993 101.029 57.7479 106.327C57.4894 115.268 56.9696 120.115 56.9696 120.115C56.9696 120.115 54.3033 123.627 53.6878 126.691C39.5452 126.792 36.6018 128.617 39.4024 123.978C42.2029 119.337 33.35 125.362 33.35 125.362V133.227C33.35 133.227 48.0482 135.392 51.8412 135.433C55.6371 135.475 66.4579 134.453 66.4579 134.453L70.0125 110.349C70.0125 110.349 64.0316 94.1106 63.269 92.8844C62.5064 91.6582 57.071 84.1006 55.0216 82.7735C52.9694 81.4449 50.1332 81.9371 50.1332 81.9371Z" fill="#4A4A4A" fill-opacity="0.04"/>
</g>
<path d="M49.6548 89.5578C49.6548 89.5578 69.5041 94.2633 64.4529 130.186H33.35C33.35 130.186 33.7885 123.831 39.6023 122.819C44.3936 122.457 56.3455 122.932 56.3455 118.199" stroke="#4A4A4A" stroke-width="1.875" stroke-linecap="round" stroke-linejoin="round"/>
<path fill-rule="evenodd" clip-rule="evenodd" d="M73.9522 130.187H61.3348C60.2309 130.187 59.3969 129.281 59.3741 128.181C59.2884 124.039 61.6533 121.109 63.3528 120.304C63.8569 120.065 64.1811 119.563 64.1725 119.009L63.667 88.4191L62.8786 82.0806C52.7105 79.523 41.9182 60.314 60.4223 49.8332C77.8295 39.9727 89.9299 59.2016 86.0697 70.0422C85.36 72.0337 87.1037 72.8374 88.9103 73.9469C97.3461 78.1233 121.177 107.42 111.573 127.031" fill="#ECECEC"/>
<mask id="mask4_1707_1303" style="mask-type:alpha" maskUnits="userSpaceOnUse" x="50" y="47" width="64" height="84">
<path d="M60.4227 49.833C41.9187 60.3137 52.7109 79.5227 62.8791 82.0803L63.666 88.4174L64.1729 119.009C64.1801 119.564 63.8573 120.065 63.3532 120.303C61.6523 121.109 59.2888 124.039 59.3745 128.181C59.3973 129.282 60.2299 130.187 61.3353 130.187H73.9512L111.572 127.03C121.177 107.42 97.3451 78.1244 88.9107 73.9466C87.1041 72.8371 85.3604 72.0334 86.0702 70.042C89.1834 61.2995 81.9172 47.1047 69.8597 47.1047C66.9649 47.1047 63.7931 47.924 60.4227 49.833Z" fill="white"/>
</mask>
<g mask="url(#mask4_1707_1303)">
<path fill-rule="evenodd" clip-rule="evenodd" d="M100.432 107.575C94.12 107.973 88.6618 111.902 87.385 118.442C86.5525 112.979 86.3282 112.979 86.3282 112.979C86.3282 112.979 87.4707 107.229 93.1875 106.266C96.2136 105.757 99.137 105.25 100.612 105.721C101.302 105.943 101.623 107.471 100.432 107.575Z" fill="#4A4A4A" fill-opacity="0.04"/>
</g>
<path d="M73.9522 130.187H61.3348C60.2309 130.187 59.3969 129.281 59.3741 128.181C59.2884 124.039 61.6533 121.109 63.3528 120.304C63.8569 120.065 64.1811 119.563 64.1725 119.009L63.667 88.4191L62.8786 82.0806C52.7105 79.523 41.9182 60.314 60.4223 49.8332C77.8295 39.9727 89.9299 59.2016 86.0697 70.0422C85.36 72.0337 87.1037 72.8374 88.9103 73.9469C97.3461 78.1233 121.177 107.42 111.573 127.031" stroke="#4A4A4A" stroke-width="1.875" stroke-linecap="round" stroke-linejoin="round"/>
<path d="M99.8214 105.401C95.16 104.728 91.3941 106.71 89.0291 109.141" stroke="#4A4A4A" stroke-width="1.875" stroke-linecap="round" stroke-linejoin="round"/>
<mask id="mask5_1707_1303" style="mask-type:alpha" maskUnits="userSpaceOnUse" x="75" y="99" width="17" height="32">
<path d="M75.4907 100.599V130.187H88.1167C89.9618 130.187 91.3985 127.696 91.0143 125.362C90.5901 122.771 88.5451 120.382 88.5451 120.382C88.0738 114.642 89.8575 102.356 89.9147 99.662L75.4907 100.599Z" fill="white"/>
</mask>
<g mask="url(#mask5_1707_1303)">
<path fill-rule="evenodd" clip-rule="evenodd" d="M87.0534 129.652C87.0534 129.652 88.2002 125.88 86.4993 124.694C85.5054 123.998 83.9202 124.362 81.898 124.112C80.06 123.884 78.956 121.745 80.0685 120.27C80.3713 119.869 80.8069 119.591 81.4267 119.567C82.2864 119.534 82.9719 119.506 83.4989 119.486C84.2872 119.452 84.897 118.806 84.8813 118.019C84.797 113.563 84.957 100.096 90.0839 101.386C89.1056 105.615 85.9324 117.999 87.7832 121.543C89.634 125.086 91.382 129.52 91.382 129.52L90.2938 131.281L87.0534 129.652Z" fill="#4A4A4A" fill-opacity="0.04"/>
</g>
<path d="M89.9153 99.6623C89.8567 102.356 88.073 114.642 88.5443 120.381C88.5443 120.381 90.5908 122.772 91.0149 125.361C91.3976 127.696 89.961 130.187 88.1173 130.187H75.4913V100.6" stroke="#4A4A4A" stroke-width="1.875" stroke-linecap="round" stroke-linejoin="round"/>
<path d="M73.1712 99.9331C73.1712 99.9331 75.7475 100.691 78.0882 99.6415" stroke="#4A4A4A" stroke-width="1.875" stroke-linecap="round" stroke-linejoin="round"/>
<path d="M85.0075 120.395L88.5449 120.452" stroke="#4A4A4A" stroke-width="1.875" stroke-linecap="round" stroke-linejoin="round"/>
<path fill-rule="evenodd" clip-rule="evenodd" d="M60.1174 52.6972C57.6482 54.5635 61.277 61.0884 61.277 61.0884C61.277 61.0884 55.5903 74.7227 66.3839 74.2718C67.9092 79.7085 70.2613 83.3244 70.2613 83.3244L83.7555 79.7085L84.9522 72.5122L76.8877 67.6303C76.8877 67.6303 82.3874 58.5023 69.3244 57.5137C65.8841 53.124 62.3652 50.9988 60.1174 52.6972Z" fill="white"/>
<path fill-rule="evenodd" clip-rule="evenodd" d="M76.2869 61.0889C76.6654 61.4261 76.9881 61.803 77.2566 62.2027C78.7333 64.4104 78.0378 67.4204 75.7742 68.8201C73.6506 70.1302 70.3588 69.7233 67.2884 63.9453" fill="white"/>
<path fill-rule="evenodd" clip-rule="evenodd" d="M67.1059 64.27C69.1367 66.7366 71.5331 69.8845 69.2424 72.6939C67.6586 74.637 64.7138 74.7209 62.6417 73.3041C61.9733 72.8475 61.3921 72.2472 60.9922 71.5189" fill="white"/>
<path d="M76.2869 61.0889C76.6653 61.4261 76.9881 61.803 77.2565 62.2027C78.7332 64.4104 78.0377 67.4204 75.7742 68.8201C73.6506 70.1302 70.3588 69.7233 67.2883 63.9453" stroke="#4A4A4A" stroke-width="1.875" stroke-linecap="round" stroke-linejoin="round"/>
<path d="M67.1058 64.27C69.1366 66.7366 71.533 69.8845 69.2423 72.6939C67.6585 74.637 64.7137 74.7209 62.6415 73.3041C61.9732 72.8475 61.3919 72.2472 60.9921 71.5189" stroke="#4A4A4A" stroke-width="1.875" stroke-linecap="round" stroke-linejoin="round"/>
<path fill-rule="evenodd" clip-rule="evenodd" d="M70.156 60.2028C70.8358 61.3308 70.086 64.7618 68.1395 65.7603C66.193 66.7603 63.2411 65.8684 62.5613 64.7404C61.8815 63.611 63.0312 61.6821 65.1276 60.4289C67.2241 59.1757 69.4748 59.0747 70.156 60.2028Z" fill="#ECECEC"/>
<mask id="mask6_1707_1303" style="mask-type:alpha" maskUnits="userSpaceOnUse" x="62" y="59" width="9" height="8">
<path d="M65.1283 60.4289C63.0304 61.6821 61.8808 63.611 62.5606 64.7404C63.2418 65.8699 66.1923 66.7603 68.1402 65.7603C70.0867 64.7618 70.835 61.3308 70.1567 60.2028C69.8382 59.6779 69.1813 59.419 68.3573 59.419C67.4119 59.419 66.248 59.7589 65.1283 60.4289Z" fill="white"/>
</mask>
<g mask="url(#mask6_1707_1303)">
<path fill-rule="evenodd" clip-rule="evenodd" d="M63.378 64.4965C63.378 64.4965 66.3414 61.6003 69.229 62.3016C72.1152 63.0029 69.6717 59.4183 69.6717 59.4183C69.6717 59.4183 66.6984 59.0513 66.27 59.5506C65.8415 60.0498 62.7997 62.6828 62.8682 63.239C62.9353 63.7966 63.378 64.4965 63.378 64.4965Z" fill="#4A4A4A" fill-opacity="0.04"/>
</g>
<path fill-rule="evenodd" clip-rule="evenodd" d="M70.156 60.2028C70.8358 61.3308 70.086 64.7618 68.1395 65.7603C66.193 66.7603 63.2411 65.8684 62.5613 64.7404C61.8815 63.611 63.0312 61.6821 65.1276 60.4289C67.2241 59.1757 69.4748 59.0747 70.156 60.2028Z" stroke="#4A4A4A" stroke-width="1.875" stroke-linecap="round" stroke-linejoin="round"/>
<path d="M140.105 130.148L17.3104 130.187" stroke="#4A4A4A" stroke-width="1.875" stroke-linecap="round" stroke-linejoin="round"/>
<path d="M48.9352 105.122C45.9047 108.88 45.5405 121.841 45.5405 121.841" stroke="#4A4A4A" stroke-width="1.875" stroke-linecap="round" stroke-linejoin="round"/>
<path d="M40.7346 105.116C36.1261 106.223 33.4255 105.116 33.4255 105.116" stroke="#4A4A4A" stroke-width="1.875" stroke-linecap="round" stroke-linejoin="round"/>
<path d="M71.5939 56.1534L72.0966 56.8191" stroke="#4A4A4A" stroke-width="1.5" stroke-linecap="round" stroke-linejoin="round"/>
<path d="M58.4424 64.4104L58.9451 65.0761" stroke="#4A4A4A" stroke-width="1.5" stroke-linecap="round" stroke-linejoin="round"/>
<path d="M39.3162 78.0974L39.7104 78.6209" stroke="#4A4A4A" stroke-width="1.5" stroke-linecap="round" stroke-linejoin="round"/>
<path d="M29.1215 84.8709L29.5157 85.393" stroke="#4A4A4A" stroke-width="1.5" stroke-linecap="round" stroke-linejoin="round"/>
<path fill-rule="evenodd" clip-rule="evenodd" d="M33.2385 84.6125C34.091 84.7974 35.1636 83.6836 34.8565 82.4816Z" fill="white"/>
<path d="M33.2385 84.6125C34.091 84.7974 35.1636 83.6836 34.8565 82.4816" stroke="#4A4A4A" stroke-width="1.5" stroke-linecap="round" stroke-linejoin="round"/>
<path fill-rule="evenodd" clip-rule="evenodd" d="M37.474 81.9037C37.2883 82.7529 35.8259 83.2593 34.8563 82.4812Z" fill="white"/>
<path d="M37.474 81.9037C37.2883 82.7529 35.8259 83.2593 34.8563 82.4812" stroke="#4A4A4A" stroke-width="1.5" stroke-linecap="round" stroke-linejoin="round"/>
<path fill-rule="evenodd" clip-rule="evenodd" d="M72.9634 82.4857C69.8416 83.16 66.4341 82.9779 62.8781 82.0803C61.2943 81.6806 63.6664 88.4189 63.6664 88.4189C76.1153 92.8029 90.1179 81.1273 88.9097 73.9467C88.7098 72.7575 87.7058 72.335 86.0706 70.042C84.1227 74.9111 81.4378 78.2596 78.2403 80.3165" fill="#F7F7F7"/>
<path d="M72.9634 82.4857C69.8416 83.16 66.4341 82.9779 62.8781 82.0803C61.2943 81.6806 63.6664 88.4189 63.6664 88.4189C76.1153 92.8029 90.1179 81.1273 88.9097 73.9467C88.7098 72.7575 87.7058 72.335 86.0706 70.042C84.1227 74.9111 81.4378 78.2596 78.2403 80.3165" stroke="#4A4A4A" stroke-width="1.875" stroke-linecap="round" stroke-linejoin="round"/>
<path fill-rule="evenodd" clip-rule="evenodd" d="M70.2606 39.7394C70.2606 39.7394 71.8158 39.8475 72.0957 42.5971L72.3128 44.7294" fill="#F7F7F7"/>
<path d="M70.2606 39.7394C70.2606 39.7394 71.8158 39.8475 72.0957 42.5971L72.3128 44.7294" stroke="#4A4A4A" stroke-width="1.875" stroke-linecap="round" stroke-linejoin="round"/>
<path d="M33.6499 81.8189L34.6881 81.0948" stroke="#4A4A4A" stroke-width="1.5" stroke-linecap="round" stroke-linejoin="round"/>
<path fill-rule="evenodd" clip-rule="evenodd" d="M34.3473 96.8771C32.3151 96.8472 30.0901 96.3408 27.6908 95.1545C27.6908 95.1545 27.2467 98.7662 28.612 99.5812C35.3669 103.614 48.2028 99.2768 50.365 90.1887C50.1836 89.156 49.4124 87.9312 48.7612 87.3195C48.4599 87.0379 48.3799 86.577 48.2442 86.9654C47.6344 88.7392 44.8567 92.9454 41.0651 95.1076" fill="#F7F7F7"/>
<path d="M34.3473 96.8771C32.3151 96.8472 30.0901 96.3408 27.6908 95.1545C27.6908 95.1545 27.2467 98.7662 28.612 99.5812C35.3669 103.614 48.2028 99.2768 50.365 90.1887C50.1836 89.156 49.4124 87.9312 48.7612 87.3195C48.4599 87.0379 48.3799 86.577 48.2442 86.9654C47.6344 88.7392 44.8567 92.9454 41.0651 95.1076" stroke="#4A4A4A" stroke-width="1.875" stroke-linecap="round" stroke-linejoin="round"/>
<path fill-rule="evenodd" clip-rule="evenodd" d="M38.234 96.3312C38.0026 96.4023 37.7656 96.4663 37.5256 96.5246Z" fill="#F7F7F7"/>
<path d="M38.234 96.3312C38.0026 96.4023 37.7656 96.4663 37.5256 96.5246" stroke="#4A4A4A" stroke-width="1.875" stroke-linecap="round" stroke-linejoin="round"/>
<path d="M13.5349 130.187H9" stroke="#4A4A4A" stroke-width="1.875" stroke-linecap="round" stroke-linejoin="round"/>
</svg>