<svg xmlns="http://www.w3.org/2000/svg" xmlns:xlink="http://www.w3.org/1999/xlink" height="196" viewBox="0 0 289 196" width="289"><mask id="a" fill="#fff"><path d="m138.639 1.005c-36.28275 1.6845-70.962 11.313-90.7635 22.24875-3.70875 2.04825-7.99725 4.6785-11.31675 6.9405-3.4785 2.37-5.96775 5.25075-8.997 7.83375-7.48425 6.3825-13.56375 13.38225-18.078 20.838-.75975 1.2555-2.16675 4.42275-2.83725 5.70375-1.12425 2.1465-2.1765 4.4385-3.0435 6.65025-2.75175 7.02375-3.43875 12.345-3.43875 19.86675 0 9.819 2.445 19.3635 7.0755 28.35375.9405 1.8255 1.518 3.723 2.637 5.5005 1.26525 2.0115 3.09675 3.89625 4.584 5.84025 3.1425 4.10475 6.7725 8.0505 10.86075 11.805 3.375 3.09825 6.1815 5.02575 10.164 7.84575 3.58275 2.5365 7.00575 5.72475 11.055 8.0085 3.02025 1.70325 7.44825 3.60375 10.716 5.15325 11.54925 5.478 24.6135 8.01675 38.96775 11.265 1.61175.3645 3.1005 1.0365 4.7445 1.3695 2.05725.417 4.27875.48675 6.3855.8535 3.294.573 5.26725 1.3875 8.67825 1.833 2.385.31125 6.177.28725 8.61675.534 8.25975.83625 13.5 1.2585 22.35 1.311.57225.00375 4.7355.7875 5.31.7875.9585 0 6.39825-.83475 7.35-.84375 9.53775-.09525 14.004-.579 22.84575-1.5825 1.34925-.153 2.73-.13575 4.10325-.1185 1.53375.0195 3.06.03825 4.52625-.18 4.0785-.606 7.8945-2.115 11.79825-2.90475 24.83475-5.02725 46.0305-11.7405 62.49825-22.854 9.60975-8.7495.993-22.08525-7.446-27.09-2.90175-1.72125-6.4395-1.9905-9.582-.76125l-3.5535 1.3905-87.50175-42.6255s3.546-44.58975 7.44975-58.91325c1.16325-2.68125 2.62725-15.62775 1.5165-22.40625-.789-1.20975-5.05875-1.94175-5.63625-1.94625-1.257-.0105-6.72975-.64275-8.778-.64275-4.545 0-8.86575.732-13.26075.936" fill="#fff" fill-rule="evenodd"/></mask><mask id="b" fill="#fff"><path d="m138.639 1.005c-36.28275 1.6845-70.962 11.313-90.7635 22.24875-3.70875 2.04825-7.99725 4.6785-11.31675 6.9405-3.4785 2.37-5.96775 5.25075-8.997 7.83375-7.48425 6.3825-13.56375 13.38225-18.078 20.838-.75975 1.2555-2.16675 4.42275-2.83725 5.70375-1.12425 2.1465-2.1765 4.4385-3.0435 6.65025-2.75175 7.02375-3.43875 12.345-3.43875 19.86675 0 9.819 2.445 19.3635 7.0755 28.35375.9405 1.8255 1.518 3.723 2.637 5.5005 1.26525 2.0115 3.09675 3.89625 4.584 5.84025 3.1425 4.10475 6.7725 8.0505 10.86075 11.805 3.375 3.09825 6.1815 5.02575 10.164 7.84575 3.58275 2.5365 7.00575 5.72475 11.055 8.0085 3.02025 1.70325 7.44825 3.60375 10.716 5.15325 11.54925 5.478 24.6135 8.01675 38.96775 11.265 1.61175.3645 3.1005 1.0365 4.7445 1.3695 2.05725.417 4.27875.48675 6.3855.8535 3.294.573 5.26725 1.3875 8.67825 1.833 2.385.31125 6.177.28725 8.61675.534 8.25975.83625 13.5 1.2585 22.35 1.311.57225.00375 4.7355.7875 5.31.7875.9585 0 6.39825-.83475 7.35-.84375 9.53775-.09525 14.004-.579 22.84575-1.5825 1.34925-.153 2.73-.13575 4.10325-.1185 1.53375.0195 3.06.03825 4.52625-.18 4.0785-.606 7.8945-2.115 11.79825-2.90475 24.83475-5.02725 46.0305-11.7405 62.49825-22.854 9.60975-8.7495.993-22.08525-7.446-27.09-2.90175-1.72125-6.4395-1.9905-9.582-.76125l-3.5535 1.3905-87.50175-42.6255s3.546-44.58975 7.44975-58.91325c1.16325-2.68125 2.62725-15.62775 1.5165-22.40625-.789-1.20975-5.05875-1.94175-5.63625-1.94625-1.257-.0105-6.72975-.64275-8.778-.64275-4.545 0-8.86575.732-13.26075.936" fill="#fff" fill-rule="evenodd"/></mask><mask id="c" fill="#fff"><path d="m11.56125 6.126c2.7555 1.278 7.90275 3.054 11.613 4.59l-22.5405-10.33575c2.54325 1.3575 8.1345 4.44975 10.9275 5.74575zm15.99675 6.6c-.87525-.40575-1.56-.729-1.87575-.88725-.69825-.35025-1.5555-.72825-2.508-1.12275zm4.51875 2.07225-4.51875-2.07225c1.284.59625 2.97825 1.3725 4.51875 2.07225zm4.93875 2.265c-.37125-.20475-.735-.38775-1.08825-.5385-.51225-.2175-2.07975-.92175-3.8505-1.7265zm6.147 3.41175c.336.102 1.36875.2025 2.2965.45975l-8.4435-3.8715c1.989 1.09725 4.1835 2.814 6.147 3.41175zm3.6765 1.09275c-.08325-.05625-.165-.111-.24525-.1635-.3045-.1995-.70875-.351-1.13475-.4695zm3.26925 2.298c1.54275.85875 6.9135 3.018 7.5645 3.354.89175.459 2.71125.753 3.93825 1.122l-14.772-6.774c1.224.8265 2.718 1.9905 3.26925 2.298zm13.023 5.17275c-.30825-.186-.594-.34275-.8415-.45375-.19125-.08625-.4215-.1665-.67875-.243zm3.78675 2.40975c2.193 1.0995 6.3435 2.45475 9.393 3.63375l-13.17975-6.0435c1.2285.73875 2.81925 1.9245 3.78675 2.40975z" fill="#fff" fill-rule="evenodd"/></mask><g fill="none" fill-rule="evenodd"><g transform="translate(-.25 .681)"><path d="m152.718144 112.19295c0 14.95125 144.4366 28.94625 130.87281 40.9215-26.553225 23.442-75.225614 39.147-130.87281 39.147-84.0732792 0-152.22836093-35.84775-152.22836093-80.0685s68.15508173-80.0685 152.22836093-80.0685c12.114024 10.67175 0 35.84775 0 80.0685" fill="#494949" fill-opacity=".04"/><path d="m171.3479 83.97765s3.546-44.5905 7.4505-58.91325c1.1625-2.68125 2.6265-15.62775 1.51575-22.40625-.789-1.2105-5.05875-1.94175-5.637-1.94625-1.25625-.0105-6.729-.64275-8.77725-.64275-4.54425 0-8.8665.732-13.26075.936-36.28275 1.68375-70.962 11.31375-90.7635 22.24875-3.70875 2.04825-7.99725 4.6785-11.31675 6.9405-3.4785 2.36925-5.9685 5.25075-8.997 7.83375-7.48425 6.3825-13.56375 13.38225-18.078 20.838-.75975 1.25625-2.16675 4.42275-2.83725 5.70375-1.12425 2.14725-2.17725 4.4385-3.0435 6.65025-2.75175 7.023-3.4395 12.345-3.4395 19.86675 0 9.819 2.44575 19.3635 7.07625 28.35375.9405 1.8255 1.518 3.723 2.63625 5.5005 1.266 2.0115 3.0975 3.89625 4.5855 5.84025 3.14175 4.10475 6.77175 8.0505 10.86075 11.80425 3.37425 3.099 6.18 5.02575 10.16325 7.8465 3.58275 2.5365 7.00575 5.72475 11.055 8.0085 3.02025 1.70325 7.4475 3.60375 10.71525 5.15325 11.55 5.47725 24.61425 8.01675 38.9685 11.265 1.61175.3645 3.1005 1.03575 4.7445 1.3695 2.05725.417 4.278.48675 6.38475.8535 3.294.573 5.268 1.3875 8.679 1.833 2.385.31125 6.177.28725 8.61675.534 8.25975.83625 13.5 1.25775 22.35 1.311.57225.003 4.73475.7875 5.30925.7875.9585 0 6.39825-.83475 7.35075-.8445 9.53775-.09525 14.004-.57825 22.84575-1.58175 2.856-.324 5.85075.114 8.62875-.2985 4.07925-.60675 7.89525-2.11425 11.799-2.90475 24.834-5.02725 46.0305-11.7405 62.49825-22.854 9.60975-8.75025.993-22.08525-7.446-27.09075-2.9025-1.72125-6.4395-1.9905-9.582-.7605l-3.5535 1.3905" fill="#ececec"/></g><g transform="translate(13.75 .681)"><path d="m271.932525 138.4482s-34.88775 32.99625-126.9585 34.3635c-92.07075 1.36725-135.65775-58.257-135.65775-58.257l-21.8865-44.484s.75525 39.84075 9.5805 57.1335c26.41725 51.7695 141.6285 70.7955 141.6285 70.7955l144.6105-39.6885z" fill="#494949" fill-opacity=".04" mask="url(#a)"/><path d="m167.16765 14.2794c-25.0755-1.011-55.3875 1.52775-86.703 12.82725-79.248 28.593-48.87825 77.96475-39.70575 83.3715 9.17175 5.40675 121.03125-55.19475 121.03125-55.19475" fill="#494949" fill-opacity=".04" mask="url(#b)"/><g><path d="m157.3479 83.97765s3.546-44.5905 7.4505-58.91325c1.1625-2.68125 2.6265-15.62775 1.51575-22.40625-.789-1.2105-5.05875-1.94175-5.637-1.94625-1.25625-.0105-6.729-.64275-8.77725-.64275-4.54425 0-8.8665.732-13.26075.936-36.28275 1.68375-70.962 11.31375-90.7635 22.24875-3.70875 2.04825-7.99725 4.6785-11.31675 6.9405-3.4785 2.36925-5.9685 5.25075-8.997 7.83375-7.48425 6.3825-13.56375 13.38225-18.078 20.838-.75975 1.25625-2.16675 4.42275-2.83725 5.70375-1.12425 2.14725-2.17725 4.4385-3.0435 6.65025-2.75175 7.023-3.4395 12.345-3.4395 19.86675 0 9.819 2.44575 19.3635 7.07625 28.35375.9405 1.8255 1.518 3.723 2.63625 5.5005 1.266 2.0115 3.0975 3.89625 4.5855 5.84025 3.14175 4.10475 6.77175 8.0505 10.86075 11.80425 3.37425 3.099 6.18 5.02575 10.16325 7.8465 3.58275 2.5365 7.00575 5.72475 11.055 8.0085 3.02025 1.70325 7.4475 3.60375 10.71525 5.15325 11.55 5.47725 24.61425 8.01675 38.9685 11.265 1.61175.3645 3.1005 1.03575 4.7445 1.3695 2.05725.417 4.278.48675 6.38475.8535 3.294.573 5.268 1.3875 8.679 1.833 2.385.31125 6.177.28725 8.61675.534 8.25975.83625 13.5 1.25775 22.35 1.311.57225.003 4.73475.7875 5.30925.7875.9585 0 6.39825-.83475 7.35075-.8445 9.53775-.09525 14.004-.57825 22.84575-1.58175 2.856-.324 5.85075.114 8.62875-.2985 4.07925-.60675 7.89525-2.11425 11.799-2.90475 24.834-5.02725 46.0305-11.7405 62.49825-22.854 9.60975-8.75025.993-22.08525-7.446-27.09075-2.9025-1.72125-6.4395-1.9905-9.582-.7605l-3.5535 1.3905" stroke="#494949" stroke-linecap="round" stroke-linejoin="round" stroke-width="1.5"/><path d="m155.81055 83.081775c-3.048-1.179-7.19925-2.5335-9.39225-3.633-1.2105-.60675-3.396-2.3115-4.629-2.86425-1.104-.495-3.53775-.80925-4.617-1.365-.651-.336-6.021-2.4945-7.5645-3.354-.588-.32775-2.2515-1.63275-3.51375-2.46075-.969-.636-2.94075-.78075-3.43125-.93-2.33025-.70875-4.9845-2.994-7.236-3.9495-1.26-.5355-8.93325-4.029-10.24425-4.68675-3.417-1.71375-10.65825-4.10625-14.121-5.71275-2.793-1.296-8.38425-4.38825-10.92825-5.74575" fill="#fff"/><path d="m164.7981 25.06455c-.21075-.01275-1.995-.28725-2.3595-.35925-.50775-.1005-1.02375-.2145-1.152-.219-1.212-.04575-2.39925-.31425-3.5715-.6465-.915-.25875-1.755-.16125-2.565.048-1.0755.2775-2.1735.4545-3.2805.46275-6.7245.05025-13.31625.38025-19.7325.969-.86625.0795-1.7385.02475-2.5935-.1455-2.81025-.558-4.27725-.009-6.405.867-.684.282-1.40475.47625-2.13225.5805-31.173 4.452-57.2595 15.11775-72.80475 29.2155-1.3155 1.1925-3.09 3.68025-4.251 4.92-1.668 1.78125-2.63775 2.34-3.97125 4.2105-2.76075 3.8745-4.782 7.92975-5.97825 12.12225-.35625 1.25025-1.0215 2.8935-1.2285 4.16775-.27825 1.70775-.039 3.05475-.039 4.79925 0 10.3965 5.0385 20.193 13.93725 28.788.81525.78675 1.60425 2.06475 2.48325 2.83125 1.0575.9225 2.21925 1.329 3.36675 2.22075 17.03025 13.22775 43.758 22.9155 75.02475 26.42925 8.41425.945 13.98.27525 22.95075.27525 6.618 0 16.2885.897 22.617.37575 7.41225-.61125 14.922-2.274 21.8175-3.54 8.89275-1.63125 16.97925-3.072 24.7665-5.66625 9.36375-3.11925 17.82825-6.88275 25.152-11.1675l-8.3655-5.11725c-6.18825-2.82975-14.859-6.83925-18.69375-8.8155-1.9395-.999-5.64-3.3795-7.6125-4.30125-1.99575-.93375-6.2145-2.1825-8.21925-3.09225-2.4435-1.10925-7.0155-4.0635-9.49125-5.0865-.942-.3885-2.96475-.72975-3.88875-1.1625-1.038-.48675-2.82525-2.04-3.85425-2.547-3.6195-1.78275-11.39925-3.90225-15.07575-5.54775-3.09075-1.38225-3.29025-2.5755-8.57625-5.39475" fill="#fcfcfc"/></g></g><path d="m140.00775-7.1649s-100.89075-28.287-161.28075 16.97175c-60.38925 45.25875 44.62125 93.69975 44.62125 93.69975l-84.423-53.4405 25.095-58.93275 106.08-25.1055 80.4075 8.724z" fill="#494949" mask="url(#c)" transform="translate(93.25 48.681)"/><g transform="translate(-8 19.431)"><path d="m177.56055 64.331775c-3.048-1.179-7.19925-2.5335-9.39225-3.633-1.2105-.60675-3.396-2.3115-4.629-2.86425-1.104-.495-3.53775-.80925-4.617-1.365-.651-.336-6.021-2.4945-7.5645-3.354-.588-.32775-2.2515-1.63275-3.51375-2.46075-.969-.636-2.94075-.78075-3.43125-.93-2.33025-.70875-4.9845-2.994-7.236-3.9495-1.26-.5355-8.93325-4.029-10.24425-4.68675-3.417-1.71375-10.65825-4.10625-14.121-5.71275-2.793-1.296-8.38425-4.38825-10.92825-5.74575" stroke="#494949" stroke-linecap="round" stroke-linejoin="round" stroke-width="1.5"/><path d="m186.5481 6.31455c-.21075-.01275-1.995-.28725-2.3595-.35925-.50775-.1005-1.02375-.2145-1.152-.219-1.212-.04575-2.39925-.31425-3.5715-.6465-.915-.25875-1.755-.16125-2.565.048-1.0755.2775-2.1735.4545-3.2805.46275-6.7245.05025-13.31625.38025-19.7325.969-.86625.0795-1.7385.02475-2.5935-.1455-2.81025-.558-4.27725-.009-6.405.867-.684.282-1.40475.47625-2.13225.5805-31.173 4.452-57.2595 15.11775-72.80475 29.2155-1.3155 1.1925-3.09 3.68025-4.251 4.92-1.668 1.78125-2.63775 2.34-3.97125 4.2105-2.76075 3.8745-4.782 7.92975-5.97825 12.12225-.35625 1.25025-1.0215 2.8935-1.2285 4.16775-.27825 1.70775-.039 3.05475-.039 4.79925 0 10.3965 5.0385 20.193 13.93725 28.788.81525.78675 1.60425 2.06475 2.48325 2.83125 1.0575.9225 2.21925 1.329 3.36675 2.22075 17.03025 13.22775 43.758 22.9155 75.02475 26.42925 8.41425.945 13.98.27525 22.95075.27525 6.618 0 16.2885.897 22.617.37575 7.41225-.61125 14.922-2.274 21.8175-3.54 8.89275-1.63125 16.97925-3.072 24.7665-5.66625 9.36375-3.11925 17.82825-6.88275 25.152-11.1675l-8.3655-5.11725c-6.18825-2.82975-14.859-6.83925-18.69375-8.8155-1.9395-.999-5.64-3.3795-7.6125-4.30125-1.99575-.93375-6.2145-2.1825-8.21925-3.09225-2.4435-1.10925-7.0155-4.0635-9.49125-5.0865-.942-.3885-2.96475-.72975-3.88875-1.1625-1.038-.48675-2.82525-2.04-3.85425-2.547-3.6195-1.78275-11.39925-3.90225-15.07575-5.54775-3.09075-1.38225-3.29025-2.5755-8.57625-5.39475" stroke="#494949" stroke-linecap="round" stroke-linejoin="round" stroke-width="1.5"/><g transform="translate(152.25 65.25)"><path d="m.269925 19.627875 5.169-3.0435 5.87325-4.72425 7.6275-4.41975 9.44925-7.01325" fill="#fff"/><path d="m.269925 19.627875 5.169-3.0435 5.87325-4.72425 7.6275-4.41975 9.44925-7.01325" stroke="#494949" stroke-linecap="round" stroke-linejoin="round" stroke-width="1.5"/></g><g transform="translate(107.25 96.75)"><path d="m.177675 18.3798 10.5405-7.13925 15.6405-11.11275" fill="#fff"/><path d="m.177675 18.3798 10.5405-7.13925 15.6405-11.11275" stroke="#494949" stroke-linecap="round" stroke-linejoin="round" stroke-width="1.5"/></g><path d="m82.747425 141.760575c.021.56025.069 1.10025.14625 1.6155" stroke="#494949" stroke-linecap="round" stroke-linejoin="round" stroke-width="1.5"/><path d="m96.86175 118.184475c-7.785 2.75475-12.9795 12.5445-13.95825 20.36925" stroke="#494949" stroke-linecap="round" stroke-linejoin="round" stroke-width="1.5"/><g transform="translate(145.5 38.25)"><path d="m16.9578 1.8222s-4.0725-3.537-9.25575.13875c-1.46175-1.35675-5.74425-2.87175-7.46325 1.9515" fill="#fff"/><path d="m16.9578 1.8222s-4.0725-3.537-9.25575.13875c-1.46175-1.35675-5.74425-2.87175-7.46325 1.9515" stroke="#494949" stroke-linecap="round" stroke-linejoin="round" stroke-width="1.5"/></g><path d="m173.589675 106.182675c0 6.27975-10.11375 11.37075-22.59 11.37075s-22.59-5.091-22.59-11.37075 10.11375-11.37075 22.59-11.37075 22.59 5.091 22.59 11.37075" fill="#494949" fill-opacity=".04"/><path d="m137.4588 100.002075c-.405 6.4515 6.1695 11.358 18.012 11.358 11.84325 0 18.44925-4.9065 18.04425-11.358-.04875-.77175 0-6.033 0-6.033-1.908-4.236-9.519-.66375-18.0285-.66375-7.89675 0-15.579-2.772-18.02775.66375 0 0 .07275 4.87275 0 6.033" fill="#e0e0e0"/><path d="m137.4588 100.002075c-.405 6.4515 6.1695 11.358 18.012 11.358 11.84325 0 18.44925-4.9065 18.04425-11.358-.04875-.77175 0-6.033 0-6.033-1.908-4.236-9.519-.66375-18.0285-.66375-7.89675 0-15.579-2.772-18.02775.66375 0 0 .07275 4.87275 0 6.033z" stroke="#494949" stroke-linecap="round" stroke-linejoin="round" stroke-width="1.5"/><g transform="translate(137.25 86.25)"><path d="m16.521675 19.031175c.5535.03 1.1205.04575 1.6995.04575 11.8425 0 18.4485-4.9065 18.0435-11.358-.27825-4.44075-5.8335-5.0265-11.7735-5.52825l.06375-1.70925c-1.94625-.1125-4.122.54075-6.318.54075-1.90725 0-4.4415-.38625-6.1665-.3075l.24 1.7115c-6.50925.41025-11.8065.58725-12.10125 5.29275-.303 4.8195 3.29025 8.0925 10.06575 10.224" fill="#f7f7f7"/><path d="m16.521675 19.031175c.5535.03 1.1205.04575 1.6995.04575 11.8425 0 18.4485-4.9065 18.0435-11.358-.27825-4.44075-5.8335-5.0265-11.7735-5.52825l.06375-1.70925c-1.94625-.1125-4.122.54075-6.318.54075-1.90725 0-4.4415-.38625-6.1665-.3075l.24 1.7115c-6.50925.41025-11.8065.58725-12.10125 5.29275-.303 4.8195 3.29025 8.0925 10.06575 10.224" stroke="#494949" stroke-linecap="round" stroke-linejoin="round" stroke-width="1.5"/></g><g transform="translate(150 104.25)"><path d="m.313875.6288c.14625.027.29325.0525.44175.07725" fill="#fff"/><path d="m.313875.6288c.14625.027.29325.0525.44175.07725" stroke="#494949" stroke-linecap="round" stroke-linejoin="round" stroke-width="1.5"/></g><g transform="translate(148.5 80.25)"><path d="m13.334475 9.643725s.14625-6.35475-.141-7.38525c-.83775-3.0045-12.195-2.6295-12.6855-.13425-.23175 1.182.552 6.3015.552 6.3015l.0975 1.218" fill="#f7f7f7"/><path d="m13.334475 9.643725s.14625-6.35475-.141-7.38525c-.83775-3.0045-12.195-2.6295-12.6855-.13425-.23175 1.182.552 6.3015.552 6.3015l.0975 1.218" stroke="#494949" stroke-linecap="round" stroke-linejoin="round" stroke-width="1.5"/></g><g transform="translate(204 108.75)"><path d="m23.992725 7.69665s-4.33575-8.61375-14.406-3.68925c-3.96375-5.42775-8.9325-2.49-8.9325-2.49" fill="#fff"/><path d="m23.992725 7.69665s-4.33575-8.61375-14.406-3.68925c-3.96375-5.42775-8.9325-2.49-8.9325-2.49" stroke="#494949" stroke-linecap="round" stroke-linejoin="round" stroke-width="1.5"/></g><g transform="translate(72 67.5)"><path d="m9.1989 3.553125s-4.06875-5.9745-8.8665-.86325" fill="#fff"/><path d="m9.1989 3.553125s-4.06875-5.9745-8.8665-.86325" stroke="#494949" stroke-linecap="round" stroke-linejoin="round" stroke-width="1.5"/></g><path d="m90.661575 20.4012c1.77975-5.6265.087-18.381-12.468-19.8585" stroke="#494949" stroke-linecap="round" stroke-linejoin="round" stroke-width="1.5"/><path d="m60.704775 154.8231-1.61625-.579c-1.33875-.47925-2.87625-.38325-4.113.258l-1.58475.822c-1.8255.9465-2.57175 2.84325-1.7715 4.50225.495 1.0245 1.515 1.81125 2.7825 2.145l2.48175.65325c1.68825.444 3.5325.0135 4.695-1.09575l.708-.6765c.663-.63225 1.04625-1.43325 1.0875-2.271l.0105-.21975c.075-1.52625-.99075-2.93325-2.67975-3.5385" fill="#494949" fill-opacity=".04"/><path d="m65.2656 153.7965-1.3425-.579c-1.1115-.47925-2.388-.38325-3.4155.258l-1.3155.822c-1.5165.9465-2.136 2.84325-1.4715 4.50225.411 1.0245 1.2585 1.81125 2.31075 2.145l2.061.65325c1.40175.444 2.93325.0135 3.8985-1.09575l.588-.6765c.5505-.63225.8685-1.43325.903-2.271l.009-.21975c.06225-1.52625-.82275-2.93325-2.22525-3.5385" fill="#e6e6e6"/><path d="m65.2656 153.7965-1.3425-.579c-1.1115-.47925-2.388-.38325-3.4155.258l-1.3155.822c-1.5165.9465-2.136 2.84325-1.4715 4.50225.411 1.0245 1.2585 1.81125 2.31075 2.145l2.061.65325c1.40175.444 2.93325.0135 3.8985-1.09575l.588-.6765c.5505-.63225.8685-1.43325.903-2.271l.009-.21975c.06225-1.52625-.82275-2.93325-2.22525-3.5385z" stroke="#494949" stroke-linecap="round" stroke-linejoin="round" stroke-width="1.5"/><g transform="translate(180 23.25)"><path d="m3.9282.63225c-.1005 3.177.11175 9.51225-.3885 12.651-.14175.89025-.678 2.62425-.77475 3.5205-.11325 1.0455.057 3.15675.006 4.2075-.264 5.3745-2.13225 21.41625-2.13225 21.41625" fill="#ececec"/><path d="m3.9282.63225c-.1005 3.177.11175 9.51225-.3885 12.651-.14175.89025-.678 2.62425-.77475 3.5205-.11325 1.0455.057 3.15675.006 4.2075-.264 5.3745-2.13225 21.41625-2.13225 21.41625" stroke="#494949" stroke-linecap="round" stroke-linejoin="round" stroke-width="1.5"/></g><g transform="translate(185.25 6)"><path d="m.1002 12.3468c.5175-2.97825 1.19775-12.03225 1.19775-12.03225" fill="#ececec"/><path d="m.1002 12.3468c.5175-2.97825 1.19775-12.03225 1.19775-12.03225" stroke="#494949" stroke-linecap="round" stroke-linejoin="round" stroke-width="1.5"/></g><path d="m111.31935 84.066525c0 3.42075-5.2845 6.1935-11.8035 6.1935s-11.8035-2.77275-11.8035-6.1935 5.2845-6.1935 11.8035-6.1935 11.8035 2.77275 11.8035 6.1935" fill="#494949" fill-opacity=".04"/><path d="m160.352625 17.0079c0 3.42075-5.2845 6.1935-11.8035 6.1935s-11.8035-2.77275-11.8035-6.1935 5.2845-6.1935 11.8035-6.1935 11.8035 2.77275 11.8035 6.1935" fill="#494949" fill-opacity=".04"/><path d="m100.9452 76.5216c-2.99175 1.08825-4.737-2.76825-5.0685-1.34625-.13575.585.32025 6.46725.4725 7.01925.32625 1.185 1.20825 2.2305 2.17425 2.87625 2.508 1.6755 9.003 2.877 15.8415.2895 3.64125-1.377 4.70475-3.5115 4.45275-5.37675-.06825-.507-.26625-5.60325-.50325-6.05025-.375-.70425-.8955 3.30075-1.52775 2.87775-2.508-1.6755-8.973-2.7885-15.8415-.2895" fill="#e0e0e0"/><path d="m100.9452 76.5216c-2.99175 1.08825-4.737-2.76825-5.0685-1.34625-.13575.585.32025 6.46725.4725 7.01925.32625 1.185 1.20825 2.2305 2.17425 2.87625 2.508 1.6755 9.003 2.877 15.8415.2895 3.64125-1.377 4.70475-3.5115 4.45275-5.37675-.06825-.507-.26625-5.60325-.50325-6.05025-.375-.70425-.8955 3.30075-1.52775 2.87775-2.508-1.6755-8.973-2.7885-15.8415-.2895z" stroke="#494949" stroke-linecap="round" stroke-linejoin="round" stroke-width="1.5"/><g transform="translate(95.25 69)"><path d="m7.1979 12.071325c3.11625.534 7.25625.39675 11.52975-1.22025 6.19275-2.343 4.9305-6.87375 2.42175-8.54925-2.508-1.67625-8.97225-2.7885-15.8415-.29025-6.8685 2.499-4.92975 6.87375-2.42175 8.54925.37725.252.8445.4935 1.38975.7125" fill="#f7f7f7"/><path d="m7.1979 12.071325c3.11625.534 7.25625.39675 11.52975-1.22025 6.19275-2.343 4.9305-6.87375 2.42175-8.54925-2.508-1.67625-8.97225-2.7885-15.8415-.29025-6.8685 2.499-4.92975 6.87375-2.42175 8.54925.37725.252.8445.4935 1.38975.7125" stroke="#494949" stroke-linecap="round" stroke-linejoin="round" stroke-width="1.5"/></g><path d="m104.9991 73.938c-2.2605.822-1.62225 2.262-.79725 2.81325.82575.55125 2.9625.9465 5.21325.09525 2.03775-.771 1.62225-2.262.7965-2.81325-.825-.55125-2.952-.91725-5.2125-.09525" fill="#e0e0e0"/><path d="m104.9991 73.938c-2.2605.822-1.62225 2.262-.79725 2.81325.82575.55125 2.9625.9465 5.21325.09525 2.03775-.771 1.62225-2.262.7965-2.81325-.825-.55125-2.952-.91725-5.2125-.09525z" stroke="#494949" stroke-linecap="round" stroke-linejoin="round" stroke-width="1.5"/><g transform="translate(105.75 80.25)"><path d="m.052575 10.418475c.76425-2.67075 4.34625-6.039 8.84775-5.727 2.96625-4.50225 7.30425-5.89725 13.893-2.35125" fill="#fcfcfc"/><path d="m.052575 10.418475c.76425-2.67075 4.34625-6.039 8.84775-5.727 2.96625-4.50225 7.30425-5.89725 13.893-2.35125" stroke="#494949" stroke-linecap="round" stroke-linejoin="round" stroke-width="1.5"/></g><path d="m212.08155 88.059075c0 3.9345-6.07875 7.125-13.578 7.125-7.4985 0-13.57725-3.1905-13.57725-7.125s6.07875-7.125 13.57725-7.125c7.49925 0 13.578 3.1905 13.578 7.125" fill="#494949" fill-opacity=".04"/><g transform="translate(188.25 78)"><path d="m12.451725 14.6625242c6.6465.0097258 12.03825-2.9227742 12.0435-6.5512742.00075-.55425.49125-5.06325.255-5.57775-1.3095-2.853-6.64875-1.0005-12.279-1.00875-5.763-.009-10.5855-2.52-11.7675.43125-.1815.45225-.27525 5.63775-.27600451 6.12-.00449549 2.86875 3.36150451 5.313 8.05650451 6.21525" fill="#e0e0e0"/><path d="m12.451725 14.6625242c6.6465.0097258 12.03825-2.9227742 12.0435-6.5512742.00075-.55425.49125-5.06325.255-5.57775-1.3095-2.853-6.64875-1.0005-12.279-1.00875-5.763-.009-10.5855-2.52-11.7675.43125-.1815.45225-.27525 5.63775-.27600451 6.12-.00449549 2.86875 3.36150451 5.313 8.05650451 6.21525" stroke="#494949" stroke-linecap="round" stroke-linejoin="round" stroke-width="1.5"/></g><g transform="translate(188.25 73.5)"><path d="m12.706425 13.5843992c6.64575.0097258 12.03825-2.9227742 12.0435038-6.5512742.0052462-3.62775-5.3782538-6.57675-12.0240038-6.58652424-6.64575-.00972576-12.03825 2.92277424-12.04350451 6.55127424-.00449549 2.86875 3.36150451 5.313 8.05650451 6.21525" fill="#f7f7f7"/><path d="m12.706425 13.5843992c6.64575.0097258 12.03825-2.9227742 12.0435038-6.5512742.0052462-3.62775-5.3782538-6.57675-12.0240038-6.58652424-6.64575-.00972576-12.03825 2.92277424-12.04350451 6.55127424-.00449549 2.86875 3.36150451 5.313 8.05650451 6.21525" stroke="#494949" stroke-linecap="round" stroke-linejoin="round" stroke-width="1.5"/></g><g transform="translate(196.5 78)"><path d="m4.469625.27666449c-2.265-.00373949-4.10325.99601051-4.10475207 2.23276051-.00224793 1.23675 1.83300207 2.24175 4.09800207 2.24476052 2.265.00373948 4.10325-.99601052 4.10475-2.23276052" fill="#e0e0e0"/><path d="m4.469625.27666449c-2.265-.00373949-4.10325.99601051-4.10475207 2.23276051-.00224793 1.23675 1.83300207 2.24175 4.09800207 2.24476052 2.265.00373948 4.10325-.99601052 4.10475-2.23276052" stroke="#494949" stroke-linecap="round" stroke-linejoin="round" stroke-width="1.5"/></g><g transform="translate(202.5 78)"><path d="m1.199925.849225c-.09375-.04575-.19125-.08925-.29175-.1305" fill="#e0e0e0"/><path d="m1.199925.849225c-.09375-.04575-.19125-.08925-.29175-.1305" stroke="#494949" stroke-linecap="round" stroke-linejoin="round" stroke-width="1.5"/></g><path d="m147.0927 10.97685c-2.925.57525-3.96825-3.1995-4.47375-1.93125-.20625.51825-.60675 5.86125-.54675 6.36825.12975 1.0845.77025 2.12625 1.542 2.832 2.00325 1.833 7.72125 3.909 14.62875 2.7675 3.8235-.63225 5.3355-2.40075 5.49075-4.16475.04275-.483.981-5.3505.8385-5.81775-.225-.73875-1.6455 3.0225-2.19075 2.526-2.163-1.96575-8.3235-3.95025-15.28875-2.58" fill="#e0e0e0"/><path d="m147.0927 10.97685c-2.925.57525-3.96825-3.1995-4.47375-1.93125-.20625.51825-.60675 5.86125-.54675 6.36825.12975 1.0845.77025 2.12625 1.542 2.832 2.00325 1.833 7.72125 3.909 14.62875 2.7675 3.8235-.63225 5.3355-2.40075 5.49075-4.16475.04275-.483.981-5.3505.8385-5.81775-.225-.73875-1.6455 3.0225-2.19075 2.526-2.163-1.96575-8.3235-3.95025-15.28875-2.58z" stroke="#494949" stroke-linecap="round" stroke-linejoin="round" stroke-width="1.5"/><g transform="translate(141.75 4.5)"><path d="m6.020175 10.818975c2.80725.9465 6.741 1.45875 11.18625.645 6.70275-1.22625 6.44625-5.77575 4.2405-7.77675-2.20275-1.99875-8.48475-3.951-15.59025-2.41875-6.75075 1.455-5.59125 5.709-3.55575 7.569.306.27975.696.56325 1.161.83775" fill="#ececec"/><path d="m6.020175 10.818975c2.80725.9465 6.741 1.45875 11.18625.645 6.70275-1.22625 6.44625-5.77575 4.2405-7.77675-2.20275-1.99875-8.48475-3.951-15.59025-2.41875-6.75075 1.455-5.59125 5.709-3.55575 7.569.306.27975.696.56325 1.161.83775" stroke="#494949" stroke-linecap="round" stroke-linejoin="round" stroke-width="1.5"/></g><path d="m151.353375 9.1353c-2.2935.45975-1.929 1.88625-1.24125 2.51325s2.6535 1.302 4.97625.8415c2.1375-.423 2.02125-1.893 1.31475-2.535-.70575-.642-2.71725-1.287-5.04975-.81975" fill="#e0e0e0"/><path d="m151.353375 9.1353c-2.2935.45975-1.929 1.88625-1.24125 2.51325s2.6535 1.302 4.97625.8415c2.1375-.423 2.02125-1.893 1.31475-2.535-.70575-.642-2.71725-1.287-5.04975-.81975z" stroke="#494949" stroke-linecap="round" stroke-linejoin="round" stroke-width="1.5"/></g><path d="m66.3270807 181.201418c-.1374159 0-.1632307.506565 0 .673143.1632306.166578.6596173.197996.6596173 0 0-.197995-.5222015-.673143-.6596173-.673143z" stroke="#4a4a4a" stroke-linecap="round" stroke-linejoin="round"/></g></svg>