<svg xmlns="http://www.w3.org/2000/svg" xmlns:xlink="http://www.w3.org/1999/xlink" height="165" viewBox="0 0 289 165" width="289"><mask id="a" fill="#fff"><path d="m.57414179 20.7795435c0 6.8818369 5.59981343 12.9793587 14.21708951 16.7483043l6.2376773 2.1720979c4.314431 1.1588369 9.095513 1.8027065 14.1308395 1.8027065 19.0992258 0 34.5849627-9.2771087 34.5849627-20.7231087 0-11.44535872-15.4857369-20.72246741-34.5849627-20.72246741-19.1030877 0-34.58560631 9.27710869-34.58560631 20.72246741zm22.13857281 15.8677935-5.4961847-1.8232283c-7.59128736-3.1584239-12.52298512-8.27475-12.52298512-14.0445652 0-9.5990435 13.64101682-17.37870654 30.46555972-17.37870654 16.8258302 0 30.4629851 7.78030434 30.4629851 17.37870654 0 9.5958369-13.6371549 17.3793478-30.4629851 17.3793478-4.4341511 0-8.647528-.5399783-12.4463899-1.5115543z" fill="#fff" fill-rule="evenodd"/></mask><mask id="b" fill="#fff"><path d="m31.4896175.88820652-29.62944959 14.79040218c-1.58983209.7932935-2.23220149 2.7197717-1.43599813 4.3025109.79491604 1.5833804 2.70142723 1.9803478 3.44806903 1.8033478l28.06600749-13.94708697 17.1547388 23.39285867 4.9767537-4.0851087-18.5398881-25.28149997c-.6237033-.85036956-1.6001306-1.31531521-2.6003731-1.31531521-.4872481 0-.9796455.11030434-1.4398601.3398913" fill="#fff" fill-rule="evenodd"/></mask><mask id="c" fill="#fff"><path d="m9.09075 39.01675-8.0205 21.621c-.42975 1.15725-.65925 2.37525-.68241567 3.60075-.01508433.8085.25191567 3.40425.45516567 5.2485.10875.98175 1.13625 1.57575 2.03925 1.17525 10.89075-4.8315 66.30625-34.9263615 85.11775-44.8391115-33.2415793-15.4132898-54.715775-23.77887154-64.422587-25.09674529-1.6115213-.21879291-5.925909 10.98790939-12.943163 33.62010679z" fill="#fff" fill-rule="evenodd"/></mask><mask id="d" fill="#fff"><path d="m19.659.31575c-8.88075 3.42-11.67075 16.4955-9.9 20.448l-7.33725 22.875-2.21325 7.55025 53.208 8.025c15.80475-8.34075 20.81325-12.528 20.81325-12.528 5.079-3.03 8.80875-11.14725 7.992-17.87325-.48-3.954-3.4005-7.359-6.6285-8.92125-1.953-.94575-4.14975-1.9455-6.52275-2.97525-.75975-.32925-1.50525-.7695-2.29875-1.104-1.188-.50175-2.445-.9015-3.69825-1.4115-3.97425-1.614-8.2365-3.25425-12.55425-4.833-2.067-.756-3.95475-1.90725-6.02175-2.625-2.25-.783-4.67625-1.1265-6.864-1.8405-6.33825-2.07-10.53375-3.80625-15.27075-4.9125-.39225-.0915-.795-.1425-1.19625-.1425-.51375 0-1.02525.08325-1.5075.2685" fill="#fff" fill-rule="evenodd"/></mask><mask id="e" fill="#fff"><path d="m10.659.31575c-8.20125 3.15825-11.208 14.55075-10.2255 19.389 18.75675 3.969 57.711 22.0275 57.711 22.0275 4.31625-2.373 11.109-7.374 15.1215-12.50625-.0135-.138-.02775-.276-.04425-.41325-.48-3.954-3.4005-7.359-6.6285-8.92125-1.953-.94575-4.14975-1.9455-6.52275-2.97525-.75975-.32925-1.50525-.7695-2.29875-1.104-1.188-.50175-2.445-.9015-3.69825-1.4115-3.97425-1.614-8.2365-3.25425-12.55425-4.833-2.067-.756-3.95475-1.90725-6.02175-2.625-2.25-.783-4.67625-1.1265-6.864-1.8405-6.33825-2.07-10.53375-3.80625-15.27075-4.9125-.39225-.09225-.795-.1425-1.19625-.1425-.51375 0-1.02525.08325-1.5075.2685" fill="#fff" fill-rule="evenodd"/></mask><mask id="f" fill="#fff"><path d="m9.759 20.76375-7.33725 22.875-2.21325 7.55025 37.425 16.811c15.80475-8.34075 36.59625-21.314 36.59625-21.314 5.079-3.03 8.80875-11.14725 7.992-17.87325-.48-3.954-3.4005-7.359-6.6285-8.92125-1.953-.94575-4.14975-1.9455-6.52275-2.97525-.75975-.32925-1.50525-.7695-2.29875-1.104-1.188-.50175-2.445-.9015-3.69825-1.4115-3.97425-1.614-8.2365-3.25425-12.55425-4.833-2.067-.756-3.95475-1.90725-6.02175-2.625-2.25-.783-4.67625-1.1265-6.864-1.8405-6.33825-2.07-10.53375-3.80625-15.27075-4.9125-.39225-.0915-.795-.1425-1.19625-.1425-.51375 0-1.02525.08325-1.5075.2685-8.88075 3.42-11.67075 16.4955-9.9 20.448z" fill="#fff" fill-rule="evenodd"/></mask><g fill="none" fill-rule="evenodd"><g transform="translate(63.102612 16.940815)"><path d="m1.74875093 107.919401 15.60545707-12.3072717c-7.327388-2.7826195-11.27493468-6.59325-11.16937498-10.7341521.20017724-7.8399457 16.97451488-13.7745761 37.46661378-13.2551196s33.3941978 2.9384565 33.1946642 10.7790435c-.2008209 7.8399456-13.4273228 18.1315979-33.9194216 17.6121409-6.2975373-.1596844-12.2088806-.9119344-17.3761568-2.1021953l-19.68881525 14.9180213c-.62949627.477131-1.38772388.699022-2.13436567.679783-.94038246-.023728-1.86402985-.428391-2.49738806-1.183848-1.13541045-1.356358-.90305037-3.329011.51878731-4.406402" fill="#4a4a4a" fill-opacity=".04"/><path d="m29.9521147 68.9770924 1.7056903 9.8857065.0257463.1346739c1.4096082 6.1436957 10.2148321 10.8765218 20.8544776 10.8765218 10.6460821 0 19.4384329-4.7328261 20.8544776-10.8765218l.0257463-.1346739 1.3362313-10.6918261s-.08625 3.3559457-2.2804757 5.9109022c-3.8773881 4.7026848-11.2002705 7.2448152-20.1419496 7.5295543-2.8719963 0-5.3616605-.3386086-7.938862-.8792282-.2870709-.0602826-.5709235-.1378804-.8489832-.229587l-3.448069-1.1344674c-4.9902705-2.0213913-9.5827612-5.3067934-10.1440299-10.3910543" fill="#ff0083"/><path d="m18.5485774 24.6224957 9.9496455 56.3405108.0341139.1513478c1.6233022 7.0748696 11.7544589 12.5233914 24.0064645 12.5233914 12.2507183 0 22.3780131-5.4485218 24.001959-12.52275l.0334701-.1519892 9.9580131-56.3520543c-.8579944 2.75825-2.6274067 5.3209021-5.1138526 7.5680326-6.1868284 5.6216739-16.8123135 9.3239239-28.8795896 9.3239239-12.0717817 0-22.6985541-3.7067391-28.8840951-9.3239239-2.4832277-2.2471305-4.248778-4.8059348-5.1061288-7.5564891" fill="#f7f7f7"/><path d="m76.1828871 78.5772261c-2.0983209-6.3540435-12.3659328-11.410087-24.2883862-11.410087-4.0492444 0-7.8667724.5951305-11.2221548 1.6468696" stroke="#ccc" stroke-linecap="round" stroke-linejoin="round" stroke-width="1.5"/><path d="m37.0354925 70.2171185c-4.9638806 2.6588478-8.0881903 6.5233478-8.0881903 10.8245761 0 .330913.0193097.6586195.0559982.9837608" stroke="#ccc" stroke-linecap="round" stroke-linejoin="round" stroke-width="1.5"/><g fill="#ff0083"><path d="m31.657805 78.7068337.0257463.1353152c1.4096082 6.1430544 10.2148321 10.8758804 20.8544776 10.8758804 10.6460821 0 19.4384329-4.732826 20.8544776-10.8758804l.0257463-.1353152 1.3362313-10.9303913s-.08625 2.9532065-2.2804757 5.508163c-7.4895896 9.4836087-25.381959 8.917337-33.2918563 5.3645109-4.8950094-2.1983913-8.5961118-5.0899878-9.2300374-9.8273478z"/><path d="m29.9093759 68.1707163c0 .1795652.0070803.3591304.020597.5380544.2696922 4.2435108 3.8291139 7.9759021 9.1959236 10.3217934l4.0447388 1.4076631c2.7973321.75225 5.8997574 1.1729456 9.161166 1.1729456 9.1830504 0 17.0697761-3.3052826 20.5390858-8.0381087 1.2120056-1.6558478 1.8839832-3.4777934 1.8839832-5.4023478 0-7.4166848-10.0339645-13.4334022-22.423069-13.4334022-12.3813806 0-22.4224254 6.0167174-22.4224254 13.4334022" opacity=".375581"/><path d="m29.9093759 68.1707163c0 .1795652.0070803.3591304.020597.5380544.2696922 4.2435108 5.9795709 12.9024021 22.4018284 12.9024021 10.3467817 0 17.0697761-3.3052826 20.5390858-8.0381087 1.2120056-1.6558478 1.8839832-3.4777934 1.8839832-5.4023478 0-7.4166848-10.0339645-13.4334022-22.423069-13.4334022-12.3813806 0-22.4224254 6.0167174-22.4224254 13.4334022" opacity=".772461"/></g><path d="m34.0742854 38.3049804c.3623788.1372392.7305504.2712718 1.1019403.4008153" stroke="#494949" stroke-linecap="round" stroke-linejoin="round" stroke-width="1.5"/><path d="m41.204135 40.115255-5.050774-7.017794" fill="#f7f7f7"/><path d="m41.204135 40.115255-5.050774-7.017794" stroke="#b3b3b3" stroke-linecap="round" stroke-width="1.5"/><g transform="translate(21.884328 24.369565)"><path d="m.35394683.60487826 40.23433767 57.61927174c1.6587034 1.6699565 6.5498508-.8009891 5.1968843-3.7836957l-24.341166-35.7443804" fill="#f7f7f7"/><path d="m.35394683.60487826 40.23433767 57.61927174c1.6587034 1.6699565 6.5498508-.8009891 5.1968843-3.7836957l-24.341166-35.7443804" stroke="#b3b3b3" stroke-linecap="round" stroke-width="1.5"/></g><path d="m22.0723405 20.7799924c0-9.5996848 13.6403731-17.37934783 30.4655597-17.37934783 16.8258302 0 30.4623414 7.78030433 30.4623414 17.37934783 0 9.5951956-13.6365112 17.3793478-30.4623414 17.3793478-4.4347948 0-8.6481717-.5406195-12.4463899-1.5121956l-5.4968284-1.8232283c-7.5906437-3.1577826-12.5223414-8.27475-12.5223414-14.0439239m-4.1187593 0c0 6.8811956 5.5991697 12.9787174 14.2164459 16.747663l6.2376772 2.1727392c4.314431 1.1588369 9.0955131 1.8020652 14.1308395 1.8020652 19.0992258 0 34.5843191-9.2764674 34.5843191-20.7224674 0-11.44600001-15.4850933-20.7224674-34.5843191-20.7224674-19.1037313 0-34.5849626 9.27646739-34.5849626 20.7224674" fill="#f7f7f7"/></g><path d="m46.7908825.05720435-7.3679385 63.73346735 39.8867631-6.5387391-3.4390578-53.85160869z" fill="#fff" mask="url(#a)" transform="translate(80.481343 16.940815)"/><g transform="translate(38 13.092989)"><g><g stroke="#494949" stroke-linecap="round" stroke-linejoin="round" stroke-width="1.5"><path d="m45.4464123 17.0395848c-1.5434888 2.3497391-2.3918283 4.9091848-2.3918283 7.587913 0 6.881837 5.5985261 12.98 14.2164459 16.7489457"/><path d="m63.5108955 43.546938c4.3137873 1.1581957 9.0955131 1.8027066 14.1282649 1.8027066 19.1011568 0 34.5856066-9.27775 34.5856066-20.7218261 0-11.4447174-15.4844498-20.72246741-34.5856066-20.72246741-12.8403078 0-24.0463712 4.19284782-30.013069 10.41798911"/><path d="m104.07382 15.7438293c2.891306 2.5857392 4.55902 5.6274457 4.55902 8.8839892 0 5.6473261-5.017304 10.6520652-12.7398969 13.7450761"/><path d="m97.5404468 11.5893957c.1737873.080163.3456437.160326.5162127.242413"/><path d="m49.4843284 17.5079935c4.9098134-5.8365109 15.6704664-9.88698915 28.154832-9.88698915 6.5028639 0 12.5377892 1.09855435 17.5222668 2.97629345"/><path d="m90.3005961 40.1546946c-3.8658023.950413-8.150625 1.4788478-12.6613713 1.4788478-17.1174067 0-30.9933582-7.6135652-30.9933582-17.0061087"/><path d="m53.6008349 84.810512.0341138.1519891c1.6233022 7.0748696 11.7544589 12.5233913 24.0064645 12.5233913 12.2507183 0 22.3780128-5.4485217 24.0019588-12.5233913l.03347-.1519891"/></g><path d="m90.1488562 77.3909551c.5097761 3.2828369-6.9962976 4.417129-8.1606726 2.4149768l2.8214414 4.0580148c.3507929.4861087 1.765962 3.3994423 3.1575478 3.6982902.3005877.0852934.8102478.2635145 1.25244.239145 3.1764459-.1750761 6.0222698-3.5937201 3.7862063-6.1807419z" fill="#ff0083" opacity=".807687"/><path d="m56.760417 82.5546598.0257462.1353152c1.4096083 6.1430543 10.2148321 10.8758804 20.8544777 10.8758804 10.646082 0 19.4384328-4.7328261 20.8544776-10.8758804l.0257462-.1353152 1.3362314-10.9303913s-.08625 2.9532065-2.2804758 5.508163c-7.4895895 9.4836087-25.3819589 8.917337-33.2918563 5.3645109-4.8950093-2.1983913-8.5434448-5.1094087-9.2300373-9.8273478z" fill="#ff0083" opacity=".472447"/><path d="m102.401857 80.7068696 9.233256-52.2483479c-.857995 2.75825-2.627407 5.3215435-5.114496 7.568674-6.186185 5.6210326-16.8123138 9.3232826-28.8795899 9.3232826-12.0717818 0-22.6979105-3.7060979-28.8840952-9.323924-2.482584-2.2464891-4.2481343-4.8059347-5.1054851-7.5564891l9.9496456 56.3405109.0334701.1519891c1.6239459 7.0742283 11.7551026 12.5233913 24.0064646 12.5233913 12.2507182 0 22.3786569-5.449163 24.0019589-12.5233913l.034114-.1519891" stroke="#494949" stroke-linecap="round" stroke-linejoin="round" stroke-width="1.5"/><path d="m54.0697388 27.1454511-18.5405317-25.28150001c-.9268657-1.26465218-2.6338433-1.67765218-4.0395896-.97542392l-29.62944959 14.78976083c-1.58983209.7932935-2.23220149 2.7197718-1.43664179 4.3031522.79620336 1.5833805 2.70271455 1.9803478 3.44935634 1.8027065l28.06536384-13.94708692 17.1553824 23.39285872" fill="#fff"/></g><path d="m.43189366 19.9890076 30.58785444-14.40946738c1.2898881-.60795652 2.8314459-.23086957 3.6933023.90295652l27.0425933 37.19116306-24.2002053 2.7402935-32.60314362-14.7134457z" fill="#4a4a4a" fill-opacity=".04" mask="url(#b)"/><g><path d="m54.0697388 27.1454511-18.5405317-25.28150001c-.9268657-1.26465218-2.6338433-1.67765218-4.0395896-.97542392l-29.62944959 14.78976083c-1.58983209.7932935-2.23220149 2.7197718-1.43664179 4.3031522.79620336 1.5833805 2.70271455 1.9803478 3.44935634 1.8027065l28.06536384-13.94708692 17.1553824 23.39285872" stroke="#494949" stroke-linecap="round" stroke-width="1.5"/><path d="m31.938375 7.837123 1.688955-.906804" fill="#f7f7f7"/><path d="m31.938375 7.837123 1.688955-.906804" stroke="#494949" stroke-linecap="round" stroke-linejoin="round" stroke-width="1.5"/><g transform="translate(0 15.391304)"><path d="m3.55279198 1.31255761c-.77174441-.66631522-1.71534515-.90552174-2.47292911-.531-1.12961753.55793478-1.41926306 2.26701087-.64816231 3.81640217.7717444 1.54939131 2.31201493 2.35294565 3.44098881 1.79501087 1.0259888-.50663043 1.35875932-1.9623913.83353544-3.38608695" fill="#e6e6e6"/><path d="m3.55279198 1.31255761c-.77174441-.66631522-1.71534515-.90552174-2.47292911-.531-1.12961753.55793478-1.41926306 2.26701087-.64816231 3.81640217.7717444 1.54939131 2.31201493 2.35294565 3.44098881 1.79501087 1.0259888-.50663043 1.35875932-1.9623913.83353544-3.38608695" stroke="#494949" stroke-linecap="round" stroke-linejoin="round" stroke-width="1.5"/></g><path d="m59.351007 34.347234 3.926306 5.35425" fill="#f7f7f7"/><path d="m59.351007 34.347234 3.926306 5.35425" stroke="#494949" stroke-linecap="round" stroke-width="1.5"/><g transform="translate(39.906716 19.23913)"><path d="m.59409515.25543152 9.01183769 12.28931518s1.73851676 1.9328913 3.90957086 3.4559892c0 0 3.3437967 2.1900543 8.3334235 3.8651413" fill="#f7f7f7"/><path d="m.59409515.25543152 9.01183769 12.28931518s1.73851676 1.9328913 3.90957086 3.4559892c0 0 3.3437967 2.1900543 8.3334235 3.8651413" stroke="#494949" stroke-linecap="round" stroke-width="1.5"/></g><path d="m55.299252 28.822269-.04055-.055793" fill="#fff"/><path d="m55.299252 28.822269-.04055-.055793" stroke="#494949" stroke-linecap="round" stroke-width="1.5"/><path d="m61.25623 36.945351-4.629179-6.312359" fill="#fff"/><path d="m61.25623 36.945351-4.629179-6.312359" stroke="#494949" stroke-linecap="round" stroke-width="1.5"/><g fill="#fff"><path d="m54.0697388 38.6384587 9.2326119 57.0081087s11.8728918 5.1092716 13.6944403 2.4805652l1.5808209-53.7105217s-15.7515671-5.1586522-24.5078731-5.7781522" opacity=".076404"/><path d="m90.3005961 43.119188-4.3311661 54.7128805s8.109431-2.9698805 10.3660915-4.8482609c1.7970895-1.1043261 5.2168375-4.0485543 5.9840765-8.1535435l11.903787-61.6222934s-7.658227 14.8923695-23.9227889 19.9112173" opacity=".076404"/></g></g></g><g transform="translate(137 55)"><path d="m10.6341.8465-1.5435 4.67025-8.0205 21.621c-.42975 1.15725-.6585 2.37525-.68175 3.60075-.01575.8085.25125 3.40425.4545 5.2485.10875.98175 1.13625 1.57575 2.03925 1.17525 10.89075-4.8315 39.873-19.488 58.6845-29.40075" fill="#e0e0e0" transform="translate(0 53.5735)"/><path d="m64.0004196 14.9162633c2.9970261-11.87093548-11.1425128-17.15884293-42.4186169-15.86372242l-37.0463527 40.86938412 12.135 27.2715 8.75775-4.158c36.0511203-20.2085057 55.5751935-36.2482263 58.5722196-48.1191617z" fill="#fcfcfc" mask="url(#c)" transform="translate(0 20.0735)"/><path d="m10.6341 54.42-1.5435 4.67025-8.0205 21.621c-.42975 1.15725-.6585 2.37525-.68175 3.60075-.01575.8085.25125 3.40425.4545 5.2485.10875.98175 1.13625 1.57575 2.03925 1.17525 10.89075-4.8315 39.873-19.488 58.6845-29.40075" stroke="#494949" stroke-linecap="round" stroke-linejoin="round" stroke-width="1.5"/><path d="m16.694325-3.636675c-2.199 1.12425-5.826 4.0665-9.9495 22.85025 17.39775 2.58375 60.39975 22.51875 60.39975 22.51875 7.485-4.11525 22.42275-16.1385 17.37975-23.03325 0 0-49.79625-31.55325-67.83-22.33575" fill="#ececec" mask="url(#d)" transform="translate(12 .0735)"/><path d="m2.8239 6.509775s-3.0015 9.606 1.21425 10.37175c4.2165.765 54.7635 16.84875 54.7635 16.84875l8.93175 15.61875-84.0675-17.6865z" fill="#494949" fill-opacity=".04" mask="url(#e)" transform="translate(21 .0735)"/><path d="m66.45585 28.827075c-2.58675 12.71175 3.97875 14.28225-21.2835 26.5005-24.92925 12.05775-58.92675 30.60375-58.92675 30.60375l1.1715 8.56875c23.4370812-13.0560511 39.6427331-22.0589007 48.6169559-27.0085487 9.6728833-5.3349876 17.0891076-8.6827111 23.4096501-12.1639513 3.2712506-1.8017455 8.199882-4.6824955 14.785894-8.64225 4.34775-2.39025 7.09425-8.74275 8.19975-14.865 1.0305-5.70675-1.74525-12.47175-7.4115-11.241-2.505.54375-7.81875 4.5945-8.562 8.24775z" fill="#dcdcdc" mask="url(#f)" transform="translate(12 .0735)"/><g transform="translate(3 .0735)"><path d="m62.4165 59.214075c15.80475-8.34075 20.81325-12.528 20.81325-12.528 5.079-3.02925 8.80875-11.14725 7.992-17.87325-.48075-3.954-3.4005-7.359-6.6285-8.92125-1.953-.94575-4.14975-1.9455-6.52275-2.97525-.75975-.33-1.50525-.7695-2.29875-1.104-1.18875-.50175-2.445-.9015-3.69825-1.41075-3.97425-1.6155-8.2365-3.255-12.55425-4.83375-2.067-.75525-3.95475-1.90725-6.02175-2.62575-2.25-.7815-4.67625-1.12575-6.86325-1.83975-6.339-2.07075-10.5345-3.80625-15.2715-4.91325-.89475-.2085-1.84575-.20325-2.70375.12675-8.88075 3.41925-11.67075 16.49475-9.9 20.448l-7.33725 22.875-2.21325 7.551" stroke="#494949" stroke-linecap="round" stroke-linejoin="round" stroke-width="1.5"/><path d="m43.20915 26.525625c-6.50325-2.28225-13.3005-4.314-20.44725-5.93025" fill="#fff"/><path d="m.3831 83.55405c2.0865-1.0245 4.485-2.28825 5.18925-2.646 1.83525-.93225 5.19-3.36225 7.032-4.28025 1.88775-.94125 5.93475-2.2155 7.84275-3.1155 3.77025-1.779 7.65975-4.6725 11.46075-6.38475.15-.0675 3.93225-2.52675 7.392-2.77425.28875 4.347 5.568 2.5215 5.60775-.53475.3495-1.989.924-2.715 2.53275-3.7005 3.09-1.89225 7.66125-4.41675 12.192-6.65925 1.689-.8355.0225 6.549 4.1385 6.0015 4.75425-.77925 4.34475-11.40825 6.9255-13.52325 2.08725-1.71 3.79575-2.45325 4.9005-3.6195.71025-.75075.885-1.65225-.0105-2.07525-6.15525-2.90625-12.543-5.862-19.236-8.65275" fill="#fcfcfc"/></g><g transform="translate(3 20.3235)"><g stroke="#494949" stroke-linecap="round" stroke-linejoin="round" stroke-width="1.5"><path d="m43.20915 6.275625c-6.50325-2.28225-13.3005-4.314-20.44725-5.93025"/><path d="m.3831 63.30405c2.0865-1.0245 4.485-2.28825 5.18925-2.646 1.83525-.93225 5.19-3.36225 7.032-4.28025 1.88775-.94125 5.93475-2.2155 7.84275-3.1155 3.77025-1.779 7.65975-4.6725 11.46075-6.38475.15-.0675 3.93225-2.52675 7.392-2.77425.28875 4.347 5.568 2.5215 5.60775-.53475.3495-1.989.924-2.715 2.53275-3.7005 3.09-1.89225 7.66125-4.41675 12.192-6.65925 1.689-.8355.0225 6.549 4.1385 6.0015 4.75425-.77925 4.34475-11.40825 6.9255-13.52325 2.08725-1.71 3.79575-2.45325 4.9005-3.6195.71025-.75075.885-1.65225-.0105-2.07525-6.15525-2.90625-12.543-5.862-19.236-8.65275"/><path d="m82.626975.8049c.46725-.22125 1.25625-.82125 2.9655-.61425"/><path d="m75.266325 16.57125c-.17025-2.17725.09675-4.5375.42675-6.08475.69075-3.24225 2.496-6.1785 4.58475-8.06925"/></g><path d="m81.078975 8.524875c-.0525.70725.27525 1.30725.73275 1.34175.45675.03375.87-.5115.92325-1.218.0525-.70725-.27525-1.308-.73275-1.34175-.45675-.0345-.87075.51075-.92325 1.218" fill="#494949" opacity=".04"/><path d="m81.51645 16.2381c-.07125.95775.37275 1.7715.99225 1.818s1.17975-.693 1.25175-1.65075c.07125-.95775-.37275-1.7715-.993-1.818-.61875-.0465-1.17975.693-1.251 1.65075" fill="#494949" opacity=".04"/><path d="m86.148225 11.7285c-.021.27825.10875.51525.28875.52875s.3435-.20175.36375-.48c.021-.27825-.108-.51525-.28875-.52875-.18-.0135-.34275.20175-.36375.48" fill="#494949" opacity=".04"/><path d="m19.837325 39.9986s2.4045-4.76175 7.3395-2.685" stroke="#494949" stroke-linecap="round" stroke-linejoin="round" stroke-width="1.5"/><path d="m52.3554 21.071775c-.53325 6.519-11.27775 10.9605-23.99925 9.92025-9.963-1.6335-15.84825-6.13275-15.31575-12.65175.53325-6.519 4.5255-11.99625 17.24625-10.956 12.7215 1.04025 22.602 7.1685 22.06875 13.6875" fill="#494949" opacity=".04"/><path d="m22.9644 22.658475-.0495 1.05825c.35925 2.93925 7.104 4.707 10.7955 4.5555.61425-.02475 1.19025-.29475 1.59-.76125l3.50625-4.08975c2.991 1.674 9.108 1.9845 11.8425-.79125 1.9665-2.2875 2.32725-7.83375 2.0775-9.507-.29325-1.962-1.13475-2.34075-2.9385-3.02925-3.033-1.15875-8.14875-1.086-13.95375-1.647-7.5165-.72675-14.05875-1.77975-14.5755 1.0065 0 0-.0105 4.64775-.03225 5.91075-.0255 1.476.78975 2.37 2.25675 2.811 1.17.35175 2.226 1.07775 3.35775 1.03725" fill="#e0e0e0"/><g transform="translate(21 7.5)"><path d="m1.9644 15.158475-.0495 1.05825c.35925 2.93925 7.104 4.707 10.7955 4.5555.61425-.02475 1.19025-.29475 1.59-.76125l3.50625-4.08975c2.991 1.674 9.108 1.9845 11.8425-.79125 1.9665-2.2875 2.32725-7.83375 2.0775-9.507-.29325-1.962-1.13475-2.34075-2.9385-3.02925-3.033-1.15875-8.14875-1.086-13.95375-1.647-7.5165-.72675-14.05875-1.77975-14.5755 1.0065 0 0-.0105 4.64775-.03225 5.91075-.0255 1.476.78975 2.37 2.25675 2.811 1.17.35175 2.226 1.07775 3.35775 1.03725" fill="#e0e0e0"/><path d="m1.9644 15.158475-.0495 1.05825c.35925 2.93925 7.104 4.707 10.7955 4.5555.61425-.02475 1.19025-.29475 1.59-.76125l3.50625-4.08975c2.991 1.674 9.108 1.9845 11.8425-.79125 1.9665-2.2875 2.32725-7.83375 2.0775-9.507-.29325-1.962-1.13475-2.34075-2.9385-3.02925-3.033-1.15875-8.14875-1.086-13.95375-1.647-7.5165-.72675-14.05875-1.77975-14.5755 1.0065 0 0-.0105 4.64775-.03225 5.91075-.0255 1.476.78975 2.37 2.25675 2.811 1.17.35175 2.226 1.07775 3.35775 1.03725" stroke="#494949" stroke-linecap="round" stroke-linejoin="round" stroke-width="1.5"/></g><path d="m22.9644 22.658475-.0495 1.05825c.35925 2.93925 7.104 4.707 10.7955 4.5555.61425-.02475 1.19025-.29475 1.59-.76125l3.50625-4.08975c2.991 1.674 9.108 1.9845 11.8425-.79125 1.9665-2.2875 2.32725-7.83375 2.0775-9.507-.29325-1.962-1.13475-2.34075-2.9385-3.02925-3.033-1.15875-8.14875-1.086-13.95375-1.647-7.5165-.72675-14.05875-1.77975-14.5755 1.0065 0 0-.0105 4.64775-.03225 5.91075-.0255 1.476.78975 2.37 2.25675 2.811 1.17.35175 2.226 1.07775 3.35775 1.03725" stroke="#494949" stroke-linecap="round" stroke-linejoin="round" stroke-width="1.5"/><g transform="translate(21 2.25)"><path d="m7.191 11.913825c-2.31825 4.35525-4.97025 5.034-4.61775 6.20625.516 1.71825 8.4975 4.65525 10.302 3.05625.38475-.34125 1.37475-1.8975 3.48975-4.64325l.30825-.2925c.37275-.354.91425-.426 1.36875-.19275 1.98525 1.0215 4.8765 1.58625 6.8175 1.4445 3.37725-.24675 5.619-1.692 6.6735-4.91025 1.344-4.73475-4.40025-11.757-15.80325-12.4245-7.89375-.46275-13.0245 1.99575-15.18375 5.45475-1.15575 2.391.57 4.2645 4.35075 5.53275" fill="#f7f7f7"/><path d="m7.191 11.913825c-2.31825 4.35525-4.97025 5.034-4.61775 6.20625.516 1.71825 8.4975 4.65525 10.302 3.05625.38475-.34125 1.37475-1.8975 3.48975-4.64325l.30825-.2925c.37275-.354.91425-.426 1.36875-.19275 1.98525 1.0215 4.8765 1.58625 6.8175 1.4445 3.37725-.24675 5.619-1.692 6.6735-4.91025 1.344-4.73475-4.40025-11.757-15.80325-12.4245-7.89375-.46275-13.0245 1.99575-15.18375 5.45475-1.15575 2.391.57 4.2645 4.35075 5.53275" stroke="#494949" stroke-linecap="round" stroke-linejoin="round" stroke-width="1.5"/></g></g></g><g transform="translate(164.688691 140.13197)"><path d="m4.18582669 2.58494625-.6865753-.2941265c-.56976506-.24454519-1.24037349-.24286446-1.79501205.00252108l-.71010542.31513554c-.81851205.36303615-1.19331325 1.16726205-.88910241 1.90930121.18656024.45883735.60926205.82775602 1.15213554 1.00675301l1.06053615.34959036c.72187048.23782229 1.53534036.10000301 2.06896988-.35127108l.32606024-.27563856c.3050512-.2571506.49329217-.5949759.53278916-.95801205l.01008433-.09496084c.07311145-.66136446-.35211144-1.30087952-1.06978012-1.60929217" fill="#4a4a4a" fill-opacity=".04"/><path d="m6.19479477 2.25997848-.56808434-.28740361c-.46976205-.23782229-1.02692169-.22941868-1.49080121.02184939l-.59329518.32185844c-.68489458.37143976-1.00423192 1.17902711-.75968674 1.91770482.15126506.45631626.49833433.82103313.94708735.99330723l.87817771.33866566c.59749698.23025903 1.27482831.08403614 1.72358132-.37228012l.27395783-.27815964c.25546988-.26051205.41513856-.60001807.45211446-.96305422l.01008434-.0958012c.06722891-.66136446-.27984036-1.29667771-.87313554-1.59668675" fill="#e6e6e6"/><path d="m6.19479477 2.25997848-.56808434-.28740361c-.46976205-.23782229-1.02692169-.22941868-1.49080121.02184939l-.59329518.32185844c-.68489458.37143976-1.00423192 1.17902711-.75968674 1.91770482.15126506.45631626.49833433.82103313.94708735.99330723l.87817771.33866566c.59749698.23025903 1.27482831.08403614 1.72358132-.37228012l.27395783-.27815964c.25546988-.26051205.41513856-.60001807.45211446-.96305422l.01008434-.0958012c.06722891-.66136446-.27984036-1.29667771-.87313554-1.59668675z" stroke="#494949" stroke-linecap="round" stroke-linejoin="round" stroke-width="1.5"/><path d="m19.6783101 1.16481944-1.0193584-.43698795c-.8437229-.36135542-1.8378705-.3596747-2.6605843.00420181l-1.0529729.46808133c-1.213482.53783132-1.7689609 1.73030421-1.3185271 2.83117771.2781596.67985241.9042289 1.22692771 1.7076144 1.49164156l1.573997.51850301c1.0706205.35295181 2.2756988.14790362 3.0681596-.52102409l.4840482-.4075753c.4512741-.3815241.7302741-.88321988.7890994-1.42105121l.0159669-.14118072c.109247-.98070181-.5227048-1.92946988-1.5874428-2.38578615" fill="#4a4a4a" fill-opacity=".04"/><path d="m22.6573074.68262005-.8420422-.42606326c-.6975-.3529518-1.5235753-.34118674-2.2109909.03193374l-.8806988.47816566c-1.0143163.54959639-1.4874398 1.74795181-1.125244 2.84294277.2243765.67649097.7395181 1.21684338 1.404244 1.47315362l1.3025602.50253614c.8865814.34118675 1.8899729.1243735 2.5555392-.55295783l.4067349-.41261747c.379003-.3857259.615985-.88994277.6706085-1.4277741l.0142861-.14118072c.100003-.98154217-.4142982-1.92274699-1.294997-2.36813855" fill="#e6e6e6"/><path d="m22.6573074.68262005-.8420422-.42606326c-.6975-.3529518-1.5235753-.34118674-2.2109909.03193374l-.8806988.47816566c-1.0143163.54959639-1.4874398 1.74795181-1.125244 2.84294277.2243765.67649097.7395181 1.21684338 1.404244 1.47315362l1.3025602.50253614c.8865814.34118675 1.8899729.1243735 2.5555392-.55295783l.4067349-.41261747c.379003-.3857259.615985-.88994277.6706085-1.4277741l.0142861-.14118072c.100003-.98154217-.4142982-1.92274699-1.294997-2.36813855z" stroke="#494949" stroke-linecap="round" stroke-linejoin="round" stroke-width="1.5"/></g></g></svg>