<svg xmlns="http://www.w3.org/2000/svg" xmlns:xlink="http://www.w3.org/1999/xlink" height="165" viewBox="0 0 289 165" width="289"><mask id="a" fill="#fff"><path d="m93.447.246c-5.06475.13575-13.7115 11.57325-9.054 18.387l-83.28375 43.317-.501 6.8775c-.243 1.77825.72375 3.50175 2.49675 4.44975 15.366 8.21925 78.40575 39.114 93.258 45.8325 6.67575 3.02025 12.50625 4.818 13.923 4.809034 2.295-.015784 20.322-14.853784 24.717-19.926784 2.12475-2.4525 7.73775-8.5665 9.2295-11.24475 1.869-3.35475 3.0405-5.68875 4.1505-9.23325.8385-2.67825 1.4565-5.4105 1.84425-8.18775.53025-3.7995 1.28775-7.821 1.04025-11.50725-.35325-5.28525-1.37175-10.17525-3.255-15.21675-3.63975-9.7485-10.4535-19.485-19.54875-28.161-3.8415-3.66375-8.6055-6.86025-13.398-10.2915-6.46875-4.63125-10.05375-5.64675-15.6075-7.97025-1.50225-.6285-4.26975-1.935-5.931-1.935-.027 0-.05325 0-.08025.0015z" fill="#fff" fill-rule="evenodd"/></mask><mask id="b" fill="#fff"><path d="m1.10925.45-.501 6.8775c-.243 1.77825.72375 3.50175 2.49675 4.44975 15.366 8.21925 78.40575 39.114 93.258 45.8325 5.60025 2.5335 10.6065 4.2075 12.9105 4.6755 1.72275-2.514 2.73-6.06075 2.52225-11.00925-8.511-22.83825-19.437-9.64725-19.437-9.64725l-90.83025-41.397" fill="#fff" fill-rule="evenodd"/></mask><mask id="c" fill="#fff"><path d="m93.447.246c-5.06475.13575-13.7115 11.57325-9.054 18.387l-83.28375 43.317-.501 6.8775c-.243 1.77825.72375 3.50175 2.49675 4.44975 15.366 8.21925 78.40575 39.114 93.258 45.8325 6.67575 3.02025 12.50625 4.818 13.923 4.809034 2.295-.015784 20.322-14.853784 24.717-19.926784 2.12475-2.4525 7.73775-8.5665 9.2295-11.24475 1.869-3.35475 3.0405-5.68875 4.1505-9.23325.8385-2.67825 1.4565-5.4105 1.84425-8.18775.53025-3.7995 1.28775-7.821 1.04025-11.50725-.35325-5.28525-1.37175-10.17525-3.255-15.21675-3.63975-9.7485-10.4535-19.485-19.54875-28.161-3.8415-3.66375-8.6055-6.86025-13.398-10.2915-6.46875-4.63125-10.05375-5.64675-15.6075-7.97025-1.50225-.6285-4.26975-1.935-5.931-1.935-.027 0-.05325 0-.08025.0015" fill="#fff" fill-rule="evenodd"/></mask><mask id="d" fill="#fff"><path d="m73.896 5.60325c-1.7835 1.01175-21.45825 10.017-24.73125 11.8695-1.2825.72525-3.75225 2.34825-5.1465 2.91675-1.272.519-4.056 1.089-5.30775 1.66425-2.292 1.053-5.4795 3.25425-8.56875 5.364l-6.7215 4.2525c-1.79325.91125-5.8755 1.911-7.74825 2.7375-1.83225.80925-5.27775 2.79525-7.017 3.774-1.53975.86625-5.001 2.91225-7.32375 4.28925-1.0755.639-1.056 1.97625.0255 2.59875 2.15025 1.239 6.4785 3.96375 6.8415 4.8195 0 2.724.19125 5.973 2.055 6.963 1.56975.83325 4.2135.183 4.56675-3.23625.74025.34275 13.7265 5.50125 16.92825 7.557 0 13.686 7.959 13.94625 7.959 6.03s22.23525 10.27875 23.66625 10.956c1.0695.50625 1.842.807 1.59975 1.93725-2.532 10.6965 7.971 13.06575 8.14275 3.44925s11.0235 4.70775 14.0325 6.114c1.656.77325 3.78075.03525 4.581-1.6035 1.13925-2.33475 3.321-5.14725 6.63525-6.867 4.029-2.508 13.93575-9.84525 18.0345-13.68075 2.2965-2.14875 3.29325-4.47825 4.8885-6.81675 2.5515-3.738 5.12625-7.6245 5.709-11.81025.77025-5.538-1.257-11.19525-4.00125-16.644-.9105-1.80825-2.307-3.4965-3.57525-5.28375-1.01325-1.428-1.8315-2.95875-3.06525-4.36875-3.852-4.404-8.19075-7.05375-14.061-11.18625-2.47275-1.74-5.52-3.32775-8.3325-5.00625-1.656-.9885-2.961-2.0895-4.72875-3.05325-1.90725-1.0395-5.58975-2.706-5.58975-2.706s-4.9815 2.2695-9.747 4.97025z" fill="#fff" fill-rule="evenodd"/></mask><mask id="e" fill="#fff"><path d="m73.896 5.60325c-1.7835 1.01175-21.45825 10.017-24.73125 11.8695-1.2825.72525-3.75225 2.34825-5.1465 2.91675-1.272.519-4.056 1.089-5.30775 1.66425-2.292 1.053-5.4795 3.25425-8.56875 5.364l-6.7215 4.2525c-1.79325.91125-5.8755 1.911-7.74825 2.7375-1.83225.80925-5.27775 2.79525-7.017 3.774-1.53975.86625-5.001 2.91225-7.32375 4.28925-1.0755.639-1.056 1.97625.0255 2.59875 2.15025 1.239 6.4785 3.96375 6.8415 4.8195 0 2.724.19125 5.973 2.055 6.963 1.56975.83325 4.2135.183 4.56675-3.23625.74025.34275 13.7265 5.50125 16.92825 7.557 0 13.686 7.959 13.94625 7.959 6.03s22.23525 10.27875 23.66625 10.956c1.0695.50625 1.842.807 1.59975 1.93725-2.532 10.6965 7.971 13.06575 8.14275 3.44925s11.0235 4.70775 14.0325 6.114c1.656.77325 3.78075.03525 4.581-1.6035 1.13925-2.33475 3.321-5.14725 6.63525-6.867 4.029-2.508 13.93575-9.84525 18.0345-13.68075 2.2965-2.14875 3.29325-4.47825 4.8885-6.81675 2.5515-3.738 5.12625-7.6245 5.709-11.81025.77025-5.538-1.257-11.19525-4.00125-16.644-.9105-1.80825-2.307-3.4965-3.57525-5.28375-1.01325-1.428-1.8315-2.95875-3.06525-4.36875-3.852-4.404-8.19075-7.05375-14.061-11.18625-2.47275-1.74-5.52-3.32775-8.3325-5.00625-1.656-.9885-2.961-2.0895-4.72875-3.05325-1.90725-1.0395-5.58975-2.706-5.58975-2.706s-4.9815 2.2695-9.747 4.97025" fill="#fff" fill-rule="evenodd"/></mask><mask id="f" fill="#fff"><path d="m.7845 3.375c-.42675 1.84875-.47325 3.84825-.3345 5.5455.3285 4.02975 4.3965 7.608 10.182 7.629 1.668.006 5.06625-.4545 7.569-1.52475.03525.033.5415.47175.5415.47175l5.436 4.767c1.10175.80925 1.7685 1.701 3.59325 1.37325.7425-.1335 2.0085-.7155 2.64675-1.095l3.717-2.2095c.162-.0885.321-.2055.471-.33825.52425-.46725.8385-1.1025.9675-1.7625l.5145-2.62575c.1005-.5145-.08925-1.0365-.5025-1.3815l-3.753-3.1305 1.5555-7.06575-29.49375-1.9275c-.726.6165-2.90625 2.3895-3.11025 3.2745z" fill="#fff" fill-rule="evenodd"/></mask><mask id="g" fill="#fff"><path d="m0 .54368188h5.44216066v4.05659473h-5.44216066z" fill="#fff" fill-rule="evenodd"/></mask><g fill="none" fill-rule="evenodd"><g transform="translate(67 12.1005)"><path d="m76.1715 138.388725.936-.3915c.774-.32475 1.67025-.3855 2.3985-.16425l.93075.2835c1.07025.32475 1.5285 1.179 1.089 2.02875-.2715.52425-.8505.9735-1.58025 1.224l-1.43175.492c-.9765.33525-2.05875.2625-2.75475-.186l-.4245-.27375c-.3975-.2565-.6345-.61425-.67125-1.01475l-.009-.105c-.06675-.72975.537-1.48275 1.51725-1.893" fill="#494949" opacity=".04"/><path d="m73.958325 138.0282.71475-.36525c.591-.303 1.278-.3375 1.839-.09525l.717.3105c.82425.357 1.18275 1.22775.852 2.06625-.20475.51825-.6465.95175-1.2045 1.18125l-1.09575.45075c-.74625.30675-1.5765.20175-2.1135-.2685l-.327-.28725c-.30675-.2685-.49125-.63375-.522-1.03575l-.00825-.105c-.05625-.73275.4005-1.46925 1.14825-1.85175" fill="#e6e6e6"/><path d="m73.958325 138.0282.71475-.36525c.591-.303 1.278-.3375 1.839-.09525l.717.3105c.82425.357 1.18275 1.22775.852 2.06625-.20475.51825-.6465.95175-1.2045 1.18125l-1.09575.45075c-.74625.30675-1.5765.20175-2.1135-.2685l-.327-.28725c-.30675-.2685-.49125-.63375-.522-1.03575l-.00825-.105c-.05625-.73275.4005-1.46925 1.14825-1.85175z" stroke="#494949" stroke-linecap="round" stroke-linejoin="round" stroke-width="1.5"/><path d="m142.8111 47.79645c29.5755 35.898-24.35175 78.999-24.35175 78.999-6.06 3.5025-11.0865 3.6645-16.872.57075 0 0-118.6605-49.13925-97.509-58.926 23.4255-10.839 119.382-44.13075 138.73275-20.64375" fill="#494949" opacity=".04"/><path d="m1.1091 61.950525-.50025 6.87675c-.243 1.77825.723 3.50175 2.496 4.44975 15.366 8.22 78.40575 39.114 93.258 45.8325 6.6765 3.021 12.50625 4.818 13.92375 4.809034 2.295-.015784 20.32125-14.853784 24.71625-19.926784 2.12475-2.45175 7.7385-8.5665 9.23025-11.24475 1.86825-3.35475 3.03975-5.688 4.14975-9.23325.83925-2.67825 1.4565-5.40975 1.84425-8.18775.53025-3.79875 1.28775-7.821 1.041-11.50725-.354-5.28525-1.37325-10.17525-3.25575-15.21675-3.63975-9.74775-10.45275-19.48425-19.5495-28.161-3.84075-3.66375-8.604-6.86025-13.3965-10.2915-6.4695-4.63125-10.0545-5.64675-15.60825-7.97025-1.527-.639-4.3605-1.97775-6.01125-1.93457054-5.06475.13682054-13.7115 11.57432054-9.05325 18.38807054" fill="#ececec"/></g><g fill="#494949"><path d="m-11.4999 55.794075 103.8585 47.334s10.926-13.191 19.437 9.64725c.99675 23.688-25.8375 15.237-25.8375 15.237l-93.14175-45.582-4.8165-22.971z" mask="url(#a)" opacity=".04" transform="translate(67 12.1005)"/><path d="m90.1287 44.121075c-3.04275 5.136-9.37875 3.28725-13.086 1.197-1.086-.612-2.577-.4785-3.57675.369-4.092 3.468-10.19325 2.679-9.91275-6.318.03975-1.27275-.6765-2.433-1.86-3.08775-1.08375-.5985-2.02875-1.05375-2.81025-1.395-1.1685-.50925-2.6025.24975-2.69925 1.4355-.261 3.1965-.89025 8.70675-2.22075 10.4955-1.91925 2.58-20.904-1.62075-20.904-1.62075l9.02475-15.5145s-13.095 3.60075-12.63-8.5035c.045-1.1655-.642-2.241-1.79325-2.82375-1.629-.82425-3.7335-1.78275-5.31225-2.484-1.164-.5175-2.61225-.195-3.38175.75225-1.626 2.00325-4.98825 4.40775-9.84825-.78225-1.20525-10.668-6.3825-18.3585-6.3825-18.3585l69.64275 17.02875 13.24875 15.801z" mask="url(#b)" opacity=".04" transform="translate(67 73.6005)"/><path d="m83.241075-2.0172s-1.26375 6.048 7.7265 12.2235c16.95375 11.64525 53.9535 30.99 41.0535 60.933-6.2505 14.5095-22.884 20.10975-31.6875 25.074-5.14875-2.3595-2.92875-1.74825-7.1625-.49575-14.29725 4.22925-19.79625 4.63425-19.79625 4.63425l-38.23725-80.54325 31.1265-25.8075 12.924-5.352z" mask="url(#c)" opacity=".04" transform="translate(67 12.1005)"/></g><g transform="translate(67 12.1005)"><path d="m1.1091 61.950525-.50025 6.87675c-.243 1.77825.723 3.50175 2.496 4.44975 15.366 8.22 78.40575 39.114 93.258 45.8325 6.6765 3.021 12.50625 4.818 13.92375 4.809034 2.295-.015784 20.32125-14.853784 24.71625-19.926784 2.12475-2.45175 7.7385-8.5665 9.23025-11.24475 1.86825-3.35475 3.03975-5.688 4.14975-9.23325.83925-2.67825 1.4565-5.40975 1.84425-8.18775.53025-3.79875 1.28775-7.821 1.041-11.50725-.354-5.28525-1.37325-10.17525-3.25575-15.21675-3.63975-9.74775-10.45275-19.48425-19.5495-28.161-3.84075-3.66375-8.604-6.86025-13.3965-10.2915-6.4695-4.63125-10.0545-5.64675-15.60825-7.97025-1.527-.639-4.3605-1.97775-6.01125-1.93457054-5.06475.13682054-13.7115 11.57432054-9.05325 18.38807054" stroke="#494949" stroke-linecap="round" stroke-linejoin="round" stroke-width="1.5"/><path d="m30.891375 45.417225c3.09-2.10975 6.27675-4.31025 8.56875-5.36325 1.25175-.57525 4.03575-1.14525 5.30775-1.66425 1.395-.5685 3.86475-2.1915 5.14725-2.9175 3.273-1.85175 22.947-10.85775 24.7305-11.86875 4.7655-2.70075 9.74775-4.971 9.74775-4.971s3.68175 1.66725 5.589 2.70675c1.76775.963 3.0735 2.06475 4.72875 3.0525 2.81325 1.67925 5.85975 3.26625 8.33325 5.007 5.8695 4.13175 10.209 6.7815 14.061 11.18625 1.233 1.40925 2.052 2.94075 3.06525 4.36875 1.2675 1.78725 2.66475 3.47475 3.57525 5.28375 2.7435 5.44875 4.77075 11.10525 4.0005 16.644-.582 4.18575-3.1575 8.07225-5.70825 11.8095-1.596 2.33925-2.592 4.668-4.88925 6.8175-4.098 3.8355-14.0055 11.17275-18.0345 13.6815-3.31425 1.719-5.49525 4.5315-6.63525 6.86625-.7995 1.63875-2.92425 2.376-4.58025 1.60275-3.00975-1.40625-14.0325-6.11325-14.0325-6.11325-.1725 9.61575-10.6755 7.2465-8.14275-3.44925.2415-1.13025-.53025-1.431-1.59975-1.93725-1.431-.67725-23.667-10.956-23.667-10.956 0 7.91625-7.959 7.656-7.959-6.03-3.20175-2.05575-16.188-7.215-16.9275-7.557-.354 3.4185-2.99775 4.07025-4.5675 3.23625-1.863-.99075-2.055-4.23975-2.055-6.963-.36225-.85575-4.6905-3.5805-6.84075-4.8195-1.0815-.62325-1.10175-1.9605-.02625-2.59875 2.32275-1.37775 5.784-3.423 7.3245-4.28925 1.73925-.97875 5.184-2.96475 7.017-3.774 1.872-.8265 5.955-1.827 7.7475-2.7375" fill="#fcfcfc"/></g><path d="m73.93545 1.66785s51.46125 18.8685 45.7905 47.3955c-4.34625 21.8595-25.011 23.74425-31.95075 33.79425-7.023 10.17075 4.803 8.80575 4.803 8.80575l16.31325-4.15425s31.91175-26.68725 21.39975-47.943c-10.85475-21.9495-36.5385-43.506-36.5385-43.506z" fill="#494949" mask="url(#d)" opacity=".04" transform="translate(67.75 30.1005)"/><path d="m40.44195 70.54425c2.295.2385 3.71475 4.011 2.766 7.8465-.9 3.636-.94575 4.8975-2.2125 6.45675-1.05825 1.30275-3.64125 1.5705-3.87225 3.3765-.35475 2.7795 6.61875 5.66325 13.30575 1.3365-2.7465 2.36775 2.17275 5.154-2.77125 6.32025-2.0415.4815-24.264-5.57475-24.264-5.57475l7.7145-20.35875-11.703-12.678-8.78175 3.9525-7.767-1.92825-6.636-14.41425s4.59525-3.27975 6.99975-1.641c2.3925 1.62975 6.10425 2.6085 8.16 5.76225.93 1.42575 2.27625 2.39475 4.6425 3.00525 1.70475.4395 3.37425.993 4.977 1.72125 4.296 1.95225 11.3955 3.9825 13.4475 8.1735 1.044 2.85675-.765 6.33825 1.2915 7.62225 1.2525.7815 3.00525.84525 4.70325 1.0215" fill="#494949" mask="url(#e)" opacity=".04" transform="translate(67.75 30.1005)"/><g transform="translate(67.75 30.1005)"><path d="m30.141375 27.417225c3.09-2.10975 6.27675-4.31025 8.56875-5.36325 1.25175-.57525 4.03575-1.14525 5.30775-1.66425 1.395-.5685 3.86475-2.1915 5.14725-2.9175 3.273-1.85175 22.947-10.85775 24.7305-11.86875 4.7655-2.70075 9.74775-4.971 9.74775-4.971s3.68175 1.66725 5.589 2.70675c1.76775.963 3.0735 2.06475 4.72875 3.0525 2.81325 1.67925 5.85975 3.26625 8.33325 5.007 5.8695 4.13175 10.209 6.7815 14.061 11.18625 1.233 1.40925 2.052 2.94075 3.06525 4.36875 1.2675 1.78725 2.66475 3.47475 3.57525 5.28375 2.7435 5.44875 4.77075 11.10525 4.0005 16.644-.582 4.18575-3.1575 8.07225-5.70825 11.8095-1.596 2.33925-2.592 4.668-4.88925 6.8175-4.098 3.8355-14.0055 11.17275-18.0345 13.6815-3.31425 1.719-5.49525 4.5315-6.63525 6.86625-.7995 1.63875-2.92425 2.376-4.58025 1.60275-3.00975-1.40625-14.0325-6.11325-14.0325-6.11325-.1725 9.61575-10.6755 7.2465-8.14275-3.44925.2415-1.13025-.53025-1.431-1.59975-1.93725-1.431-.67725-23.667-10.956-23.667-10.956 0 7.91625-7.959 7.656-7.959-6.03-3.20175-2.05575-16.188-7.215-16.9275-7.557-.354 3.4185-2.99775 4.07025-4.5675 3.23625-1.863-.99075-2.055-4.23975-2.055-6.963-.36225-.85575-4.6905-3.5805-6.84075-4.8195-1.0815-.62325-1.10175-1.9605-.02625-2.59875 2.32275-1.37775 5.784-3.423 7.3245-4.28925 1.73925-.97875 5.184-2.96475 7.017-3.774 1.872-.8265 5.955-1.827 7.7475-2.7375" stroke="#494949" stroke-linecap="round" stroke-linejoin="round" stroke-width="1.5"/><path d="m67.136025 36.695475c-11.6115 1.07775-12.1935 10.01625-11.90925 11.85675.675 4.36875 5.74275 8.994 11.988 9.369 1.7985.108 5.11425-.08025 6.95025-1.02975.04125.0375.09225.08325.09225.08325l8.6445 7.8105c1.527 1.14375 3.56625 1.36425 5.12325.561l4.31775-2.346c.58425-.3015 1.3095-.95625 1.305-1.52925l1.287-5.898-15.882-11.94525-5.9295-4.479" fill="#494949" opacity=".04"/><path d="m65.39505 40.6002c-.72675.61725-2.90625 2.39025-3.111 3.27525-.42675 1.84875-.4725 3.84825-.3345 5.5455.3285 4.029 4.39725 7.60725 10.18275 7.62825 1.668.006 5.06625-.45375 7.56825-1.52475.036.033.54225.47175.54225.47175l5.436 4.767c1.101.80925 1.7685 1.70175 3.5925 1.374.7425-.1335 2.0085-.7155 2.6475-1.095l3.717-2.2095c.16125-.08925.321-.2055.47025-.339.525-.46725.8385-1.1025.96825-1.7625l.51375-2.62575c.10125-.5145-.08925-1.0365-.5025-1.38075l-3.75225-3.13125 1.5555-7.06575" fill="#e0e0e0"/></g><path d="m19.90815 4.265925s-.29475 6.234 2.166 8.32425c2.46075 2.091 6.85725 4.99875 6.85725 4.99875l7.07025-4.8015-12.099-7.85325z" fill="#fff" mask="url(#f)" transform="translate(129.25 70.6005)"/><g transform="translate(79.75 42.8505)"><path d="m53.39505 27.8502c-.72675.61725-2.90625 2.39025-3.111 3.27525-.42675 1.84875-.4725 3.84825-.3345 5.5455.3285 4.029 4.39725 7.60725 10.18275 7.62825 1.668.006 5.06625-.45375 7.56825-1.52475.036.033.54225.47175.54225.47175l5.436 4.767c1.101.80925 1.7685 1.70175 3.5925 1.374.7425-.1335 2.0085-.7155 2.6475-1.095l3.717-2.2095c.16125-.08925.321-.2055.47025-.339.525-.46725.8385-1.1025.96825-1.7625l.51375-2.62575c.10125-.5145-.08925-1.0365-.5025-1.38075l-3.75225-3.13125 1.5555-7.06575" stroke="#494949" stroke-linecap="round" stroke-linejoin="round" stroke-width="1.5"/><g transform="translate(49.5 20.25)"><path d="m36.021975 20.058075-7.737-6.20475s3.702-1.90275 4.48875-2.94525c3.55275-4.71-6.95025-14.106-20.997-9.62775-16.00425 5.10225-12.567 16.2225-2.562 17.64825 1.76175.25125 3.56175.05775 5.256-.42375l1.93875-.552" fill="#fff"/><path d="m36.021975 20.058075-7.737-6.20475s3.702-1.90275 4.48875-2.94525c3.55275-4.71-6.95025-14.106-20.997-9.62775-16.00425 5.10225-12.567 16.2225-2.562 17.64825 1.76175.25125 3.56175.05775 5.256-.42375l1.93875-.552" stroke="#494949" stroke-linecap="round" stroke-linejoin="round" stroke-width="1.5"/></g><g transform="translate(68.25 37.5)"><path d="m.62055.54405 7.0065 5.95125c1.67325 1.35375 1.63875 1.79925 3.4935.5385 0 0 1.44225-.80325 2.85225-1.7235" fill="#fff"/><path d="m.62055.54405 7.0065 5.95125c1.67325 1.35375 1.63875 1.79925 3.4935.5385 0 0 1.44225-.80325 2.85225-1.7235" stroke="#494949" stroke-linecap="round" stroke-linejoin="round" stroke-width="1.5"/></g><g transform="translate(56.25 42.75)"><path d="m.48705 3.368475c3.729-5.06475 11.2905-2.136 11.42625 3.0585" fill="#fff"/><path d="m.48705 3.368475c3.729-5.06475 11.2905-2.136 11.42625 3.0585" stroke="#494949" stroke-linecap="round" stroke-linejoin="round" stroke-width="1.5"/></g><g fill="#494949"><path d="m92.293575 82.2489c.18375 1.18425 1.185 1.94625 2.23425 1.7025 1.04625-.24375 1.74525-1.39575 1.56225-2.5755-.18225-1.17975-1.1775-1.944-2.226-1.7055-1.05.2385-1.75425 1.3935-1.5705 2.5785" opacity=".04"/><path d="m86.704125 84.669c.063.777.68025 1.31775 1.3785 1.20825.696-.1095 1.209-.82575 1.14675-1.6005-.06225-.7755-.67725-1.317-1.37475-1.20975-.69825.10725-1.2135.825-1.1505 1.602" opacity=".04"/><path d="m85.1979 78.941325c.03225.39075.3435.6645.696.6105.3525-.05325.612-.4125.57975-.8025-.0315-.39-.34275-.66375-.69525-.61125s-.61275.4125-.5805.80325" opacity=".04"/><path d="m27.098925 29.7246c.5025 3.1665-5.79975 3.01425-12.67575 5.64825-7.25475 2.7795-13.737 1.353-14.27775-1.89825-.54075-3.2565 5.1975-6.723 12.7155-7.7235 7.40475-.98625 13.73475.80175 14.238 3.9735" opacity=".04"/></g><path d="m21.9639 22.4754c3.051.9555 4.20225-2.36925 4.70025-1.17075.20775.50025.204 5.90175.13725 6.43125-.1455 1.1565-.462 2.13075-1.35825 2.82375-2.42175 1.87275-9.58575 3.6015-17.84475 1.1145-4.497-1.3545-5.0925-3.5565-5.0925-5.1975.1185-.528.88275-4.9815.88275-4.9815.468-.6465.804 1.72575 1.56525 1.30875 2.91525-1.596 9.867-2.56575 17.01-.3285" fill="#e0e0e0"/><path d="m21.9639 22.4754c3.051.9555 4.20225-2.36925 4.70025-1.17075.20775.50025.204 5.90175.13725 6.43125-.1455 1.1565-.462 2.13075-1.35825 2.82375-2.42175 1.87275-9.58575 3.6015-17.84475 1.1145-4.497-1.3545-5.0925-3.5565-5.0925-5.1975.1185-.528.88275-4.9815.88275-4.9815.468-.6465.804 1.72575 1.56525 1.30875 2.91525-1.596 9.867-2.56575 17.01-.3285z" stroke="#494949" stroke-linecap="round" stroke-linejoin="round" stroke-width="1.5"/><g transform="translate(3 16.5)"><path d="m17.8989 10.22445c-3.25875.60825-7.086 1.34025-12.0015-.192-7.27425-2.26725-6.21-6.61275-3.297-8.0745 2.75775-1.38375 9.36975-2.8635 16.1865-.669 6.64425 2.13975 5.49225 5.86875 3.3015 7.41675-.33975.24-.77325.474-1.29075.69" fill="#f7f7f7"/><path d="m17.8989 10.22445c-3.25875.60825-7.086 1.34025-12.0015-.192-7.27425-2.26725-6.21-6.61275-3.297-8.0745 2.75775-1.38375 9.36975-2.8635 16.1865-.669 6.64425 2.13975 5.49225 5.86875 3.3015 7.41675-.33975.24-.77325.474-1.29075.69" stroke="#494949" stroke-linecap="round" stroke-linejoin="round" stroke-width="1.5"/></g><path d="m16.945875 20.18805c2.325.732 1.80825 2.00475 1.01325 2.505-.80925.50925-3.02775.8925-5.475.11025-2.235-.71475-1.80525-2.085-.93225-2.57625.85725-.4815 3.04875-.77775 5.394-.039" fill="#e0e0e0"/><path d="m16.945875 20.18805c2.325.732 1.80825 2.00475 1.01325 2.505-.80925.50925-3.02775.8925-5.475.11025-2.235-.71475-1.80525-2.085-.93225-2.57625.85725-.4815 3.04875-.77775 5.394-.039z" stroke="#494949" stroke-linecap="round" stroke-linejoin="round" stroke-width="1.5"/><g transform="translate(57.75)"><path d="m26.39685 5.317725c-7.51275-8.90025-16.908-4.3005-18.5145-1.512 0 0-4.39425-2.57625-7.22625 1.5345" fill="#fff"/><path d="m26.39685 5.317725c-7.51275-8.90025-16.908-4.3005-18.5145-1.512 0 0-4.39425-2.57625-7.22625 1.5345" stroke="#494949" stroke-linecap="round" stroke-linejoin="round" stroke-width="1.5"/></g><path d="m98.94435 88.14495c-.09225.41175-.201.825-.327 1.23975" stroke="#494949" stroke-linecap="round" stroke-linejoin="round" stroke-width="1.5"/><path d="m84.94815 69.28665c5.05875-2.8485 14.841 5.56875 14.37225 16.03725" stroke="#494949" stroke-linecap="round" stroke-linejoin="round" stroke-width="1.5"/></g><g transform="translate(59 106)"><path d="m4.4382 1.16715-.687-.35775c-.5685-.297-1.2615-.348-1.85325-.138l-.75825.27c-.87375.3105-1.3245 1.11225-1.06875 1.90275.15825.48825.56625.903 1.1115 1.1295l1.06875.44475c.72675.30225 1.578.22275 2.16525-.201l.35775-.25875c.33525-.24225.55575-.57675.6255-.948l.01875-.0975c.12675-.678-.2625-1.37175-.98025-1.746" fill="#494949" mask="url(#g)" opacity=".04" transform="translate(.75 .2139)"/><path d="m7.289175 1.202625-.564-.34125c-.46725-.28275-1.044-.318-1.542-.0945l-.639.2865c-.735.32925-1.12875 1.13925-.93375 1.92075.12075.483.45075.88725.90075 1.101l.8805.4185c.59925.28425 1.31025.186 1.80975-.2505l.3045-.2655c.28425-.249.47625-.58725.54225-.95925l.018-.09825c.1215-.678-.1875-1.36125-.777-1.7175" fill="#e6e6e6"/><path d="m7.289175 1.202625-.564-.34125c-.46725-.28275-1.044-.318-1.542-.0945l-.639.2865c-.735.32925-1.12875 1.13925-.93375 1.92075.12075.483.45075.88725.90075 1.101l.8805.4185c.59925.28425 1.31025.186 1.80975-.2505l.3045-.2655c.28425-.249.47625-.58725.54225-.95925l.018-.09825c.1215-.678-.1875-1.36125-.777-1.7175z" stroke="#494949" stroke-linecap="round" stroke-linejoin="round" stroke-width="1.5"/><path d="m21.302925 1.12665-1.0185-.531c-.843-.4395-1.8705-.516-2.74875-.20325l-1.12425.39975c-1.296.4605-1.9635 1.64925-1.58475 2.8215.23475.72375.83925 1.33875 1.6485 1.67475l1.58475.65925c1.07775.44775 2.33925.33075 3.21075-.2985l.531-.38325c.4965-.35925.8235-.855.927-1.40625l.027-.144c.189-1.005-.3885-2.034-1.45275-2.589" fill="#494949" opacity=".04"/><path d="m24.418275.86205-.83625-.50625c-.69375-.4185-1.548-.471-2.28675-.1395l-.94725.42375c-1.0905.489-1.674 1.68975-1.3845 2.84925.1785.71625.66825 1.3155 1.335 1.632l1.3065.621c.888.4215 1.9425.276 2.68275-.37125l.4515-.3945c.42225-.369.7065-.87075.80475-1.42275l.02625-.14475c.18075-1.00575-.2775-2.01825-1.152-2.547" fill="#e6e6e6"/><path d="m24.418275.86205-.83625-.50625c-.69375-.4185-1.548-.471-2.28675-.1395l-.94725.42375c-1.0905.489-1.674 1.68975-1.3845 2.84925.1785.71625.66825 1.3155 1.335 1.632l1.3065.621c.888.4215 1.9425.276 2.68275-.37125l.4515-.3945c.42225-.369.7065-.87075.80475-1.42275l.02625-.14475c.18075-1.00575-.2775-2.01825-1.152-2.547z" stroke="#494949" stroke-linecap="round" stroke-linejoin="round" stroke-width="1.5"/></g></g></svg>