<svg width="60" height="60" viewBox="0 0 60 60" fill="none" xmlns="http://www.w3.org/2000/svg">
    <g clip-path="url(#clip0_1_18)">
        <path d="M30 58.75C24.3138 58.75 18.7553 57.0638 14.0274 53.9047C9.29944 50.7457 5.61448 46.2555 3.43846 41.0021C1.26244 35.7488 0.693096 29.9681 1.80242 24.3912C2.91175 18.8142 5.64992 13.6914 9.67068 9.67068C13.6914 5.64992 18.8142 2.91175 24.3912 1.80242C29.9681 0.693096 35.7488 1.26244 41.0021 3.43846C46.2555 5.61448 50.7457 9.29944 53.9047 14.0274C57.0638 18.7553 58.75 24.3138 58.75 30C58.7421 37.6225 55.7105 44.9306 50.3205 50.3205C44.9306 55.7105 37.6225 58.7421 30 58.75Z" fill="white"/>
        <path d="M30 2.5C35.439 2.5 40.7558 4.11285 45.2782 7.13459C49.8005 10.1563 53.3253 14.4512 55.4067 19.4762C57.4881 24.5012 58.0327 30.0305 56.9716 35.365C55.9105 40.6995 53.2914 45.5995 49.4455 49.4454C45.5995 53.2914 40.6995 55.9105 35.365 56.9716C30.0305 58.0327 24.5012 57.4881 19.4762 55.4067C14.4513 53.3253 10.1563 49.8005 7.1346 45.2782C4.11286 40.7558 2.50001 35.439 2.50001 30C2.50795 22.709 5.40782 15.7189 10.5633 10.5633C15.7189 5.4078 22.709 2.50794 30 2.5ZM30 0C24.0666 0 18.2664 1.75947 13.3329 5.05591C8.39943 8.35235 4.55426 13.0377 2.28363 18.5195C0.0129986 24.0013 -0.581102 30.0333 0.576455 35.8527C1.73401 41.6721 4.59123 47.0176 8.78681 51.2132C12.9824 55.4088 18.3279 58.266 24.1473 59.4236C29.9667 60.5811 35.9987 59.987 41.4805 57.7164C46.9623 55.4458 51.6477 51.6006 54.9441 46.6671C58.2405 41.7336 60 35.9334 60 30C60 22.0435 56.8393 14.4129 51.2132 8.7868C45.5871 3.16071 37.9565 0 30 0Z" fill="#FF0083"/>
        <path d="M33 46.27C35.1747 46.2597 37.312 45.704 39.2163 44.6538C41.1206 43.6036 42.7311 42.0925 43.9001 40.2588C45.0692 38.425 45.7596 36.3273 45.9081 34.1577C46.0566 31.9881 45.6584 29.8159 44.75 27.84C43.4 24.93 42.88 24.57 43.26 21.38L43.65 16.67C43.6775 16.4467 43.6401 16.2203 43.5422 16.0177C43.4443 15.8152 43.2901 15.6452 43.098 15.528C42.9059 15.4109 42.6842 15.3516 42.4593 15.3573C42.2344 15.3629 42.0159 15.4333 41.83 15.56L36.36 20.65H23.61L18.14 15.56C17.9541 15.4333 17.7356 15.3629 17.5107 15.3573C17.2858 15.3516 17.0641 15.4109 16.872 15.528C16.6799 15.6452 16.5257 15.8152 16.4278 16.0177C16.3299 16.2203 16.2925 16.4467 16.32 16.67L16.71 21.38C17.09 24.57 16.57 24.93 15.22 27.84C14.3106 29.8182 13.9126 31.9931 14.0625 34.1652C14.2124 36.3372 14.9054 38.4368 16.078 40.2713C17.2506 42.1058 18.8651 43.6164 20.7734 44.6646C22.6818 45.7127 24.8228 46.2647 27 46.27C27.3299 45.7771 27.7763 45.373 28.2995 45.0936C28.8228 44.8142 29.4068 44.668 30 44.668C30.5932 44.668 31.1772 44.8142 31.7005 45.0936C32.2237 45.373 32.6701 45.7771 33 46.27Z" fill="#F1F6F9"/>
        <path d="M45.1 27.84C43.75 24.93 43.23 24.57 43.61 21.38L44 16.67C44.0275 16.4467 43.9901 16.2203 43.8922 16.0177C43.7943 15.8152 43.64 15.6452 43.448 15.528C43.2559 15.4109 43.0342 15.3516 42.8093 15.3573C42.5844 15.3629 42.3659 15.4333 42.18 15.56L39.89 17.69L39.59 21.38C39.21 24.57 39.73 24.93 41.08 27.84C41.8639 29.5383 42.2721 31.3858 42.2766 33.2563C42.2812 35.1268 41.8821 36.9763 41.1065 38.6784C40.3309 40.3806 39.1971 41.8953 37.7825 43.1191C36.368 44.343 34.706 45.2472 32.91 45.77C33.0685 45.923 33.2124 46.0904 33.34 46.27C35.5155 46.2614 37.6541 45.7069 39.5597 44.6574C41.4654 43.6079 43.0772 42.0969 44.2474 40.2629C45.4177 38.429 46.1089 36.3306 46.2579 34.1602C46.4068 31.9898 46.0087 29.8167 45.1 27.84Z" fill="#FF0083"/>
        <path d="M33 47.52H32.33L32 47C31.7877 46.6611 31.4928 46.3818 31.143 46.1881C30.7932 45.9944 30.3999 45.8928 30 45.8928C29.6001 45.8928 29.2068 45.9944 28.857 46.1881C28.5072 46.3818 28.2123 46.6611 28 47L27.63 47.56H27C24.6053 47.5637 22.2484 46.9625 20.1479 45.8122C18.0475 44.662 16.2716 42.9999 14.985 40.9801C13.6983 38.9604 12.9426 36.6484 12.7879 34.2587C12.6332 31.8689 13.0845 29.4788 14.1 27.31C14.31 26.86 14.5 26.48 14.66 26.13C15.5336 24.7628 15.8286 23.1046 15.48 21.52L15.09 16.77C15.0515 16.4374 15.0842 16.1005 15.1859 15.7815C15.2876 15.4625 15.4561 15.1689 15.68 14.92C16.0741 14.4871 16.6091 14.2082 17.1897 14.1331C17.7703 14.058 18.3587 14.1916 18.85 14.51L19.01 14.63L24.12 19.39H35.87L41.14 14.51C41.6313 14.1916 42.2197 14.058 42.8003 14.1331C43.3809 14.2082 43.9159 14.4871 44.31 14.92C44.5382 15.1742 44.7091 15.4746 44.8109 15.8007C44.9127 16.1269 44.9431 16.4711 44.9 16.81L44.52 21.48C44.3427 22.2703 44.323 23.0878 44.462 23.8857C44.601 24.6836 44.8959 25.4462 45.33 26.13C45.5 26.48 45.69 26.87 45.89 27.31C46.8962 29.4763 47.3404 31.8612 47.1818 34.2445C47.0231 36.6278 46.2667 38.9328 44.9822 40.9467C43.6978 42.9605 41.9267 44.6184 39.8326 45.7672C37.7384 46.916 35.3886 47.5189 33 47.52ZM30 43.41C30.6762 43.4101 31.3448 43.5516 31.9631 43.8255C32.5813 44.0993 33.1355 44.4994 33.59 45C35.5031 44.8971 37.3618 44.3268 39.0033 43.339C40.6449 42.3512 42.0192 40.976 43.0061 39.3339C43.993 37.6918 44.5622 35.8328 44.664 33.9196C44.7658 32.0065 44.397 30.0976 43.59 28.36C43.39 27.93 43.21 27.55 43.04 27.22C41.9535 25.4211 41.579 23.281 41.99 21.22L42.36 16.73L36.86 21.9H23.13L17.59 16.74L18 21.28C18.413 23.3421 18.0346 25.4842 16.94 27.28C16.78 27.62 16.6 27.99 16.4 28.42C15.6058 30.155 15.2471 32.0576 15.3553 33.9626C15.4634 35.8677 16.0351 37.7175 17.0205 39.3514C18.006 40.9853 19.3755 42.3539 21.0101 43.3383C22.6447 44.3227 24.4949 44.8931 26.4 45C26.8561 44.4994 27.4122 44.1002 28.0324 43.828C28.6525 43.5558 29.3228 43.4168 30 43.42V43.41Z" fill="#264A60"/>
        <path d="M26.55 27.73C27.3011 27.73 27.91 27.1211 27.91 26.37C27.91 25.6189 27.3011 25.01 26.55 25.01C25.7989 25.01 25.19 25.6189 25.19 26.37C25.19 27.1211 25.7989 27.73 26.55 27.73Z" fill="#264A60"/>
        <path d="M33.4 27.73C34.1511 27.73 34.76 27.1211 34.76 26.37C34.76 25.6189 34.1511 25.01 33.4 25.01C32.6489 25.01 32.04 25.6189 32.04 26.37C32.04 27.1211 32.6489 27.73 33.4 27.73Z" fill="#264A60"/>
        <path d="M33.33 40.16C32.7089 40.1593 32.0943 40.0341 31.5223 39.792C30.9504 39.5498 30.4328 39.1955 30 38.75C29.3509 39.4102 28.5203 39.8625 27.6136 40.0496C26.7069 40.2366 25.765 40.15 24.9077 39.8006C24.0503 39.4512 23.3161 38.8549 22.7984 38.0874C22.2807 37.3199 22.0028 36.4158 22 35.49C22.0288 35.1585 22.1809 34.8498 22.4262 34.6249C22.6715 34.4 22.9922 34.2752 23.325 34.2752C23.6578 34.2752 23.9785 34.4 24.2238 34.6249C24.4691 34.8498 24.6212 35.1585 24.65 35.49C24.65 36.0204 24.8607 36.5291 25.2358 36.9042C25.6109 37.2793 26.1196 37.49 26.65 37.49C27.1804 37.49 27.6891 37.2793 28.0642 36.9042C28.4393 36.5291 28.65 36.0204 28.65 35.49H31.3C31.3 36.0204 31.5107 36.5291 31.8858 36.9042C32.2609 37.2793 32.7696 37.49 33.3 37.49C33.8304 37.49 34.3391 37.2793 34.7142 36.9042C35.0893 36.5291 35.3 36.0204 35.3 35.49C35.3288 35.1585 35.4809 34.8498 35.7262 34.6249C35.9715 34.4 36.2922 34.2752 36.625 34.2752C36.9578 34.2752 37.2785 34.4 37.5238 34.6249C37.7691 34.8498 37.9212 35.1585 37.95 35.49C37.9501 36.72 37.4649 37.9003 36.5999 38.7746C35.7349 39.649 34.5599 40.1468 33.33 40.16Z" fill="#264A60"/>
        <path d="M26.76 32L29.15 34.39C29.3747 34.6129 29.6785 34.738 29.995 34.738C30.3115 34.738 30.6152 34.6129 30.84 34.39L33.23 32C33.3822 31.8302 33.4828 31.6205 33.5201 31.3956C33.5574 31.1706 33.5299 30.9397 33.4407 30.7298C33.3515 30.52 33.2044 30.3399 33.0165 30.2106C32.8287 30.0814 32.6079 30.0083 32.38 30H27.61C27.3821 30.0083 27.1613 30.0814 26.9735 30.2106C26.7856 30.3399 26.6385 30.52 26.5493 30.7298C26.4601 30.9397 26.4326 31.1706 26.4699 31.3956C26.5072 31.6205 26.6078 31.8302 26.76 32Z" fill="#264A60"/>
        <path d="M30 36.82C29.6473 36.82 29.309 36.6799 29.0595 36.4305C28.8101 36.181 28.67 35.8427 28.67 35.49V32.4C28.6988 32.0685 28.8509 31.7598 29.0962 31.5349C29.3415 31.31 29.6622 31.1852 29.995 31.1852C30.3278 31.1852 30.6485 31.31 30.8938 31.5349C31.1391 31.7598 31.2912 32.0685 31.32 32.4V35.49C31.32 35.841 31.1813 36.1778 30.934 36.4269C30.6867 36.6761 30.351 36.8174 30 36.82Z" fill="#264A60"/>
    </g>
    <defs>
        <clipPath id="clip0_1_18">
            <rect width="60" height="60" fill="white"/>
        </clipPath>
    </defs>
</svg>
