<svg width="60" height="60" viewBox="0 0 60 60" fill="none" xmlns="http://www.w3.org/2000/svg">
    <g clip-path="url(#clip0_1_2)">
        <path d="M30 58.75C24.3138 58.75 18.7553 57.0638 14.0274 53.9047C9.29944 50.7457 5.61448 46.2555 3.43846 41.0021C1.26244 35.7488 0.693096 29.9681 1.80242 24.3912C2.91175 18.8142 5.64992 13.6914 9.67068 9.67068C13.6914 5.64992 18.8142 2.91175 24.3912 1.80242C29.9681 0.693096 35.7488 1.26244 41.0021 3.43846C46.2555 5.61448 50.7457 9.29944 53.9047 14.0274C57.0638 18.7553 58.75 24.3138 58.75 30C58.7421 37.6225 55.7105 44.9306 50.3205 50.3205C44.9306 55.7105 37.6225 58.7421 30 58.75Z" fill="white"/>
        <path d="M30 2.5C35.439 2.5 40.7558 4.11285 45.2782 7.13459C49.8005 10.1563 53.3253 14.4512 55.4067 19.4762C57.4881 24.5012 58.0327 30.0305 56.9716 35.365C55.9105 40.6995 53.2914 45.5995 49.4455 49.4454C45.5995 53.2914 40.6995 55.9105 35.365 56.9716C30.0305 58.0327 24.5012 57.4881 19.4762 55.4067C14.4513 53.3253 10.1563 49.8005 7.1346 45.2782C4.11286 40.7558 2.50001 35.439 2.50001 30C2.50795 22.709 5.40782 15.7189 10.5633 10.5633C15.7189 5.4078 22.709 2.50794 30 2.5ZM30 0C24.0666 0 18.2664 1.75947 13.3329 5.05591C8.39943 8.35235 4.55426 13.0377 2.28363 18.5195C0.0129986 24.0013 -0.581102 30.0333 0.576455 35.8527C1.73401 41.6721 4.59123 47.0176 8.78681 51.2132C12.9824 55.4088 18.3279 58.266 24.1473 59.4236C29.9667 60.5811 35.9987 59.987 41.4805 57.7164C46.9623 55.4458 51.6477 51.6006 54.9441 46.6671C58.2405 41.7336 60 35.9334 60 30C60 22.0435 56.8393 14.4129 51.2132 8.7868C45.5871 3.16071 37.9565 0 30 0Z" fill="#FF0083"/>
        <path d="M19.13 28.8C19.1288 29.461 18.9864 30.1141 18.7123 30.7156C18.4382 31.3171 18.0388 31.8531 17.5408 32.2877C17.0427 32.7223 16.4576 33.0455 15.8245 33.2356C15.1914 33.4257 14.5251 33.4783 13.87 33.39C13.1962 33.2659 12.56 32.9886 12.0104 32.5796C11.4609 32.1705 11.0127 31.6405 10.7005 31.0307C10.3884 30.4209 10.2206 29.7474 10.2101 29.0624C10.1996 28.3774 10.3467 27.6991 10.64 27.08L13.14 21.52C13.5538 20.6045 14.2231 19.8278 15.0674 19.2832C15.9117 18.7387 16.8953 18.4494 17.9 18.45H19.57" fill="#264A60"/>
        <path d="M40.85 28.8C40.8512 29.461 40.9936 30.1141 41.2677 30.7156C41.5418 31.3171 41.9412 31.8531 42.4392 32.2877C42.9373 32.7223 43.5224 33.0455 44.1555 33.2356C44.7886 33.4257 45.4549 33.4783 46.11 33.39C46.7838 33.2659 47.42 32.9886 47.9696 32.5796C48.5191 32.1705 48.9673 31.6405 49.2795 31.0307C49.5916 30.4209 49.7594 29.7474 49.7699 29.0624C49.7804 28.3774 49.6333 27.6991 49.34 27.08L46.84 21.52C46.4262 20.6045 45.7569 19.8278 44.9126 19.2832C44.0683 18.7387 43.0847 18.4494 42.08 18.45H40.42" fill="#264A60"/>
        <path d="M40.77 25.14V27.14C40.7692 29.7385 41.2088 32.3184 42.07 34.77C42.4533 35.863 42.6059 37.0235 42.5181 38.1784C42.4303 39.3333 42.1041 40.4575 41.56 41.48C40.5831 43.309 38.9628 44.7109 37.0123 45.4146C35.0618 46.1184 32.9197 46.074 31 45.29C30.6958 45.1635 30.3695 45.0983 30.04 45.0983C29.7105 45.0983 29.3842 45.1635 29.08 45.29C27.1532 46.0912 24.9969 46.1447 23.0327 45.44C21.0686 44.7354 19.438 43.3233 18.46 41.48C17.9159 40.4575 17.5897 39.3333 17.5019 38.1784C17.4141 37.0235 17.5667 35.863 17.95 34.77C18.8112 32.3184 19.2508 29.7385 19.25 27.14V21.14C19.2579 19.8836 19.7612 18.681 20.6506 17.7935C21.5399 16.906 22.7436 16.4052 24 16.4H36C37.2616 16.4 38.4719 16.8998 39.3659 17.79C40.2598 18.6802 40.7647 19.8884 40.77 21.15V25.14Z" fill="#F1F6F9"/>
        <path d="M41.56 34.78C40.6988 32.3284 40.2592 29.7485 40.26 27.15V21.15C40.2574 19.8867 39.7536 18.676 38.8594 17.7836C37.9651 16.8912 36.7534 16.39 35.49 16.39H32.31C33.5734 16.39 34.7851 16.8912 35.6794 17.7836C36.5736 18.676 37.0774 19.8867 37.08 21.15V27.15C37.0792 29.7485 37.5188 32.3284 38.38 34.78C38.7799 35.9167 38.9297 37.1263 38.819 38.3262C38.7084 39.5261 38.34 40.688 37.7389 41.7324C37.1379 42.7768 36.3185 43.6791 35.3367 44.3777C34.3548 45.0763 33.2337 45.5546 32.05 45.78C33.4975 46.0601 34.9933 45.9533 36.3864 45.4705C37.7794 44.9876 39.0205 44.1458 39.9841 43.0299C40.9478 41.9141 41.6 40.5638 41.875 39.1153C42.1499 37.6667 42.0378 36.1713 41.55 34.78H41.56Z" fill="#FF0083"/>
        <path d="M34.16 47.19C32.8931 47.19 31.6389 46.9385 30.47 46.45C30.3121 46.3817 30.142 46.3465 29.97 46.3465C29.798 46.3465 29.6279 46.3817 29.47 46.45C27.7528 47.1559 25.8681 47.3503 24.0429 47.0099C22.2177 46.6694 20.5298 45.8086 19.1825 44.5311C17.8352 43.2535 16.886 41.6138 16.4491 39.8092C16.0122 38.0047 16.1063 36.1123 16.72 34.36C17.5515 32.0464 17.9843 29.6084 18 27.15V21.15C18 19.5587 18.6321 18.0326 19.7574 16.9074C20.8826 15.7821 22.4087 15.15 24 15.15H36C37.5913 15.15 39.1174 15.7821 40.2426 16.9074C41.3679 18.0326 42 19.5587 42 21.15V27.15C41.9987 29.6089 42.4146 32.0502 43.23 34.37C43.7398 35.8222 43.8942 37.3755 43.6801 38.8997C43.4659 40.4239 42.8896 41.8745 41.9994 43.13C41.1091 44.3856 39.9309 45.4095 38.5634 46.1159C37.196 46.8223 35.6791 47.1906 34.14 47.19H34.16ZM30 43.85C30.4944 43.8508 30.9838 43.9493 31.44 44.14C32.7122 44.6681 34.1102 44.8164 35.4649 44.5669C36.8196 44.3174 38.0731 43.6809 39.0737 42.7342C40.0744 41.7875 40.7793 40.5712 41.1034 39.2324C41.4275 37.8936 41.3569 36.4895 40.9 35.19C39.997 32.6193 39.5338 29.9147 39.53 27.19V21.19C39.5326 20.7252 39.4432 20.2645 39.2669 19.8345C39.0905 19.4045 38.8308 19.0136 38.5026 18.6845C38.1744 18.3554 37.7843 18.0945 37.3548 17.917C36.9252 17.7394 36.4648 17.6487 36 17.65H24C23.0664 17.65 22.1711 18.0209 21.511 18.681C20.8509 19.3411 20.48 20.2364 20.48 21.17V27.17C20.4766 29.8947 20.0134 32.5994 19.11 35.17C18.6517 36.4706 18.5804 37.8762 18.9047 39.2166C19.229 40.5569 19.9351 41.7744 20.9373 42.7216C21.9395 43.6689 23.1949 44.3051 24.5514 44.5533C25.9079 44.8015 27.3073 44.651 28.58 44.12C29.0313 43.9385 29.5136 43.8468 30 43.85Z" fill="#264A60"/>
        <path d="M31.95 35.27H28.03C26.4726 35.27 25.21 36.5326 25.21 38.09C25.21 39.6474 26.4726 40.91 28.03 40.91H31.95C33.5074 40.91 34.77 39.6474 34.77 38.09C34.77 36.5326 33.5074 35.27 31.95 35.27Z" fill="#264A60"/>
        <path d="M14.49 34.79C14.2192 34.7913 13.9486 34.7746 13.68 34.74C12.8291 34.6224 12.018 34.3058 11.3126 33.8158C10.6071 33.3258 10.0272 32.6763 9.61999 31.92C9.1664 31.0991 8.90954 30.1841 8.86963 29.2471C8.82971 28.31 9.00785 27.3765 9.39 26.52L11.9 21C12.4216 19.8459 13.2652 18.8669 14.3295 18.1804C15.3937 17.494 16.6335 17.1292 17.9 17.13H19.57C19.7577 17.1139 19.9468 17.1369 20.1251 17.1977C20.3035 17.2584 20.4672 17.3556 20.6061 17.483C20.7449 17.6104 20.8557 17.7652 20.9315 17.9377C21.0074 18.1102 21.0465 18.2966 21.0465 18.485C21.0465 18.6734 21.0074 18.8598 20.9315 19.0323C20.8557 19.2048 20.7449 19.3596 20.6061 19.487C20.4672 19.6144 20.3035 19.7116 20.1251 19.7723C19.9468 19.8331 19.7577 19.8561 19.57 19.84H17.89C17.147 19.8395 16.4197 20.0534 15.7953 20.456C15.1709 20.8587 14.676 21.433 14.37 22.11L11.87 27.67C11.6552 28.1453 11.5551 28.6644 11.5776 29.1855C11.6002 29.7066 11.7449 30.2151 12 30.67C12.2116 31.0281 12.5014 31.3337 12.8477 31.564C13.1941 31.7943 13.588 31.9433 14 32C14.4636 32.0628 14.9353 32.0256 15.3834 31.891C15.8315 31.7565 16.2457 31.5276 16.598 31.2197C16.9504 30.9119 17.2328 30.5323 17.4263 30.1063C17.6198 29.6803 17.7199 29.2179 17.72 28.75C17.7492 28.4107 17.9046 28.0947 18.1554 27.8645C18.4063 27.6343 18.7345 27.5065 19.075 27.5065C19.4155 27.5065 19.7437 27.6343 19.9945 27.8645C20.2454 28.0947 20.4008 28.4107 20.43 28.75C20.4407 30.3379 19.8214 31.8652 18.708 32.9974C17.5946 34.1295 16.0778 34.7742 14.49 34.79Z" fill="#264A60"/>
        <path d="M45.49 34.79C43.8987 34.79 42.3726 34.1579 41.2474 33.0326C40.1221 31.9074 39.49 30.3813 39.49 28.79C39.5192 28.4507 39.6746 28.1347 39.9254 27.9045C40.1763 27.6743 40.5045 27.5465 40.845 27.5465C41.1855 27.5465 41.5137 27.6743 41.7645 27.9045C42.0154 28.1347 42.1708 28.4507 42.2 28.79C42.2 29.6599 42.5456 30.4942 43.1607 31.1093C43.7758 31.7244 44.6101 32.07 45.48 32.07C45.6298 32.0799 45.7802 32.0799 45.93 32.07C46.3521 32.0014 46.7526 31.8355 47.0996 31.5856C47.4467 31.3357 47.731 31.0086 47.93 30.63C48.1851 30.1751 48.3298 29.6666 48.3523 29.1455C48.3749 28.6244 48.2748 28.1053 48.06 27.63L45.56 22.07C45.2529 21.3938 44.7578 20.8202 44.1336 20.4176C43.5095 20.0151 42.7827 19.8007 42.04 19.8H40.42C40.2323 19.8161 40.0432 19.7931 39.8649 19.7323C39.6865 19.6716 39.5228 19.5744 39.3839 19.447C39.2451 19.3196 39.1343 19.1648 39.0585 18.9923C38.9826 18.8198 38.9435 18.6334 38.9435 18.445C38.9435 18.2566 38.9826 18.0702 39.0585 17.8977C39.1343 17.7252 39.2451 17.5704 39.3839 17.443C39.5228 17.3156 39.6865 17.2184 39.8649 17.1577C40.0432 17.0969 40.2323 17.0739 40.42 17.09H42.09C43.3565 17.0892 44.5962 17.454 45.6605 18.1404C46.7248 18.8269 47.5684 19.8059 48.09 20.96L50.59 26.52C50.9721 27.3765 51.1503 28.31 51.1104 29.2471C51.0704 30.1841 50.8136 31.0991 50.36 31.92C49.9537 32.675 49.3754 33.3238 48.6718 33.8137C47.9682 34.3036 47.1591 34.621 46.31 34.74C46.0381 34.7747 45.7641 34.7914 45.49 34.79Z" fill="#264A60"/>
        <path d="M30 46.35C29.6685 46.35 29.3505 46.2183 29.1161 45.9839C28.8817 45.7495 28.75 45.4315 28.75 45.1V39.28C28.75 38.9485 28.8817 38.6305 29.1161 38.3961C29.3505 38.1617 29.6685 38.03 30 38.03C30.3315 38.03 30.6495 38.1617 30.8839 38.3961C31.1183 38.6305 31.25 38.9485 31.25 39.28V45.1C31.25 45.4315 31.1183 45.7495 30.8839 45.9839C30.6495 46.2183 30.3315 46.35 30 46.35Z" fill="#264A60"/>
        <path d="M26.56 31.41C27.3111 31.41 27.92 30.8011 27.92 30.05C27.92 29.2989 27.3111 28.69 26.56 28.69C25.8089 28.69 25.2 29.2989 25.2 30.05C25.2 30.8011 25.8089 31.41 26.56 31.41Z" fill="#264A60"/>
        <path d="M33.41 31.41C34.1611 31.41 34.77 30.8011 34.77 30.05C34.77 29.2989 34.1611 28.69 33.41 28.69C32.6589 28.69 32.05 29.2989 32.05 30.05C32.05 30.8011 32.6589 31.41 33.41 31.41Z" fill="#264A60"/>
    </g>
    <defs>
        <clipPath id="clip0_1_2">
            <rect width="60" height="60" fill="white"/>
        </clipPath>
    </defs>
</svg>
