<svg width="950" height="499" viewBox="0 0 950 499" fill="none" xmlns="http://www.w3.org/2000/svg">
<ellipse cx="159.5" cy="187.5" rx="159.5" ry="156.5" fill="#F7F7F7"/>
<path d="M108.206 131.74C108.468 129.911 108.972 128.296 109.718 126.896C110.465 125.477 111.408 124.292 112.546 123.34C113.704 122.388 115.02 121.669 116.494 121.184C117.988 120.68 119.593 120.428 121.31 120.428C123.009 120.428 124.577 120.671 126.014 121.156C127.452 121.641 128.684 122.332 129.71 123.228C130.756 124.124 131.568 125.207 132.146 126.476C132.725 127.745 133.014 129.155 133.014 130.704C133.014 131.973 132.846 133.112 132.51 134.12C132.193 135.109 131.726 135.977 131.11 136.724C130.513 137.471 129.785 138.105 128.926 138.628C128.068 139.151 127.106 139.58 126.042 139.916C128.656 140.588 130.616 141.745 131.922 143.388C133.248 145.012 133.91 147.047 133.91 149.492C133.91 151.34 133.556 153.001 132.846 154.476C132.156 155.951 131.204 157.211 129.99 158.256C128.777 159.283 127.358 160.076 125.734 160.636C124.129 161.177 122.402 161.448 120.554 161.448C118.426 161.448 116.606 161.187 115.094 160.664C113.582 160.123 112.304 159.385 111.258 158.452C110.213 157.519 109.354 156.417 108.682 155.148C108.01 153.86 107.441 152.469 106.974 150.976L109.13 150.08C109.69 149.837 110.232 149.772 110.754 149.884C111.296 149.996 111.688 150.304 111.93 150.808C112.173 151.331 112.472 151.956 112.826 152.684C113.2 153.412 113.704 154.112 114.338 154.784C114.973 155.456 115.776 156.025 116.746 156.492C117.736 156.959 118.986 157.192 120.498 157.192C121.898 157.192 123.121 156.968 124.166 156.52C125.23 156.053 126.108 155.456 126.798 154.728C127.508 154 128.04 153.188 128.394 152.292C128.749 151.396 128.926 150.509 128.926 149.632C128.926 148.549 128.786 147.56 128.506 146.664C128.226 145.768 127.704 144.993 126.938 144.34C126.173 143.687 125.118 143.173 123.774 142.8C122.449 142.427 120.741 142.24 118.65 142.24V138.628C120.368 138.609 121.824 138.423 123.018 138.068C124.232 137.713 125.212 137.228 125.958 136.612C126.724 135.996 127.274 135.259 127.61 134.4C127.965 133.541 128.142 132.589 128.142 131.544C128.142 130.387 127.956 129.379 127.582 128.52C127.228 127.661 126.733 126.952 126.098 126.392C125.464 125.832 124.708 125.412 123.83 125.132C122.972 124.852 122.038 124.712 121.03 124.712C120.022 124.712 119.08 124.861 118.202 125.16C117.344 125.459 116.578 125.879 115.906 126.42C115.253 126.943 114.702 127.568 114.254 128.296C113.806 129.024 113.489 129.827 113.302 130.704C113.06 131.357 112.752 131.796 112.378 132.02C112.024 132.225 111.501 132.281 110.81 132.188L108.206 131.74ZM165.555 157.192V161H144.051V157.192H152.647V129.836C152.647 129.015 152.675 128.184 152.731 127.344L145.591 133.476C145.348 133.681 145.105 133.812 144.863 133.868C144.62 133.905 144.396 133.905 144.191 133.868C143.985 133.831 143.789 133.756 143.603 133.644C143.435 133.532 143.304 133.411 143.211 133.28L141.643 131.124L153.599 120.792H157.659V157.192H165.555ZM189.751 130.564C189.751 132.132 189.508 133.541 189.023 134.792C188.538 136.024 187.884 137.069 187.063 137.928C186.26 138.768 185.318 139.412 184.235 139.86C183.171 140.308 182.042 140.532 180.847 140.532C179.596 140.532 178.43 140.308 177.347 139.86C176.264 139.412 175.322 138.768 174.519 137.928C173.735 137.069 173.119 136.024 172.671 134.792C172.223 133.541 171.999 132.132 171.999 130.564C171.999 128.959 172.223 127.531 172.671 126.28C173.119 125.029 173.735 123.975 174.519 123.116C175.322 122.257 176.264 121.604 177.347 121.156C178.43 120.708 179.596 120.484 180.847 120.484C182.116 120.484 183.292 120.708 184.375 121.156C185.458 121.604 186.4 122.257 187.203 123.116C188.006 123.975 188.631 125.029 189.079 126.28C189.527 127.531 189.751 128.959 189.751 130.564ZM185.887 130.564C185.887 129.332 185.756 128.287 185.495 127.428C185.234 126.569 184.87 125.869 184.403 125.328C183.955 124.768 183.423 124.367 182.807 124.124C182.191 123.881 181.538 123.76 180.847 123.76C180.156 123.76 179.512 123.881 178.915 124.124C178.318 124.367 177.795 124.768 177.347 125.328C176.899 125.869 176.544 126.569 176.283 127.428C176.022 128.287 175.891 129.332 175.891 130.564C175.891 131.777 176.022 132.813 176.283 133.672C176.544 134.512 176.899 135.203 177.347 135.744C177.795 136.267 178.318 136.649 178.915 136.892C179.512 137.116 180.156 137.228 180.847 137.228C181.538 137.228 182.191 137.116 182.807 136.892C183.423 136.649 183.955 136.267 184.403 135.744C184.87 135.203 185.234 134.512 185.495 133.672C185.756 132.813 185.887 131.777 185.887 130.564ZM203.947 121.716C204.134 121.492 204.348 121.296 204.591 121.128C204.852 120.96 205.198 120.876 205.627 120.876H209.239L179.895 160.188C179.727 160.431 179.512 160.627 179.251 160.776C178.99 160.925 178.672 161 178.299 161H174.631L203.947 121.716ZM211.955 151.536C211.955 153.104 211.712 154.504 211.227 155.736C210.742 156.968 210.088 158.013 209.267 158.872C208.464 159.712 207.522 160.356 206.439 160.804C205.375 161.252 204.246 161.476 203.051 161.476C201.782 161.476 200.606 161.252 199.523 160.804C198.459 160.356 197.526 159.712 196.723 158.872C195.939 158.013 195.323 156.968 194.875 155.736C194.427 154.504 194.203 153.104 194.203 151.536C194.203 149.931 194.427 148.503 194.875 147.252C195.323 145.983 195.939 144.919 196.723 144.06C197.526 143.201 198.459 142.548 199.523 142.1C200.606 141.652 201.782 141.428 203.051 141.428C204.302 141.428 205.468 141.652 206.551 142.1C207.652 142.548 208.595 143.201 209.379 144.06C210.182 144.919 210.807 145.983 211.255 147.252C211.722 148.503 211.955 149.931 211.955 151.536ZM208.091 151.536C208.091 150.304 207.96 149.259 207.699 148.4C207.438 147.523 207.074 146.813 206.607 146.272C206.159 145.731 205.627 145.339 205.011 145.096C204.395 144.853 203.742 144.732 203.051 144.732C202.36 144.732 201.707 144.853 201.091 145.096C200.494 145.339 199.971 145.731 199.523 146.272C199.075 146.813 198.72 147.523 198.459 148.4C198.216 149.259 198.095 150.304 198.095 151.536C198.095 152.749 198.216 153.776 198.459 154.616C198.72 155.456 199.075 156.147 199.523 156.688C199.971 157.211 200.494 157.593 201.091 157.836C201.707 158.06 202.36 158.172 203.051 158.172C203.742 158.172 204.395 158.06 205.011 157.836C205.627 157.593 206.159 157.211 206.607 156.688C207.074 156.147 207.438 155.456 207.699 154.616C207.96 153.776 208.091 152.749 208.091 151.536Z" fill="#303030"/>
<path d="M83.2159 187.32V195.845C82.0999 196.651 80.9064 197.256 79.6354 197.659C78.3747 198.052 76.9901 198.248 75.4814 198.248C73.6937 198.248 72.0817 197.974 70.6454 197.426C69.2091 196.868 67.9794 196.093 66.9564 195.101C65.9437 194.099 65.1636 192.9 64.6159 191.505C64.0682 190.11 63.7944 188.576 63.7944 186.902C63.7944 185.207 64.0579 183.662 64.5849 182.267C65.1222 180.872 65.8817 179.679 66.8634 178.687C67.8451 177.685 69.0386 176.91 70.4439 176.362C71.8492 175.814 73.4199 175.54 75.1559 175.54C76.0342 175.54 76.8506 175.608 77.6049 175.742C78.3592 175.866 79.0567 176.052 79.6974 176.3C80.3381 176.538 80.9322 176.832 81.4799 177.183C82.0276 177.524 82.5391 177.912 83.0144 178.346L82.1619 179.71C82.0276 179.917 81.8519 180.051 81.6349 180.113C81.4282 180.165 81.1957 180.113 80.9374 179.958C80.6894 179.813 80.4052 179.638 80.0849 179.431C79.7646 179.224 79.3719 179.028 78.9069 178.842C78.4522 178.646 77.9097 178.48 77.2794 178.346C76.6594 178.212 75.9206 178.144 75.0629 178.144C73.8126 178.144 72.6811 178.351 71.6684 178.764C70.6557 179.167 69.7929 179.751 69.0799 180.516C68.3669 181.27 67.8192 182.19 67.4369 183.275C67.0546 184.35 66.8634 185.559 66.8634 186.902C66.8634 188.297 67.0597 189.547 67.4524 190.653C67.8554 191.748 68.4237 192.683 69.1574 193.458C69.9014 194.223 70.8004 194.807 71.8544 195.21C72.9084 195.613 74.0916 195.814 75.4039 195.814C76.4372 195.814 77.3517 195.701 78.1474 195.473C78.9534 195.236 79.7387 194.91 80.5034 194.497V189.614H77.0469C76.8506 189.614 76.6904 189.558 76.5664 189.444C76.4527 189.33 76.3959 189.191 76.3959 189.025V187.32H83.2159ZM97.4948 188.436C97.4948 187.796 97.4018 187.212 97.2158 186.685C97.0401 186.148 96.7766 185.688 96.4253 185.305C96.0843 184.913 95.6658 184.613 95.1698 184.406C94.6738 184.189 94.1106 184.081 93.4803 184.081C92.1576 184.081 91.1088 184.468 90.3338 185.243C89.5691 186.008 89.0938 187.072 88.9078 188.436H97.4948ZM99.7268 195.799C99.3858 196.212 98.9776 196.574 98.5023 196.884C98.027 197.184 97.5155 197.432 96.9678 197.628C96.4305 197.824 95.8725 197.969 95.2938 198.062C94.7151 198.165 94.1416 198.217 93.5733 198.217C92.4883 198.217 91.486 198.036 90.5663 197.674C89.657 197.302 88.8665 196.765 88.1948 196.062C87.5335 195.349 87.0168 194.471 86.6448 193.427C86.2728 192.384 86.0868 191.185 86.0868 189.831C86.0868 188.736 86.2521 187.713 86.5828 186.762C86.9238 185.812 87.4095 184.99 88.0398 184.298C88.6701 183.595 89.44 183.048 90.3493 182.655C91.2586 182.252 92.2816 182.05 93.4183 182.05C94.3586 182.05 95.2266 182.211 96.0223 182.531C96.8283 182.841 97.5206 183.296 98.0993 183.895C98.6883 184.484 99.1481 185.218 99.4788 186.096C99.8095 186.964 99.9748 187.956 99.9748 189.072C99.9748 189.506 99.9283 189.795 99.8353 189.94C99.7423 190.085 99.5666 190.157 99.3083 190.157H88.8148C88.8458 191.149 88.9801 192.012 89.2178 192.745C89.4658 193.479 89.8068 194.094 90.2408 194.59C90.6748 195.076 91.1915 195.442 91.7908 195.69C92.3901 195.928 93.0618 196.047 93.8058 196.047C94.4981 196.047 95.0923 195.969 95.5883 195.814C96.0946 195.649 96.5286 195.473 96.8903 195.287C97.252 195.101 97.5516 194.931 97.7893 194.776C98.0373 194.611 98.2491 194.528 98.4248 194.528C98.6521 194.528 98.8278 194.616 98.9518 194.791L99.7268 195.799ZM108.063 198.248C106.823 198.248 105.867 197.902 105.196 197.209C104.534 196.517 104.204 195.52 104.204 194.218V184.608H102.313C102.147 184.608 102.008 184.561 101.894 184.468C101.78 184.365 101.724 184.21 101.724 184.003V182.903L104.297 182.577L104.932 177.726C104.963 177.571 105.03 177.447 105.134 177.354C105.247 177.251 105.392 177.199 105.568 177.199H106.963V182.608H111.504V184.608H106.963V194.032C106.963 194.693 107.123 195.184 107.443 195.504C107.763 195.825 108.177 195.985 108.683 195.985C108.972 195.985 109.22 195.949 109.427 195.876C109.644 195.794 109.83 195.706 109.985 195.613C110.14 195.52 110.269 195.437 110.373 195.365C110.486 195.282 110.584 195.241 110.667 195.241C110.812 195.241 110.941 195.329 111.055 195.504L111.861 196.822C111.385 197.266 110.812 197.618 110.14 197.876C109.468 198.124 108.776 198.248 108.063 198.248ZM123.498 184.887C123.374 185.114 123.183 185.228 122.924 185.228C122.769 185.228 122.594 185.171 122.397 185.057C122.201 184.944 121.958 184.82 121.669 184.685C121.39 184.541 121.054 184.412 120.661 184.298C120.269 184.174 119.804 184.112 119.266 184.112C118.801 184.112 118.383 184.174 118.011 184.298C117.639 184.412 117.319 184.572 117.05 184.778C116.792 184.985 116.59 185.228 116.445 185.507C116.311 185.776 116.244 186.07 116.244 186.39C116.244 186.793 116.358 187.129 116.585 187.398C116.823 187.667 117.133 187.899 117.515 188.095C117.897 188.292 118.331 188.467 118.817 188.622C119.303 188.767 119.799 188.927 120.305 189.103C120.822 189.268 121.323 189.454 121.808 189.661C122.294 189.868 122.728 190.126 123.11 190.436C123.493 190.746 123.798 191.128 124.025 191.583C124.263 192.027 124.381 192.565 124.381 193.195C124.381 193.918 124.252 194.59 123.994 195.21C123.736 195.82 123.353 196.352 122.847 196.806C122.341 197.251 121.721 197.602 120.987 197.86C120.253 198.119 119.406 198.248 118.445 198.248C117.35 198.248 116.358 198.072 115.469 197.721C114.58 197.359 113.826 196.899 113.206 196.341L113.857 195.287C113.94 195.153 114.038 195.05 114.151 194.977C114.265 194.905 114.41 194.869 114.585 194.869C114.771 194.869 114.968 194.941 115.174 195.086C115.381 195.231 115.629 195.391 115.918 195.566C116.218 195.742 116.58 195.902 117.003 196.047C117.427 196.192 117.954 196.264 118.584 196.264C119.122 196.264 119.592 196.197 119.995 196.062C120.398 195.918 120.734 195.727 121.002 195.489C121.271 195.251 121.467 194.977 121.591 194.667C121.726 194.357 121.793 194.027 121.793 193.675C121.793 193.241 121.674 192.885 121.436 192.606C121.209 192.317 120.904 192.074 120.522 191.877C120.14 191.671 119.7 191.495 119.204 191.35C118.719 191.195 118.218 191.035 117.701 190.87C117.195 190.705 116.693 190.519 116.197 190.312C115.712 190.095 115.278 189.826 114.895 189.506C114.513 189.186 114.203 188.793 113.965 188.328C113.738 187.853 113.624 187.279 113.624 186.607C113.624 186.008 113.748 185.435 113.996 184.887C114.244 184.329 114.606 183.843 115.081 183.43C115.557 183.006 116.141 182.67 116.833 182.423C117.525 182.174 118.316 182.05 119.204 182.05C120.238 182.05 121.163 182.216 121.979 182.546C122.806 182.867 123.519 183.311 124.118 183.879L123.498 184.887ZM136.274 190.932C135.003 190.973 133.918 191.077 133.019 191.242C132.13 191.397 131.401 191.604 130.833 191.862C130.275 192.12 129.867 192.425 129.609 192.776C129.361 193.128 129.237 193.52 129.237 193.954C129.237 194.368 129.304 194.724 129.438 195.024C129.572 195.324 129.753 195.572 129.981 195.768C130.218 195.954 130.492 196.093 130.802 196.186C131.122 196.269 131.463 196.31 131.825 196.31C132.311 196.31 132.755 196.264 133.158 196.171C133.561 196.068 133.938 195.923 134.29 195.737C134.651 195.551 134.992 195.329 135.313 195.07C135.643 194.812 135.964 194.518 136.274 194.187V190.932ZM127.361 184.515C128.229 183.678 129.164 183.053 130.167 182.639C131.169 182.226 132.28 182.019 133.499 182.019C134.377 182.019 135.158 182.164 135.84 182.453C136.522 182.743 137.095 183.146 137.56 183.662C138.025 184.179 138.376 184.804 138.614 185.538C138.852 186.272 138.971 187.078 138.971 187.956V198H137.746C137.477 198 137.271 197.959 137.126 197.876C136.981 197.783 136.868 197.607 136.785 197.349L136.475 195.861C136.062 196.243 135.659 196.584 135.266 196.884C134.873 197.173 134.46 197.421 134.026 197.628C133.592 197.824 133.127 197.974 132.631 198.078C132.145 198.191 131.603 198.248 131.004 198.248C130.394 198.248 129.82 198.165 129.283 198C128.746 197.824 128.276 197.566 127.873 197.225C127.48 196.884 127.165 196.455 126.927 195.938C126.7 195.411 126.586 194.791 126.586 194.078C126.586 193.458 126.757 192.864 127.098 192.296C127.439 191.717 127.991 191.206 128.756 190.761C129.521 190.317 130.518 189.955 131.748 189.676C132.977 189.387 134.486 189.222 136.274 189.18V187.956C136.274 186.737 136.01 185.817 135.483 185.197C134.956 184.567 134.186 184.251 133.174 184.251C132.492 184.251 131.918 184.339 131.453 184.515C130.998 184.68 130.601 184.871 130.26 185.088C129.929 185.295 129.64 185.486 129.392 185.662C129.154 185.827 128.916 185.91 128.679 185.91C128.493 185.91 128.332 185.863 128.198 185.77C128.064 185.667 127.95 185.543 127.857 185.398L127.361 184.515ZM143.954 198V184.654L142.218 184.453C142.001 184.401 141.82 184.324 141.676 184.22C141.541 184.107 141.474 183.947 141.474 183.74V182.608H143.954V181.089C143.954 180.19 144.078 179.395 144.326 178.702C144.584 178 144.946 177.411 145.411 176.935C145.886 176.45 146.455 176.083 147.116 175.835C147.777 175.587 148.521 175.463 149.348 175.463C150.051 175.463 150.697 175.566 151.286 175.773L151.224 177.152C151.203 177.4 151.063 177.535 150.805 177.555C150.557 177.576 150.221 177.586 149.798 177.586C149.322 177.586 148.888 177.648 148.496 177.772C148.113 177.896 147.783 178.098 147.504 178.377C147.225 178.656 147.008 179.023 146.853 179.477C146.708 179.932 146.636 180.495 146.636 181.167V182.608H151.162V184.608H146.729V198H143.954ZM163.794 188.436C163.794 187.796 163.701 187.212 163.515 186.685C163.339 186.148 163.075 185.688 162.724 185.305C162.383 184.913 161.965 184.613 161.469 184.406C160.973 184.189 160.409 184.081 159.779 184.081C158.456 184.081 157.408 184.468 156.633 185.243C155.868 186.008 155.393 187.072 155.207 188.436H163.794ZM166.026 195.799C165.685 196.212 165.276 196.574 164.801 196.884C164.326 197.184 163.814 197.432 163.267 197.628C162.729 197.824 162.171 197.969 161.593 198.062C161.014 198.165 160.44 198.217 159.872 198.217C158.787 198.217 157.785 198.036 156.865 197.674C155.956 197.302 155.165 196.765 154.494 196.062C153.832 195.349 153.316 194.471 152.944 193.427C152.572 192.384 152.386 191.185 152.386 189.831C152.386 188.736 152.551 187.713 152.882 186.762C153.223 185.812 153.708 184.99 154.339 184.298C154.969 183.595 155.739 183.048 156.648 182.655C157.557 182.252 158.58 182.05 159.717 182.05C160.657 182.05 161.525 182.211 162.321 182.531C163.127 182.841 163.819 183.296 164.398 183.895C164.987 184.484 165.447 185.218 165.778 186.096C166.108 186.964 166.274 187.956 166.274 189.072C166.274 189.506 166.227 189.795 166.134 189.94C166.041 190.085 165.865 190.157 165.607 190.157H155.114C155.145 191.149 155.279 192.012 155.517 192.745C155.765 193.479 156.106 194.094 156.54 194.59C156.974 195.076 157.49 195.442 158.09 195.69C158.689 195.928 159.361 196.047 160.105 196.047C160.797 196.047 161.391 195.969 161.887 195.814C162.393 195.649 162.827 195.473 163.189 195.287C163.551 195.101 163.85 194.931 164.088 194.776C164.336 194.611 164.548 194.528 164.724 194.528C164.951 194.528 165.127 194.616 165.251 194.791L166.026 195.799ZM169.492 201.751C169.409 201.679 169.353 201.612 169.322 201.55C169.291 201.488 169.275 201.41 169.275 201.317C169.275 201.245 169.296 201.172 169.337 201.1C169.389 201.028 169.446 200.961 169.508 200.899C169.611 200.785 169.74 200.635 169.895 200.449C170.06 200.263 170.226 200.041 170.391 199.783C170.556 199.535 170.706 199.256 170.841 198.946C170.985 198.646 171.089 198.326 171.151 197.984C171.12 197.995 171.083 198 171.042 198C171.011 198 170.98 198 170.949 198C170.412 198 169.973 197.824 169.632 197.473C169.301 197.111 169.136 196.651 169.136 196.093C169.136 195.608 169.301 195.194 169.632 194.853C169.973 194.512 170.422 194.342 170.98 194.342C171.29 194.342 171.564 194.399 171.802 194.512C172.039 194.626 172.236 194.786 172.391 194.993C172.556 195.189 172.68 195.422 172.763 195.69C172.845 195.949 172.887 196.233 172.887 196.543C172.887 197.008 172.819 197.494 172.685 198C172.561 198.496 172.37 198.987 172.112 199.473C171.864 199.969 171.559 200.449 171.197 200.914C170.835 201.379 170.422 201.808 169.957 202.201L169.492 201.751ZM196.035 189.754L192.547 180.717C192.444 180.449 192.335 180.139 192.222 179.787C192.108 179.426 192 179.043 191.896 178.64C191.679 179.477 191.457 180.175 191.23 180.733L187.742 189.754H196.035ZM202.297 198H199.972C199.703 198 199.486 197.933 199.321 197.798C199.155 197.664 199.032 197.494 198.949 197.287L196.872 191.924H186.905L184.828 197.287C184.766 197.473 184.647 197.638 184.472 197.783C184.296 197.928 184.079 198 183.821 198H181.496L190.377 175.788H193.415L202.297 198ZM210.039 190.327C210.597 190.327 211.088 190.25 211.512 190.095C211.935 189.94 212.292 189.723 212.581 189.444C212.871 189.165 213.088 188.834 213.232 188.452C213.377 188.059 213.449 187.63 213.449 187.165C213.449 186.204 213.155 185.44 212.566 184.871C211.987 184.303 211.145 184.019 210.039 184.019C208.923 184.019 208.071 184.303 207.482 184.871C206.903 185.44 206.614 186.204 206.614 187.165C206.614 187.63 206.686 188.059 206.831 188.452C206.986 188.834 207.208 189.165 207.497 189.444C207.787 189.723 208.143 189.94 208.567 190.095C208.99 190.25 209.481 190.327 210.039 190.327ZM215.015 198.853C215.015 198.47 214.906 198.16 214.689 197.922C214.472 197.685 214.178 197.499 213.806 197.364C213.444 197.23 213.02 197.137 212.535 197.085C212.049 197.023 211.532 196.977 210.985 196.946C210.447 196.915 209.9 196.884 209.342 196.853C208.784 196.822 208.246 196.77 207.73 196.698C207.151 196.967 206.676 197.308 206.304 197.721C205.942 198.124 205.761 198.599 205.761 199.147C205.761 199.498 205.849 199.824 206.025 200.124C206.211 200.434 206.49 200.697 206.862 200.914C207.234 201.141 207.699 201.317 208.257 201.441C208.825 201.575 209.492 201.643 210.256 201.643C211 201.643 211.667 201.575 212.256 201.441C212.845 201.307 213.341 201.116 213.744 200.868C214.157 200.62 214.472 200.325 214.689 199.984C214.906 199.643 215.015 199.266 215.015 198.853ZM217.82 182.918V183.941C217.82 184.282 217.603 184.499 217.169 184.592L215.387 184.825C215.738 185.507 215.914 186.261 215.914 187.088C215.914 187.853 215.764 188.55 215.464 189.18C215.175 189.8 214.772 190.333 214.255 190.777C213.739 191.221 213.119 191.562 212.395 191.8C211.672 192.038 210.887 192.156 210.039 192.156C209.306 192.156 208.613 192.069 207.962 191.893C207.632 192.1 207.378 192.322 207.203 192.559C207.027 192.787 206.939 193.019 206.939 193.257C206.939 193.629 207.089 193.913 207.389 194.109C207.699 194.295 208.102 194.43 208.598 194.512C209.094 194.595 209.657 194.647 210.287 194.667C210.928 194.688 211.579 194.724 212.24 194.776C212.912 194.817 213.563 194.895 214.193 195.008C214.834 195.122 215.402 195.308 215.898 195.566C216.394 195.825 216.792 196.181 217.092 196.636C217.402 197.091 217.557 197.68 217.557 198.403C217.557 199.075 217.386 199.726 217.045 200.356C216.715 200.986 216.234 201.544 215.604 202.03C214.973 202.526 214.198 202.919 213.279 203.208C212.369 203.508 211.341 203.658 210.194 203.658C209.047 203.658 208.045 203.544 207.187 203.317C206.33 203.089 205.617 202.784 205.048 202.402C204.48 202.02 204.051 201.575 203.762 201.069C203.483 200.573 203.343 200.051 203.343 199.504C203.343 198.729 203.586 198.072 204.072 197.535C204.557 196.998 205.224 196.569 206.071 196.248C205.606 196.042 205.234 195.768 204.955 195.427C204.687 195.076 204.552 194.605 204.552 194.017C204.552 193.789 204.594 193.557 204.676 193.319C204.759 193.071 204.883 192.828 205.048 192.59C205.224 192.342 205.436 192.11 205.684 191.893C205.932 191.676 206.221 191.485 206.552 191.319C205.777 190.885 205.172 190.312 204.738 189.599C204.304 188.876 204.087 188.039 204.087 187.088C204.087 186.323 204.232 185.631 204.521 185.011C204.821 184.381 205.234 183.848 205.761 183.414C206.288 182.97 206.913 182.629 207.637 182.391C208.37 182.154 209.171 182.035 210.039 182.035C210.721 182.035 211.357 182.112 211.946 182.267C212.535 182.412 213.072 182.629 213.558 182.918H217.82ZM223.587 182.298V198H220.828V182.298H223.587ZM224.176 177.369C224.176 177.638 224.119 177.891 224.006 178.129C223.902 178.356 223.758 178.563 223.572 178.749C223.396 178.925 223.184 179.064 222.936 179.167C222.699 179.271 222.445 179.322 222.177 179.322C221.908 179.322 221.655 179.271 221.417 179.167C221.19 179.064 220.988 178.925 220.813 178.749C220.637 178.563 220.498 178.356 220.394 178.129C220.291 177.891 220.239 177.638 220.239 177.369C220.239 177.101 220.291 176.848 220.394 176.61C220.498 176.362 220.637 176.15 220.813 175.974C220.988 175.788 221.19 175.644 221.417 175.54C221.655 175.437 221.908 175.385 222.177 175.385C222.445 175.385 222.699 175.437 222.936 175.54C223.184 175.644 223.396 175.788 223.572 175.974C223.758 176.15 223.902 176.362 224.006 176.61C224.119 176.848 224.176 177.101 224.176 177.369ZM230.973 175.168V198H228.214V175.168H230.973ZM245.956 188.436C245.956 187.796 245.863 187.212 245.677 186.685C245.501 186.148 245.238 185.688 244.886 185.305C244.545 184.913 244.127 184.613 243.631 184.406C243.135 184.189 242.572 184.081 241.941 184.081C240.619 184.081 239.57 184.468 238.795 185.243C238.03 186.008 237.555 187.072 237.369 188.436H245.956ZM248.188 195.799C247.847 196.212 247.439 196.574 246.963 196.884C246.488 197.184 245.976 197.432 245.429 197.628C244.891 197.824 244.333 197.969 243.755 198.062C243.176 198.165 242.603 198.217 242.034 198.217C240.949 198.217 239.947 198.036 239.027 197.674C238.118 197.302 237.327 196.765 236.656 196.062C235.994 195.349 235.478 194.471 235.106 193.427C234.734 192.384 234.548 191.185 234.548 189.831C234.548 188.736 234.713 187.713 235.044 186.762C235.385 185.812 235.87 184.99 236.501 184.298C237.131 183.595 237.901 183.048 238.81 182.655C239.72 182.252 240.743 182.05 241.879 182.05C242.82 182.05 243.688 182.211 244.483 182.531C245.289 182.841 245.982 183.296 246.56 183.895C247.149 184.484 247.609 185.218 247.94 186.096C248.27 186.964 248.436 187.956 248.436 189.072C248.436 189.506 248.389 189.795 248.296 189.94C248.203 190.085 248.028 190.157 247.769 190.157H237.276C237.307 191.149 237.441 192.012 237.679 192.745C237.927 193.479 238.268 194.094 238.702 194.59C239.136 195.076 239.652 195.442 240.252 195.69C240.851 195.928 241.523 196.047 242.267 196.047C242.959 196.047 243.553 195.969 244.049 195.814C244.556 195.649 244.99 195.473 245.351 195.287C245.713 195.101 246.013 194.931 246.25 194.776C246.498 194.611 246.71 194.528 246.886 194.528C247.113 194.528 247.289 194.616 247.413 194.791L248.188 195.799ZM251.654 201.751C251.571 201.679 251.515 201.612 251.484 201.55C251.453 201.488 251.437 201.41 251.437 201.317C251.437 201.245 251.458 201.172 251.499 201.1C251.551 201.028 251.608 200.961 251.67 200.899C251.773 200.785 251.902 200.635 252.057 200.449C252.222 200.263 252.388 200.041 252.553 199.783C252.718 199.535 252.868 199.256 253.003 198.946C253.147 198.646 253.251 198.326 253.313 197.984C253.282 197.995 253.245 198 253.204 198C253.173 198 253.142 198 253.111 198C252.574 198 252.135 197.824 251.794 197.473C251.463 197.111 251.298 196.651 251.298 196.093C251.298 195.608 251.463 195.194 251.794 194.853C252.135 194.512 252.584 194.342 253.142 194.342C253.452 194.342 253.726 194.399 253.964 194.512C254.201 194.626 254.398 194.786 254.553 194.993C254.718 195.189 254.842 195.422 254.925 195.69C255.007 195.949 255.049 196.233 255.049 196.543C255.049 197.008 254.981 197.494 254.847 198C254.723 198.496 254.532 198.987 254.274 199.473C254.026 199.969 253.721 200.449 253.359 200.914C252.997 201.379 252.584 201.808 252.119 202.201L251.654 201.751ZM105.878 232.613C106.735 232.613 107.474 232.515 108.094 232.318C108.714 232.122 109.22 231.848 109.613 231.497C110.016 231.135 110.311 230.712 110.497 230.226C110.683 229.73 110.776 229.187 110.776 228.598C110.776 227.451 110.367 226.547 109.551 225.886C108.735 225.214 107.51 224.878 105.878 224.878H101.073V232.613H105.878ZM101.073 215.16V222.739H105.041C105.888 222.739 106.622 222.646 107.242 222.46C107.872 222.274 108.389 222.016 108.792 221.685C109.205 221.355 109.51 220.957 109.706 220.492C109.902 220.017 110.001 219.5 110.001 218.942C110.001 217.63 109.608 216.674 108.823 216.074C108.037 215.465 106.818 215.16 105.165 215.16H101.073ZM105.165 212.788C106.529 212.788 107.701 212.923 108.683 213.191C109.675 213.46 110.486 213.842 111.117 214.338C111.757 214.834 112.227 215.444 112.527 216.167C112.827 216.88 112.977 217.686 112.977 218.585C112.977 219.133 112.889 219.66 112.713 220.166C112.548 220.662 112.295 221.127 111.954 221.561C111.613 221.995 111.179 222.388 110.652 222.739C110.135 223.08 109.525 223.359 108.823 223.576C110.455 223.886 111.68 224.47 112.496 225.328C113.323 226.175 113.736 227.291 113.736 228.676C113.736 229.616 113.56 230.474 113.209 231.249C112.868 232.024 112.362 232.69 111.69 233.248C111.029 233.806 110.212 234.24 109.241 234.55C108.27 234.85 107.164 235 105.924 235H98.0811V212.788H105.165ZM125.738 227.932C124.467 227.973 123.382 228.077 122.483 228.242C121.595 228.397 120.866 228.604 120.298 228.862C119.74 229.12 119.332 229.425 119.073 229.776C118.825 230.128 118.701 230.52 118.701 230.954C118.701 231.368 118.769 231.724 118.903 232.024C119.037 232.324 119.218 232.572 119.445 232.768C119.683 232.954 119.957 233.093 120.267 233.186C120.587 233.269 120.928 233.31 121.29 233.31C121.776 233.31 122.22 233.264 122.623 233.171C123.026 233.068 123.403 232.923 123.754 232.737C124.116 232.551 124.457 232.329 124.777 232.07C125.108 231.812 125.428 231.518 125.738 231.187V227.932ZM116.826 221.515C117.694 220.678 118.629 220.053 119.631 219.639C120.634 219.226 121.745 219.019 122.964 219.019C123.842 219.019 124.622 219.164 125.304 219.453C125.986 219.743 126.56 220.146 127.025 220.662C127.49 221.179 127.841 221.804 128.079 222.538C128.317 223.272 128.435 224.078 128.435 224.956V235H127.211C126.942 235 126.736 234.959 126.591 234.876C126.446 234.783 126.333 234.607 126.25 234.349L125.94 232.861C125.527 233.243 125.124 233.584 124.731 233.884C124.338 234.173 123.925 234.421 123.491 234.628C123.057 234.824 122.592 234.974 122.096 235.078C121.61 235.191 121.068 235.248 120.468 235.248C119.859 235.248 119.285 235.165 118.748 235C118.211 234.824 117.74 234.566 117.337 234.225C116.945 233.884 116.63 233.455 116.392 232.938C116.165 232.411 116.051 231.791 116.051 231.078C116.051 230.458 116.221 229.864 116.562 229.296C116.903 228.717 117.456 228.206 118.221 227.761C118.986 227.317 119.983 226.955 121.212 226.676C122.442 226.387 123.951 226.222 125.738 226.18V224.956C125.738 223.737 125.475 222.817 124.948 222.197C124.421 221.567 123.651 221.251 122.638 221.251C121.956 221.251 121.383 221.339 120.918 221.515C120.463 221.68 120.065 221.871 119.724 222.088C119.394 222.295 119.104 222.486 118.856 222.662C118.619 222.827 118.381 222.91 118.143 222.91C117.957 222.91 117.797 222.863 117.663 222.77C117.529 222.667 117.415 222.543 117.322 222.398L116.826 221.515ZM135.258 222.445C135.754 221.37 136.363 220.533 137.087 219.934C137.81 219.324 138.693 219.019 139.737 219.019C140.068 219.019 140.383 219.056 140.683 219.128C140.993 219.2 141.266 219.314 141.504 219.469L141.303 221.53C141.241 221.789 141.086 221.918 140.838 221.918C140.693 221.918 140.481 221.887 140.202 221.825C139.923 221.763 139.608 221.732 139.257 221.732C138.761 221.732 138.316 221.804 137.924 221.949C137.541 222.094 137.195 222.311 136.885 222.6C136.585 222.879 136.312 223.23 136.064 223.654C135.826 224.067 135.609 224.543 135.413 225.08V235H132.638V219.298H134.219C134.519 219.298 134.725 219.355 134.839 219.469C134.953 219.583 135.03 219.779 135.072 220.058L135.258 222.445ZM143.93 235V219.298H145.589C145.981 219.298 146.224 219.49 146.317 219.872L146.519 221.484C147.097 220.771 147.748 220.187 148.472 219.732C149.195 219.278 150.032 219.05 150.983 219.05C152.037 219.05 152.889 219.345 153.54 219.934C154.201 220.523 154.677 221.319 154.966 222.321C155.193 221.753 155.483 221.262 155.834 220.848C156.196 220.435 156.599 220.094 157.043 219.825C157.487 219.557 157.958 219.36 158.454 219.236C158.96 219.112 159.471 219.05 159.988 219.05C160.815 219.05 161.548 219.185 162.189 219.453C162.84 219.712 163.388 220.094 163.832 220.6C164.287 221.107 164.633 221.732 164.871 222.476C165.108 223.21 165.227 224.052 165.227 225.002V235H162.453V225.002C162.453 223.773 162.184 222.843 161.647 222.212C161.109 221.572 160.334 221.251 159.322 221.251C158.867 221.251 158.433 221.334 158.02 221.499C157.617 221.654 157.26 221.887 156.95 222.197C156.64 222.507 156.392 222.9 156.206 223.375C156.03 223.84 155.943 224.382 155.943 225.002V235H153.168V225.002C153.168 223.742 152.915 222.801 152.409 222.181C151.902 221.561 151.163 221.251 150.192 221.251C149.51 221.251 148.88 221.437 148.301 221.809C147.722 222.171 147.19 222.667 146.705 223.297V235H143.93ZM179.929 225.436C179.929 224.796 179.836 224.212 179.65 223.685C179.475 223.148 179.211 222.688 178.86 222.305C178.519 221.913 178.1 221.613 177.604 221.406C177.108 221.189 176.545 221.081 175.915 221.081C174.592 221.081 173.543 221.468 172.768 222.243C172.004 223.008 171.528 224.072 171.342 225.436H179.929ZM182.161 232.799C181.82 233.212 181.412 233.574 180.937 233.884C180.462 234.184 179.95 234.432 179.402 234.628C178.865 234.824 178.307 234.969 177.728 235.062C177.15 235.165 176.576 235.217 176.008 235.217C174.923 235.217 173.921 235.036 173.001 234.674C172.092 234.302 171.301 233.765 170.629 233.062C169.968 232.349 169.451 231.471 169.079 230.427C168.707 229.384 168.521 228.185 168.521 226.831C168.521 225.736 168.687 224.713 169.017 223.762C169.358 222.812 169.844 221.99 170.474 221.298C171.105 220.595 171.875 220.048 172.784 219.655C173.693 219.252 174.716 219.05 175.853 219.05C176.793 219.05 177.661 219.211 178.457 219.531C179.263 219.841 179.955 220.296 180.534 220.895C181.123 221.484 181.583 222.218 181.913 223.096C182.244 223.964 182.409 224.956 182.409 226.072C182.409 226.506 182.363 226.795 182.27 226.94C182.177 227.085 182.001 227.157 181.743 227.157H171.249C171.28 228.149 171.415 229.012 171.652 229.745C171.9 230.479 172.241 231.094 172.675 231.59C173.109 232.076 173.626 232.442 174.225 232.69C174.825 232.928 175.496 233.047 176.24 233.047C176.933 233.047 177.527 232.969 178.023 232.814C178.529 232.649 178.963 232.473 179.325 232.287C179.687 232.101 179.986 231.931 180.224 231.776C180.472 231.611 180.684 231.528 180.859 231.528C181.087 231.528 181.262 231.616 181.386 231.791L182.161 232.799ZM188.402 221.577C188.743 221.195 189.105 220.848 189.487 220.538C189.87 220.228 190.273 219.965 190.696 219.748C191.13 219.521 191.585 219.35 192.06 219.236C192.546 219.112 193.068 219.05 193.626 219.05C194.483 219.05 195.238 219.195 195.889 219.484C196.55 219.763 197.098 220.166 197.532 220.693C197.976 221.21 198.312 221.835 198.539 222.569C198.767 223.303 198.88 224.114 198.88 225.002V235H196.106V225.002C196.106 223.814 195.832 222.894 195.284 222.243C194.747 221.582 193.925 221.251 192.82 221.251C192.003 221.251 191.239 221.448 190.526 221.84C189.823 222.233 189.172 222.765 188.573 223.437V235H185.798V219.298H187.457C187.849 219.298 188.092 219.49 188.185 219.872L188.402 221.577ZM205.998 219.298V235H203.239V219.298H205.998ZM206.587 214.369C206.587 214.638 206.531 214.891 206.417 215.129C206.314 215.356 206.169 215.563 205.983 215.749C205.807 215.925 205.595 216.064 205.347 216.167C205.11 216.271 204.857 216.322 204.588 216.322C204.319 216.322 204.066 216.271 203.828 216.167C203.601 216.064 203.4 215.925 203.224 215.749C203.048 215.563 202.909 215.356 202.805 215.129C202.702 214.891 202.65 214.638 202.65 214.369C202.65 214.101 202.702 213.848 202.805 213.61C202.909 213.362 203.048 213.15 203.224 212.974C203.4 212.788 203.601 212.644 203.828 212.54C204.066 212.437 204.319 212.385 204.588 212.385C204.857 212.385 205.11 212.437 205.347 212.54C205.595 212.644 205.807 212.788 205.983 212.974C206.169 213.15 206.314 213.362 206.417 213.61C206.531 213.848 206.587 214.101 206.587 214.369ZM219.041 227.932C217.77 227.973 216.685 228.077 215.786 228.242C214.898 228.397 214.169 228.604 213.601 228.862C213.043 229.12 212.635 229.425 212.376 229.776C212.128 230.128 212.004 230.52 212.004 230.954C212.004 231.368 212.071 231.724 212.206 232.024C212.34 232.324 212.521 232.572 212.748 232.768C212.986 232.954 213.26 233.093 213.57 233.186C213.89 233.269 214.231 233.31 214.593 233.31C215.078 233.31 215.523 233.264 215.926 233.171C216.329 233.068 216.706 232.923 217.057 232.737C217.419 232.551 217.76 232.329 218.08 232.07C218.411 231.812 218.731 231.518 219.041 231.187V227.932ZM210.129 221.515C210.997 220.678 211.932 220.053 212.934 219.639C213.937 219.226 215.047 219.019 216.267 219.019C217.145 219.019 217.925 219.164 218.607 219.453C219.289 219.743 219.863 220.146 220.328 220.662C220.793 221.179 221.144 221.804 221.382 222.538C221.619 223.272 221.738 224.078 221.738 224.956V235H220.514C220.245 235 220.038 234.959 219.894 234.876C219.749 234.783 219.635 234.607 219.553 234.349L219.243 232.861C218.829 233.243 218.426 233.584 218.034 233.884C217.641 234.173 217.228 234.421 216.794 234.628C216.36 234.824 215.895 234.974 215.399 235.078C214.913 235.191 214.371 235.248 213.771 235.248C213.162 235.248 212.588 235.165 212.051 235C211.513 234.824 211.043 234.566 210.64 234.225C210.248 233.884 209.932 233.455 209.695 232.938C209.467 232.411 209.354 231.791 209.354 231.078C209.354 230.458 209.524 229.864 209.865 229.296C210.206 228.717 210.759 228.206 211.524 227.761C212.288 227.317 213.286 226.955 214.515 226.676C215.745 226.387 217.254 226.222 219.041 226.18V224.956C219.041 223.737 218.778 222.817 218.251 222.197C217.724 221.567 216.954 221.251 215.941 221.251C215.259 221.251 214.686 221.339 214.221 221.515C213.766 221.68 213.368 221.871 213.027 222.088C212.697 222.295 212.407 222.486 212.159 222.662C211.922 222.827 211.684 222.91 211.446 222.91C211.26 222.91 211.1 222.863 210.966 222.77C210.831 222.667 210.718 222.543 210.625 222.398L210.129 221.515Z" fill="#3C3B3B"/>
<ellipse cx="469.5" cy="123.5" rx="125.5" ry="123.5" fill="#F7F7F7"/>
<path d="M441.016 119.852V124H417.592V119.852H426.955V90.0535C426.955 89.1588 426.986 88.254 427.047 87.339L419.269 94.0185C419.005 94.2422 418.74 94.3845 418.476 94.4455C418.212 94.4862 417.968 94.4862 417.744 94.4455C417.52 94.4048 417.307 94.3235 417.104 94.2015C416.921 94.0795 416.778 93.9473 416.677 93.805L414.969 91.4565L427.992 80.202H432.415V119.852H441.016ZM453.678 93.134C453.678 94.5167 453.871 95.757 454.257 96.855C454.664 97.9327 455.233 98.8477 455.965 99.6C456.718 100.352 457.623 100.922 458.68 101.308C459.758 101.694 460.957 101.887 462.279 101.887C463.743 101.887 465.034 101.654 466.152 101.186C467.291 100.698 468.247 100.057 469.019 99.2645C469.792 98.4715 470.382 97.5565 470.788 96.5195C471.195 95.4825 471.398 94.4048 471.398 93.2865C471.398 91.9242 471.175 90.694 470.727 89.596C470.3 88.4777 469.701 87.5322 468.928 86.7595C468.155 85.9868 467.23 85.3972 466.152 84.9905C465.095 84.5635 463.926 84.35 462.645 84.35C461.303 84.35 460.083 84.5737 458.985 85.021C457.887 85.448 456.941 86.0478 456.148 86.8205C455.355 87.5932 454.745 88.5183 454.318 89.596C453.891 90.6737 453.678 91.853 453.678 93.134ZM466.366 106.584C466.813 105.995 467.23 105.436 467.616 104.907C468.003 104.378 468.369 103.85 468.714 103.321C467.596 104.216 466.335 104.897 464.932 105.364C463.529 105.832 462.045 106.066 460.479 106.066C458.832 106.066 457.267 105.791 455.782 105.242C454.318 104.693 453.027 103.89 451.909 102.833C450.791 101.755 449.896 100.444 449.225 98.8985C448.574 97.3328 448.249 95.5435 448.249 93.5305C448.249 91.6192 448.605 89.8298 449.316 88.1625C450.028 86.4952 451.024 85.0413 452.305 83.801C453.586 82.5607 455.111 81.5847 456.88 80.873C458.649 80.1613 460.591 79.8055 462.706 79.8055C464.8 79.8055 466.701 80.1512 468.409 80.8425C470.117 81.5338 471.581 82.4997 472.801 83.74C474.021 84.9803 474.957 86.4647 475.607 88.193C476.278 89.9213 476.614 91.8327 476.614 93.927C476.614 95.1877 476.492 96.3873 476.248 97.526C476.024 98.6443 475.689 99.7525 475.241 100.85C474.814 101.928 474.286 103.006 473.655 104.083C473.025 105.141 472.313 106.229 471.52 107.347L460.876 122.719C460.612 123.105 460.235 123.42 459.747 123.664C459.259 123.888 458.7 124 458.07 124H453.068L466.366 106.584ZM502.147 90.8465C502.147 92.5545 501.883 94.0897 501.354 95.452C500.825 96.794 500.114 97.9327 499.219 98.868C498.345 99.783 497.318 100.484 496.139 100.972C494.98 101.46 493.749 101.704 492.448 101.704C491.086 101.704 489.815 101.46 488.636 100.972C487.456 100.484 486.429 99.783 485.555 98.868C484.701 97.9327 484.03 96.794 483.542 95.452C483.054 94.0897 482.81 92.5545 482.81 90.8465C482.81 89.0978 483.054 87.5423 483.542 86.18C484.03 84.8177 484.701 83.6688 485.555 82.7335C486.429 81.7982 487.456 81.0865 488.636 80.5985C489.815 80.1105 491.086 79.8665 492.448 79.8665C493.831 79.8665 495.112 80.1105 496.291 80.5985C497.47 81.0865 498.497 81.7982 499.372 82.7335C500.246 83.6688 500.927 84.8177 501.415 86.18C501.903 87.5423 502.147 89.0978 502.147 90.8465ZM497.938 90.8465C497.938 89.5045 497.796 88.3658 497.511 87.4305C497.226 86.4952 496.83 85.7327 496.322 85.143C495.834 84.533 495.254 84.0958 494.583 83.8315C493.912 83.5672 493.2 83.435 492.448 83.435C491.696 83.435 490.994 83.5672 490.344 83.8315C489.693 84.0958 489.124 84.533 488.636 85.143C488.148 85.7327 487.761 86.4952 487.477 87.4305C487.192 88.3658 487.05 89.5045 487.05 90.8465C487.05 92.1682 487.192 93.2967 487.477 94.232C487.761 95.147 488.148 95.8993 488.636 96.489C489.124 97.0583 489.693 97.4752 490.344 97.7395C490.994 97.9835 491.696 98.1055 492.448 98.1055C493.2 98.1055 493.912 97.9835 494.583 97.7395C495.254 97.4752 495.834 97.0583 496.322 96.489C496.83 95.8993 497.226 95.147 497.511 94.232C497.796 93.2967 497.938 92.1682 497.938 90.8465ZM517.611 81.2085C517.814 80.9645 518.048 80.751 518.312 80.568C518.597 80.385 518.973 80.2935 519.441 80.2935H523.375L491.411 123.115C491.228 123.38 490.994 123.593 490.71 123.756C490.425 123.919 490.079 124 489.673 124H485.677L517.611 81.2085ZM526.334 113.691C526.334 115.399 526.069 116.924 525.541 118.266C525.012 119.608 524.3 120.747 523.406 121.682C522.531 122.597 521.504 123.298 520.325 123.786C519.166 124.275 517.936 124.519 516.635 124.519C515.252 124.519 513.971 124.275 512.792 123.786C511.633 123.298 510.616 122.597 509.742 121.682C508.888 120.747 508.217 119.608 507.729 118.266C507.241 116.924 506.997 115.399 506.997 113.691C506.997 111.942 507.241 110.387 507.729 109.024C508.217 107.642 508.888 106.483 509.742 105.547C510.616 104.612 511.633 103.9 512.792 103.412C513.971 102.924 515.252 102.68 516.635 102.68C517.997 102.68 519.268 102.924 520.447 103.412C521.647 103.9 522.674 104.612 523.528 105.547C524.402 106.483 525.083 107.642 525.571 109.024C526.079 110.387 526.334 111.942 526.334 113.691ZM522.125 113.691C522.125 112.349 521.982 111.21 521.698 110.275C521.413 109.319 521.016 108.547 520.508 107.957C520.02 107.367 519.441 106.94 518.77 106.676C518.099 106.412 517.387 106.279 516.635 106.279C515.882 106.279 515.171 106.412 514.5 106.676C513.849 106.94 513.28 107.367 512.792 107.957C512.304 108.547 511.917 109.319 511.633 110.275C511.368 111.21 511.236 112.349 511.236 113.691C511.236 115.013 511.368 116.131 511.633 117.046C511.917 117.961 512.304 118.713 512.792 119.303C513.28 119.872 513.849 120.289 514.5 120.553C515.171 120.797 515.882 120.919 516.635 120.919C517.387 120.919 518.099 120.797 518.77 120.553C519.441 120.289 520.02 119.872 520.508 119.303C521.016 118.713 521.413 117.961 521.698 117.046C521.982 116.131 522.125 115.013 522.125 113.691Z" fill="#303030"/>
<path d="M426.861 141.788V164H423.854V153.894H411.873V164H408.866V141.788H411.873V151.693H423.854V141.788H426.861ZM441.758 154.436C441.758 153.796 441.665 153.212 441.479 152.685C441.304 152.148 441.04 151.688 440.689 151.305C440.348 150.913 439.929 150.613 439.433 150.406C438.937 150.189 438.374 150.081 437.744 150.081C436.421 150.081 435.372 150.468 434.597 151.243C433.833 152.008 433.357 153.072 433.171 154.436H441.758ZM443.99 161.799C443.649 162.212 443.241 162.574 442.766 162.884C442.29 163.184 441.779 163.432 441.231 163.628C440.694 163.824 440.136 163.969 439.557 164.062C438.979 164.165 438.405 164.217 437.837 164.217C436.752 164.217 435.749 164.036 434.83 163.674C433.92 163.302 433.13 162.765 432.458 162.062C431.797 161.349 431.28 160.471 430.908 159.427C430.536 158.384 430.35 157.185 430.35 155.831C430.35 154.736 430.516 153.713 430.846 152.762C431.187 151.812 431.673 150.99 432.303 150.298C432.934 149.595 433.703 149.048 434.613 148.655C435.522 148.252 436.545 148.05 437.682 148.05C438.622 148.05 439.49 148.211 440.286 148.531C441.092 148.841 441.784 149.296 442.363 149.895C442.952 150.484 443.412 151.218 443.742 152.096C444.073 152.964 444.238 153.956 444.238 155.072C444.238 155.506 444.192 155.795 444.099 155.94C444.006 156.085 443.83 156.157 443.572 156.157H433.078C433.109 157.149 433.244 158.012 433.481 158.745C433.729 159.479 434.07 160.094 434.504 160.59C434.938 161.076 435.455 161.442 436.054 161.69C436.654 161.928 437.325 162.047 438.069 162.047C438.762 162.047 439.356 161.969 439.852 161.814C440.358 161.649 440.792 161.473 441.154 161.287C441.515 161.101 441.815 160.931 442.053 160.776C442.301 160.611 442.513 160.528 442.688 160.528C442.916 160.528 443.091 160.616 443.215 160.791L443.99 161.799ZM450.324 141.168V164H447.565V141.168H450.324ZM468.097 148.298L461.696 164H459.216L452.814 148.298H455.062C455.289 148.298 455.475 148.355 455.62 148.469C455.765 148.583 455.863 148.717 455.914 148.872L459.898 158.978C460.022 159.36 460.13 159.732 460.223 160.094C460.316 160.456 460.404 160.817 460.487 161.179C460.57 160.817 460.657 160.456 460.75 160.094C460.843 159.732 460.957 159.36 461.091 158.978L465.121 148.872C465.183 148.707 465.287 148.572 465.431 148.469C465.576 148.355 465.747 148.298 465.943 148.298H468.097ZM480.558 154.436C480.558 153.796 480.465 153.212 480.279 152.685C480.103 152.148 479.84 151.688 479.488 151.305C479.147 150.913 478.729 150.613 478.233 150.406C477.737 150.189 477.174 150.081 476.543 150.081C475.221 150.081 474.172 150.468 473.397 151.243C472.632 152.008 472.157 153.072 471.971 154.436H480.558ZM482.79 161.799C482.449 162.212 482.041 162.574 481.565 162.884C481.09 163.184 480.579 163.432 480.031 163.628C479.494 163.824 478.936 163.969 478.357 164.062C477.778 164.165 477.205 164.217 476.636 164.217C475.551 164.217 474.549 164.036 473.629 163.674C472.72 163.302 471.93 162.765 471.258 162.062C470.597 161.349 470.08 160.471 469.708 159.427C469.336 158.384 469.15 157.185 469.15 155.831C469.15 154.736 469.315 153.713 469.646 152.762C469.987 151.812 470.473 150.99 471.103 150.298C471.733 149.595 472.503 149.048 473.412 148.655C474.322 148.252 475.345 148.05 476.481 148.05C477.422 148.05 478.29 148.211 479.085 148.531C479.891 148.841 480.584 149.296 481.162 149.895C481.751 150.484 482.211 151.218 482.542 152.096C482.873 152.964 483.038 153.956 483.038 155.072C483.038 155.506 482.991 155.795 482.898 155.94C482.805 156.085 482.63 156.157 482.371 156.157H471.878C471.909 157.149 472.043 158.012 472.281 158.745C472.529 159.479 472.87 160.094 473.304 160.59C473.738 161.076 474.255 161.442 474.854 161.69C475.453 161.928 476.125 162.047 476.869 162.047C477.561 162.047 478.155 161.969 478.651 161.814C479.158 161.649 479.592 161.473 479.953 161.287C480.315 161.101 480.615 160.931 480.852 160.776C481.1 160.611 481.312 160.528 481.488 160.528C481.715 160.528 481.891 160.616 482.015 160.791L482.79 161.799ZM500.721 164H497.962V150.608H489.871V160.032C489.871 160.693 490.031 161.184 490.351 161.504C490.672 161.825 491.085 161.985 491.591 161.985C491.881 161.985 492.129 161.949 492.335 161.876C492.552 161.794 492.738 161.706 492.893 161.613C493.048 161.52 493.177 161.437 493.281 161.365C493.394 161.282 493.493 161.241 493.575 161.241C493.72 161.241 493.849 161.329 493.963 161.504L494.769 162.822C494.293 163.266 493.72 163.618 493.048 163.876C492.377 164.124 491.684 164.248 490.971 164.248C489.731 164.248 488.775 163.902 488.104 163.209C487.442 162.517 487.112 161.52 487.112 160.218V150.608H485.221C485.055 150.608 484.916 150.561 484.802 150.468C484.689 150.365 484.632 150.21 484.632 150.003V148.903L487.205 148.562L487.84 143.726C487.871 143.571 487.938 143.447 488.042 143.354C488.155 143.251 488.3 143.199 488.476 143.199H489.871V148.608H500.721V164ZM501.403 143.261C501.403 143.53 501.346 143.783 501.232 144.02C501.129 144.248 500.984 144.449 500.798 144.625C500.623 144.801 500.416 144.94 500.178 145.043C499.941 145.147 499.687 145.198 499.419 145.198C499.15 145.198 498.897 145.147 498.659 145.043C498.432 144.94 498.23 144.801 498.055 144.625C497.879 144.449 497.74 144.248 497.636 144.02C497.533 143.783 497.481 143.53 497.481 143.261C497.481 142.992 497.533 142.739 497.636 142.501C497.74 142.253 497.879 142.042 498.055 141.866C498.23 141.68 498.432 141.535 498.659 141.432C498.897 141.329 499.15 141.277 499.419 141.277C499.687 141.277 499.941 141.329 500.178 141.432C500.416 141.535 500.623 141.68 500.798 141.866C500.984 142.042 501.129 142.253 501.232 142.501C501.346 142.739 501.403 142.992 501.403 143.261ZM516.026 151.088C515.943 151.202 515.86 151.29 515.778 151.352C515.695 151.414 515.581 151.445 515.437 151.445C515.282 151.445 515.111 151.383 514.925 151.259C514.739 151.125 514.507 150.98 514.228 150.825C513.959 150.67 513.623 150.53 513.22 150.406C512.828 150.272 512.342 150.205 511.763 150.205C510.988 150.205 510.306 150.344 509.717 150.623C509.128 150.892 508.632 151.285 508.229 151.801C507.837 152.318 507.537 152.943 507.33 153.677C507.134 154.411 507.036 155.232 507.036 156.141C507.036 157.092 507.144 157.939 507.361 158.683C507.578 159.417 507.883 160.037 508.276 160.543C508.679 161.039 509.159 161.422 509.717 161.69C510.286 161.949 510.921 162.078 511.624 162.078C512.295 162.078 512.848 162 513.282 161.845C513.716 161.68 514.073 161.499 514.352 161.303C514.641 161.107 514.879 160.931 515.065 160.776C515.261 160.611 515.452 160.528 515.638 160.528C515.866 160.528 516.041 160.616 516.165 160.791L516.94 161.799C516.599 162.223 516.212 162.584 515.778 162.884C515.344 163.184 514.874 163.437 514.367 163.643C513.871 163.84 513.349 163.984 512.802 164.078C512.254 164.171 511.696 164.217 511.128 164.217C510.146 164.217 509.232 164.036 508.384 163.674C507.547 163.313 506.819 162.791 506.199 162.109C505.579 161.417 505.093 160.569 504.742 159.567C504.39 158.565 504.215 157.423 504.215 156.141C504.215 154.974 504.375 153.894 504.695 152.902C505.026 151.91 505.501 151.057 506.121 150.344C506.752 149.621 507.521 149.058 508.431 148.655C509.35 148.252 510.404 148.05 511.593 148.05C512.698 148.05 513.67 148.231 514.507 148.593C515.354 148.944 516.103 149.445 516.754 150.096L516.026 151.088ZM528.257 156.932C526.986 156.973 525.901 157.077 525.002 157.242C524.113 157.397 523.384 157.604 522.816 157.862C522.258 158.12 521.85 158.425 521.592 158.776C521.344 159.128 521.22 159.52 521.22 159.954C521.22 160.368 521.287 160.724 521.421 161.024C521.555 161.324 521.736 161.572 521.964 161.768C522.201 161.954 522.475 162.093 522.785 162.186C523.105 162.269 523.446 162.31 523.808 162.31C524.294 162.31 524.738 162.264 525.141 162.171C525.544 162.068 525.921 161.923 526.273 161.737C526.634 161.551 526.975 161.329 527.296 161.07C527.626 160.812 527.947 160.518 528.257 160.187V156.932ZM519.344 150.515C520.212 149.678 521.147 149.053 522.15 148.639C523.152 148.226 524.263 148.019 525.482 148.019C526.36 148.019 527.141 148.164 527.823 148.453C528.505 148.743 529.078 149.146 529.543 149.662C530.008 150.179 530.359 150.804 530.597 151.538C530.835 152.272 530.954 153.078 530.954 153.956V164H529.729C529.46 164 529.254 163.959 529.109 163.876C528.964 163.783 528.851 163.607 528.768 163.349L528.458 161.861C528.045 162.243 527.642 162.584 527.249 162.884C526.856 163.173 526.443 163.421 526.009 163.628C525.575 163.824 525.11 163.974 524.614 164.078C524.128 164.191 523.586 164.248 522.987 164.248C522.377 164.248 521.803 164.165 521.266 164C520.729 163.824 520.259 163.566 519.856 163.225C519.463 162.884 519.148 162.455 518.91 161.938C518.683 161.411 518.569 160.791 518.569 160.078C518.569 159.458 518.74 158.864 519.081 158.296C519.422 157.717 519.974 157.206 520.739 156.761C521.504 156.317 522.501 155.955 523.731 155.676C524.96 155.387 526.469 155.222 528.257 155.18V153.956C528.257 152.737 527.993 151.817 527.466 151.197C526.939 150.567 526.169 150.251 525.157 150.251C524.475 150.251 523.901 150.339 523.436 150.515C522.981 150.68 522.584 150.871 522.243 151.088C521.912 151.295 521.623 151.486 521.375 151.662C521.137 151.827 520.899 151.91 520.662 151.91C520.476 151.91 520.315 151.863 520.181 151.77C520.047 151.667 519.933 151.543 519.84 151.398L519.344 150.515Z" fill="#3C3B3B"/>
<ellipse cx="732" cy="128.5" rx="90" ry="88.5" fill="#F7F7F7"/>
<path d="M709.119 117.668V121H690.303V117.668H697.825V93.7315C697.825 93.0128 697.849 92.286 697.898 91.551L691.651 96.9165C691.438 97.0962 691.226 97.2105 691.014 97.2595C690.801 97.2922 690.605 97.2922 690.426 97.2595C690.246 97.2268 690.074 97.1615 689.911 97.0635C689.764 96.9655 689.65 96.8593 689.568 96.745L688.196 94.8585L698.658 85.818H702.21V117.668H709.119ZM739.307 103.458C739.307 106.529 738.972 109.191 738.302 111.445C737.649 113.683 736.751 115.536 735.607 117.006C734.464 118.476 733.108 119.571 731.54 120.289C729.989 121.008 728.323 121.368 726.542 121.368C724.746 121.368 723.072 121.008 721.52 120.289C719.985 119.571 718.645 118.476 717.502 117.006C716.359 115.536 715.46 113.683 714.807 111.445C714.154 109.191 713.827 106.529 713.827 103.458C713.827 100.387 714.154 97.725 714.807 95.471C715.46 93.217 716.359 91.355 717.502 89.885C718.645 88.3987 719.985 87.2962 721.52 86.5775C723.072 85.8588 724.746 85.4995 726.542 85.4995C728.323 85.4995 729.989 85.8588 731.54 86.5775C733.108 87.2962 734.464 88.3987 735.607 89.885C736.751 91.355 737.649 93.217 738.302 95.471C738.972 97.725 739.307 100.387 739.307 103.458ZM734.774 103.458C734.774 100.779 734.546 98.5335 734.088 96.7205C733.647 94.8912 733.043 93.4212 732.275 92.3105C731.524 91.1998 730.65 90.4077 729.654 89.934C728.658 89.444 727.62 89.199 726.542 89.199C725.464 89.199 724.427 89.444 723.431 89.934C722.435 90.4077 721.561 91.1998 720.809 92.3105C720.058 93.4212 719.454 94.8912 718.996 96.7205C718.555 98.5335 718.335 100.779 718.335 103.458C718.335 106.137 718.555 108.382 718.996 110.195C719.454 112.008 720.058 113.47 720.809 114.581C721.561 115.692 722.435 116.492 723.431 116.982C724.427 117.456 725.464 117.692 726.542 117.692C727.62 117.692 728.658 117.456 729.654 116.982C730.65 116.492 731.524 115.692 732.275 114.581C733.043 113.47 733.647 112.008 734.088 110.195C734.546 108.382 734.774 106.137 734.774 103.458ZM758.225 94.3685C758.225 95.7405 758.012 96.9737 757.588 98.068C757.163 99.146 756.591 100.061 755.873 100.812C755.17 101.547 754.346 102.11 753.398 102.502C752.467 102.894 751.479 103.09 750.434 103.09C749.339 103.09 748.319 102.894 747.371 102.502C746.424 102.11 745.599 101.547 744.897 100.812C744.211 100.061 743.672 99.146 743.28 98.068C742.888 96.9737 742.692 95.7405 742.692 94.3685C742.692 92.9638 742.888 91.7143 743.28 90.62C743.672 89.5257 744.211 88.6028 744.897 87.8515C745.599 87.1002 746.424 86.5285 747.371 86.1365C748.319 85.7445 749.339 85.5485 750.434 85.5485C751.544 85.5485 752.573 85.7445 753.521 86.1365C754.468 86.5285 755.293 87.1002 755.995 87.8515C756.698 88.6028 757.245 89.5257 757.637 90.62C758.029 91.7143 758.225 92.9638 758.225 94.3685ZM754.844 94.3685C754.844 93.2905 754.729 92.3758 754.501 91.6245C754.272 90.8732 753.954 90.2607 753.545 89.787C753.153 89.297 752.688 88.9458 752.149 88.7335C751.61 88.5212 751.038 88.415 750.434 88.415C749.829 88.415 749.266 88.5212 748.743 88.7335C748.221 88.9458 747.763 89.297 747.371 89.787C746.979 90.2607 746.669 90.8732 746.44 91.6245C746.212 92.3758 746.097 93.2905 746.097 94.3685C746.097 95.4302 746.212 96.3367 746.44 97.088C746.669 97.823 746.979 98.4273 747.371 98.901C747.763 99.3583 748.221 99.6932 748.743 99.9055C749.266 100.101 749.829 100.199 750.434 100.199C751.038 100.199 751.61 100.101 752.149 99.9055C752.688 99.6932 753.153 99.3583 753.545 98.901C753.954 98.4273 754.272 97.823 754.501 97.088C754.729 96.3367 754.844 95.4302 754.844 94.3685ZM770.646 86.6265C770.81 86.4305 770.997 86.259 771.21 86.112C771.438 85.965 771.741 85.8915 772.116 85.8915H775.277L749.601 120.289C749.454 120.502 749.266 120.673 749.037 120.804C748.809 120.935 748.531 121 748.204 121H744.995L770.646 86.6265ZM777.653 112.719C777.653 114.091 777.441 115.316 777.016 116.394C776.592 117.472 776.02 118.387 775.301 119.138C774.599 119.873 773.774 120.436 772.827 120.828C771.896 121.221 770.908 121.417 769.862 121.417C768.752 121.417 767.723 121.221 766.775 120.828C765.844 120.436 765.028 119.873 764.325 119.138C763.639 118.387 763.1 117.472 762.708 116.394C762.316 115.316 762.12 114.091 762.12 112.719C762.12 111.314 762.316 110.065 762.708 108.97C763.1 107.86 763.639 106.929 764.325 106.177C765.028 105.426 765.844 104.854 766.775 104.462C767.723 104.07 768.752 103.874 769.862 103.874C770.957 103.874 771.977 104.07 772.925 104.462C773.888 104.854 774.713 105.426 775.399 106.177C776.102 106.929 776.649 107.86 777.041 108.97C777.449 110.065 777.653 111.314 777.653 112.719ZM774.272 112.719C774.272 111.641 774.158 110.726 773.929 109.975C773.701 109.207 773.382 108.587 772.974 108.113C772.582 107.639 772.116 107.296 771.577 107.084C771.038 106.872 770.467 106.765 769.862 106.765C769.258 106.765 768.686 106.872 768.147 107.084C767.625 107.296 767.167 107.639 766.775 108.113C766.383 108.587 766.073 109.207 765.844 109.975C765.632 110.726 765.526 111.641 765.526 112.719C765.526 113.781 765.632 114.679 765.844 115.414C766.073 116.149 766.383 116.753 766.775 117.227C767.167 117.684 767.625 118.019 768.147 118.231C768.686 118.427 769.258 118.525 769.862 118.525C770.467 118.525 771.038 118.427 771.577 118.231C772.116 118.019 772.582 117.684 772.974 117.227C773.382 116.753 773.701 116.149 773.929 115.414C774.158 114.679 774.272 113.781 774.272 112.719Z" fill="#303030"/>
<path d="M710.29 138.788V161H707.283V150.894H695.301V161H692.294V138.788H695.301V148.693H707.283V138.788H710.29ZM723.218 153.932C721.947 153.973 720.862 154.077 719.963 154.242C719.074 154.397 718.346 154.604 717.777 154.862C717.219 155.12 716.811 155.425 716.553 155.776C716.305 156.128 716.181 156.52 716.181 156.954C716.181 157.368 716.248 157.724 716.382 158.024C716.517 158.324 716.697 158.572 716.925 158.768C717.162 158.954 717.436 159.093 717.746 159.186C718.067 159.269 718.408 159.31 718.769 159.31C719.255 159.31 719.699 159.264 720.102 159.171C720.505 159.068 720.882 158.923 721.234 158.737C721.595 158.551 721.936 158.329 722.257 158.07C722.587 157.812 722.908 157.518 723.218 157.187V153.932ZM714.305 147.515C715.173 146.678 716.108 146.053 717.111 145.639C718.113 145.226 719.224 145.019 720.443 145.019C721.322 145.019 722.102 145.164 722.784 145.453C723.466 145.743 724.039 146.146 724.504 146.662C724.969 147.179 725.321 147.804 725.558 148.538C725.796 149.272 725.915 150.078 725.915 150.956V161H724.69C724.422 161 724.215 160.959 724.07 160.876C723.926 160.783 723.812 160.607 723.729 160.349L723.419 158.861C723.006 159.243 722.603 159.584 722.21 159.884C721.818 160.173 721.404 160.421 720.97 160.628C720.536 160.824 720.071 160.974 719.575 161.078C719.09 161.191 718.547 161.248 717.948 161.248C717.338 161.248 716.765 161.165 716.227 161C715.69 160.824 715.22 160.566 714.817 160.225C714.424 159.884 714.109 159.455 713.871 158.938C713.644 158.411 713.53 157.791 713.53 157.078C713.53 156.458 713.701 155.864 714.042 155.296C714.383 154.717 714.936 154.206 715.7 153.761C716.465 153.317 717.462 152.955 718.692 152.676C719.921 152.387 721.43 152.222 723.218 152.18V150.956C723.218 149.737 722.954 148.817 722.427 148.197C721.9 147.567 721.13 147.251 720.118 147.251C719.436 147.251 718.862 147.339 718.397 147.515C717.943 147.68 717.545 147.871 717.204 148.088C716.873 148.295 716.584 148.486 716.336 148.662C716.098 148.827 715.86 148.91 715.623 148.91C715.437 148.91 715.277 148.863 715.142 148.77C715.008 148.667 714.894 148.543 714.801 148.398L714.305 147.515ZM732.566 147.577C732.907 147.195 733.269 146.848 733.651 146.538C734.034 146.228 734.437 145.965 734.86 145.748C735.294 145.521 735.749 145.35 736.224 145.236C736.71 145.112 737.232 145.05 737.79 145.05C738.648 145.05 739.402 145.195 740.053 145.484C740.714 145.763 741.262 146.166 741.696 146.693C742.14 147.21 742.476 147.835 742.703 148.569C742.931 149.303 743.044 150.114 743.044 151.002V161H740.27V151.002C740.27 149.814 739.996 148.894 739.448 148.243C738.911 147.582 738.09 147.251 736.984 147.251C736.168 147.251 735.403 147.448 734.69 147.84C733.987 148.233 733.336 148.765 732.737 149.437V161H729.962V145.298H731.621C732.014 145.298 732.256 145.49 732.349 145.872L732.566 147.577ZM756.238 147.887C756.114 148.114 755.923 148.228 755.665 148.228C755.51 148.228 755.334 148.171 755.138 148.057C754.942 147.944 754.699 147.82 754.409 147.685C754.13 147.541 753.795 147.412 753.402 147.298C753.009 147.174 752.544 147.112 752.007 147.112C751.542 147.112 751.123 147.174 750.751 147.298C750.379 147.412 750.059 147.572 749.79 147.778C749.532 147.985 749.331 148.228 749.186 148.507C749.052 148.776 748.984 149.07 748.984 149.39C748.984 149.793 749.098 150.129 749.325 150.398C749.563 150.667 749.873 150.899 750.255 151.095C750.638 151.292 751.072 151.467 751.557 151.622C752.043 151.767 752.539 151.927 753.045 152.103C753.562 152.268 754.063 152.454 754.549 152.661C755.035 152.868 755.469 153.126 755.851 153.436C756.233 153.746 756.538 154.128 756.765 154.583C757.003 155.027 757.122 155.565 757.122 156.195C757.122 156.918 756.993 157.59 756.734 158.21C756.476 158.82 756.094 159.352 755.587 159.806C755.081 160.251 754.461 160.602 753.727 160.86C752.994 161.119 752.146 161.248 751.185 161.248C750.09 161.248 749.098 161.072 748.209 160.721C747.321 160.359 746.566 159.899 745.946 159.341L746.597 158.287C746.68 158.153 746.778 158.05 746.892 157.977C747.006 157.905 747.15 157.869 747.326 157.869C747.512 157.869 747.708 157.941 747.915 158.086C748.122 158.231 748.37 158.391 748.659 158.566C748.959 158.742 749.32 158.902 749.744 159.047C750.168 159.192 750.695 159.264 751.325 159.264C751.862 159.264 752.332 159.197 752.735 159.062C753.138 158.918 753.474 158.727 753.743 158.489C754.012 158.251 754.208 157.977 754.332 157.667C754.466 157.357 754.533 157.027 754.533 156.675C754.533 156.241 754.415 155.885 754.177 155.606C753.95 155.317 753.645 155.074 753.262 154.877C752.88 154.671 752.441 154.495 751.945 154.35C751.459 154.195 750.958 154.035 750.441 153.87C749.935 153.705 749.434 153.519 748.938 153.312C748.452 153.095 748.018 152.826 747.636 152.506C747.254 152.186 746.944 151.793 746.706 151.328C746.479 150.853 746.365 150.279 746.365 149.607C746.365 149.008 746.489 148.435 746.737 147.887C746.985 147.329 747.347 146.843 747.822 146.43C748.297 146.006 748.881 145.67 749.573 145.423C750.266 145.174 751.056 145.05 751.945 145.05C752.978 145.05 753.903 145.216 754.719 145.546C755.546 145.867 756.259 146.311 756.858 146.879L756.238 147.887ZM770.859 151.436C770.859 150.796 770.766 150.212 770.58 149.685C770.404 149.148 770.14 148.688 769.789 148.305C769.448 147.913 769.03 147.613 768.534 147.406C768.038 147.189 767.474 147.081 766.844 147.081C765.521 147.081 764.473 147.468 763.698 148.243C762.933 149.008 762.458 150.072 762.272 151.436H770.859ZM773.091 158.799C772.75 159.212 772.341 159.574 771.866 159.884C771.391 160.184 770.879 160.432 770.332 160.628C769.794 160.824 769.236 160.969 768.658 161.062C768.079 161.165 767.505 161.217 766.937 161.217C765.852 161.217 764.85 161.036 763.93 160.674C763.021 160.302 762.23 159.765 761.559 159.062C760.897 158.349 760.381 157.471 760.009 156.427C759.637 155.384 759.451 154.185 759.451 152.831C759.451 151.736 759.616 150.713 759.947 149.762C760.288 148.812 760.773 147.99 761.404 147.298C762.034 146.595 762.804 146.048 763.713 145.655C764.622 145.252 765.645 145.05 766.782 145.05C767.722 145.05 768.59 145.211 769.386 145.531C770.192 145.841 770.884 146.296 771.463 146.895C772.052 147.484 772.512 148.218 772.843 149.096C773.173 149.964 773.339 150.956 773.339 152.072C773.339 152.506 773.292 152.795 773.199 152.94C773.106 153.085 772.93 153.157 772.672 153.157H762.179C762.21 154.149 762.344 155.012 762.582 155.745C762.83 156.479 763.171 157.094 763.605 157.59C764.039 158.076 764.555 158.442 765.155 158.69C765.754 158.928 766.426 159.047 767.17 159.047C767.862 159.047 768.456 158.969 768.952 158.814C769.458 158.649 769.892 158.473 770.254 158.287C770.616 158.101 770.915 157.931 771.153 157.776C771.401 157.611 771.613 157.528 771.789 157.528C772.016 157.528 772.192 157.616 772.316 157.791L773.091 158.799Z" fill="#3C3B3B"/>
<ellipse cx="861" cy="294.5" rx="89" ry="87.5" fill="#F7F7F7"/>
<path d="M838.119 291.668V295H819.303V291.668H826.825V267.731C826.825 267.013 826.849 266.286 826.898 265.551L820.651 270.916C820.438 271.096 820.226 271.21 820.014 271.259C819.801 271.292 819.605 271.292 819.426 271.259C819.246 271.227 819.074 271.161 818.911 271.063C818.764 270.965 818.65 270.859 818.568 270.745L817.196 268.858L827.658 259.818H831.21V291.668H838.119ZM868.307 277.458C868.307 280.529 867.972 283.191 867.302 285.445C866.649 287.683 865.751 289.536 864.607 291.006C863.464 292.476 862.108 293.571 860.54 294.289C858.989 295.008 857.323 295.368 855.542 295.368C853.746 295.368 852.072 295.008 850.52 294.289C848.985 293.571 847.645 292.476 846.502 291.006C845.359 289.536 844.46 287.683 843.807 285.445C843.154 283.191 842.827 280.529 842.827 277.458C842.827 274.387 843.154 271.725 843.807 269.471C844.46 267.217 845.359 265.355 846.502 263.885C847.645 262.399 848.985 261.296 850.52 260.577C852.072 259.859 853.746 259.499 855.542 259.499C857.323 259.499 858.989 259.859 860.54 260.577C862.108 261.296 863.464 262.399 864.607 263.885C865.751 265.355 866.649 267.217 867.302 269.471C867.972 271.725 868.307 274.387 868.307 277.458ZM863.774 277.458C863.774 274.779 863.546 272.533 863.088 270.72C862.647 268.891 862.043 267.421 861.275 266.31C860.524 265.2 859.65 264.408 858.654 263.934C857.658 263.444 856.62 263.199 855.542 263.199C854.464 263.199 853.427 263.444 852.431 263.934C851.435 264.408 850.561 265.2 849.809 266.31C849.058 267.421 848.454 268.891 847.996 270.72C847.555 272.533 847.335 274.779 847.335 277.458C847.335 280.137 847.555 282.382 847.996 284.195C848.454 286.008 849.058 287.47 849.809 288.581C850.561 289.692 851.435 290.492 852.431 290.982C853.427 291.456 854.464 291.692 855.542 291.692C856.62 291.692 857.658 291.456 858.654 290.982C859.65 290.492 860.524 289.692 861.275 288.581C862.043 287.47 862.647 286.008 863.088 284.195C863.546 282.382 863.774 280.137 863.774 277.458ZM887.225 268.368C887.225 269.74 887.012 270.974 886.588 272.068C886.163 273.146 885.591 274.061 884.873 274.812C884.17 275.547 883.346 276.11 882.398 276.502C881.467 276.894 880.479 277.09 879.434 277.09C878.339 277.09 877.319 276.894 876.371 276.502C875.424 276.11 874.599 275.547 873.897 274.812C873.211 274.061 872.672 273.146 872.28 272.068C871.888 270.974 871.692 269.74 871.692 268.368C871.692 266.964 871.888 265.714 872.28 264.62C872.672 263.526 873.211 262.603 873.897 261.851C874.599 261.1 875.424 260.528 876.371 260.136C877.319 259.744 878.339 259.548 879.434 259.548C880.544 259.548 881.573 259.744 882.521 260.136C883.468 260.528 884.293 261.1 884.995 261.851C885.698 262.603 886.245 263.526 886.637 264.62C887.029 265.714 887.225 266.964 887.225 268.368ZM883.844 268.368C883.844 267.29 883.729 266.376 883.501 265.624C883.272 264.873 882.954 264.261 882.545 263.787C882.153 263.297 881.688 262.946 881.149 262.733C880.61 262.521 880.038 262.415 879.434 262.415C878.829 262.415 878.266 262.521 877.743 262.733C877.221 262.946 876.763 263.297 876.371 263.787C875.979 264.261 875.669 264.873 875.44 265.624C875.212 266.376 875.097 267.29 875.097 268.368C875.097 269.43 875.212 270.337 875.44 271.088C875.669 271.823 875.979 272.427 876.371 272.901C876.763 273.358 877.221 273.693 877.743 273.905C878.266 274.101 878.829 274.199 879.434 274.199C880.038 274.199 880.61 274.101 881.149 273.905C881.688 273.693 882.153 273.358 882.545 272.901C882.954 272.427 883.272 271.823 883.501 271.088C883.729 270.337 883.844 269.43 883.844 268.368ZM899.646 260.626C899.81 260.43 899.997 260.259 900.21 260.112C900.438 259.965 900.741 259.891 901.116 259.891H904.277L878.601 294.289C878.454 294.502 878.266 294.673 878.037 294.804C877.809 294.935 877.531 295 877.204 295H873.995L899.646 260.626ZM906.653 286.719C906.653 288.091 906.441 289.316 906.016 290.394C905.592 291.472 905.02 292.387 904.301 293.138C903.599 293.873 902.774 294.436 901.827 294.828C900.896 295.221 899.908 295.417 898.862 295.417C897.752 295.417 896.723 295.221 895.775 294.828C894.844 294.436 894.028 293.873 893.325 293.138C892.639 292.387 892.1 291.472 891.708 290.394C891.316 289.316 891.12 288.091 891.12 286.719C891.12 285.314 891.316 284.065 891.708 282.97C892.1 281.86 892.639 280.929 893.325 280.177C894.028 279.426 894.844 278.854 895.775 278.462C896.723 278.07 897.752 277.874 898.862 277.874C899.957 277.874 900.977 278.07 901.925 278.462C902.888 278.854 903.713 279.426 904.399 280.177C905.102 280.929 905.649 281.86 906.041 282.97C906.449 284.065 906.653 285.314 906.653 286.719ZM903.272 286.719C903.272 285.641 903.158 284.726 902.929 283.975C902.701 283.207 902.382 282.587 901.974 282.113C901.582 281.639 901.116 281.296 900.577 281.084C900.038 280.872 899.467 280.765 898.862 280.765C898.258 280.765 897.686 280.872 897.147 281.084C896.625 281.296 896.167 281.639 895.775 282.113C895.383 282.587 895.073 283.207 894.844 283.975C894.632 284.726 894.526 285.641 894.526 286.719C894.526 287.781 894.632 288.679 894.844 289.414C895.073 290.149 895.383 290.753 895.775 291.227C896.167 291.684 896.625 292.019 897.147 292.231C897.686 292.427 898.258 292.525 898.862 292.525C899.467 292.525 900.038 292.427 900.577 292.231C901.116 292.019 901.582 291.684 901.974 291.227C902.382 290.753 902.701 290.149 902.929 289.414C903.158 288.679 903.272 287.781 903.272 286.719Z" fill="#303030"/>
<path d="M844.278 332.473V335H831.676V312.788H834.668V332.473H844.278ZM858.828 319.298V335H857.185C856.792 335 856.544 334.809 856.441 334.426L856.224 332.737C855.542 333.491 854.777 334.101 853.93 334.566C853.082 335.021 852.111 335.248 851.016 335.248C850.158 335.248 849.399 335.109 848.737 334.829C848.086 334.54 847.539 334.137 847.094 333.62C846.65 333.104 846.314 332.479 846.087 331.745C845.87 331.011 845.761 330.2 845.761 329.311V319.298H848.52V329.311C848.52 330.5 848.789 331.419 849.326 332.07C849.874 332.721 850.706 333.047 851.822 333.047C852.638 333.047 853.398 332.856 854.1 332.473C854.813 332.081 855.469 331.543 856.069 330.861V319.298H858.828ZM865.822 312.168V325.607H866.535C866.742 325.607 866.912 325.581 867.046 325.529C867.191 325.467 867.341 325.349 867.496 325.173L872.456 319.856C872.601 319.681 872.75 319.546 872.905 319.453C873.071 319.35 873.288 319.298 873.556 319.298H876.052L870.27 325.452C869.991 325.803 869.692 326.077 869.371 326.273C869.557 326.397 869.723 326.542 869.867 326.707C870.022 326.862 870.167 327.043 870.301 327.25L876.439 335H873.975C873.737 335 873.531 334.964 873.355 334.891C873.19 334.809 873.045 334.664 872.921 334.457L867.759 328.025C867.604 327.808 867.449 327.668 867.294 327.606C867.15 327.534 866.922 327.498 866.612 327.498H865.822V335H863.047V312.168H865.822ZM884.375 319.05C885.522 319.05 886.556 319.242 887.475 319.624C888.395 320.006 889.18 320.549 889.831 321.251C890.482 321.954 890.978 322.807 891.319 323.809C891.671 324.801 891.846 325.912 891.846 327.141C891.846 328.381 891.671 329.497 891.319 330.489C890.978 331.481 890.482 332.329 889.831 333.031C889.18 333.734 888.395 334.277 887.475 334.659C886.556 335.031 885.522 335.217 884.375 335.217C883.218 335.217 882.174 335.031 881.244 334.659C880.325 334.277 879.539 333.734 878.888 333.031C878.237 332.329 877.736 331.481 877.385 330.489C877.044 329.497 876.873 328.381 876.873 327.141C876.873 325.912 877.044 324.801 877.385 323.809C877.736 322.807 878.237 321.954 878.888 321.251C879.539 320.549 880.325 320.006 881.244 319.624C882.174 319.242 883.218 319.05 884.375 319.05ZM884.375 333.062C885.925 333.062 887.083 332.546 887.847 331.512C888.612 330.469 888.994 329.017 888.994 327.157C888.994 325.287 888.612 323.83 887.847 322.786C887.083 321.742 885.925 321.22 884.375 321.22C883.59 321.22 882.903 321.355 882.314 321.623C881.735 321.892 881.249 322.28 880.857 322.786C880.474 323.292 880.185 323.917 879.989 324.661C879.803 325.395 879.71 326.227 879.71 327.157C879.71 329.017 880.092 330.469 880.857 331.512C881.632 332.546 882.805 333.062 884.375 333.062Z" fill="#3C3B3B"/>
<ellipse cx="632" cy="341" rx="108" ry="106" fill="#F7F7F7"/>
<path d="M609.119 338.668V342H590.303V338.668H597.825V314.731C597.825 314.013 597.849 313.286 597.898 312.551L591.651 317.916C591.438 318.096 591.226 318.21 591.014 318.259C590.801 318.292 590.605 318.292 590.426 318.259C590.246 318.227 590.074 318.161 589.911 318.063C589.764 317.965 589.65 317.859 589.568 317.745L588.196 315.858L598.658 306.818H602.21V338.668H609.119ZM630.242 329.333V314.854C630.242 314.429 630.258 313.964 630.291 313.457C630.324 312.951 630.373 312.437 630.438 311.914L617.649 329.333H630.242ZM639.38 329.333V331.832C639.38 332.094 639.299 332.314 639.135 332.494C638.988 332.674 638.752 332.763 638.425 332.763H634.064V342H630.242V332.763H614.66C614.333 332.763 614.047 332.674 613.802 332.494C613.574 332.298 613.427 332.061 613.361 331.783L612.92 329.554L629.997 306.891H634.064V329.333H639.38ZM658.225 315.368C658.225 316.74 658.012 317.974 657.588 319.068C657.163 320.146 656.591 321.061 655.873 321.812C655.17 322.547 654.346 323.11 653.398 323.502C652.467 323.894 651.479 324.09 650.434 324.09C649.339 324.09 648.319 323.894 647.371 323.502C646.424 323.11 645.599 322.547 644.897 321.812C644.211 321.061 643.672 320.146 643.28 319.068C642.888 317.974 642.692 316.74 642.692 315.368C642.692 313.964 642.888 312.714 643.28 311.62C643.672 310.526 644.211 309.603 644.897 308.851C645.599 308.1 646.424 307.528 647.371 307.136C648.319 306.744 649.339 306.548 650.434 306.548C651.544 306.548 652.573 306.744 653.521 307.136C654.468 307.528 655.293 308.1 655.995 308.851C656.698 309.603 657.245 310.526 657.637 311.62C658.029 312.714 658.225 313.964 658.225 315.368ZM654.844 315.368C654.844 314.29 654.729 313.376 654.501 312.624C654.272 311.873 653.954 311.261 653.545 310.787C653.153 310.297 652.688 309.946 652.149 309.733C651.61 309.521 651.038 309.415 650.434 309.415C649.829 309.415 649.266 309.521 648.743 309.733C648.221 309.946 647.763 310.297 647.371 310.787C646.979 311.261 646.669 311.873 646.44 312.624C646.212 313.376 646.097 314.29 646.097 315.368C646.097 316.43 646.212 317.337 646.44 318.088C646.669 318.823 646.979 319.427 647.371 319.901C647.763 320.358 648.221 320.693 648.743 320.905C649.266 321.101 649.829 321.199 650.434 321.199C651.038 321.199 651.61 321.101 652.149 320.905C652.688 320.693 653.153 320.358 653.545 319.901C653.954 319.427 654.272 318.823 654.501 318.088C654.729 317.337 654.844 316.43 654.844 315.368ZM670.646 307.626C670.81 307.43 670.997 307.259 671.21 307.112C671.438 306.965 671.741 306.891 672.116 306.891H675.277L649.601 341.289C649.454 341.502 649.266 341.673 649.037 341.804C648.809 341.935 648.531 342 648.204 342H644.995L670.646 307.626ZM677.653 333.719C677.653 335.091 677.441 336.316 677.016 337.394C676.592 338.472 676.02 339.387 675.301 340.138C674.599 340.873 673.774 341.436 672.827 341.828C671.896 342.221 670.908 342.417 669.862 342.417C668.752 342.417 667.723 342.221 666.775 341.828C665.844 341.436 665.028 340.873 664.325 340.138C663.639 339.387 663.1 338.472 662.708 337.394C662.316 336.316 662.12 335.091 662.12 333.719C662.12 332.314 662.316 331.065 662.708 329.97C663.1 328.86 663.639 327.929 664.325 327.177C665.028 326.426 665.844 325.854 666.775 325.462C667.723 325.07 668.752 324.874 669.862 324.874C670.957 324.874 671.977 325.07 672.925 325.462C673.888 325.854 674.713 326.426 675.399 327.177C676.102 327.929 676.649 328.86 677.041 329.97C677.449 331.065 677.653 332.314 677.653 333.719ZM674.272 333.719C674.272 332.641 674.158 331.726 673.929 330.975C673.701 330.207 673.382 329.587 672.974 329.113C672.582 328.639 672.116 328.296 671.577 328.084C671.038 327.872 670.467 327.765 669.862 327.765C669.258 327.765 668.686 327.872 668.147 328.084C667.625 328.296 667.167 328.639 666.775 329.113C666.383 329.587 666.073 330.207 665.844 330.975C665.632 331.726 665.526 332.641 665.526 333.719C665.526 334.781 665.632 335.679 665.844 336.414C666.073 337.149 666.383 337.753 666.775 338.227C667.167 338.684 667.625 339.019 668.147 339.231C668.686 339.427 669.258 339.525 669.862 339.525C670.467 339.525 671.038 339.427 671.577 339.231C672.116 339.019 672.582 338.684 672.974 338.227C673.382 337.753 673.701 337.149 673.929 336.414C674.158 335.679 674.272 334.781 674.272 333.719Z" fill="#303030"/>
<path d="M595.831 373.754L592.343 364.717C592.24 364.449 592.131 364.139 592.018 363.787C591.904 363.426 591.796 363.043 591.692 362.64C591.475 363.477 591.253 364.175 591.026 364.733L587.538 373.754H595.831ZM602.093 382H599.768C599.499 382 599.282 381.933 599.117 381.798C598.951 381.664 598.827 381.494 598.745 381.287L596.668 375.924H586.701L584.624 381.287C584.562 381.473 584.443 381.638 584.268 381.783C584.092 381.928 583.875 382 583.617 382H581.292L590.173 359.788H593.211L602.093 382ZM607 359.168V382H604.241V359.168H607ZM614.171 359.168V382H611.412V359.168H614.171ZM627.636 368.887C627.512 369.114 627.32 369.228 627.062 369.228C626.907 369.228 626.731 369.171 626.535 369.057C626.339 368.944 626.096 368.82 625.807 368.685C625.528 368.541 625.192 368.412 624.799 368.298C624.406 368.174 623.941 368.112 623.404 368.112C622.939 368.112 622.521 368.174 622.149 368.298C621.777 368.412 621.456 368.572 621.188 368.778C620.929 368.985 620.728 369.228 620.583 369.507C620.449 369.776 620.382 370.07 620.382 370.39C620.382 370.793 620.495 371.129 620.723 371.398C620.96 371.667 621.27 371.899 621.653 372.095C622.035 372.292 622.469 372.467 622.955 372.622C623.44 372.767 623.936 372.927 624.443 373.103C624.959 373.268 625.46 373.454 625.946 373.661C626.432 373.868 626.866 374.126 627.248 374.436C627.63 374.746 627.935 375.128 628.163 375.583C628.4 376.027 628.519 376.565 628.519 377.195C628.519 377.918 628.39 378.59 628.132 379.21C627.873 379.82 627.491 380.352 626.985 380.806C626.478 381.251 625.858 381.602 625.125 381.86C624.391 382.119 623.544 382.248 622.583 382.248C621.487 382.248 620.495 382.072 619.607 381.721C618.718 381.359 617.964 380.899 617.344 380.341L617.995 379.287C618.077 379.153 618.175 379.05 618.289 378.977C618.403 378.905 618.547 378.869 618.723 378.869C618.909 378.869 619.105 378.941 619.312 379.086C619.519 379.231 619.767 379.391 620.056 379.566C620.356 379.742 620.717 379.902 621.141 380.047C621.565 380.192 622.092 380.264 622.722 380.264C623.259 380.264 623.73 380.197 624.133 380.062C624.536 379.918 624.871 379.727 625.14 379.489C625.409 379.251 625.605 378.977 625.729 378.667C625.863 378.357 625.931 378.027 625.931 377.675C625.931 377.241 625.812 376.885 625.574 376.606C625.347 376.317 625.042 376.074 624.66 375.877C624.277 375.671 623.838 375.495 623.342 375.35C622.856 375.195 622.355 375.035 621.839 374.87C621.332 374.705 620.831 374.519 620.335 374.312C619.849 374.095 619.415 373.826 619.033 373.506C618.651 373.186 618.341 372.793 618.103 372.328C617.876 371.853 617.762 371.279 617.762 370.607C617.762 370.008 617.886 369.435 618.134 368.887C618.382 368.329 618.744 367.843 619.219 367.43C619.694 367.006 620.278 366.67 620.971 366.423C621.663 366.174 622.453 366.05 623.342 366.05C624.375 366.05 625.3 366.216 626.117 366.546C626.943 366.867 627.656 367.311 628.256 367.879L627.636 368.887ZM636.567 382.248C635.327 382.248 634.371 381.902 633.7 381.209C633.038 380.517 632.708 379.52 632.708 378.218V368.608H630.817C630.651 368.608 630.512 368.561 630.398 368.468C630.285 368.365 630.228 368.21 630.228 368.003V366.903L632.801 366.577L633.436 361.726C633.467 361.571 633.534 361.447 633.638 361.354C633.751 361.251 633.896 361.199 634.072 361.199H635.467V366.608H640.008V368.608H635.467V378.032C635.467 378.693 635.627 379.184 635.947 379.504C636.268 379.825 636.681 379.985 637.187 379.985C637.477 379.985 637.725 379.949 637.931 379.876C638.148 379.794 638.334 379.706 638.489 379.613C638.644 379.52 638.773 379.437 638.877 379.365C638.99 379.282 639.089 379.241 639.171 379.241C639.316 379.241 639.445 379.329 639.559 379.504L640.365 380.822C639.889 381.266 639.316 381.618 638.644 381.876C637.973 382.124 637.28 382.248 636.567 382.248ZM651.212 374.932C649.941 374.973 648.856 375.077 647.957 375.242C647.068 375.397 646.339 375.604 645.771 375.862C645.213 376.12 644.805 376.425 644.547 376.776C644.299 377.128 644.175 377.52 644.175 377.954C644.175 378.368 644.242 378.724 644.376 379.024C644.51 379.324 644.691 379.572 644.919 379.768C645.156 379.954 645.43 380.093 645.74 380.186C646.06 380.269 646.401 380.31 646.763 380.31C647.249 380.31 647.693 380.264 648.096 380.171C648.499 380.068 648.876 379.923 649.228 379.737C649.589 379.551 649.93 379.329 650.251 379.07C650.581 378.812 650.902 378.518 651.212 378.187V374.932ZM642.299 368.515C643.167 367.678 644.102 367.053 645.105 366.639C646.107 366.226 647.218 366.019 648.437 366.019C649.315 366.019 650.096 366.164 650.778 366.453C651.46 366.743 652.033 367.146 652.498 367.662C652.963 368.179 653.314 368.804 653.552 369.538C653.79 370.272 653.909 371.078 653.909 371.956V382H652.684C652.415 382 652.209 381.959 652.064 381.876C651.919 381.783 651.806 381.607 651.723 381.349L651.413 379.861C651 380.243 650.597 380.584 650.204 380.884C649.811 381.173 649.398 381.421 648.964 381.628C648.53 381.824 648.065 381.974 647.569 382.078C647.083 382.191 646.541 382.248 645.942 382.248C645.332 382.248 644.758 382.165 644.221 382C643.684 381.824 643.214 381.566 642.811 381.225C642.418 380.884 642.103 380.455 641.865 379.938C641.638 379.411 641.524 378.791 641.524 378.078C641.524 377.458 641.695 376.864 642.036 376.296C642.377 375.717 642.929 375.206 643.694 374.761C644.459 374.317 645.456 373.955 646.686 373.676C647.915 373.387 649.424 373.222 651.212 373.18V371.956C651.212 370.737 650.948 369.817 650.421 369.197C649.894 368.567 649.124 368.251 648.112 368.251C647.43 368.251 646.856 368.339 646.391 368.515C645.936 368.68 645.539 368.871 645.198 369.088C644.867 369.295 644.578 369.486 644.33 369.662C644.092 369.827 643.854 369.91 643.617 369.91C643.431 369.91 643.27 369.863 643.136 369.77C643.002 369.667 642.888 369.543 642.795 369.398L642.299 368.515ZM662.565 382.248C661.325 382.248 660.369 381.902 659.697 381.209C659.036 380.517 658.705 379.52 658.705 378.218V368.608H656.814C656.649 368.608 656.509 368.561 656.396 368.468C656.282 368.365 656.225 368.21 656.225 368.003V366.903L658.798 366.577L659.434 361.726C659.465 361.571 659.532 361.447 659.635 361.354C659.749 361.251 659.894 361.199 660.069 361.199H661.464V366.608H666.006V368.608H661.464V378.032C661.464 378.693 661.624 379.184 661.945 379.504C662.265 379.825 662.678 379.985 663.185 379.985C663.474 379.985 663.722 379.949 663.929 379.876C664.146 379.794 664.332 379.706 664.487 379.613C664.642 379.52 664.771 379.437 664.874 379.365C664.988 379.282 665.086 379.241 665.169 379.241C665.313 379.241 665.443 379.329 665.556 379.504L666.362 380.822C665.887 381.266 665.313 381.618 664.642 381.876C663.97 382.124 663.278 382.248 662.565 382.248ZM679.118 372.436C679.118 371.796 679.025 371.212 678.839 370.685C678.663 370.148 678.4 369.688 678.048 369.305C677.707 368.913 677.289 368.613 676.793 368.406C676.297 368.189 675.734 368.081 675.103 368.081C673.781 368.081 672.732 368.468 671.957 369.243C671.192 370.008 670.717 371.072 670.531 372.436H679.118ZM681.35 379.799C681.009 380.212 680.601 380.574 680.125 380.884C679.65 381.184 679.138 381.432 678.591 381.628C678.053 381.824 677.495 381.969 676.917 382.062C676.338 382.165 675.765 382.217 675.196 382.217C674.111 382.217 673.109 382.036 672.189 381.674C671.28 381.302 670.489 380.765 669.818 380.062C669.156 379.349 668.64 378.471 668.268 377.427C667.896 376.384 667.71 375.185 667.71 373.831C667.71 372.736 667.875 371.713 668.206 370.762C668.547 369.812 669.032 368.99 669.663 368.298C670.293 367.595 671.063 367.048 671.972 366.655C672.882 366.252 673.905 366.05 675.041 366.05C675.982 366.05 676.85 366.211 677.645 366.531C678.451 366.841 679.144 367.296 679.722 367.895C680.311 368.484 680.771 369.218 681.102 370.096C681.432 370.964 681.598 371.956 681.598 373.072C681.598 373.506 681.551 373.795 681.458 373.94C681.365 374.085 681.19 374.157 680.931 374.157H670.438C670.469 375.149 670.603 376.012 670.841 376.745C671.089 377.479 671.43 378.094 671.864 378.59C672.298 379.076 672.814 379.442 673.414 379.69C674.013 379.928 674.685 380.047 675.429 380.047C676.121 380.047 676.715 379.969 677.211 379.814C677.718 379.649 678.152 379.473 678.513 379.287C678.875 379.101 679.175 378.931 679.412 378.776C679.66 378.611 679.872 378.528 680.048 378.528C680.275 378.528 680.451 378.616 680.575 378.791L681.35 379.799Z" fill="#3C3B3B"/>
<ellipse cx="383" cy="385" rx="116" ry="114" fill="#F7F7F7"/>
<path d="M360.119 378.668V382H341.303V378.668H348.825V354.731C348.825 354.013 348.849 353.286 348.898 352.551L342.651 357.916C342.438 358.096 342.226 358.21 342.014 358.259C341.801 358.292 341.605 358.292 341.426 358.259C341.246 358.227 341.074 358.161 340.911 358.063C340.764 357.965 340.65 357.859 340.568 357.745L339.196 355.858L349.658 346.818H353.21V378.668H360.119ZM377.518 378.766C378.694 378.766 379.756 378.578 380.703 378.202C381.667 377.827 382.483 377.304 383.153 376.634C383.839 375.965 384.362 375.173 384.721 374.258C385.097 373.343 385.284 372.347 385.284 371.269C385.284 370.126 385.105 369.097 384.745 368.182C384.386 367.251 383.872 366.467 383.202 365.83C382.549 365.177 381.765 364.678 380.85 364.335C379.935 363.992 378.931 363.821 377.836 363.821C376.66 363.821 375.599 364.025 374.651 364.433C373.704 364.825 372.896 365.364 372.226 366.05C371.573 366.72 371.066 367.504 370.707 368.402C370.364 369.284 370.192 370.207 370.192 371.171C370.192 372.298 370.356 373.327 370.682 374.258C371.009 375.189 371.483 375.989 372.103 376.659C372.74 377.329 373.508 377.851 374.406 378.227C375.321 378.586 376.358 378.766 377.518 378.766ZM374.97 360.048C374.66 360.44 374.357 360.824 374.063 361.199C373.786 361.559 373.516 361.918 373.255 362.277C374.088 361.706 375.003 361.265 375.999 360.954C376.995 360.644 378.081 360.489 379.257 360.489C380.678 360.489 382.018 360.726 383.275 361.199C384.533 361.657 385.627 362.335 386.558 363.233C387.506 364.115 388.257 365.209 388.812 366.516C389.368 367.806 389.645 369.284 389.645 370.95C389.645 372.567 389.351 374.07 388.763 375.458C388.175 376.847 387.351 378.055 386.289 379.084C385.244 380.113 383.978 380.922 382.491 381.51C381.021 382.098 379.396 382.392 377.616 382.392C375.852 382.392 374.251 382.114 372.814 381.559C371.377 380.987 370.152 380.187 369.139 379.158C368.143 378.113 367.367 376.855 366.811 375.385C366.272 373.899 366.003 372.241 366.003 370.411C366.003 368.876 366.338 367.243 367.007 365.511C367.693 363.764 368.78 361.902 370.266 359.925L379.184 347.945C379.413 347.651 379.723 347.406 380.115 347.21C380.523 346.998 380.989 346.891 381.511 346.891H385.382L374.97 360.048ZM409.225 355.368C409.225 356.74 409.012 357.974 408.588 359.068C408.163 360.146 407.591 361.061 406.873 361.812C406.17 362.547 405.346 363.11 404.398 363.502C403.467 363.894 402.479 364.09 401.434 364.09C400.339 364.09 399.319 363.894 398.371 363.502C397.424 363.11 396.599 362.547 395.897 361.812C395.211 361.061 394.672 360.146 394.28 359.068C393.888 357.974 393.692 356.74 393.692 355.368C393.692 353.964 393.888 352.714 394.28 351.62C394.672 350.526 395.211 349.603 395.897 348.851C396.599 348.1 397.424 347.528 398.371 347.136C399.319 346.744 400.339 346.548 401.434 346.548C402.544 346.548 403.573 346.744 404.521 347.136C405.468 347.528 406.293 348.1 406.995 348.851C407.698 349.603 408.245 350.526 408.637 351.62C409.029 352.714 409.225 353.964 409.225 355.368ZM405.844 355.368C405.844 354.29 405.729 353.376 405.501 352.624C405.272 351.873 404.954 351.261 404.545 350.787C404.153 350.297 403.688 349.946 403.149 349.733C402.61 349.521 402.038 349.415 401.434 349.415C400.829 349.415 400.266 349.521 399.743 349.733C399.221 349.946 398.763 350.297 398.371 350.787C397.979 351.261 397.669 351.873 397.44 352.624C397.212 353.376 397.097 354.29 397.097 355.368C397.097 356.43 397.212 357.337 397.44 358.088C397.669 358.823 397.979 359.427 398.371 359.901C398.763 360.358 399.221 360.693 399.743 360.905C400.266 361.101 400.829 361.199 401.434 361.199C402.038 361.199 402.61 361.101 403.149 360.905C403.688 360.693 404.153 360.358 404.545 359.901C404.954 359.427 405.272 358.823 405.501 358.088C405.729 357.337 405.844 356.43 405.844 355.368ZM421.646 347.626C421.81 347.43 421.997 347.259 422.21 347.112C422.438 346.965 422.741 346.891 423.116 346.891H426.277L400.601 381.289C400.454 381.502 400.266 381.673 400.037 381.804C399.809 381.935 399.531 382 399.204 382H395.995L421.646 347.626ZM428.653 373.719C428.653 375.091 428.441 376.316 428.016 377.394C427.592 378.472 427.02 379.387 426.301 380.138C425.599 380.873 424.774 381.436 423.827 381.828C422.896 382.221 421.908 382.417 420.862 382.417C419.752 382.417 418.723 382.221 417.775 381.828C416.844 381.436 416.028 380.873 415.325 380.138C414.639 379.387 414.1 378.472 413.708 377.394C413.316 376.316 413.12 375.091 413.12 373.719C413.12 372.314 413.316 371.065 413.708 369.97C414.1 368.86 414.639 367.929 415.325 367.177C416.028 366.426 416.844 365.854 417.775 365.462C418.723 365.07 419.752 364.874 420.862 364.874C421.957 364.874 422.977 365.07 423.925 365.462C424.888 365.854 425.713 366.426 426.399 367.177C427.102 367.929 427.649 368.86 428.041 369.97C428.449 371.065 428.653 372.314 428.653 373.719ZM425.272 373.719C425.272 372.641 425.158 371.726 424.929 370.975C424.701 370.207 424.382 369.587 423.974 369.113C423.582 368.639 423.116 368.296 422.577 368.084C422.038 367.872 421.467 367.765 420.862 367.765C420.258 367.765 419.686 367.872 419.147 368.084C418.625 368.296 418.167 368.639 417.775 369.113C417.383 369.587 417.073 370.207 416.844 370.975C416.632 371.726 416.526 372.641 416.526 373.719C416.526 374.781 416.632 375.679 416.844 376.414C417.073 377.149 417.383 377.753 417.775 378.227C418.167 378.684 418.625 379.019 419.147 379.231C419.686 379.427 420.258 379.525 420.862 379.525C421.467 379.525 422.038 379.427 422.577 379.231C423.116 379.019 423.582 378.684 423.974 378.227C424.382 377.753 424.701 377.149 424.929 376.414C425.158 375.679 425.272 374.781 425.272 373.719Z" fill="#303030"/>
<path d="M364.984 411.32V419.845C363.868 420.651 362.675 421.256 361.404 421.659C360.143 422.052 358.759 422.248 357.25 422.248C355.462 422.248 353.85 421.974 352.414 421.426C350.978 420.868 349.748 420.093 348.725 419.101C347.712 418.099 346.932 416.9 346.384 415.505C345.837 414.11 345.563 412.576 345.563 410.902C345.563 409.207 345.826 407.662 346.353 406.267C346.891 404.872 347.65 403.679 348.632 402.687C349.614 401.685 350.807 400.91 352.212 400.362C353.618 399.814 355.188 399.54 356.924 399.54C357.803 399.54 358.619 399.608 359.373 399.742C360.128 399.866 360.825 400.052 361.466 400.3C362.107 400.538 362.701 400.832 363.248 401.183C363.796 401.524 364.308 401.912 364.783 402.346L363.93 403.71C363.796 403.917 363.62 404.051 363.403 404.113C363.197 404.165 362.964 404.113 362.706 403.958C362.458 403.813 362.174 403.638 361.853 403.431C361.533 403.224 361.14 403.028 360.675 402.842C360.221 402.646 359.678 402.48 359.048 402.346C358.428 402.212 357.689 402.144 356.831 402.144C355.581 402.144 354.45 402.351 353.437 402.764C352.424 403.167 351.561 403.751 350.848 404.516C350.135 405.27 349.588 406.19 349.205 407.275C348.823 408.35 348.632 409.559 348.632 410.902C348.632 412.297 348.828 413.547 349.221 414.653C349.624 415.748 350.192 416.683 350.926 417.458C351.67 418.223 352.569 418.807 353.623 419.21C354.677 419.613 355.86 419.814 357.172 419.814C358.206 419.814 359.12 419.701 359.916 419.473C360.722 419.236 361.507 418.91 362.272 418.497V413.614H358.815C358.619 413.614 358.459 413.558 358.335 413.444C358.221 413.33 358.164 413.191 358.164 413.025V411.32H364.984ZM379.108 412.436C379.108 411.796 379.015 411.212 378.829 410.685C378.654 410.148 378.39 409.688 378.039 409.305C377.698 408.913 377.279 408.613 376.783 408.406C376.287 408.189 375.724 408.081 375.094 408.081C373.771 408.081 372.722 408.468 371.947 409.243C371.183 410.008 370.707 411.072 370.521 412.436H379.108ZM381.34 419.799C380.999 420.212 380.591 420.574 380.116 420.884C379.64 421.184 379.129 421.432 378.581 421.628C378.044 421.824 377.486 421.969 376.907 422.062C376.329 422.165 375.755 422.217 375.187 422.217C374.102 422.217 373.099 422.036 372.18 421.674C371.27 421.302 370.48 420.765 369.808 420.062C369.147 419.349 368.63 418.471 368.258 417.427C367.886 416.384 367.7 415.185 367.7 413.831C367.7 412.736 367.866 411.713 368.196 410.762C368.537 409.812 369.023 408.99 369.653 408.298C370.284 407.595 371.053 407.048 371.963 406.655C372.872 406.252 373.895 406.05 375.032 406.05C375.972 406.05 376.84 406.211 377.636 406.531C378.442 406.841 379.134 407.296 379.713 407.895C380.302 408.484 380.762 409.218 381.092 410.096C381.423 410.964 381.588 411.956 381.588 413.072C381.588 413.506 381.542 413.795 381.449 413.94C381.356 414.085 381.18 414.157 380.922 414.157H370.428C370.459 415.149 370.594 416.012 370.831 416.745C371.079 417.479 371.42 418.094 371.854 418.59C372.288 419.076 372.805 419.442 373.404 419.69C374.004 419.928 374.675 420.047 375.419 420.047C376.112 420.047 376.706 419.969 377.202 419.814C377.708 419.649 378.142 419.473 378.504 419.287C378.865 419.101 379.165 418.931 379.403 418.776C379.651 418.611 379.863 418.528 380.038 418.528C380.266 418.528 380.441 418.616 380.565 418.791L381.34 419.799ZM387.736 406.298V422H384.977V406.298H387.736ZM388.325 401.369C388.325 401.638 388.268 401.891 388.155 402.129C388.051 402.356 387.907 402.563 387.721 402.749C387.545 402.925 387.333 403.064 387.085 403.167C386.848 403.271 386.594 403.322 386.326 403.322C386.057 403.322 385.804 403.271 385.566 403.167C385.339 403.064 385.137 402.925 384.962 402.749C384.786 402.563 384.647 402.356 384.543 402.129C384.44 401.891 384.388 401.638 384.388 401.369C384.388 401.101 384.44 400.848 384.543 400.61C384.647 400.362 384.786 400.15 384.962 399.974C385.137 399.788 385.339 399.644 385.566 399.54C385.804 399.437 386.057 399.385 386.326 399.385C386.594 399.385 386.848 399.437 387.085 399.54C387.333 399.644 387.545 399.788 387.721 399.974C387.907 400.15 388.051 400.362 388.155 400.61C388.268 400.848 388.325 401.101 388.325 401.369ZM403.042 409.088C402.959 409.202 402.877 409.29 402.794 409.352C402.711 409.414 402.598 409.445 402.453 409.445C402.298 409.445 402.127 409.383 401.941 409.259C401.755 409.125 401.523 408.98 401.244 408.825C400.975 408.67 400.639 408.53 400.236 408.406C399.844 408.272 399.358 408.205 398.779 408.205C398.004 408.205 397.322 408.344 396.733 408.623C396.144 408.892 395.648 409.285 395.245 409.801C394.853 410.318 394.553 410.943 394.346 411.677C394.15 412.411 394.052 413.232 394.052 414.141C394.052 415.092 394.16 415.939 394.377 416.683C394.594 417.417 394.899 418.037 395.292 418.543C395.695 419.039 396.175 419.422 396.733 419.69C397.302 419.949 397.937 420.078 398.64 420.078C399.312 420.078 399.864 420 400.298 419.845C400.732 419.68 401.089 419.499 401.368 419.303C401.657 419.107 401.895 418.931 402.081 418.776C402.277 418.611 402.468 418.528 402.654 418.528C402.882 418.528 403.057 418.616 403.181 418.791L403.956 419.799C403.615 420.223 403.228 420.584 402.794 420.884C402.36 421.184 401.89 421.437 401.383 421.643C400.887 421.84 400.366 421.984 399.818 422.078C399.27 422.171 398.712 422.217 398.144 422.217C397.162 422.217 396.248 422.036 395.4 421.674C394.563 421.313 393.835 420.791 393.215 420.109C392.595 419.417 392.109 418.569 391.758 417.567C391.407 416.565 391.231 415.423 391.231 414.141C391.231 412.974 391.391 411.894 391.711 410.902C392.042 409.91 392.517 409.057 393.137 408.344C393.768 407.621 394.538 407.058 395.447 406.655C396.367 406.252 397.421 406.05 398.609 406.05C399.715 406.05 400.686 406.231 401.523 406.593C402.37 406.944 403.119 407.445 403.77 408.096L403.042 409.088ZM413.109 406.05C414.256 406.05 415.29 406.242 416.209 406.624C417.129 407.006 417.914 407.549 418.565 408.251C419.216 408.954 419.712 409.807 420.053 410.809C420.405 411.801 420.58 412.912 420.58 414.141C420.58 415.381 420.405 416.497 420.053 417.489C419.712 418.481 419.216 419.329 418.565 420.031C417.914 420.734 417.129 421.277 416.209 421.659C415.29 422.031 414.256 422.217 413.109 422.217C411.952 422.217 410.908 422.031 409.978 421.659C409.059 421.277 408.273 420.734 407.622 420.031C406.971 419.329 406.47 418.481 406.119 417.489C405.778 416.497 405.607 415.381 405.607 414.141C405.607 412.912 405.778 411.801 406.119 410.809C406.47 409.807 406.971 408.954 407.622 408.251C408.273 407.549 409.059 407.006 409.978 406.624C410.908 406.242 411.952 406.05 413.109 406.05ZM413.109 420.062C414.659 420.062 415.817 419.546 416.581 418.512C417.346 417.469 417.728 416.017 417.728 414.157C417.728 412.287 417.346 410.83 416.581 409.786C415.817 408.742 414.659 408.22 413.109 408.22C412.324 408.22 411.637 408.355 411.048 408.623C410.469 408.892 409.983 409.28 409.591 409.786C409.208 410.292 408.919 410.917 408.723 411.661C408.537 412.395 408.444 413.227 408.444 414.157C408.444 416.017 408.826 417.469 409.591 418.512C410.366 419.546 411.539 420.062 413.109 420.062Z" fill="#3C3B3B"/>
</svg>
