<svg width="578" height="831" viewBox="0 0 578 831" fill="none" xmlns="http://www.w3.org/2000/svg">
<ellipse cx="159.5" cy="236.5" rx="159.5" ry="156.5" fill="#F7F7F7"/>
<path d="M108.206 180.74C108.468 178.911 108.972 177.296 109.718 175.896C110.465 174.477 111.408 173.292 112.546 172.34C113.704 171.388 115.02 170.669 116.494 170.184C117.988 169.68 119.593 169.428 121.31 169.428C123.009 169.428 124.577 169.671 126.014 170.156C127.452 170.641 128.684 171.332 129.71 172.228C130.756 173.124 131.568 174.207 132.146 175.476C132.725 176.745 133.014 178.155 133.014 179.704C133.014 180.973 132.846 182.112 132.51 183.12C132.193 184.109 131.726 184.977 131.11 185.724C130.513 186.471 129.785 187.105 128.926 187.628C128.068 188.151 127.106 188.58 126.042 188.916C128.656 189.588 130.616 190.745 131.922 192.388C133.248 194.012 133.91 196.047 133.91 198.492C133.91 200.34 133.556 202.001 132.846 203.476C132.156 204.951 131.204 206.211 129.99 207.256C128.777 208.283 127.358 209.076 125.734 209.636C124.129 210.177 122.402 210.448 120.554 210.448C118.426 210.448 116.606 210.187 115.094 209.664C113.582 209.123 112.304 208.385 111.258 207.452C110.213 206.519 109.354 205.417 108.682 204.148C108.01 202.86 107.441 201.469 106.974 199.976L109.13 199.08C109.69 198.837 110.232 198.772 110.754 198.884C111.296 198.996 111.688 199.304 111.93 199.808C112.173 200.331 112.472 200.956 112.826 201.684C113.2 202.412 113.704 203.112 114.338 203.784C114.973 204.456 115.776 205.025 116.746 205.492C117.736 205.959 118.986 206.192 120.498 206.192C121.898 206.192 123.121 205.968 124.166 205.52C125.23 205.053 126.108 204.456 126.798 203.728C127.508 203 128.04 202.188 128.394 201.292C128.749 200.396 128.926 199.509 128.926 198.632C128.926 197.549 128.786 196.56 128.506 195.664C128.226 194.768 127.704 193.993 126.938 193.34C126.173 192.687 125.118 192.173 123.774 191.8C122.449 191.427 120.741 191.24 118.65 191.24V187.628C120.368 187.609 121.824 187.423 123.018 187.068C124.232 186.713 125.212 186.228 125.958 185.612C126.724 184.996 127.274 184.259 127.61 183.4C127.965 182.541 128.142 181.589 128.142 180.544C128.142 179.387 127.956 178.379 127.582 177.52C127.228 176.661 126.733 175.952 126.098 175.392C125.464 174.832 124.708 174.412 123.83 174.132C122.972 173.852 122.038 173.712 121.03 173.712C120.022 173.712 119.08 173.861 118.202 174.16C117.344 174.459 116.578 174.879 115.906 175.42C115.253 175.943 114.702 176.568 114.254 177.296C113.806 178.024 113.489 178.827 113.302 179.704C113.06 180.357 112.752 180.796 112.378 181.02C112.024 181.225 111.501 181.281 110.81 181.188L108.206 180.74ZM165.555 206.192V210H144.051V206.192H152.647V178.836C152.647 178.015 152.675 177.184 152.731 176.344L145.591 182.476C145.348 182.681 145.105 182.812 144.863 182.868C144.62 182.905 144.396 182.905 144.191 182.868C143.985 182.831 143.789 182.756 143.603 182.644C143.435 182.532 143.304 182.411 143.211 182.28L141.643 180.124L153.599 169.792H157.659V206.192H165.555ZM189.751 179.564C189.751 181.132 189.508 182.541 189.023 183.792C188.538 185.024 187.884 186.069 187.063 186.928C186.26 187.768 185.318 188.412 184.235 188.86C183.171 189.308 182.042 189.532 180.847 189.532C179.596 189.532 178.43 189.308 177.347 188.86C176.264 188.412 175.322 187.768 174.519 186.928C173.735 186.069 173.119 185.024 172.671 183.792C172.223 182.541 171.999 181.132 171.999 179.564C171.999 177.959 172.223 176.531 172.671 175.28C173.119 174.029 173.735 172.975 174.519 172.116C175.322 171.257 176.264 170.604 177.347 170.156C178.43 169.708 179.596 169.484 180.847 169.484C182.116 169.484 183.292 169.708 184.375 170.156C185.458 170.604 186.4 171.257 187.203 172.116C188.006 172.975 188.631 174.029 189.079 175.28C189.527 176.531 189.751 177.959 189.751 179.564ZM185.887 179.564C185.887 178.332 185.756 177.287 185.495 176.428C185.234 175.569 184.87 174.869 184.403 174.328C183.955 173.768 183.423 173.367 182.807 173.124C182.191 172.881 181.538 172.76 180.847 172.76C180.156 172.76 179.512 172.881 178.915 173.124C178.318 173.367 177.795 173.768 177.347 174.328C176.899 174.869 176.544 175.569 176.283 176.428C176.022 177.287 175.891 178.332 175.891 179.564C175.891 180.777 176.022 181.813 176.283 182.672C176.544 183.512 176.899 184.203 177.347 184.744C177.795 185.267 178.318 185.649 178.915 185.892C179.512 186.116 180.156 186.228 180.847 186.228C181.538 186.228 182.191 186.116 182.807 185.892C183.423 185.649 183.955 185.267 184.403 184.744C184.87 184.203 185.234 183.512 185.495 182.672C185.756 181.813 185.887 180.777 185.887 179.564ZM203.947 170.716C204.134 170.492 204.348 170.296 204.591 170.128C204.852 169.96 205.198 169.876 205.627 169.876H209.239L179.895 209.188C179.727 209.431 179.512 209.627 179.251 209.776C178.99 209.925 178.672 210 178.299 210H174.631L203.947 170.716ZM211.955 200.536C211.955 202.104 211.712 203.504 211.227 204.736C210.742 205.968 210.088 207.013 209.267 207.872C208.464 208.712 207.522 209.356 206.439 209.804C205.375 210.252 204.246 210.476 203.051 210.476C201.782 210.476 200.606 210.252 199.523 209.804C198.459 209.356 197.526 208.712 196.723 207.872C195.939 207.013 195.323 205.968 194.875 204.736C194.427 203.504 194.203 202.104 194.203 200.536C194.203 198.931 194.427 197.503 194.875 196.252C195.323 194.983 195.939 193.919 196.723 193.06C197.526 192.201 198.459 191.548 199.523 191.1C200.606 190.652 201.782 190.428 203.051 190.428C204.302 190.428 205.468 190.652 206.551 191.1C207.652 191.548 208.595 192.201 209.379 193.06C210.182 193.919 210.807 194.983 211.255 196.252C211.722 197.503 211.955 198.931 211.955 200.536ZM208.091 200.536C208.091 199.304 207.96 198.259 207.699 197.4C207.438 196.523 207.074 195.813 206.607 195.272C206.159 194.731 205.627 194.339 205.011 194.096C204.395 193.853 203.742 193.732 203.051 193.732C202.36 193.732 201.707 193.853 201.091 194.096C200.494 194.339 199.971 194.731 199.523 195.272C199.075 195.813 198.72 196.523 198.459 197.4C198.216 198.259 198.095 199.304 198.095 200.536C198.095 201.749 198.216 202.776 198.459 203.616C198.72 204.456 199.075 205.147 199.523 205.688C199.971 206.211 200.494 206.593 201.091 206.836C201.707 207.06 202.36 207.172 203.051 207.172C203.742 207.172 204.395 207.06 205.011 206.836C205.627 206.593 206.159 206.211 206.607 205.688C207.074 205.147 207.438 204.456 207.699 203.616C207.96 202.776 208.091 201.749 208.091 200.536Z" fill="#303030"/>
<path d="M83.2159 236.32V244.845C82.0999 245.651 80.9064 246.256 79.6354 246.659C78.3747 247.052 76.9901 247.248 75.4814 247.248C73.6937 247.248 72.0817 246.974 70.6454 246.426C69.2091 245.868 67.9794 245.093 66.9564 244.101C65.9437 243.099 65.1636 241.9 64.6159 240.505C64.0682 239.11 63.7944 237.576 63.7944 235.902C63.7944 234.207 64.0579 232.662 64.5849 231.267C65.1222 229.872 65.8817 228.679 66.8634 227.687C67.8451 226.685 69.0386 225.91 70.4439 225.362C71.8492 224.814 73.4199 224.54 75.1559 224.54C76.0342 224.54 76.8506 224.608 77.6049 224.742C78.3592 224.866 79.0567 225.052 79.6974 225.3C80.3381 225.538 80.9322 225.832 81.4799 226.183C82.0276 226.524 82.5391 226.912 83.0144 227.346L82.1619 228.71C82.0276 228.917 81.8519 229.051 81.6349 229.113C81.4282 229.165 81.1957 229.113 80.9374 228.958C80.6894 228.813 80.4052 228.638 80.0849 228.431C79.7646 228.224 79.3719 228.028 78.9069 227.842C78.4522 227.646 77.9097 227.48 77.2794 227.346C76.6594 227.212 75.9206 227.144 75.0629 227.144C73.8126 227.144 72.6811 227.351 71.6684 227.764C70.6557 228.167 69.7929 228.751 69.0799 229.516C68.3669 230.27 67.8192 231.19 67.4369 232.275C67.0546 233.35 66.8634 234.559 66.8634 235.902C66.8634 237.297 67.0597 238.547 67.4524 239.653C67.8554 240.748 68.4237 241.683 69.1574 242.458C69.9014 243.223 70.8004 243.807 71.8544 244.21C72.9084 244.613 74.0916 244.814 75.4039 244.814C76.4372 244.814 77.3517 244.701 78.1474 244.473C78.9534 244.236 79.7387 243.91 80.5034 243.497V238.614H77.0469C76.8506 238.614 76.6904 238.558 76.5664 238.444C76.4527 238.33 76.3959 238.191 76.3959 238.025V236.32H83.2159ZM97.4948 237.436C97.4948 236.796 97.4018 236.212 97.2158 235.685C97.0401 235.148 96.7766 234.688 96.4253 234.305C96.0843 233.913 95.6658 233.613 95.1698 233.406C94.6738 233.189 94.1106 233.081 93.4803 233.081C92.1576 233.081 91.1088 233.468 90.3338 234.243C89.5691 235.008 89.0938 236.072 88.9078 237.436H97.4948ZM99.7268 244.799C99.3858 245.212 98.9776 245.574 98.5023 245.884C98.027 246.184 97.5155 246.432 96.9678 246.628C96.4305 246.824 95.8725 246.969 95.2938 247.062C94.7151 247.165 94.1416 247.217 93.5733 247.217C92.4883 247.217 91.486 247.036 90.5663 246.674C89.657 246.302 88.8665 245.765 88.1948 245.062C87.5335 244.349 87.0168 243.471 86.6448 242.427C86.2728 241.384 86.0868 240.185 86.0868 238.831C86.0868 237.736 86.2521 236.713 86.5828 235.762C86.9238 234.812 87.4095 233.99 88.0398 233.298C88.6701 232.595 89.44 232.048 90.3493 231.655C91.2586 231.252 92.2816 231.05 93.4183 231.05C94.3586 231.05 95.2266 231.211 96.0223 231.531C96.8283 231.841 97.5206 232.296 98.0993 232.895C98.6883 233.484 99.1481 234.218 99.4788 235.096C99.8095 235.964 99.9748 236.956 99.9748 238.072C99.9748 238.506 99.9283 238.795 99.8353 238.94C99.7423 239.085 99.5666 239.157 99.3083 239.157H88.8148C88.8458 240.149 88.9801 241.012 89.2178 241.745C89.4658 242.479 89.8068 243.094 90.2408 243.59C90.6748 244.076 91.1915 244.442 91.7908 244.69C92.3901 244.928 93.0618 245.047 93.8058 245.047C94.4981 245.047 95.0923 244.969 95.5883 244.814C96.0946 244.649 96.5286 244.473 96.8903 244.287C97.252 244.101 97.5516 243.931 97.7893 243.776C98.0373 243.611 98.2491 243.528 98.4248 243.528C98.6521 243.528 98.8278 243.616 98.9518 243.791L99.7268 244.799ZM108.063 247.248C106.823 247.248 105.867 246.902 105.196 246.209C104.534 245.517 104.204 244.52 104.204 243.218V233.608H102.313C102.147 233.608 102.008 233.561 101.894 233.468C101.78 233.365 101.724 233.21 101.724 233.003V231.903L104.297 231.577L104.932 226.726C104.963 226.571 105.03 226.447 105.134 226.354C105.247 226.251 105.392 226.199 105.568 226.199H106.963V231.608H111.504V233.608H106.963V243.032C106.963 243.693 107.123 244.184 107.443 244.504C107.763 244.825 108.177 244.985 108.683 244.985C108.972 244.985 109.22 244.949 109.427 244.876C109.644 244.794 109.83 244.706 109.985 244.613C110.14 244.52 110.269 244.437 110.373 244.365C110.486 244.282 110.584 244.241 110.667 244.241C110.812 244.241 110.941 244.329 111.055 244.504L111.861 245.822C111.385 246.266 110.812 246.618 110.14 246.876C109.468 247.124 108.776 247.248 108.063 247.248ZM123.498 233.887C123.374 234.114 123.183 234.228 122.924 234.228C122.769 234.228 122.594 234.171 122.397 234.057C122.201 233.944 121.958 233.82 121.669 233.685C121.39 233.541 121.054 233.412 120.661 233.298C120.269 233.174 119.804 233.112 119.266 233.112C118.801 233.112 118.383 233.174 118.011 233.298C117.639 233.412 117.319 233.572 117.05 233.778C116.792 233.985 116.59 234.228 116.445 234.507C116.311 234.776 116.244 235.07 116.244 235.39C116.244 235.793 116.358 236.129 116.585 236.398C116.823 236.667 117.133 236.899 117.515 237.095C117.897 237.292 118.331 237.467 118.817 237.622C119.303 237.767 119.799 237.927 120.305 238.103C120.822 238.268 121.323 238.454 121.808 238.661C122.294 238.868 122.728 239.126 123.11 239.436C123.493 239.746 123.798 240.128 124.025 240.583C124.263 241.027 124.381 241.565 124.381 242.195C124.381 242.918 124.252 243.59 123.994 244.21C123.736 244.82 123.353 245.352 122.847 245.806C122.341 246.251 121.721 246.602 120.987 246.86C120.253 247.119 119.406 247.248 118.445 247.248C117.35 247.248 116.358 247.072 115.469 246.721C114.58 246.359 113.826 245.899 113.206 245.341L113.857 244.287C113.94 244.153 114.038 244.05 114.151 243.977C114.265 243.905 114.41 243.869 114.585 243.869C114.771 243.869 114.968 243.941 115.174 244.086C115.381 244.231 115.629 244.391 115.918 244.566C116.218 244.742 116.58 244.902 117.003 245.047C117.427 245.192 117.954 245.264 118.584 245.264C119.122 245.264 119.592 245.197 119.995 245.062C120.398 244.918 120.734 244.727 121.002 244.489C121.271 244.251 121.467 243.977 121.591 243.667C121.726 243.357 121.793 243.027 121.793 242.675C121.793 242.241 121.674 241.885 121.436 241.606C121.209 241.317 120.904 241.074 120.522 240.877C120.14 240.671 119.7 240.495 119.204 240.35C118.719 240.195 118.218 240.035 117.701 239.87C117.195 239.705 116.693 239.519 116.197 239.312C115.712 239.095 115.278 238.826 114.895 238.506C114.513 238.186 114.203 237.793 113.965 237.328C113.738 236.853 113.624 236.279 113.624 235.607C113.624 235.008 113.748 234.435 113.996 233.887C114.244 233.329 114.606 232.843 115.081 232.43C115.557 232.006 116.141 231.67 116.833 231.423C117.525 231.174 118.316 231.05 119.204 231.05C120.238 231.05 121.163 231.216 121.979 231.546C122.806 231.867 123.519 232.311 124.118 232.879L123.498 233.887ZM136.274 239.932C135.003 239.973 133.918 240.077 133.019 240.242C132.13 240.397 131.401 240.604 130.833 240.862C130.275 241.12 129.867 241.425 129.609 241.776C129.361 242.128 129.237 242.52 129.237 242.954C129.237 243.368 129.304 243.724 129.438 244.024C129.572 244.324 129.753 244.572 129.981 244.768C130.218 244.954 130.492 245.093 130.802 245.186C131.122 245.269 131.463 245.31 131.825 245.31C132.311 245.31 132.755 245.264 133.158 245.171C133.561 245.068 133.938 244.923 134.29 244.737C134.651 244.551 134.992 244.329 135.313 244.07C135.643 243.812 135.964 243.518 136.274 243.187V239.932ZM127.361 233.515C128.229 232.678 129.164 232.053 130.167 231.639C131.169 231.226 132.28 231.019 133.499 231.019C134.377 231.019 135.158 231.164 135.84 231.453C136.522 231.743 137.095 232.146 137.56 232.662C138.025 233.179 138.376 233.804 138.614 234.538C138.852 235.272 138.971 236.078 138.971 236.956V247H137.746C137.477 247 137.271 246.959 137.126 246.876C136.981 246.783 136.868 246.607 136.785 246.349L136.475 244.861C136.062 245.243 135.659 245.584 135.266 245.884C134.873 246.173 134.46 246.421 134.026 246.628C133.592 246.824 133.127 246.974 132.631 247.078C132.145 247.191 131.603 247.248 131.004 247.248C130.394 247.248 129.82 247.165 129.283 247C128.746 246.824 128.276 246.566 127.873 246.225C127.48 245.884 127.165 245.455 126.927 244.938C126.7 244.411 126.586 243.791 126.586 243.078C126.586 242.458 126.757 241.864 127.098 241.296C127.439 240.717 127.991 240.206 128.756 239.761C129.521 239.317 130.518 238.955 131.748 238.676C132.977 238.387 134.486 238.222 136.274 238.18V236.956C136.274 235.737 136.01 234.817 135.483 234.197C134.956 233.567 134.186 233.251 133.174 233.251C132.492 233.251 131.918 233.339 131.453 233.515C130.998 233.68 130.601 233.871 130.26 234.088C129.929 234.295 129.64 234.486 129.392 234.662C129.154 234.827 128.916 234.91 128.679 234.91C128.493 234.91 128.332 234.863 128.198 234.77C128.064 234.667 127.95 234.543 127.857 234.398L127.361 233.515ZM143.954 247V233.654L142.218 233.453C142.001 233.401 141.82 233.324 141.676 233.22C141.541 233.107 141.474 232.947 141.474 232.74V231.608H143.954V230.089C143.954 229.19 144.078 228.395 144.326 227.702C144.584 227 144.946 226.411 145.411 225.935C145.886 225.45 146.455 225.083 147.116 224.835C147.777 224.587 148.521 224.463 149.348 224.463C150.051 224.463 150.697 224.566 151.286 224.773L151.224 226.152C151.203 226.4 151.063 226.535 150.805 226.555C150.557 226.576 150.221 226.586 149.798 226.586C149.322 226.586 148.888 226.648 148.496 226.772C148.113 226.896 147.783 227.098 147.504 227.377C147.225 227.656 147.008 228.023 146.853 228.477C146.708 228.932 146.636 229.495 146.636 230.167V231.608H151.162V233.608H146.729V247H143.954ZM163.794 237.436C163.794 236.796 163.701 236.212 163.515 235.685C163.339 235.148 163.075 234.688 162.724 234.305C162.383 233.913 161.965 233.613 161.469 233.406C160.973 233.189 160.409 233.081 159.779 233.081C158.456 233.081 157.408 233.468 156.633 234.243C155.868 235.008 155.393 236.072 155.207 237.436H163.794ZM166.026 244.799C165.685 245.212 165.276 245.574 164.801 245.884C164.326 246.184 163.814 246.432 163.267 246.628C162.729 246.824 162.171 246.969 161.593 247.062C161.014 247.165 160.44 247.217 159.872 247.217C158.787 247.217 157.785 247.036 156.865 246.674C155.956 246.302 155.165 245.765 154.494 245.062C153.832 244.349 153.316 243.471 152.944 242.427C152.572 241.384 152.386 240.185 152.386 238.831C152.386 237.736 152.551 236.713 152.882 235.762C153.223 234.812 153.708 233.99 154.339 233.298C154.969 232.595 155.739 232.048 156.648 231.655C157.557 231.252 158.58 231.05 159.717 231.05C160.657 231.05 161.525 231.211 162.321 231.531C163.127 231.841 163.819 232.296 164.398 232.895C164.987 233.484 165.447 234.218 165.778 235.096C166.108 235.964 166.274 236.956 166.274 238.072C166.274 238.506 166.227 238.795 166.134 238.94C166.041 239.085 165.865 239.157 165.607 239.157H155.114C155.145 240.149 155.279 241.012 155.517 241.745C155.765 242.479 156.106 243.094 156.54 243.59C156.974 244.076 157.49 244.442 158.09 244.69C158.689 244.928 159.361 245.047 160.105 245.047C160.797 245.047 161.391 244.969 161.887 244.814C162.393 244.649 162.827 244.473 163.189 244.287C163.551 244.101 163.85 243.931 164.088 243.776C164.336 243.611 164.548 243.528 164.724 243.528C164.951 243.528 165.127 243.616 165.251 243.791L166.026 244.799ZM169.492 250.751C169.409 250.679 169.353 250.612 169.322 250.55C169.291 250.488 169.275 250.41 169.275 250.317C169.275 250.245 169.296 250.172 169.337 250.1C169.389 250.028 169.446 249.961 169.508 249.899C169.611 249.785 169.74 249.635 169.895 249.449C170.06 249.263 170.226 249.041 170.391 248.783C170.556 248.535 170.706 248.256 170.841 247.946C170.985 247.646 171.089 247.326 171.151 246.984C171.12 246.995 171.083 247 171.042 247C171.011 247 170.98 247 170.949 247C170.412 247 169.973 246.824 169.632 246.473C169.301 246.111 169.136 245.651 169.136 245.093C169.136 244.608 169.301 244.194 169.632 243.853C169.973 243.512 170.422 243.342 170.98 243.342C171.29 243.342 171.564 243.399 171.802 243.512C172.039 243.626 172.236 243.786 172.391 243.993C172.556 244.189 172.68 244.422 172.763 244.69C172.845 244.949 172.887 245.233 172.887 245.543C172.887 246.008 172.819 246.494 172.685 247C172.561 247.496 172.37 247.987 172.112 248.473C171.864 248.969 171.559 249.449 171.197 249.914C170.835 250.379 170.422 250.808 169.957 251.201L169.492 250.751ZM196.035 238.754L192.547 229.717C192.444 229.449 192.335 229.139 192.222 228.787C192.108 228.426 192 228.043 191.896 227.64C191.679 228.477 191.457 229.175 191.23 229.733L187.742 238.754H196.035ZM202.297 247H199.972C199.703 247 199.486 246.933 199.321 246.798C199.155 246.664 199.032 246.494 198.949 246.287L196.872 240.924H186.905L184.828 246.287C184.766 246.473 184.647 246.638 184.472 246.783C184.296 246.928 184.079 247 183.821 247H181.496L190.377 224.788H193.415L202.297 247ZM210.039 239.327C210.597 239.327 211.088 239.25 211.512 239.095C211.935 238.94 212.292 238.723 212.581 238.444C212.871 238.165 213.088 237.834 213.232 237.452C213.377 237.059 213.449 236.63 213.449 236.165C213.449 235.204 213.155 234.44 212.566 233.871C211.987 233.303 211.145 233.019 210.039 233.019C208.923 233.019 208.071 233.303 207.482 233.871C206.903 234.44 206.614 235.204 206.614 236.165C206.614 236.63 206.686 237.059 206.831 237.452C206.986 237.834 207.208 238.165 207.497 238.444C207.787 238.723 208.143 238.94 208.567 239.095C208.99 239.25 209.481 239.327 210.039 239.327ZM215.015 247.853C215.015 247.47 214.906 247.16 214.689 246.922C214.472 246.685 214.178 246.499 213.806 246.364C213.444 246.23 213.02 246.137 212.535 246.085C212.049 246.023 211.532 245.977 210.985 245.946C210.447 245.915 209.9 245.884 209.342 245.853C208.784 245.822 208.246 245.77 207.73 245.698C207.151 245.967 206.676 246.308 206.304 246.721C205.942 247.124 205.761 247.599 205.761 248.147C205.761 248.498 205.849 248.824 206.025 249.124C206.211 249.434 206.49 249.697 206.862 249.914C207.234 250.141 207.699 250.317 208.257 250.441C208.825 250.575 209.492 250.643 210.256 250.643C211 250.643 211.667 250.575 212.256 250.441C212.845 250.307 213.341 250.116 213.744 249.868C214.157 249.62 214.472 249.325 214.689 248.984C214.906 248.643 215.015 248.266 215.015 247.853ZM217.82 231.918V232.941C217.82 233.282 217.603 233.499 217.169 233.592L215.387 233.825C215.738 234.507 215.914 235.261 215.914 236.088C215.914 236.853 215.764 237.55 215.464 238.18C215.175 238.8 214.772 239.333 214.255 239.777C213.739 240.221 213.119 240.562 212.395 240.8C211.672 241.038 210.887 241.156 210.039 241.156C209.306 241.156 208.613 241.069 207.962 240.893C207.632 241.1 207.378 241.322 207.203 241.559C207.027 241.787 206.939 242.019 206.939 242.257C206.939 242.629 207.089 242.913 207.389 243.109C207.699 243.295 208.102 243.43 208.598 243.512C209.094 243.595 209.657 243.647 210.287 243.667C210.928 243.688 211.579 243.724 212.24 243.776C212.912 243.817 213.563 243.895 214.193 244.008C214.834 244.122 215.402 244.308 215.898 244.566C216.394 244.825 216.792 245.181 217.092 245.636C217.402 246.091 217.557 246.68 217.557 247.403C217.557 248.075 217.386 248.726 217.045 249.356C216.715 249.986 216.234 250.544 215.604 251.03C214.973 251.526 214.198 251.919 213.279 252.208C212.369 252.508 211.341 252.658 210.194 252.658C209.047 252.658 208.045 252.544 207.187 252.317C206.33 252.089 205.617 251.784 205.048 251.402C204.48 251.02 204.051 250.575 203.762 250.069C203.483 249.573 203.343 249.051 203.343 248.504C203.343 247.729 203.586 247.072 204.072 246.535C204.557 245.998 205.224 245.569 206.071 245.248C205.606 245.042 205.234 244.768 204.955 244.427C204.687 244.076 204.552 243.605 204.552 243.017C204.552 242.789 204.594 242.557 204.676 242.319C204.759 242.071 204.883 241.828 205.048 241.59C205.224 241.342 205.436 241.11 205.684 240.893C205.932 240.676 206.221 240.485 206.552 240.319C205.777 239.885 205.172 239.312 204.738 238.599C204.304 237.876 204.087 237.039 204.087 236.088C204.087 235.323 204.232 234.631 204.521 234.011C204.821 233.381 205.234 232.848 205.761 232.414C206.288 231.97 206.913 231.629 207.637 231.391C208.37 231.154 209.171 231.035 210.039 231.035C210.721 231.035 211.357 231.112 211.946 231.267C212.535 231.412 213.072 231.629 213.558 231.918H217.82ZM223.587 231.298V247H220.828V231.298H223.587ZM224.176 226.369C224.176 226.638 224.119 226.891 224.006 227.129C223.902 227.356 223.758 227.563 223.572 227.749C223.396 227.925 223.184 228.064 222.936 228.167C222.699 228.271 222.445 228.322 222.177 228.322C221.908 228.322 221.655 228.271 221.417 228.167C221.19 228.064 220.988 227.925 220.813 227.749C220.637 227.563 220.498 227.356 220.394 227.129C220.291 226.891 220.239 226.638 220.239 226.369C220.239 226.101 220.291 225.848 220.394 225.61C220.498 225.362 220.637 225.15 220.813 224.974C220.988 224.788 221.19 224.644 221.417 224.54C221.655 224.437 221.908 224.385 222.177 224.385C222.445 224.385 222.699 224.437 222.936 224.54C223.184 224.644 223.396 224.788 223.572 224.974C223.758 225.15 223.902 225.362 224.006 225.61C224.119 225.848 224.176 226.101 224.176 226.369ZM230.973 224.168V247H228.214V224.168H230.973ZM245.956 237.436C245.956 236.796 245.863 236.212 245.677 235.685C245.501 235.148 245.238 234.688 244.886 234.305C244.545 233.913 244.127 233.613 243.631 233.406C243.135 233.189 242.572 233.081 241.941 233.081C240.619 233.081 239.57 233.468 238.795 234.243C238.03 235.008 237.555 236.072 237.369 237.436H245.956ZM248.188 244.799C247.847 245.212 247.439 245.574 246.963 245.884C246.488 246.184 245.976 246.432 245.429 246.628C244.891 246.824 244.333 246.969 243.755 247.062C243.176 247.165 242.603 247.217 242.034 247.217C240.949 247.217 239.947 247.036 239.027 246.674C238.118 246.302 237.327 245.765 236.656 245.062C235.994 244.349 235.478 243.471 235.106 242.427C234.734 241.384 234.548 240.185 234.548 238.831C234.548 237.736 234.713 236.713 235.044 235.762C235.385 234.812 235.87 233.99 236.501 233.298C237.131 232.595 237.901 232.048 238.81 231.655C239.72 231.252 240.743 231.05 241.879 231.05C242.82 231.05 243.688 231.211 244.483 231.531C245.289 231.841 245.982 232.296 246.56 232.895C247.149 233.484 247.609 234.218 247.94 235.096C248.27 235.964 248.436 236.956 248.436 238.072C248.436 238.506 248.389 238.795 248.296 238.94C248.203 239.085 248.028 239.157 247.769 239.157H237.276C237.307 240.149 237.441 241.012 237.679 241.745C237.927 242.479 238.268 243.094 238.702 243.59C239.136 244.076 239.652 244.442 240.252 244.69C240.851 244.928 241.523 245.047 242.267 245.047C242.959 245.047 243.553 244.969 244.049 244.814C244.556 244.649 244.99 244.473 245.351 244.287C245.713 244.101 246.013 243.931 246.25 243.776C246.498 243.611 246.71 243.528 246.886 243.528C247.113 243.528 247.289 243.616 247.413 243.791L248.188 244.799ZM251.654 250.751C251.571 250.679 251.515 250.612 251.484 250.55C251.453 250.488 251.437 250.41 251.437 250.317C251.437 250.245 251.458 250.172 251.499 250.1C251.551 250.028 251.608 249.961 251.67 249.899C251.773 249.785 251.902 249.635 252.057 249.449C252.222 249.263 252.388 249.041 252.553 248.783C252.718 248.535 252.868 248.256 253.003 247.946C253.147 247.646 253.251 247.326 253.313 246.984C253.282 246.995 253.245 247 253.204 247C253.173 247 253.142 247 253.111 247C252.574 247 252.135 246.824 251.794 246.473C251.463 246.111 251.298 245.651 251.298 245.093C251.298 244.608 251.463 244.194 251.794 243.853C252.135 243.512 252.584 243.342 253.142 243.342C253.452 243.342 253.726 243.399 253.964 243.512C254.201 243.626 254.398 243.786 254.553 243.993C254.718 244.189 254.842 244.422 254.925 244.69C255.007 244.949 255.049 245.233 255.049 245.543C255.049 246.008 254.981 246.494 254.847 247C254.723 247.496 254.532 247.987 254.274 248.473C254.026 248.969 253.721 249.449 253.359 249.914C252.997 250.379 252.584 250.808 252.119 251.201L251.654 250.751ZM105.878 281.613C106.735 281.613 107.474 281.515 108.094 281.318C108.714 281.122 109.22 280.848 109.613 280.497C110.016 280.135 110.311 279.712 110.497 279.226C110.683 278.73 110.776 278.187 110.776 277.598C110.776 276.451 110.367 275.547 109.551 274.886C108.735 274.214 107.51 273.878 105.878 273.878H101.073V281.613H105.878ZM101.073 264.16V271.739H105.041C105.888 271.739 106.622 271.646 107.242 271.46C107.872 271.274 108.389 271.016 108.792 270.685C109.205 270.355 109.51 269.957 109.706 269.492C109.902 269.017 110.001 268.5 110.001 267.942C110.001 266.63 109.608 265.674 108.823 265.074C108.037 264.465 106.818 264.16 105.165 264.16H101.073ZM105.165 261.788C106.529 261.788 107.701 261.923 108.683 262.191C109.675 262.46 110.486 262.842 111.117 263.338C111.757 263.834 112.227 264.444 112.527 265.167C112.827 265.88 112.977 266.686 112.977 267.585C112.977 268.133 112.889 268.66 112.713 269.166C112.548 269.662 112.295 270.127 111.954 270.561C111.613 270.995 111.179 271.388 110.652 271.739C110.135 272.08 109.525 272.359 108.823 272.576C110.455 272.886 111.68 273.47 112.496 274.328C113.323 275.175 113.736 276.291 113.736 277.676C113.736 278.616 113.56 279.474 113.209 280.249C112.868 281.024 112.362 281.69 111.69 282.248C111.029 282.806 110.212 283.24 109.241 283.55C108.27 283.85 107.164 284 105.924 284H98.0811V261.788H105.165ZM125.738 276.932C124.467 276.973 123.382 277.077 122.483 277.242C121.595 277.397 120.866 277.604 120.298 277.862C119.74 278.12 119.332 278.425 119.073 278.776C118.825 279.128 118.701 279.52 118.701 279.954C118.701 280.368 118.769 280.724 118.903 281.024C119.037 281.324 119.218 281.572 119.445 281.768C119.683 281.954 119.957 282.093 120.267 282.186C120.587 282.269 120.928 282.31 121.29 282.31C121.776 282.31 122.22 282.264 122.623 282.171C123.026 282.068 123.403 281.923 123.754 281.737C124.116 281.551 124.457 281.329 124.777 281.07C125.108 280.812 125.428 280.518 125.738 280.187V276.932ZM116.826 270.515C117.694 269.678 118.629 269.053 119.631 268.639C120.634 268.226 121.745 268.019 122.964 268.019C123.842 268.019 124.622 268.164 125.304 268.453C125.986 268.743 126.56 269.146 127.025 269.662C127.49 270.179 127.841 270.804 128.079 271.538C128.317 272.272 128.435 273.078 128.435 273.956V284H127.211C126.942 284 126.736 283.959 126.591 283.876C126.446 283.783 126.333 283.607 126.25 283.349L125.94 281.861C125.527 282.243 125.124 282.584 124.731 282.884C124.338 283.173 123.925 283.421 123.491 283.628C123.057 283.824 122.592 283.974 122.096 284.078C121.61 284.191 121.068 284.248 120.468 284.248C119.859 284.248 119.285 284.165 118.748 284C118.211 283.824 117.74 283.566 117.337 283.225C116.945 282.884 116.63 282.455 116.392 281.938C116.165 281.411 116.051 280.791 116.051 280.078C116.051 279.458 116.221 278.864 116.562 278.296C116.903 277.717 117.456 277.206 118.221 276.761C118.986 276.317 119.983 275.955 121.212 275.676C122.442 275.387 123.951 275.222 125.738 275.18V273.956C125.738 272.737 125.475 271.817 124.948 271.197C124.421 270.567 123.651 270.251 122.638 270.251C121.956 270.251 121.383 270.339 120.918 270.515C120.463 270.68 120.065 270.871 119.724 271.088C119.394 271.295 119.104 271.486 118.856 271.662C118.619 271.827 118.381 271.91 118.143 271.91C117.957 271.91 117.797 271.863 117.663 271.77C117.529 271.667 117.415 271.543 117.322 271.398L116.826 270.515ZM135.258 271.445C135.754 270.37 136.363 269.533 137.087 268.934C137.81 268.324 138.693 268.019 139.737 268.019C140.068 268.019 140.383 268.056 140.683 268.128C140.993 268.2 141.266 268.314 141.504 268.469L141.303 270.53C141.241 270.789 141.086 270.918 140.838 270.918C140.693 270.918 140.481 270.887 140.202 270.825C139.923 270.763 139.608 270.732 139.257 270.732C138.761 270.732 138.316 270.804 137.924 270.949C137.541 271.094 137.195 271.311 136.885 271.6C136.585 271.879 136.312 272.23 136.064 272.654C135.826 273.067 135.609 273.543 135.413 274.08V284H132.638V268.298H134.219C134.519 268.298 134.725 268.355 134.839 268.469C134.953 268.583 135.03 268.779 135.072 269.058L135.258 271.445ZM143.93 284V268.298H145.589C145.981 268.298 146.224 268.49 146.317 268.872L146.519 270.484C147.097 269.771 147.748 269.187 148.472 268.732C149.195 268.278 150.032 268.05 150.983 268.05C152.037 268.05 152.889 268.345 153.54 268.934C154.201 269.523 154.677 270.319 154.966 271.321C155.193 270.753 155.483 270.262 155.834 269.848C156.196 269.435 156.599 269.094 157.043 268.825C157.487 268.557 157.958 268.36 158.454 268.236C158.96 268.112 159.471 268.05 159.988 268.05C160.815 268.05 161.548 268.185 162.189 268.453C162.84 268.712 163.388 269.094 163.832 269.6C164.287 270.107 164.633 270.732 164.871 271.476C165.108 272.21 165.227 273.052 165.227 274.002V284H162.453V274.002C162.453 272.773 162.184 271.843 161.647 271.212C161.109 270.572 160.334 270.251 159.322 270.251C158.867 270.251 158.433 270.334 158.02 270.499C157.617 270.654 157.26 270.887 156.95 271.197C156.64 271.507 156.392 271.9 156.206 272.375C156.03 272.84 155.943 273.382 155.943 274.002V284H153.168V274.002C153.168 272.742 152.915 271.801 152.409 271.181C151.902 270.561 151.163 270.251 150.192 270.251C149.51 270.251 148.88 270.437 148.301 270.809C147.722 271.171 147.19 271.667 146.705 272.297V284H143.93ZM179.929 274.436C179.929 273.796 179.836 273.212 179.65 272.685C179.475 272.148 179.211 271.688 178.86 271.305C178.519 270.913 178.1 270.613 177.604 270.406C177.108 270.189 176.545 270.081 175.915 270.081C174.592 270.081 173.543 270.468 172.768 271.243C172.004 272.008 171.528 273.072 171.342 274.436H179.929ZM182.161 281.799C181.82 282.212 181.412 282.574 180.937 282.884C180.462 283.184 179.95 283.432 179.402 283.628C178.865 283.824 178.307 283.969 177.728 284.062C177.15 284.165 176.576 284.217 176.008 284.217C174.923 284.217 173.921 284.036 173.001 283.674C172.092 283.302 171.301 282.765 170.629 282.062C169.968 281.349 169.451 280.471 169.079 279.427C168.707 278.384 168.521 277.185 168.521 275.831C168.521 274.736 168.687 273.713 169.017 272.762C169.358 271.812 169.844 270.99 170.474 270.298C171.105 269.595 171.875 269.048 172.784 268.655C173.693 268.252 174.716 268.05 175.853 268.05C176.793 268.05 177.661 268.211 178.457 268.531C179.263 268.841 179.955 269.296 180.534 269.895C181.123 270.484 181.583 271.218 181.913 272.096C182.244 272.964 182.409 273.956 182.409 275.072C182.409 275.506 182.363 275.795 182.27 275.94C182.177 276.085 182.001 276.157 181.743 276.157H171.249C171.28 277.149 171.415 278.012 171.652 278.745C171.9 279.479 172.241 280.094 172.675 280.59C173.109 281.076 173.626 281.442 174.225 281.69C174.825 281.928 175.496 282.047 176.24 282.047C176.933 282.047 177.527 281.969 178.023 281.814C178.529 281.649 178.963 281.473 179.325 281.287C179.687 281.101 179.986 280.931 180.224 280.776C180.472 280.611 180.684 280.528 180.859 280.528C181.087 280.528 181.262 280.616 181.386 280.791L182.161 281.799ZM188.402 270.577C188.743 270.195 189.105 269.848 189.487 269.538C189.87 269.228 190.273 268.965 190.696 268.748C191.13 268.521 191.585 268.35 192.06 268.236C192.546 268.112 193.068 268.05 193.626 268.05C194.483 268.05 195.238 268.195 195.889 268.484C196.55 268.763 197.098 269.166 197.532 269.693C197.976 270.21 198.312 270.835 198.539 271.569C198.767 272.303 198.88 273.114 198.88 274.002V284H196.106V274.002C196.106 272.814 195.832 271.894 195.284 271.243C194.747 270.582 193.925 270.251 192.82 270.251C192.003 270.251 191.239 270.448 190.526 270.84C189.823 271.233 189.172 271.765 188.573 272.437V284H185.798V268.298H187.457C187.849 268.298 188.092 268.49 188.185 268.872L188.402 270.577ZM205.998 268.298V284H203.239V268.298H205.998ZM206.587 263.369C206.587 263.638 206.531 263.891 206.417 264.129C206.314 264.356 206.169 264.563 205.983 264.749C205.807 264.925 205.595 265.064 205.347 265.167C205.11 265.271 204.857 265.322 204.588 265.322C204.319 265.322 204.066 265.271 203.828 265.167C203.601 265.064 203.4 264.925 203.224 264.749C203.048 264.563 202.909 264.356 202.805 264.129C202.702 263.891 202.65 263.638 202.65 263.369C202.65 263.101 202.702 262.848 202.805 262.61C202.909 262.362 203.048 262.15 203.224 261.974C203.4 261.788 203.601 261.644 203.828 261.54C204.066 261.437 204.319 261.385 204.588 261.385C204.857 261.385 205.11 261.437 205.347 261.54C205.595 261.644 205.807 261.788 205.983 261.974C206.169 262.15 206.314 262.362 206.417 262.61C206.531 262.848 206.587 263.101 206.587 263.369ZM219.041 276.932C217.77 276.973 216.685 277.077 215.786 277.242C214.898 277.397 214.169 277.604 213.601 277.862C213.043 278.12 212.635 278.425 212.376 278.776C212.128 279.128 212.004 279.52 212.004 279.954C212.004 280.368 212.071 280.724 212.206 281.024C212.34 281.324 212.521 281.572 212.748 281.768C212.986 281.954 213.26 282.093 213.57 282.186C213.89 282.269 214.231 282.31 214.593 282.31C215.078 282.31 215.523 282.264 215.926 282.171C216.329 282.068 216.706 281.923 217.057 281.737C217.419 281.551 217.76 281.329 218.08 281.07C218.411 280.812 218.731 280.518 219.041 280.187V276.932ZM210.129 270.515C210.997 269.678 211.932 269.053 212.934 268.639C213.937 268.226 215.047 268.019 216.267 268.019C217.145 268.019 217.925 268.164 218.607 268.453C219.289 268.743 219.863 269.146 220.328 269.662C220.793 270.179 221.144 270.804 221.382 271.538C221.619 272.272 221.738 273.078 221.738 273.956V284H220.514C220.245 284 220.038 283.959 219.894 283.876C219.749 283.783 219.635 283.607 219.553 283.349L219.243 281.861C218.829 282.243 218.426 282.584 218.034 282.884C217.641 283.173 217.228 283.421 216.794 283.628C216.36 283.824 215.895 283.974 215.399 284.078C214.913 284.191 214.371 284.248 213.771 284.248C213.162 284.248 212.588 284.165 212.051 284C211.513 283.824 211.043 283.566 210.64 283.225C210.248 282.884 209.932 282.455 209.695 281.938C209.467 281.411 209.354 280.791 209.354 280.078C209.354 279.458 209.524 278.864 209.865 278.296C210.206 277.717 210.759 277.206 211.524 276.761C212.288 276.317 213.286 275.955 214.515 275.676C215.745 275.387 217.254 275.222 219.041 275.18V273.956C219.041 272.737 218.778 271.817 218.251 271.197C217.724 270.567 216.954 270.251 215.941 270.251C215.259 270.251 214.686 270.339 214.221 270.515C213.766 270.68 213.368 270.871 213.027 271.088C212.697 271.295 212.407 271.486 212.159 271.662C211.922 271.827 211.684 271.91 211.446 271.91C211.26 271.91 211.1 271.863 210.966 271.77C210.831 271.667 210.718 271.543 210.625 271.398L210.129 270.515Z" fill="#3C3B3B"/>
<ellipse cx="452.5" cy="123.5" rx="125.5" ry="123.5" fill="#F7F7F7"/>
<path d="M424.016 119.852V124H400.592V119.852H409.955V90.0535C409.955 89.1588 409.986 88.254 410.047 87.339L402.269 94.0185C402.005 94.2422 401.74 94.3845 401.476 94.4455C401.212 94.4862 400.968 94.4862 400.744 94.4455C400.52 94.4048 400.307 94.3235 400.104 94.2015C399.921 94.0795 399.778 93.9473 399.677 93.805L397.969 91.4565L410.992 80.202H415.415V119.852H424.016ZM436.678 93.134C436.678 94.5167 436.871 95.757 437.257 96.855C437.664 97.9327 438.233 98.8477 438.965 99.6C439.718 100.352 440.623 100.922 441.68 101.308C442.758 101.694 443.957 101.887 445.279 101.887C446.743 101.887 448.034 101.654 449.152 101.186C450.291 100.698 451.247 100.057 452.019 99.2645C452.792 98.4715 453.382 97.5565 453.788 96.5195C454.195 95.4825 454.398 94.4048 454.398 93.2865C454.398 91.9242 454.175 90.694 453.727 89.596C453.3 88.4777 452.701 87.5322 451.928 86.7595C451.155 85.9868 450.23 85.3972 449.152 84.9905C448.095 84.5635 446.926 84.35 445.645 84.35C444.303 84.35 443.083 84.5737 441.985 85.021C440.887 85.448 439.941 86.0478 439.148 86.8205C438.355 87.5932 437.745 88.5183 437.318 89.596C436.891 90.6737 436.678 91.853 436.678 93.134ZM449.366 106.584C449.813 105.995 450.23 105.436 450.616 104.907C451.003 104.378 451.369 103.85 451.714 103.321C450.596 104.216 449.335 104.897 447.932 105.364C446.529 105.832 445.045 106.066 443.479 106.066C441.832 106.066 440.267 105.791 438.782 105.242C437.318 104.693 436.027 103.89 434.909 102.833C433.791 101.755 432.896 100.444 432.225 98.8985C431.574 97.3328 431.249 95.5435 431.249 93.5305C431.249 91.6192 431.605 89.8298 432.316 88.1625C433.028 86.4952 434.024 85.0413 435.305 83.801C436.586 82.5607 438.111 81.5847 439.88 80.873C441.649 80.1613 443.591 79.8055 445.706 79.8055C447.8 79.8055 449.701 80.1512 451.409 80.8425C453.117 81.5338 454.581 82.4997 455.801 83.74C457.021 84.9803 457.957 86.4647 458.607 88.193C459.278 89.9213 459.614 91.8327 459.614 93.927C459.614 95.1877 459.492 96.3873 459.248 97.526C459.024 98.6443 458.689 99.7525 458.241 100.85C457.814 101.928 457.286 103.006 456.655 104.083C456.025 105.141 455.313 106.229 454.52 107.347L443.876 122.719C443.612 123.105 443.235 123.42 442.747 123.664C442.259 123.888 441.7 124 441.07 124H436.068L449.366 106.584ZM485.147 90.8465C485.147 92.5545 484.883 94.0897 484.354 95.452C483.825 96.794 483.114 97.9327 482.219 98.868C481.345 99.783 480.318 100.484 479.139 100.972C477.98 101.46 476.749 101.704 475.448 101.704C474.086 101.704 472.815 101.46 471.636 100.972C470.456 100.484 469.429 99.783 468.555 98.868C467.701 97.9327 467.03 96.794 466.542 95.452C466.054 94.0897 465.81 92.5545 465.81 90.8465C465.81 89.0978 466.054 87.5423 466.542 86.18C467.03 84.8177 467.701 83.6688 468.555 82.7335C469.429 81.7982 470.456 81.0865 471.636 80.5985C472.815 80.1105 474.086 79.8665 475.448 79.8665C476.831 79.8665 478.112 80.1105 479.291 80.5985C480.47 81.0865 481.497 81.7982 482.372 82.7335C483.246 83.6688 483.927 84.8177 484.415 86.18C484.903 87.5423 485.147 89.0978 485.147 90.8465ZM480.938 90.8465C480.938 89.5045 480.796 88.3658 480.511 87.4305C480.226 86.4952 479.83 85.7327 479.322 85.143C478.834 84.533 478.254 84.0958 477.583 83.8315C476.912 83.5672 476.2 83.435 475.448 83.435C474.696 83.435 473.994 83.5672 473.344 83.8315C472.693 84.0958 472.124 84.533 471.636 85.143C471.148 85.7327 470.761 86.4952 470.477 87.4305C470.192 88.3658 470.05 89.5045 470.05 90.8465C470.05 92.1682 470.192 93.2967 470.477 94.232C470.761 95.147 471.148 95.8993 471.636 96.489C472.124 97.0583 472.693 97.4752 473.344 97.7395C473.994 97.9835 474.696 98.1055 475.448 98.1055C476.2 98.1055 476.912 97.9835 477.583 97.7395C478.254 97.4752 478.834 97.0583 479.322 96.489C479.83 95.8993 480.226 95.147 480.511 94.232C480.796 93.2967 480.938 92.1682 480.938 90.8465ZM500.611 81.2085C500.814 80.9645 501.048 80.751 501.312 80.568C501.597 80.385 501.973 80.2935 502.441 80.2935H506.375L474.411 123.115C474.228 123.38 473.994 123.593 473.71 123.756C473.425 123.919 473.079 124 472.673 124H468.677L500.611 81.2085ZM509.334 113.691C509.334 115.399 509.069 116.924 508.541 118.266C508.012 119.608 507.3 120.747 506.406 121.682C505.531 122.597 504.504 123.298 503.325 123.786C502.166 124.275 500.936 124.519 499.635 124.519C498.252 124.519 496.971 124.275 495.792 123.786C494.633 123.298 493.616 122.597 492.742 121.682C491.888 120.747 491.217 119.608 490.729 118.266C490.241 116.924 489.997 115.399 489.997 113.691C489.997 111.942 490.241 110.387 490.729 109.024C491.217 107.642 491.888 106.483 492.742 105.547C493.616 104.612 494.633 103.9 495.792 103.412C496.971 102.924 498.252 102.68 499.635 102.68C500.997 102.68 502.268 102.924 503.447 103.412C504.647 103.9 505.674 104.612 506.528 105.547C507.402 106.483 508.083 107.642 508.571 109.024C509.079 110.387 509.334 111.942 509.334 113.691ZM505.125 113.691C505.125 112.349 504.982 111.21 504.698 110.275C504.413 109.319 504.016 108.547 503.508 107.957C503.02 107.367 502.441 106.94 501.77 106.676C501.099 106.412 500.387 106.279 499.635 106.279C498.882 106.279 498.171 106.412 497.5 106.676C496.849 106.94 496.28 107.367 495.792 107.957C495.304 108.547 494.917 109.319 494.633 110.275C494.368 111.21 494.236 112.349 494.236 113.691C494.236 115.013 494.368 116.131 494.633 117.046C494.917 117.961 495.304 118.713 495.792 119.303C496.28 119.872 496.849 120.289 497.5 120.553C498.171 120.797 498.882 120.919 499.635 120.919C500.387 120.919 501.099 120.797 501.77 120.553C502.441 120.289 503.02 119.872 503.508 119.303C504.016 118.713 504.413 117.961 504.698 117.046C504.982 116.131 505.125 115.013 505.125 113.691Z" fill="#303030"/>
<path d="M409.861 141.788V164H406.854V153.894H394.873V164H391.866V141.788H394.873V151.693H406.854V141.788H409.861ZM424.758 154.436C424.758 153.796 424.665 153.212 424.479 152.685C424.304 152.148 424.04 151.688 423.689 151.305C423.348 150.913 422.929 150.613 422.433 150.406C421.937 150.189 421.374 150.081 420.744 150.081C419.421 150.081 418.372 150.468 417.597 151.243C416.833 152.008 416.357 153.072 416.171 154.436H424.758ZM426.99 161.799C426.649 162.212 426.241 162.574 425.766 162.884C425.29 163.184 424.779 163.432 424.231 163.628C423.694 163.824 423.136 163.969 422.557 164.062C421.979 164.165 421.405 164.217 420.837 164.217C419.752 164.217 418.749 164.036 417.83 163.674C416.92 163.302 416.13 162.765 415.458 162.062C414.797 161.349 414.28 160.471 413.908 159.427C413.536 158.384 413.35 157.185 413.35 155.831C413.35 154.736 413.516 153.713 413.846 152.762C414.187 151.812 414.673 150.99 415.303 150.298C415.934 149.595 416.703 149.048 417.613 148.655C418.522 148.252 419.545 148.05 420.682 148.05C421.622 148.05 422.49 148.211 423.286 148.531C424.092 148.841 424.784 149.296 425.363 149.895C425.952 150.484 426.412 151.218 426.742 152.096C427.073 152.964 427.238 153.956 427.238 155.072C427.238 155.506 427.192 155.795 427.099 155.94C427.006 156.085 426.83 156.157 426.572 156.157H416.078C416.109 157.149 416.244 158.012 416.481 158.745C416.729 159.479 417.07 160.094 417.504 160.59C417.938 161.076 418.455 161.442 419.054 161.69C419.654 161.928 420.325 162.047 421.069 162.047C421.762 162.047 422.356 161.969 422.852 161.814C423.358 161.649 423.792 161.473 424.154 161.287C424.515 161.101 424.815 160.931 425.053 160.776C425.301 160.611 425.513 160.528 425.688 160.528C425.916 160.528 426.091 160.616 426.215 160.791L426.99 161.799ZM433.324 141.168V164H430.565V141.168H433.324ZM451.097 148.298L444.696 164H442.216L435.814 148.298H438.062C438.289 148.298 438.475 148.355 438.62 148.469C438.765 148.583 438.863 148.717 438.914 148.872L442.898 158.978C443.022 159.36 443.13 159.732 443.223 160.094C443.316 160.456 443.404 160.817 443.487 161.179C443.57 160.817 443.657 160.456 443.75 160.094C443.843 159.732 443.957 159.36 444.091 158.978L448.121 148.872C448.183 148.707 448.287 148.572 448.431 148.469C448.576 148.355 448.747 148.298 448.943 148.298H451.097ZM463.558 154.436C463.558 153.796 463.465 153.212 463.279 152.685C463.103 152.148 462.84 151.688 462.488 151.305C462.147 150.913 461.729 150.613 461.233 150.406C460.737 150.189 460.174 150.081 459.543 150.081C458.221 150.081 457.172 150.468 456.397 151.243C455.632 152.008 455.157 153.072 454.971 154.436H463.558ZM465.79 161.799C465.449 162.212 465.041 162.574 464.565 162.884C464.09 163.184 463.579 163.432 463.031 163.628C462.494 163.824 461.936 163.969 461.357 164.062C460.778 164.165 460.205 164.217 459.636 164.217C458.551 164.217 457.549 164.036 456.629 163.674C455.72 163.302 454.93 162.765 454.258 162.062C453.597 161.349 453.08 160.471 452.708 159.427C452.336 158.384 452.15 157.185 452.15 155.831C452.15 154.736 452.315 153.713 452.646 152.762C452.987 151.812 453.473 150.99 454.103 150.298C454.733 149.595 455.503 149.048 456.412 148.655C457.322 148.252 458.345 148.05 459.481 148.05C460.422 148.05 461.29 148.211 462.085 148.531C462.891 148.841 463.584 149.296 464.162 149.895C464.751 150.484 465.211 151.218 465.542 152.096C465.873 152.964 466.038 153.956 466.038 155.072C466.038 155.506 465.991 155.795 465.898 155.94C465.805 156.085 465.63 156.157 465.371 156.157H454.878C454.909 157.149 455.043 158.012 455.281 158.745C455.529 159.479 455.87 160.094 456.304 160.59C456.738 161.076 457.255 161.442 457.854 161.69C458.453 161.928 459.125 162.047 459.869 162.047C460.561 162.047 461.155 161.969 461.651 161.814C462.158 161.649 462.592 161.473 462.953 161.287C463.315 161.101 463.615 160.931 463.852 160.776C464.1 160.611 464.312 160.528 464.488 160.528C464.715 160.528 464.891 160.616 465.015 160.791L465.79 161.799ZM483.721 164H480.962V150.608H472.871V160.032C472.871 160.693 473.031 161.184 473.351 161.504C473.672 161.825 474.085 161.985 474.591 161.985C474.881 161.985 475.129 161.949 475.335 161.876C475.552 161.794 475.738 161.706 475.893 161.613C476.048 161.52 476.177 161.437 476.281 161.365C476.394 161.282 476.493 161.241 476.575 161.241C476.72 161.241 476.849 161.329 476.963 161.504L477.769 162.822C477.293 163.266 476.72 163.618 476.048 163.876C475.377 164.124 474.684 164.248 473.971 164.248C472.731 164.248 471.775 163.902 471.104 163.209C470.442 162.517 470.112 161.52 470.112 160.218V150.608H468.221C468.055 150.608 467.916 150.561 467.802 150.468C467.689 150.365 467.632 150.21 467.632 150.003V148.903L470.205 148.562L470.84 143.726C470.871 143.571 470.938 143.447 471.042 143.354C471.155 143.251 471.3 143.199 471.476 143.199H472.871V148.608H483.721V164ZM484.403 143.261C484.403 143.53 484.346 143.783 484.232 144.02C484.129 144.248 483.984 144.449 483.798 144.625C483.623 144.801 483.416 144.94 483.178 145.043C482.941 145.147 482.687 145.198 482.419 145.198C482.15 145.198 481.897 145.147 481.659 145.043C481.432 144.94 481.23 144.801 481.055 144.625C480.879 144.449 480.74 144.248 480.636 144.02C480.533 143.783 480.481 143.53 480.481 143.261C480.481 142.992 480.533 142.739 480.636 142.501C480.74 142.253 480.879 142.042 481.055 141.866C481.23 141.68 481.432 141.535 481.659 141.432C481.897 141.329 482.15 141.277 482.419 141.277C482.687 141.277 482.941 141.329 483.178 141.432C483.416 141.535 483.623 141.68 483.798 141.866C483.984 142.042 484.129 142.253 484.232 142.501C484.346 142.739 484.403 142.992 484.403 143.261ZM499.026 151.088C498.943 151.202 498.86 151.29 498.778 151.352C498.695 151.414 498.581 151.445 498.437 151.445C498.282 151.445 498.111 151.383 497.925 151.259C497.739 151.125 497.507 150.98 497.228 150.825C496.959 150.67 496.623 150.53 496.22 150.406C495.828 150.272 495.342 150.205 494.763 150.205C493.988 150.205 493.306 150.344 492.717 150.623C492.128 150.892 491.632 151.285 491.229 151.801C490.837 152.318 490.537 152.943 490.33 153.677C490.134 154.411 490.036 155.232 490.036 156.141C490.036 157.092 490.144 157.939 490.361 158.683C490.578 159.417 490.883 160.037 491.276 160.543C491.679 161.039 492.159 161.422 492.717 161.69C493.286 161.949 493.921 162.078 494.624 162.078C495.295 162.078 495.848 162 496.282 161.845C496.716 161.68 497.073 161.499 497.352 161.303C497.641 161.107 497.879 160.931 498.065 160.776C498.261 160.611 498.452 160.528 498.638 160.528C498.866 160.528 499.041 160.616 499.165 160.791L499.94 161.799C499.599 162.223 499.212 162.584 498.778 162.884C498.344 163.184 497.874 163.437 497.367 163.643C496.871 163.84 496.349 163.984 495.802 164.078C495.254 164.171 494.696 164.217 494.128 164.217C493.146 164.217 492.232 164.036 491.384 163.674C490.547 163.313 489.819 162.791 489.199 162.109C488.579 161.417 488.093 160.569 487.742 159.567C487.39 158.565 487.215 157.423 487.215 156.141C487.215 154.974 487.375 153.894 487.695 152.902C488.026 151.91 488.501 151.057 489.121 150.344C489.752 149.621 490.521 149.058 491.431 148.655C492.35 148.252 493.404 148.05 494.593 148.05C495.698 148.05 496.67 148.231 497.507 148.593C498.354 148.944 499.103 149.445 499.754 150.096L499.026 151.088ZM511.257 156.932C509.986 156.973 508.901 157.077 508.002 157.242C507.113 157.397 506.384 157.604 505.816 157.862C505.258 158.12 504.85 158.425 504.592 158.776C504.344 159.128 504.22 159.52 504.22 159.954C504.22 160.368 504.287 160.724 504.421 161.024C504.555 161.324 504.736 161.572 504.964 161.768C505.201 161.954 505.475 162.093 505.785 162.186C506.105 162.269 506.446 162.31 506.808 162.31C507.294 162.31 507.738 162.264 508.141 162.171C508.544 162.068 508.921 161.923 509.273 161.737C509.634 161.551 509.975 161.329 510.296 161.07C510.626 160.812 510.947 160.518 511.257 160.187V156.932ZM502.344 150.515C503.212 149.678 504.147 149.053 505.15 148.639C506.152 148.226 507.263 148.019 508.482 148.019C509.36 148.019 510.141 148.164 510.823 148.453C511.505 148.743 512.078 149.146 512.543 149.662C513.008 150.179 513.359 150.804 513.597 151.538C513.835 152.272 513.954 153.078 513.954 153.956V164H512.729C512.46 164 512.254 163.959 512.109 163.876C511.964 163.783 511.851 163.607 511.768 163.349L511.458 161.861C511.045 162.243 510.642 162.584 510.249 162.884C509.856 163.173 509.443 163.421 509.009 163.628C508.575 163.824 508.11 163.974 507.614 164.078C507.128 164.191 506.586 164.248 505.987 164.248C505.377 164.248 504.803 164.165 504.266 164C503.729 163.824 503.259 163.566 502.856 163.225C502.463 162.884 502.148 162.455 501.91 161.938C501.683 161.411 501.569 160.791 501.569 160.078C501.569 159.458 501.74 158.864 502.081 158.296C502.422 157.717 502.974 157.206 503.739 156.761C504.504 156.317 505.501 155.955 506.731 155.676C507.96 155.387 509.469 155.222 511.257 155.18V153.956C511.257 152.737 510.993 151.817 510.466 151.197C509.939 150.567 509.169 150.251 508.157 150.251C507.475 150.251 506.901 150.339 506.436 150.515C505.981 150.68 505.584 150.871 505.243 151.088C504.912 151.295 504.623 151.486 504.375 151.662C504.137 151.827 503.899 151.91 503.662 151.91C503.476 151.91 503.315 151.863 503.181 151.77C503.047 151.667 502.933 151.543 502.84 151.398L502.344 150.515Z" fill="#3C3B3B"/>
<ellipse cx="422" cy="617.5" rx="90" ry="88.5" fill="#F7F7F7"/>
<path d="M399.119 606.668V610H380.303V606.668H387.825V582.731C387.825 582.013 387.849 581.286 387.898 580.551L381.651 585.916C381.438 586.096 381.226 586.21 381.014 586.259C380.801 586.292 380.605 586.292 380.426 586.259C380.246 586.227 380.074 586.161 379.911 586.063C379.764 585.965 379.65 585.859 379.568 585.745L378.196 583.858L388.658 574.818H392.21V606.668H399.119ZM429.307 592.458C429.307 595.529 428.972 598.191 428.302 600.445C427.649 602.683 426.751 604.536 425.607 606.006C424.464 607.476 423.108 608.571 421.54 609.289C419.989 610.008 418.323 610.368 416.542 610.368C414.746 610.368 413.072 610.008 411.52 609.289C409.985 608.571 408.645 607.476 407.502 606.006C406.359 604.536 405.46 602.683 404.807 600.445C404.154 598.191 403.827 595.529 403.827 592.458C403.827 589.387 404.154 586.725 404.807 584.471C405.46 582.217 406.359 580.355 407.502 578.885C408.645 577.399 409.985 576.296 411.52 575.577C413.072 574.859 414.746 574.499 416.542 574.499C418.323 574.499 419.989 574.859 421.54 575.577C423.108 576.296 424.464 577.399 425.607 578.885C426.751 580.355 427.649 582.217 428.302 584.471C428.972 586.725 429.307 589.387 429.307 592.458ZM424.774 592.458C424.774 589.779 424.546 587.533 424.088 585.72C423.647 583.891 423.043 582.421 422.275 581.31C421.524 580.2 420.65 579.408 419.654 578.934C418.658 578.444 417.62 578.199 416.542 578.199C415.464 578.199 414.427 578.444 413.431 578.934C412.435 579.408 411.561 580.2 410.809 581.31C410.058 582.421 409.454 583.891 408.996 585.72C408.555 587.533 408.335 589.779 408.335 592.458C408.335 595.137 408.555 597.382 408.996 599.195C409.454 601.008 410.058 602.47 410.809 603.581C411.561 604.692 412.435 605.492 413.431 605.982C414.427 606.456 415.464 606.692 416.542 606.692C417.62 606.692 418.658 606.456 419.654 605.982C420.65 605.492 421.524 604.692 422.275 603.581C423.043 602.47 423.647 601.008 424.088 599.195C424.546 597.382 424.774 595.137 424.774 592.458ZM448.225 583.368C448.225 584.74 448.012 585.974 447.588 587.068C447.163 588.146 446.591 589.061 445.873 589.812C445.17 590.547 444.346 591.11 443.398 591.502C442.467 591.894 441.479 592.09 440.434 592.09C439.339 592.09 438.319 591.894 437.371 591.502C436.424 591.11 435.599 590.547 434.897 589.812C434.211 589.061 433.672 588.146 433.28 587.068C432.888 585.974 432.692 584.74 432.692 583.368C432.692 581.964 432.888 580.714 433.28 579.62C433.672 578.526 434.211 577.603 434.897 576.851C435.599 576.1 436.424 575.528 437.371 575.136C438.319 574.744 439.339 574.548 440.434 574.548C441.544 574.548 442.573 574.744 443.521 575.136C444.468 575.528 445.293 576.1 445.995 576.851C446.698 577.603 447.245 578.526 447.637 579.62C448.029 580.714 448.225 581.964 448.225 583.368ZM444.844 583.368C444.844 582.29 444.729 581.376 444.501 580.624C444.272 579.873 443.954 579.261 443.545 578.787C443.153 578.297 442.688 577.946 442.149 577.733C441.61 577.521 441.038 577.415 440.434 577.415C439.829 577.415 439.266 577.521 438.743 577.733C438.221 577.946 437.763 578.297 437.371 578.787C436.979 579.261 436.669 579.873 436.44 580.624C436.212 581.376 436.097 582.29 436.097 583.368C436.097 584.43 436.212 585.337 436.44 586.088C436.669 586.823 436.979 587.427 437.371 587.901C437.763 588.358 438.221 588.693 438.743 588.905C439.266 589.101 439.829 589.199 440.434 589.199C441.038 589.199 441.61 589.101 442.149 588.905C442.688 588.693 443.153 588.358 443.545 587.901C443.954 587.427 444.272 586.823 444.501 586.088C444.729 585.337 444.844 584.43 444.844 583.368ZM460.646 575.626C460.81 575.43 460.997 575.259 461.21 575.112C461.438 574.965 461.741 574.891 462.116 574.891H465.277L439.601 609.289C439.454 609.502 439.266 609.673 439.037 609.804C438.809 609.935 438.531 610 438.204 610H434.995L460.646 575.626ZM467.653 601.719C467.653 603.091 467.441 604.316 467.016 605.394C466.592 606.472 466.02 607.387 465.301 608.138C464.599 608.873 463.774 609.436 462.827 609.828C461.896 610.221 460.908 610.417 459.862 610.417C458.752 610.417 457.723 610.221 456.775 609.828C455.844 609.436 455.028 608.873 454.325 608.138C453.639 607.387 453.1 606.472 452.708 605.394C452.316 604.316 452.12 603.091 452.12 601.719C452.12 600.314 452.316 599.065 452.708 597.97C453.1 596.86 453.639 595.929 454.325 595.177C455.028 594.426 455.844 593.854 456.775 593.462C457.723 593.07 458.752 592.874 459.862 592.874C460.957 592.874 461.977 593.07 462.925 593.462C463.888 593.854 464.713 594.426 465.399 595.177C466.102 595.929 466.649 596.86 467.041 597.97C467.449 599.065 467.653 600.314 467.653 601.719ZM464.272 601.719C464.272 600.641 464.158 599.726 463.929 598.975C463.701 598.207 463.382 597.587 462.974 597.113C462.582 596.639 462.116 596.296 461.577 596.084C461.038 595.872 460.467 595.765 459.862 595.765C459.258 595.765 458.686 595.872 458.147 596.084C457.625 596.296 457.167 596.639 456.775 597.113C456.383 597.587 456.073 598.207 455.844 598.975C455.632 599.726 455.526 600.641 455.526 601.719C455.526 602.781 455.632 603.679 455.844 604.414C456.073 605.149 456.383 605.753 456.775 606.227C457.167 606.684 457.625 607.019 458.147 607.231C458.686 607.427 459.258 607.525 459.862 607.525C460.467 607.525 461.038 607.427 461.577 607.231C462.116 607.019 462.582 606.684 462.974 606.227C463.382 605.753 463.701 605.149 463.929 604.414C464.158 603.679 464.272 602.781 464.272 601.719Z" fill="#303030"/>
<path d="M400.29 627.788V650H397.283V639.894H385.301V650H382.294V627.788H385.301V637.693H397.283V627.788H400.29ZM413.218 642.932C411.947 642.973 410.862 643.077 409.963 643.242C409.074 643.397 408.346 643.604 407.777 643.862C407.219 644.12 406.811 644.425 406.553 644.776C406.305 645.128 406.181 645.52 406.181 645.954C406.181 646.368 406.248 646.724 406.382 647.024C406.517 647.324 406.697 647.572 406.925 647.768C407.162 647.954 407.436 648.093 407.746 648.186C408.067 648.269 408.408 648.31 408.769 648.31C409.255 648.31 409.699 648.264 410.102 648.171C410.505 648.068 410.882 647.923 411.234 647.737C411.595 647.551 411.936 647.329 412.257 647.07C412.587 646.812 412.908 646.518 413.218 646.187V642.932ZM404.305 636.515C405.173 635.678 406.108 635.053 407.111 634.639C408.113 634.226 409.224 634.019 410.443 634.019C411.322 634.019 412.102 634.164 412.784 634.453C413.466 634.743 414.039 635.146 414.504 635.662C414.969 636.179 415.321 636.804 415.558 637.538C415.796 638.272 415.915 639.078 415.915 639.956V650H414.69C414.422 650 414.215 649.959 414.07 649.876C413.926 649.783 413.812 649.607 413.729 649.349L413.419 647.861C413.006 648.243 412.603 648.584 412.21 648.884C411.818 649.173 411.404 649.421 410.97 649.628C410.536 649.824 410.071 649.974 409.575 650.078C409.09 650.191 408.547 650.248 407.948 650.248C407.338 650.248 406.765 650.165 406.227 650C405.69 649.824 405.22 649.566 404.817 649.225C404.424 648.884 404.109 648.455 403.871 647.938C403.644 647.411 403.53 646.791 403.53 646.078C403.53 645.458 403.701 644.864 404.042 644.296C404.383 643.717 404.936 643.206 405.7 642.761C406.465 642.317 407.462 641.955 408.692 641.676C409.921 641.387 411.43 641.222 413.218 641.18V639.956C413.218 638.737 412.954 637.817 412.427 637.197C411.9 636.567 411.13 636.251 410.118 636.251C409.436 636.251 408.862 636.339 408.397 636.515C407.943 636.68 407.545 636.871 407.204 637.088C406.873 637.295 406.584 637.486 406.336 637.662C406.098 637.827 405.86 637.91 405.623 637.91C405.437 637.91 405.277 637.863 405.142 637.77C405.008 637.667 404.894 637.543 404.801 637.398L404.305 636.515ZM422.566 636.577C422.907 636.195 423.269 635.848 423.651 635.538C424.034 635.228 424.437 634.965 424.86 634.748C425.294 634.521 425.749 634.35 426.224 634.236C426.71 634.112 427.232 634.05 427.79 634.05C428.648 634.05 429.402 634.195 430.053 634.484C430.714 634.763 431.262 635.166 431.696 635.693C432.14 636.21 432.476 636.835 432.703 637.569C432.931 638.303 433.044 639.114 433.044 640.002V650H430.27V640.002C430.27 638.814 429.996 637.894 429.448 637.243C428.911 636.582 428.09 636.251 426.984 636.251C426.168 636.251 425.403 636.448 424.69 636.84C423.987 637.233 423.336 637.765 422.737 638.437V650H419.962V634.298H421.621C422.014 634.298 422.256 634.49 422.349 634.872L422.566 636.577ZM446.238 636.887C446.114 637.114 445.923 637.228 445.665 637.228C445.51 637.228 445.334 637.171 445.138 637.057C444.942 636.944 444.699 636.82 444.409 636.685C444.13 636.541 443.795 636.412 443.402 636.298C443.009 636.174 442.544 636.112 442.007 636.112C441.542 636.112 441.123 636.174 440.751 636.298C440.379 636.412 440.059 636.572 439.79 636.778C439.532 636.985 439.331 637.228 439.186 637.507C439.052 637.776 438.984 638.07 438.984 638.39C438.984 638.793 439.098 639.129 439.325 639.398C439.563 639.667 439.873 639.899 440.255 640.095C440.638 640.292 441.072 640.467 441.557 640.622C442.043 640.767 442.539 640.927 443.045 641.103C443.562 641.268 444.063 641.454 444.549 641.661C445.035 641.868 445.469 642.126 445.851 642.436C446.233 642.746 446.538 643.128 446.765 643.583C447.003 644.027 447.122 644.565 447.122 645.195C447.122 645.918 446.993 646.59 446.734 647.21C446.476 647.82 446.094 648.352 445.587 648.806C445.081 649.251 444.461 649.602 443.727 649.86C442.994 650.119 442.146 650.248 441.185 650.248C440.09 650.248 439.098 650.072 438.209 649.721C437.321 649.359 436.566 648.899 435.946 648.341L436.597 647.287C436.68 647.153 436.778 647.05 436.892 646.977C437.006 646.905 437.15 646.869 437.326 646.869C437.512 646.869 437.708 646.941 437.915 647.086C438.122 647.231 438.37 647.391 438.659 647.566C438.959 647.742 439.32 647.902 439.744 648.047C440.168 648.192 440.695 648.264 441.325 648.264C441.862 648.264 442.332 648.197 442.735 648.062C443.138 647.918 443.474 647.727 443.743 647.489C444.012 647.251 444.208 646.977 444.332 646.667C444.466 646.357 444.533 646.027 444.533 645.675C444.533 645.241 444.415 644.885 444.177 644.606C443.95 644.317 443.645 644.074 443.262 643.877C442.88 643.671 442.441 643.495 441.945 643.35C441.459 643.195 440.958 643.035 440.441 642.87C439.935 642.705 439.434 642.519 438.938 642.312C438.452 642.095 438.018 641.826 437.636 641.506C437.254 641.186 436.944 640.793 436.706 640.328C436.479 639.853 436.365 639.279 436.365 638.607C436.365 638.008 436.489 637.435 436.737 636.887C436.985 636.329 437.347 635.843 437.822 635.43C438.297 635.006 438.881 634.67 439.573 634.423C440.266 634.174 441.056 634.05 441.945 634.05C442.978 634.05 443.903 634.216 444.719 634.546C445.546 634.867 446.259 635.311 446.858 635.879L446.238 636.887ZM460.859 640.436C460.859 639.796 460.766 639.212 460.58 638.685C460.404 638.148 460.14 637.688 459.789 637.305C459.448 636.913 459.03 636.613 458.534 636.406C458.038 636.189 457.474 636.081 456.844 636.081C455.521 636.081 454.473 636.468 453.698 637.243C452.933 638.008 452.458 639.072 452.272 640.436H460.859ZM463.091 647.799C462.75 648.212 462.341 648.574 461.866 648.884C461.391 649.184 460.879 649.432 460.332 649.628C459.794 649.824 459.236 649.969 458.658 650.062C458.079 650.165 457.505 650.217 456.937 650.217C455.852 650.217 454.85 650.036 453.93 649.674C453.021 649.302 452.23 648.765 451.559 648.062C450.897 647.349 450.381 646.471 450.009 645.427C449.637 644.384 449.451 643.185 449.451 641.831C449.451 640.736 449.616 639.713 449.947 638.762C450.288 637.812 450.773 636.99 451.404 636.298C452.034 635.595 452.804 635.048 453.713 634.655C454.622 634.252 455.645 634.05 456.782 634.05C457.722 634.05 458.59 634.211 459.386 634.531C460.192 634.841 460.884 635.296 461.463 635.895C462.052 636.484 462.512 637.218 462.843 638.096C463.173 638.964 463.339 639.956 463.339 641.072C463.339 641.506 463.292 641.795 463.199 641.94C463.106 642.085 462.93 642.157 462.672 642.157H452.179C452.21 643.149 452.344 644.012 452.582 644.745C452.83 645.479 453.171 646.094 453.605 646.59C454.039 647.076 454.555 647.442 455.155 647.69C455.754 647.928 456.426 648.047 457.17 648.047C457.862 648.047 458.456 647.969 458.952 647.814C459.458 647.649 459.892 647.473 460.254 647.287C460.616 647.101 460.915 646.931 461.153 646.776C461.401 646.611 461.613 646.528 461.789 646.528C462.016 646.528 462.192 646.616 462.316 646.791L463.091 647.799Z" fill="#3C3B3B"/>
<ellipse cx="263" cy="743.5" rx="89" ry="87.5" fill="#F7F7F7"/>
<path d="M240.119 740.668V744H221.303V740.668H228.825V716.731C228.825 716.013 228.849 715.286 228.898 714.551L222.651 719.916C222.438 720.096 222.226 720.21 222.014 720.259C221.801 720.292 221.605 720.292 221.426 720.259C221.246 720.227 221.074 720.161 220.911 720.063C220.764 719.965 220.65 719.859 220.568 719.745L219.196 717.858L229.658 708.818H233.21V740.668H240.119ZM270.307 726.458C270.307 729.529 269.972 732.191 269.302 734.445C268.649 736.683 267.751 738.536 266.607 740.006C265.464 741.476 264.108 742.571 262.54 743.289C260.989 744.008 259.323 744.368 257.542 744.368C255.746 744.368 254.072 744.008 252.52 743.289C250.985 742.571 249.645 741.476 248.502 740.006C247.359 738.536 246.46 736.683 245.807 734.445C245.154 732.191 244.827 729.529 244.827 726.458C244.827 723.387 245.154 720.725 245.807 718.471C246.46 716.217 247.359 714.355 248.502 712.885C249.645 711.399 250.985 710.296 252.52 709.577C254.072 708.859 255.746 708.499 257.542 708.499C259.323 708.499 260.989 708.859 262.54 709.577C264.108 710.296 265.464 711.399 266.607 712.885C267.751 714.355 268.649 716.217 269.302 718.471C269.972 720.725 270.307 723.387 270.307 726.458ZM265.774 726.458C265.774 723.779 265.546 721.533 265.088 719.72C264.647 717.891 264.043 716.421 263.275 715.31C262.524 714.2 261.65 713.408 260.654 712.934C259.658 712.444 258.62 712.199 257.542 712.199C256.464 712.199 255.427 712.444 254.431 712.934C253.435 713.408 252.561 714.2 251.809 715.31C251.058 716.421 250.454 717.891 249.996 719.72C249.555 721.533 249.335 723.779 249.335 726.458C249.335 729.137 249.555 731.382 249.996 733.195C250.454 735.008 251.058 736.47 251.809 737.581C252.561 738.692 253.435 739.492 254.431 739.982C255.427 740.456 256.464 740.692 257.542 740.692C258.62 740.692 259.658 740.456 260.654 739.982C261.65 739.492 262.524 738.692 263.275 737.581C264.043 736.47 264.647 735.008 265.088 733.195C265.546 731.382 265.774 729.137 265.774 726.458ZM289.225 717.368C289.225 718.74 289.012 719.974 288.588 721.068C288.163 722.146 287.591 723.061 286.873 723.812C286.17 724.547 285.346 725.11 284.398 725.502C283.467 725.894 282.479 726.09 281.434 726.09C280.339 726.09 279.319 725.894 278.371 725.502C277.424 725.11 276.599 724.547 275.897 723.812C275.211 723.061 274.672 722.146 274.28 721.068C273.888 719.974 273.692 718.74 273.692 717.368C273.692 715.964 273.888 714.714 274.28 713.62C274.672 712.526 275.211 711.603 275.897 710.851C276.599 710.1 277.424 709.528 278.371 709.136C279.319 708.744 280.339 708.548 281.434 708.548C282.544 708.548 283.573 708.744 284.521 709.136C285.468 709.528 286.293 710.1 286.995 710.851C287.698 711.603 288.245 712.526 288.637 713.62C289.029 714.714 289.225 715.964 289.225 717.368ZM285.844 717.368C285.844 716.29 285.729 715.376 285.501 714.624C285.272 713.873 284.954 713.261 284.545 712.787C284.153 712.297 283.688 711.946 283.149 711.733C282.61 711.521 282.038 711.415 281.434 711.415C280.829 711.415 280.266 711.521 279.743 711.733C279.221 711.946 278.763 712.297 278.371 712.787C277.979 713.261 277.669 713.873 277.44 714.624C277.212 715.376 277.097 716.29 277.097 717.368C277.097 718.43 277.212 719.337 277.44 720.088C277.669 720.823 277.979 721.427 278.371 721.901C278.763 722.358 279.221 722.693 279.743 722.905C280.266 723.101 280.829 723.199 281.434 723.199C282.038 723.199 282.61 723.101 283.149 722.905C283.688 722.693 284.153 722.358 284.545 721.901C284.954 721.427 285.272 720.823 285.501 720.088C285.729 719.337 285.844 718.43 285.844 717.368ZM301.646 709.626C301.81 709.43 301.997 709.259 302.21 709.112C302.438 708.965 302.741 708.891 303.116 708.891H306.277L280.601 743.289C280.454 743.502 280.266 743.673 280.037 743.804C279.809 743.935 279.531 744 279.204 744H275.995L301.646 709.626ZM308.653 735.719C308.653 737.091 308.441 738.316 308.016 739.394C307.592 740.472 307.02 741.387 306.301 742.138C305.599 742.873 304.774 743.436 303.827 743.828C302.896 744.221 301.908 744.417 300.862 744.417C299.752 744.417 298.723 744.221 297.775 743.828C296.844 743.436 296.028 742.873 295.325 742.138C294.639 741.387 294.1 740.472 293.708 739.394C293.316 738.316 293.12 737.091 293.12 735.719C293.12 734.314 293.316 733.065 293.708 731.97C294.1 730.86 294.639 729.929 295.325 729.177C296.028 728.426 296.844 727.854 297.775 727.462C298.723 727.07 299.752 726.874 300.862 726.874C301.957 726.874 302.977 727.07 303.925 727.462C304.888 727.854 305.713 728.426 306.399 729.177C307.102 729.929 307.649 730.86 308.041 731.97C308.449 733.065 308.653 734.314 308.653 735.719ZM305.272 735.719C305.272 734.641 305.158 733.726 304.929 732.975C304.701 732.207 304.382 731.587 303.974 731.113C303.582 730.639 303.116 730.296 302.577 730.084C302.038 729.872 301.467 729.765 300.862 729.765C300.258 729.765 299.686 729.872 299.147 730.084C298.625 730.296 298.167 730.639 297.775 731.113C297.383 731.587 297.073 732.207 296.844 732.975C296.632 733.726 296.526 734.641 296.526 735.719C296.526 736.781 296.632 737.679 296.844 738.414C297.073 739.149 297.383 739.753 297.775 740.227C298.167 740.684 298.625 741.019 299.147 741.231C299.686 741.427 300.258 741.525 300.862 741.525C301.467 741.525 302.038 741.427 302.577 741.231C303.116 741.019 303.582 740.684 303.974 740.227C304.382 739.753 304.701 739.149 304.929 738.414C305.158 737.679 305.272 736.781 305.272 735.719Z" fill="#303030"/>
<path d="M246.278 781.473V784H233.676V761.788H236.668V781.473H246.278ZM260.828 768.298V784H259.185C258.792 784 258.544 783.809 258.441 783.426L258.224 781.737C257.542 782.491 256.777 783.101 255.93 783.566C255.082 784.021 254.111 784.248 253.016 784.248C252.158 784.248 251.399 784.109 250.737 783.829C250.086 783.54 249.539 783.137 249.094 782.62C248.65 782.104 248.314 781.479 248.087 780.745C247.87 780.011 247.761 779.2 247.761 778.311V768.298H250.52V778.311C250.52 779.5 250.789 780.419 251.326 781.07C251.874 781.721 252.706 782.047 253.822 782.047C254.638 782.047 255.398 781.856 256.1 781.473C256.813 781.081 257.469 780.543 258.069 779.861V768.298H260.828ZM267.822 761.168V774.607H268.535C268.742 774.607 268.912 774.581 269.046 774.529C269.191 774.467 269.341 774.349 269.496 774.173L274.456 768.856C274.601 768.681 274.75 768.546 274.905 768.453C275.071 768.35 275.288 768.298 275.556 768.298H278.052L272.27 774.452C271.991 774.803 271.692 775.077 271.371 775.273C271.557 775.397 271.723 775.542 271.867 775.707C272.022 775.862 272.167 776.043 272.301 776.25L278.439 784H275.975C275.737 784 275.531 783.964 275.355 783.891C275.19 783.809 275.045 783.664 274.921 783.457L269.759 777.025C269.604 776.808 269.449 776.668 269.294 776.606C269.15 776.534 268.922 776.498 268.612 776.498H267.822V784H265.047V761.168H267.822ZM286.375 768.05C287.522 768.05 288.556 768.242 289.475 768.624C290.395 769.006 291.18 769.549 291.831 770.251C292.482 770.954 292.978 771.807 293.319 772.809C293.671 773.801 293.846 774.912 293.846 776.141C293.846 777.381 293.671 778.497 293.319 779.489C292.978 780.481 292.482 781.329 291.831 782.031C291.18 782.734 290.395 783.277 289.475 783.659C288.556 784.031 287.522 784.217 286.375 784.217C285.218 784.217 284.174 784.031 283.244 783.659C282.325 783.277 281.539 782.734 280.888 782.031C280.237 781.329 279.736 780.481 279.385 779.489C279.044 778.497 278.873 777.381 278.873 776.141C278.873 774.912 279.044 773.801 279.385 772.809C279.736 771.807 280.237 770.954 280.888 770.251C281.539 769.549 282.325 769.006 283.244 768.624C284.174 768.242 285.218 768.05 286.375 768.05ZM286.375 782.062C287.925 782.062 289.083 781.546 289.847 780.512C290.612 779.469 290.994 778.017 290.994 776.157C290.994 774.287 290.612 772.83 289.847 771.786C289.083 770.742 287.925 770.22 286.375 770.22C285.59 770.22 284.903 770.355 284.314 770.623C283.735 770.892 283.249 771.28 282.857 771.786C282.474 772.292 282.185 772.917 281.989 773.661C281.803 774.395 281.71 775.227 281.71 776.157C281.71 778.017 282.092 779.469 282.857 780.512C283.632 781.546 284.805 782.062 286.375 782.062Z" fill="#3C3B3B"/>
<ellipse cx="211" cy="528" rx="108" ry="106" fill="#F7F7F7"/>
<path d="M188.119 525.668V529H169.303V525.668H176.825V501.731C176.825 501.013 176.849 500.286 176.898 499.551L170.651 504.916C170.438 505.096 170.226 505.21 170.014 505.259C169.801 505.292 169.605 505.292 169.426 505.259C169.246 505.227 169.074 505.161 168.911 505.063C168.764 504.965 168.65 504.859 168.568 504.745L167.196 502.858L177.658 493.818H181.21V525.668H188.119ZM209.242 516.333V501.854C209.242 501.429 209.258 500.964 209.291 500.457C209.324 499.951 209.373 499.437 209.438 498.914L196.649 516.333H209.242ZM218.38 516.333V518.832C218.38 519.094 218.299 519.314 218.135 519.494C217.988 519.674 217.752 519.763 217.425 519.763H213.064V529H209.242V519.763H193.66C193.333 519.763 193.047 519.674 192.802 519.494C192.574 519.298 192.427 519.061 192.361 518.783L191.92 516.554L208.997 493.891H213.064V516.333H218.38ZM237.225 502.368C237.225 503.74 237.012 504.974 236.588 506.068C236.163 507.146 235.591 508.061 234.873 508.812C234.17 509.547 233.346 510.11 232.398 510.502C231.467 510.894 230.479 511.09 229.434 511.09C228.339 511.09 227.319 510.894 226.371 510.502C225.424 510.11 224.599 509.547 223.897 508.812C223.211 508.061 222.672 507.146 222.28 506.068C221.888 504.974 221.692 503.74 221.692 502.368C221.692 500.964 221.888 499.714 222.28 498.62C222.672 497.526 223.211 496.603 223.897 495.851C224.599 495.1 225.424 494.528 226.371 494.136C227.319 493.744 228.339 493.548 229.434 493.548C230.544 493.548 231.573 493.744 232.521 494.136C233.468 494.528 234.293 495.1 234.995 495.851C235.698 496.603 236.245 497.526 236.637 498.62C237.029 499.714 237.225 500.964 237.225 502.368ZM233.844 502.368C233.844 501.29 233.729 500.376 233.501 499.624C233.272 498.873 232.954 498.261 232.545 497.787C232.153 497.297 231.688 496.946 231.149 496.733C230.61 496.521 230.038 496.415 229.434 496.415C228.829 496.415 228.266 496.521 227.743 496.733C227.221 496.946 226.763 497.297 226.371 497.787C225.979 498.261 225.669 498.873 225.44 499.624C225.212 500.376 225.097 501.29 225.097 502.368C225.097 503.43 225.212 504.337 225.44 505.088C225.669 505.823 225.979 506.427 226.371 506.901C226.763 507.358 227.221 507.693 227.743 507.905C228.266 508.101 228.829 508.199 229.434 508.199C230.038 508.199 230.61 508.101 231.149 507.905C231.688 507.693 232.153 507.358 232.545 506.901C232.954 506.427 233.272 505.823 233.501 505.088C233.729 504.337 233.844 503.43 233.844 502.368ZM249.646 494.626C249.81 494.43 249.997 494.259 250.21 494.112C250.438 493.965 250.741 493.891 251.116 493.891H254.277L228.601 528.289C228.454 528.502 228.266 528.673 228.037 528.804C227.809 528.935 227.531 529 227.204 529H223.995L249.646 494.626ZM256.653 520.719C256.653 522.091 256.441 523.316 256.016 524.394C255.592 525.472 255.02 526.387 254.301 527.138C253.599 527.873 252.774 528.436 251.827 528.828C250.896 529.221 249.908 529.417 248.862 529.417C247.752 529.417 246.723 529.221 245.775 528.828C244.844 528.436 244.028 527.873 243.325 527.138C242.639 526.387 242.1 525.472 241.708 524.394C241.316 523.316 241.12 522.091 241.12 520.719C241.12 519.314 241.316 518.065 241.708 516.97C242.1 515.86 242.639 514.929 243.325 514.177C244.028 513.426 244.844 512.854 245.775 512.462C246.723 512.07 247.752 511.874 248.862 511.874C249.957 511.874 250.977 512.07 251.925 512.462C252.888 512.854 253.713 513.426 254.399 514.177C255.102 514.929 255.649 515.86 256.041 516.97C256.449 518.065 256.653 519.314 256.653 520.719ZM253.272 520.719C253.272 519.641 253.158 518.726 252.929 517.975C252.701 517.207 252.382 516.587 251.974 516.113C251.582 515.639 251.116 515.296 250.577 515.084C250.038 514.872 249.467 514.765 248.862 514.765C248.258 514.765 247.686 514.872 247.147 515.084C246.625 515.296 246.167 515.639 245.775 516.113C245.383 516.587 245.073 517.207 244.844 517.975C244.632 518.726 244.526 519.641 244.526 520.719C244.526 521.781 244.632 522.679 244.844 523.414C245.073 524.149 245.383 524.753 245.775 525.227C246.167 525.684 246.625 526.019 247.147 526.231C247.686 526.427 248.258 526.525 248.862 526.525C249.467 526.525 250.038 526.427 250.577 526.231C251.116 526.019 251.582 525.684 251.974 525.227C252.382 524.753 252.701 524.149 252.929 523.414C253.158 522.679 253.272 521.781 253.272 520.719Z" fill="#303030"/>
<path d="M174.831 560.754L171.343 551.717C171.24 551.449 171.131 551.139 171.018 550.787C170.904 550.426 170.796 550.043 170.692 549.64C170.475 550.477 170.253 551.175 170.026 551.733L166.538 560.754H174.831ZM181.093 569H178.768C178.499 569 178.282 568.933 178.117 568.798C177.951 568.664 177.827 568.494 177.745 568.287L175.668 562.924H165.701L163.624 568.287C163.562 568.473 163.443 568.638 163.268 568.783C163.092 568.928 162.875 569 162.617 569H160.292L169.173 546.788H172.211L181.093 569ZM186 546.168V569H183.241V546.168H186ZM193.171 546.168V569H190.412V546.168H193.171ZM206.636 555.887C206.512 556.114 206.32 556.228 206.062 556.228C205.907 556.228 205.731 556.171 205.535 556.057C205.339 555.944 205.096 555.82 204.807 555.685C204.528 555.541 204.192 555.412 203.799 555.298C203.406 555.174 202.941 555.112 202.404 555.112C201.939 555.112 201.521 555.174 201.149 555.298C200.777 555.412 200.456 555.572 200.188 555.778C199.929 555.985 199.728 556.228 199.583 556.507C199.449 556.776 199.382 557.07 199.382 557.39C199.382 557.793 199.495 558.129 199.723 558.398C199.96 558.667 200.27 558.899 200.653 559.095C201.035 559.292 201.469 559.467 201.955 559.622C202.44 559.767 202.936 559.927 203.443 560.103C203.959 560.268 204.46 560.454 204.946 560.661C205.432 560.868 205.866 561.126 206.248 561.436C206.63 561.746 206.935 562.128 207.163 562.583C207.4 563.027 207.519 563.565 207.519 564.195C207.519 564.918 207.39 565.59 207.132 566.21C206.873 566.82 206.491 567.352 205.985 567.806C205.478 568.251 204.858 568.602 204.125 568.86C203.391 569.119 202.544 569.248 201.583 569.248C200.487 569.248 199.495 569.072 198.607 568.721C197.718 568.359 196.964 567.899 196.344 567.341L196.995 566.287C197.077 566.153 197.175 566.05 197.289 565.977C197.403 565.905 197.547 565.869 197.723 565.869C197.909 565.869 198.105 565.941 198.312 566.086C198.519 566.231 198.767 566.391 199.056 566.566C199.356 566.742 199.717 566.902 200.141 567.047C200.565 567.192 201.092 567.264 201.722 567.264C202.259 567.264 202.73 567.197 203.133 567.062C203.536 566.918 203.871 566.727 204.14 566.489C204.409 566.251 204.605 565.977 204.729 565.667C204.863 565.357 204.931 565.027 204.931 564.675C204.931 564.241 204.812 563.885 204.574 563.606C204.347 563.317 204.042 563.074 203.66 562.877C203.277 562.671 202.838 562.495 202.342 562.35C201.856 562.195 201.355 562.035 200.839 561.87C200.332 561.705 199.831 561.519 199.335 561.312C198.849 561.095 198.415 560.826 198.033 560.506C197.651 560.186 197.341 559.793 197.103 559.328C196.876 558.853 196.762 558.279 196.762 557.607C196.762 557.008 196.886 556.435 197.134 555.887C197.382 555.329 197.744 554.843 198.219 554.43C198.694 554.006 199.278 553.67 199.971 553.423C200.663 553.174 201.453 553.05 202.342 553.05C203.375 553.05 204.3 553.216 205.117 553.546C205.943 553.867 206.656 554.311 207.256 554.879L206.636 555.887ZM215.567 569.248C214.327 569.248 213.371 568.902 212.7 568.209C212.038 567.517 211.708 566.52 211.708 565.218V555.608H209.817C209.651 555.608 209.512 555.561 209.398 555.468C209.285 555.365 209.228 555.21 209.228 555.003V553.903L211.801 553.577L212.436 548.726C212.467 548.571 212.534 548.447 212.638 548.354C212.751 548.251 212.896 548.199 213.072 548.199H214.467V553.608H219.008V555.608H214.467V565.032C214.467 565.693 214.627 566.184 214.947 566.504C215.268 566.825 215.681 566.985 216.187 566.985C216.477 566.985 216.725 566.949 216.931 566.876C217.148 566.794 217.334 566.706 217.489 566.613C217.644 566.52 217.773 566.437 217.877 566.365C217.99 566.282 218.089 566.241 218.171 566.241C218.316 566.241 218.445 566.329 218.559 566.504L219.365 567.822C218.889 568.266 218.316 568.618 217.644 568.876C216.973 569.124 216.28 569.248 215.567 569.248ZM230.212 561.932C228.941 561.973 227.856 562.077 226.957 562.242C226.068 562.397 225.339 562.604 224.771 562.862C224.213 563.12 223.805 563.425 223.547 563.776C223.299 564.128 223.175 564.52 223.175 564.954C223.175 565.368 223.242 565.724 223.376 566.024C223.51 566.324 223.691 566.572 223.919 566.768C224.156 566.954 224.43 567.093 224.74 567.186C225.06 567.269 225.401 567.31 225.763 567.31C226.249 567.31 226.693 567.264 227.096 567.171C227.499 567.068 227.876 566.923 228.228 566.737C228.589 566.551 228.93 566.329 229.251 566.07C229.581 565.812 229.902 565.518 230.212 565.187V561.932ZM221.299 555.515C222.167 554.678 223.102 554.053 224.105 553.639C225.107 553.226 226.218 553.019 227.437 553.019C228.315 553.019 229.096 553.164 229.778 553.453C230.46 553.743 231.033 554.146 231.498 554.662C231.963 555.179 232.314 555.804 232.552 556.538C232.79 557.272 232.909 558.078 232.909 558.956V569H231.684C231.415 569 231.209 568.959 231.064 568.876C230.919 568.783 230.806 568.607 230.723 568.349L230.413 566.861C230 567.243 229.597 567.584 229.204 567.884C228.811 568.173 228.398 568.421 227.964 568.628C227.53 568.824 227.065 568.974 226.569 569.078C226.083 569.191 225.541 569.248 224.942 569.248C224.332 569.248 223.758 569.165 223.221 569C222.684 568.824 222.214 568.566 221.811 568.225C221.418 567.884 221.103 567.455 220.865 566.938C220.638 566.411 220.524 565.791 220.524 565.078C220.524 564.458 220.695 563.864 221.036 563.296C221.377 562.717 221.929 562.206 222.694 561.761C223.459 561.317 224.456 560.955 225.686 560.676C226.915 560.387 228.424 560.222 230.212 560.18V558.956C230.212 557.737 229.948 556.817 229.421 556.197C228.894 555.567 228.124 555.251 227.112 555.251C226.43 555.251 225.856 555.339 225.391 555.515C224.936 555.68 224.539 555.871 224.198 556.088C223.867 556.295 223.578 556.486 223.33 556.662C223.092 556.827 222.854 556.91 222.617 556.91C222.431 556.91 222.27 556.863 222.136 556.77C222.002 556.667 221.888 556.543 221.795 556.398L221.299 555.515ZM241.565 569.248C240.325 569.248 239.369 568.902 238.697 568.209C238.036 567.517 237.705 566.52 237.705 565.218V555.608H235.814C235.649 555.608 235.509 555.561 235.396 555.468C235.282 555.365 235.225 555.21 235.225 555.003V553.903L237.798 553.577L238.434 548.726C238.465 548.571 238.532 548.447 238.635 548.354C238.749 548.251 238.894 548.199 239.069 548.199H240.464V553.608H245.006V555.608H240.464V565.032C240.464 565.693 240.624 566.184 240.945 566.504C241.265 566.825 241.678 566.985 242.185 566.985C242.474 566.985 242.722 566.949 242.929 566.876C243.146 566.794 243.332 566.706 243.487 566.613C243.642 566.52 243.771 566.437 243.874 566.365C243.988 566.282 244.086 566.241 244.169 566.241C244.313 566.241 244.443 566.329 244.556 566.504L245.362 567.822C244.887 568.266 244.313 568.618 243.642 568.876C242.97 569.124 242.278 569.248 241.565 569.248ZM258.118 559.436C258.118 558.796 258.025 558.212 257.839 557.685C257.663 557.148 257.4 556.688 257.048 556.305C256.707 555.913 256.289 555.613 255.793 555.406C255.297 555.189 254.734 555.081 254.103 555.081C252.781 555.081 251.732 555.468 250.957 556.243C250.192 557.008 249.717 558.072 249.531 559.436H258.118ZM260.35 566.799C260.009 567.212 259.601 567.574 259.125 567.884C258.65 568.184 258.138 568.432 257.591 568.628C257.053 568.824 256.495 568.969 255.917 569.062C255.338 569.165 254.765 569.217 254.196 569.217C253.111 569.217 252.109 569.036 251.189 568.674C250.28 568.302 249.489 567.765 248.818 567.062C248.156 566.349 247.64 565.471 247.268 564.427C246.896 563.384 246.71 562.185 246.71 560.831C246.71 559.736 246.875 558.713 247.206 557.762C247.547 556.812 248.032 555.99 248.663 555.298C249.293 554.595 250.063 554.048 250.972 553.655C251.882 553.252 252.905 553.05 254.041 553.05C254.982 553.05 255.85 553.211 256.645 553.531C257.451 553.841 258.144 554.296 258.722 554.895C259.311 555.484 259.771 556.218 260.102 557.096C260.432 557.964 260.598 558.956 260.598 560.072C260.598 560.506 260.551 560.795 260.458 560.94C260.365 561.085 260.19 561.157 259.931 561.157H249.438C249.469 562.149 249.603 563.012 249.841 563.745C250.089 564.479 250.43 565.094 250.864 565.59C251.298 566.076 251.814 566.442 252.414 566.69C253.013 566.928 253.685 567.047 254.429 567.047C255.121 567.047 255.715 566.969 256.211 566.814C256.718 566.649 257.152 566.473 257.513 566.287C257.875 566.101 258.175 565.931 258.412 565.776C258.66 565.611 258.872 565.528 259.048 565.528C259.275 565.528 259.451 565.616 259.575 565.791L260.35 566.799Z" fill="#3C3B3B"/>
<ellipse cx="422" cy="385" rx="116" ry="114" fill="#F7F7F7"/>
<path d="M399.119 378.668V382H380.303V378.668H387.825V354.731C387.825 354.013 387.849 353.286 387.898 352.551L381.651 357.916C381.438 358.096 381.226 358.21 381.014 358.259C380.801 358.292 380.605 358.292 380.426 358.259C380.246 358.227 380.074 358.161 379.911 358.063C379.764 357.965 379.65 357.859 379.568 357.745L378.196 355.858L388.658 346.818H392.21V378.668H399.119ZM416.518 378.766C417.694 378.766 418.756 378.578 419.703 378.202C420.667 377.827 421.483 377.304 422.153 376.634C422.839 375.965 423.362 375.173 423.721 374.258C424.097 373.343 424.284 372.347 424.284 371.269C424.284 370.126 424.105 369.097 423.745 368.182C423.386 367.251 422.872 366.467 422.202 365.83C421.549 365.177 420.765 364.678 419.85 364.335C418.935 363.992 417.931 363.821 416.836 363.821C415.66 363.821 414.599 364.025 413.651 364.433C412.704 364.825 411.896 365.364 411.226 366.05C410.573 366.72 410.066 367.504 409.707 368.402C409.364 369.284 409.192 370.207 409.192 371.171C409.192 372.298 409.356 373.327 409.682 374.258C410.009 375.189 410.483 375.989 411.103 376.659C411.74 377.329 412.508 377.851 413.406 378.227C414.321 378.586 415.358 378.766 416.518 378.766ZM413.97 360.048C413.66 360.44 413.357 360.824 413.063 361.199C412.786 361.559 412.516 361.918 412.255 362.277C413.088 361.706 414.003 361.265 414.999 360.954C415.995 360.644 417.081 360.489 418.257 360.489C419.678 360.489 421.018 360.726 422.275 361.199C423.533 361.657 424.627 362.335 425.558 363.233C426.506 364.115 427.257 365.209 427.812 366.516C428.368 367.806 428.645 369.284 428.645 370.95C428.645 372.567 428.351 374.07 427.763 375.458C427.175 376.847 426.351 378.055 425.289 379.084C424.244 380.113 422.978 380.922 421.491 381.51C420.021 382.098 418.396 382.392 416.616 382.392C414.852 382.392 413.251 382.114 411.814 381.559C410.377 380.987 409.152 380.187 408.139 379.158C407.143 378.113 406.367 376.855 405.811 375.385C405.272 373.899 405.003 372.241 405.003 370.411C405.003 368.876 405.338 367.243 406.007 365.511C406.693 363.764 407.78 361.902 409.266 359.925L418.184 347.945C418.413 347.651 418.723 347.406 419.115 347.21C419.523 346.998 419.989 346.891 420.511 346.891H424.382L413.97 360.048ZM448.225 355.368C448.225 356.74 448.012 357.974 447.588 359.068C447.163 360.146 446.591 361.061 445.873 361.812C445.17 362.547 444.346 363.11 443.398 363.502C442.467 363.894 441.479 364.09 440.434 364.09C439.339 364.09 438.319 363.894 437.371 363.502C436.424 363.11 435.599 362.547 434.897 361.812C434.211 361.061 433.672 360.146 433.28 359.068C432.888 357.974 432.692 356.74 432.692 355.368C432.692 353.964 432.888 352.714 433.28 351.62C433.672 350.526 434.211 349.603 434.897 348.851C435.599 348.1 436.424 347.528 437.371 347.136C438.319 346.744 439.339 346.548 440.434 346.548C441.544 346.548 442.573 346.744 443.521 347.136C444.468 347.528 445.293 348.1 445.995 348.851C446.698 349.603 447.245 350.526 447.637 351.62C448.029 352.714 448.225 353.964 448.225 355.368ZM444.844 355.368C444.844 354.29 444.729 353.376 444.501 352.624C444.272 351.873 443.954 351.261 443.545 350.787C443.153 350.297 442.688 349.946 442.149 349.733C441.61 349.521 441.038 349.415 440.434 349.415C439.829 349.415 439.266 349.521 438.743 349.733C438.221 349.946 437.763 350.297 437.371 350.787C436.979 351.261 436.669 351.873 436.44 352.624C436.212 353.376 436.097 354.29 436.097 355.368C436.097 356.43 436.212 357.337 436.44 358.088C436.669 358.823 436.979 359.427 437.371 359.901C437.763 360.358 438.221 360.693 438.743 360.905C439.266 361.101 439.829 361.199 440.434 361.199C441.038 361.199 441.61 361.101 442.149 360.905C442.688 360.693 443.153 360.358 443.545 359.901C443.954 359.427 444.272 358.823 444.501 358.088C444.729 357.337 444.844 356.43 444.844 355.368ZM460.646 347.626C460.81 347.43 460.997 347.259 461.21 347.112C461.438 346.965 461.741 346.891 462.116 346.891H465.277L439.601 381.289C439.454 381.502 439.266 381.673 439.037 381.804C438.809 381.935 438.531 382 438.204 382H434.995L460.646 347.626ZM467.653 373.719C467.653 375.091 467.441 376.316 467.016 377.394C466.592 378.472 466.02 379.387 465.301 380.138C464.599 380.873 463.774 381.436 462.827 381.828C461.896 382.221 460.908 382.417 459.862 382.417C458.752 382.417 457.723 382.221 456.775 381.828C455.844 381.436 455.028 380.873 454.325 380.138C453.639 379.387 453.1 378.472 452.708 377.394C452.316 376.316 452.12 375.091 452.12 373.719C452.12 372.314 452.316 371.065 452.708 369.97C453.1 368.86 453.639 367.929 454.325 367.177C455.028 366.426 455.844 365.854 456.775 365.462C457.723 365.07 458.752 364.874 459.862 364.874C460.957 364.874 461.977 365.07 462.925 365.462C463.888 365.854 464.713 366.426 465.399 367.177C466.102 367.929 466.649 368.86 467.041 369.97C467.449 371.065 467.653 372.314 467.653 373.719ZM464.272 373.719C464.272 372.641 464.158 371.726 463.929 370.975C463.701 370.207 463.382 369.587 462.974 369.113C462.582 368.639 462.116 368.296 461.577 368.084C461.038 367.872 460.467 367.765 459.862 367.765C459.258 367.765 458.686 367.872 458.147 368.084C457.625 368.296 457.167 368.639 456.775 369.113C456.383 369.587 456.073 370.207 455.844 370.975C455.632 371.726 455.526 372.641 455.526 373.719C455.526 374.781 455.632 375.679 455.844 376.414C456.073 377.149 456.383 377.753 456.775 378.227C457.167 378.684 457.625 379.019 458.147 379.231C458.686 379.427 459.258 379.525 459.862 379.525C460.467 379.525 461.038 379.427 461.577 379.231C462.116 379.019 462.582 378.684 462.974 378.227C463.382 377.753 463.701 377.149 463.929 376.414C464.158 375.679 464.272 374.781 464.272 373.719Z" fill="#303030"/>
<path d="M403.984 411.32V419.845C402.868 420.651 401.675 421.256 400.404 421.659C399.143 422.052 397.759 422.248 396.25 422.248C394.462 422.248 392.85 421.974 391.414 421.426C389.978 420.868 388.748 420.093 387.725 419.101C386.712 418.099 385.932 416.9 385.384 415.505C384.837 414.11 384.563 412.576 384.563 410.902C384.563 409.207 384.826 407.662 385.353 406.267C385.891 404.872 386.65 403.679 387.632 402.687C388.614 401.685 389.807 400.91 391.212 400.362C392.618 399.814 394.188 399.54 395.924 399.54C396.803 399.54 397.619 399.608 398.373 399.742C399.128 399.866 399.825 400.052 400.466 400.3C401.107 400.538 401.701 400.832 402.248 401.183C402.796 401.524 403.308 401.912 403.783 402.346L402.93 403.71C402.796 403.917 402.62 404.051 402.403 404.113C402.197 404.165 401.964 404.113 401.706 403.958C401.458 403.813 401.174 403.638 400.853 403.431C400.533 403.224 400.14 403.028 399.675 402.842C399.221 402.646 398.678 402.48 398.048 402.346C397.428 402.212 396.689 402.144 395.831 402.144C394.581 402.144 393.45 402.351 392.437 402.764C391.424 403.167 390.561 403.751 389.848 404.516C389.135 405.27 388.588 406.19 388.205 407.275C387.823 408.35 387.632 409.559 387.632 410.902C387.632 412.297 387.828 413.547 388.221 414.653C388.624 415.748 389.192 416.683 389.926 417.458C390.67 418.223 391.569 418.807 392.623 419.21C393.677 419.613 394.86 419.814 396.172 419.814C397.206 419.814 398.12 419.701 398.916 419.473C399.722 419.236 400.507 418.91 401.272 418.497V413.614H397.815C397.619 413.614 397.459 413.558 397.335 413.444C397.221 413.33 397.164 413.191 397.164 413.025V411.32H403.984ZM418.108 412.436C418.108 411.796 418.015 411.212 417.829 410.685C417.654 410.148 417.39 409.688 417.039 409.305C416.698 408.913 416.279 408.613 415.783 408.406C415.287 408.189 414.724 408.081 414.094 408.081C412.771 408.081 411.722 408.468 410.947 409.243C410.183 410.008 409.707 411.072 409.521 412.436H418.108ZM420.34 419.799C419.999 420.212 419.591 420.574 419.116 420.884C418.64 421.184 418.129 421.432 417.581 421.628C417.044 421.824 416.486 421.969 415.907 422.062C415.329 422.165 414.755 422.217 414.187 422.217C413.102 422.217 412.099 422.036 411.18 421.674C410.27 421.302 409.48 420.765 408.808 420.062C408.147 419.349 407.63 418.471 407.258 417.427C406.886 416.384 406.7 415.185 406.7 413.831C406.7 412.736 406.866 411.713 407.196 410.762C407.537 409.812 408.023 408.99 408.653 408.298C409.284 407.595 410.053 407.048 410.963 406.655C411.872 406.252 412.895 406.05 414.032 406.05C414.972 406.05 415.84 406.211 416.636 406.531C417.442 406.841 418.134 407.296 418.713 407.895C419.302 408.484 419.762 409.218 420.092 410.096C420.423 410.964 420.588 411.956 420.588 413.072C420.588 413.506 420.542 413.795 420.449 413.94C420.356 414.085 420.18 414.157 419.922 414.157H409.428C409.459 415.149 409.594 416.012 409.831 416.745C410.079 417.479 410.42 418.094 410.854 418.59C411.288 419.076 411.805 419.442 412.404 419.69C413.004 419.928 413.675 420.047 414.419 420.047C415.112 420.047 415.706 419.969 416.202 419.814C416.708 419.649 417.142 419.473 417.504 419.287C417.865 419.101 418.165 418.931 418.403 418.776C418.651 418.611 418.863 418.528 419.038 418.528C419.266 418.528 419.441 418.616 419.565 418.791L420.34 419.799ZM426.736 406.298V422H423.977V406.298H426.736ZM427.325 401.369C427.325 401.638 427.268 401.891 427.155 402.129C427.051 402.356 426.907 402.563 426.721 402.749C426.545 402.925 426.333 403.064 426.085 403.167C425.848 403.271 425.594 403.322 425.326 403.322C425.057 403.322 424.804 403.271 424.566 403.167C424.339 403.064 424.137 402.925 423.962 402.749C423.786 402.563 423.647 402.356 423.543 402.129C423.44 401.891 423.388 401.638 423.388 401.369C423.388 401.101 423.44 400.848 423.543 400.61C423.647 400.362 423.786 400.15 423.962 399.974C424.137 399.788 424.339 399.644 424.566 399.54C424.804 399.437 425.057 399.385 425.326 399.385C425.594 399.385 425.848 399.437 426.085 399.54C426.333 399.644 426.545 399.788 426.721 399.974C426.907 400.15 427.051 400.362 427.155 400.61C427.268 400.848 427.325 401.101 427.325 401.369ZM442.042 409.088C441.959 409.202 441.877 409.29 441.794 409.352C441.711 409.414 441.598 409.445 441.453 409.445C441.298 409.445 441.127 409.383 440.941 409.259C440.755 409.125 440.523 408.98 440.244 408.825C439.975 408.67 439.639 408.53 439.236 408.406C438.844 408.272 438.358 408.205 437.779 408.205C437.004 408.205 436.322 408.344 435.733 408.623C435.144 408.892 434.648 409.285 434.245 409.801C433.853 410.318 433.553 410.943 433.346 411.677C433.15 412.411 433.052 413.232 433.052 414.141C433.052 415.092 433.16 415.939 433.377 416.683C433.594 417.417 433.899 418.037 434.292 418.543C434.695 419.039 435.175 419.422 435.733 419.69C436.302 419.949 436.937 420.078 437.64 420.078C438.312 420.078 438.864 420 439.298 419.845C439.732 419.68 440.089 419.499 440.368 419.303C440.657 419.107 440.895 418.931 441.081 418.776C441.277 418.611 441.468 418.528 441.654 418.528C441.882 418.528 442.057 418.616 442.181 418.791L442.956 419.799C442.615 420.223 442.228 420.584 441.794 420.884C441.36 421.184 440.89 421.437 440.383 421.643C439.887 421.84 439.366 421.984 438.818 422.078C438.27 422.171 437.712 422.217 437.144 422.217C436.162 422.217 435.248 422.036 434.4 421.674C433.563 421.313 432.835 420.791 432.215 420.109C431.595 419.417 431.109 418.569 430.758 417.567C430.407 416.565 430.231 415.423 430.231 414.141C430.231 412.974 430.391 411.894 430.711 410.902C431.042 409.91 431.517 409.057 432.137 408.344C432.768 407.621 433.538 407.058 434.447 406.655C435.367 406.252 436.421 406.05 437.609 406.05C438.715 406.05 439.686 406.231 440.523 406.593C441.37 406.944 442.119 407.445 442.77 408.096L442.042 409.088ZM452.109 406.05C453.256 406.05 454.29 406.242 455.209 406.624C456.129 407.006 456.914 407.549 457.565 408.251C458.216 408.954 458.712 409.807 459.053 410.809C459.405 411.801 459.58 412.912 459.58 414.141C459.58 415.381 459.405 416.497 459.053 417.489C458.712 418.481 458.216 419.329 457.565 420.031C456.914 420.734 456.129 421.277 455.209 421.659C454.29 422.031 453.256 422.217 452.109 422.217C450.952 422.217 449.908 422.031 448.978 421.659C448.059 421.277 447.273 420.734 446.622 420.031C445.971 419.329 445.47 418.481 445.119 417.489C444.778 416.497 444.607 415.381 444.607 414.141C444.607 412.912 444.778 411.801 445.119 410.809C445.47 409.807 445.971 408.954 446.622 408.251C447.273 407.549 448.059 407.006 448.978 406.624C449.908 406.242 450.952 406.05 452.109 406.05ZM452.109 420.062C453.659 420.062 454.817 419.546 455.581 418.512C456.346 417.469 456.728 416.017 456.728 414.157C456.728 412.287 456.346 410.83 455.581 409.786C454.817 408.742 453.659 408.22 452.109 408.22C451.324 408.22 450.637 408.355 450.048 408.623C449.469 408.892 448.983 409.28 448.591 409.786C448.208 410.292 447.919 410.917 447.723 411.661C447.537 412.395 447.444 413.227 447.444 414.157C447.444 416.017 447.826 417.469 448.591 418.512C449.366 419.546 450.539 420.062 452.109 420.062Z" fill="#3C3B3B"/>
</svg>
