<svg xmlns="http://www.w3.org/2000/svg" xmlns:xlink="http://www.w3.org/1999/xlink" fill="none" height="472" viewBox="0 0 616 472" width="616"><clipPath id="a"><path d="m.200439.028961h615v471h-615z"/></clipPath><g clip-path="url(#a)"><path d="m-10.3396 502.039v-87.32h636.0796v87.32" fill="#f6f6f6"/><path d="m178.79 421.029h176.21c.78 0 1.528-.31 2.079-.861.552-.551.861-1.299.861-2.079v-328.61l-53.05-47.45h-126.1c-.785.0157-1.533.3387-2.082.8996-.55.5609-.858 1.315-.858 2.1004v373.08c.006.776.318 1.519.868 2.066.551.547 1.296.854 2.072.854z" fill="#f6f6f6"/><path d="m305.72 441.189h56.71l-4.49-351.71-52.22-47.45z" fill="#fbfbfb"/><path d="m248.08 196.409h26.31v-43.62h-26.31z" fill="#fff"/><path d="m248.08 297.679h26.31v-43.62h-26.31z" fill="#fff"/><path d="m195.22 196.409h26.31v-43.62h-26.31z" fill="#fff"/><path d="m248.08 104.239h26.31v-33.17h-26.31z" fill="#fff"/><path d="m195.22 104.239h26.31v-33.17h-26.31z" fill="#fff"/><path d="m194.8 297.679h26.31v-43.62h-26.31z" fill="#fff"/><path d="m178.79 421.029h176.21c.78 0 1.528-.31 2.079-.861.552-.551.861-1.299.861-2.079v-328.61l-53.05-47.45h-126.1c-.785.0157-1.533.3387-2.082.8996-.55.5609-.858 1.315-.858 2.1004v373.08c.006.776.318 1.519.868 2.066.551.547 1.296.854 2.072.854z" stroke="#ebebeb" stroke-linecap="round" stroke-linejoin="round" stroke-width="2"/><path d="m304.89 43.309v300.19" stroke="#ebebeb" stroke-linecap="round" stroke-linejoin="round" stroke-width="2"/><path d="m437.6 37.769v76.92" stroke="#ebebeb" stroke-linecap="round" stroke-linejoin="round" stroke-width="2"/><path d="m393.37 408.249h87.6v-312.87l-21.56-26.17h-66.04z" fill="#f6f6f6"/><path d="m459.41 137.769 21.56 4.07v-46.46l-21.56-26.17z" fill="#fbfbfb"/><path d="m393.37 408.249h87.6v-312.87l-21.56-26.17h-66.04z" stroke="#ebebeb" stroke-linecap="round" stroke-linejoin="round" stroke-width="2"/><path d="m459.41 69.209v51.35" stroke="#ebebeb" stroke-linecap="round" stroke-linejoin="round" stroke-width="2"/><path d="m499.85 129.649v47.52" stroke="#ebebeb" stroke-linecap="round" stroke-linejoin="round" stroke-width="2"/><path d="m462.04 129.029h-110.19c-.432 0-.847.172-1.152.477-.306.306-.478.721-.478 1.153l-.84 282.15c0 .432.172.847.478 1.153.305.305.72.477 1.152.477h187.76c.431 0 .844-.17 1.149-.474.306-.303.479-.715.481-1.146l.69-235.09-41.24-48.7h-29.11" fill="#f6f6f6"/><path d="m498.56 427.349 42.53-2.6v-247.01l-41.24-48.09z" fill="#fff"/><path d="m499.85 140.469v121.45" stroke="#ebebeb" stroke-linecap="round" stroke-linejoin="round" stroke-width="2"/><path d="m462.04 129.029h-110.19c-.432 0-.847.172-1.152.477-.306.306-.478.721-.478 1.153l-.84 282.15c0 .432.172.847.478 1.153.305.305.72.477 1.152.477h187.76c.431 0 .844-.17 1.149-.474.306-.303.479-.715.481-1.146l.69-235.09-41.24-48.7h-29.11" stroke="#ebebeb" stroke-linecap="round" stroke-linejoin="round" stroke-width="2"/><path d="m469.231 158.949h10.11v40.98h-35.05v-40.98h5.94z" fill="#fff"/><path d="m399.87 158.949h10.11v40.98h-35.05v-40.98h5.94z" fill="#fff"/><path d="m469.231 303.789h10.11v40.98h-35.05v-40.98h5.94z" fill="#fff"/><path d="m399.87 303.789h10.11v40.98h-35.05v-40.98h5.94z" fill="#fff"/><path d="m449.3 86.569h-18.08v20.88h18.08z" fill="#fff"/><path d="m475.6 123.909-10.54-11.75v-20.88l10.54 12.35z" fill="#f6f6f6"/><path d="m516.96 195.869-10.55-10.87v-22.88l10.55 11.63z" fill="#f6f6f6"/><path d="m534.52 213.979-10.28-10.6-.33-21.98 10.87 12.58z" fill="#f6f6f6"/><path d="m517.291 238.479-10.541-9.44v-22.88l10.541 10.12z" fill="#f6f6f6"/><path d="m534.78 254.129-10.57-9.46-.3-21.93 10.87 10.51z" fill="#f6f6f6"/><path d="m422.621 86.569h-18.08v20.88h18.08z" fill="#fff"/><path d="m570.07 311.679v103h-123.29v-143.2c-.005-.189.028-.378.097-.554.069-.177.173-.337.305-.473.133-.135.291-.242.466-.315s.363-.109.552-.108h97.54l24.74 21.84v13.3" fill="#f6f6f6"/><path d="m570.47 429.339-24.74-15.71v-143.56l24.73 25.37z" fill="#fbfbfb"/><path d="m563.85 319.279-10.55-7.75v-20.88l10.55 8.75z" fill="#f6f6f6"/><path d="m545.73 430.009v-154.23" stroke="#ebebeb" stroke-linecap="round" stroke-linejoin="round" stroke-width="2"/><path d="m570.07 311.679v103h-123.29v-143.2c-.005-.189.028-.378.097-.554.069-.177.173-.337.305-.473.133-.135.291-.242.466-.315s.363-.109.552-.108h97.54l24.74 21.84v13.3" stroke="#ebebeb" stroke-linecap="round" stroke-linejoin="round" stroke-width="2"/><path d="m489.87 290.649h-21.71c-.552 0-1 .448-1 1v24.85c0 .552.448 1 1 1h21.71c.553 0 1-.448 1-1v-24.85c0-.552-.447-1-1-1z" fill="#fff"/><path d="m526.97 290.649h-21.71c-.552 0-1 .448-1 1v24.85c0 .552.448 1 1 1h21.71c.553 0 1-.448 1-1v-24.85c0-.552-.447-1-1-1z" fill="#fff"/><path d="m489.87 330.659h-21.71c-.552 0-1 .448-1 1v24.85c0 .552.448 1 1 1h21.71c.553 0 1-.448 1-1v-24.85c0-.552-.447-1-1-1z" fill="#fff"/><path d="m526.97 330.659h-21.71c-.552 0-1 .448-1 1v24.85c0 .552.448 1 1 1h21.71c.553 0 1-.448 1-1v-24.85c0-.552-.447-1-1-1z" fill="#fff"/><path d="m489.87 370.259h-21.71c-.552 0-1 .448-1 1v24.85c0 .552.448 1 1 1h21.71c.553 0 1-.448 1-1v-24.85c0-.552-.447-1-1-1z" fill="#fff"/><path d="m526.97 370.259h-21.71c-.552 0-1 .448-1 1v24.85c0 .552.448 1 1 1h21.71c.553 0 1-.448 1-1v-24.85c0-.552-.447-1-1-1z" fill="#fff"/><path d="m615.2 414.719h-120.28" stroke="#ebebeb" stroke-linecap="round" stroke-linejoin="round" stroke-width="2"/><path d="m474.19 297.879v129.47h-223.52v-285.06l171.37-20.59 52.15 60.04v57.95" fill="#f6f6f6"/><path d="m474.19 232.699v69.19" stroke="#d6d6d6" stroke-linecap="round" stroke-linejoin="round" stroke-width="2"/><path d="m421.8 235.049v192.3h-230.83v-305.65h230.83v21.41" fill="#f6f6f6"/><path d="m421.8 313.269v114.08h-230.83v-305.65h230.83v21.41" fill="#fff"/><g stroke-linecap="round" stroke-linejoin="round" stroke-width="2"><path d="m364.601 296.279v14.25h29.29v-9.99" stroke="#f6f6f6"/><path d="m351.091 319.529v-12" stroke="#f6f6f6"/><path d="m405.5 319.529v-12" stroke="#f6f6f6"/><path d="m370.67 319.529h23.22v12.87h-14.65" stroke="#f6f6f6"/><path d="m428.791 320.529h-34.9v11.87h25.21" stroke="#f6f6f6"/><path d="m358.8 319.529h-16.83" stroke="#f6f6f6"/><path d="m373.76 295.049h20.131v12.48h4.399" stroke="#f6f6f6"/><path d="m336.741 319.529h-12.741" stroke="#f6f6f6"/><path d="m423.871 325.969v-6.44" stroke="#f6f6f6"/><path d="m279.821 321.689v11.26h29.29v-7" stroke="#f6f6f6"/><path d="m267.43 332.949h27.04v12" stroke="#f6f6f6"/><path d="m267.43 344.949v-12" stroke="#f6f6f6"/><path d="m320.72 344.949v-12" stroke="#f6f6f6"/><path d="m285.9 344.949h23.21" stroke="#f6f6f6"/><path d="m332.331 344.949h-23.22" stroke="#f6f6f6"/><path d="m274.03 344.949h-16.83" stroke="#f6f6f6"/><path d="m288.98 320.459h20.13v12.49h14.89" stroke="#f6f6f6"/><path d="m381.23 282.719v12" stroke="#f6f6f6"/><path d="m354.2 294.719v-12" stroke="#f6f6f6"/><path d="m406.5 294.719v-12" stroke="#f6f6f6"/><path d="m419.101 295.049h-25.21v12.54h16.63" stroke="#f6f6f6"/><path d="m360.8 294.719h-16.83" stroke="#f6f6f6"/><path d="m349.91 379.699v12.95h16.9 27.04v12" stroke="#f6f6f6"/><path d="m366.811 404.649v-12" stroke="#f6f6f6"/><path d="m385.281 404.649h20.99" stroke="#f6f6f6"/><path d="m373.411 404.649h-16.83" stroke="#f6f6f6"/><path d="m396.17 385.229h21.91" stroke="#f6f6f6"/><path d="m349.66 344.629h29.29v-6.99" stroke="#f6f6f6"/><path d="m350.771 333.379v6.86" stroke="#f6f6f6"/><path d="m337.26 344.629h27.041v6" stroke="#f6f6f6"/><path d="m364.071 383.569v-14.07" stroke="#f6f6f6"/><path d="m420.371 344.629h-26.48v14.15h7.8" stroke="#f6f6f6"/><path d="m370.661 358.719h8.29v12.65h-22.42" stroke="#f6f6f6"/><path d="m343.47 356.629h23.23" stroke="#f6f6f6"/><path d="m378.95 358.629v13.8h31.33" stroke="#f6f6f6"/><path d="m418.801 358.629h-12.76v13.74h13.64" stroke="#f6f6f6"/><path d="m370.67 383.569h-27.93" stroke="#f6f6f6"/><path d="m378.95 332.149v12.48h4.4" stroke="#f6f6f6"/><path d="m367.34 332.149h-33.36v-4.83" stroke="#f6f6f6"/><path d="m275.68 416.949v11.25h29.29v-6.99" stroke="#f6f6f6"/><path d="m246.391 414.209v13.99h16.89 27.04v13.04" stroke="#f6f6f6"/><path d="m319.9 440.199v-12h15.39" stroke="#f6f6f6"/><path d="m379.24 405.219v11.06h22.93v-3.81" stroke="#f6f6f6"/><path d="m366.81 416.279h-16.9v-5.53" stroke="#f6f6f6"/><path d="m261.99 413.759v-10.33h-20" stroke="#f6f6f6"/><path d="m267.05 403.429h-5.06" stroke="#f6f6f6"/><path d="m246.391 400.129v-11.54h23.71" stroke="#f6f6f6"/><path d="m263.051 383.599v-3.5h-16.66" stroke="#f6f6f6"/><path d="m263.051 380.099h1.83" stroke="#f6f6f6"/><path d="m246.39 376.189v-11.04h-4.4" stroke="#f6f6f6"/><path d="m251.25 365.149h16.18" stroke="#f6f6f6"/><path d="m352.2 368.459h-4.01" stroke="#f6f6f6"/><path d="m268.35 441.239h-5.2" stroke="#f6f6f6"/><path d="m210.891 452.769-5.381 1.22" stroke="#f6f6f6"/><path d="m223 468.919-15.54 3.49" stroke="#f6f6f6"/><path d="m256.66 415.719h48.31v12.48h4.4" stroke="#f6f6f6"/><path d="m364.601 332.149v-10.7" stroke="#f6f6f6"/><path d="m405.5 333.179v7.19" stroke="#f6f6f6"/><path d="m421.8 313.269v114.08h-230.83v-305.65h230.83v21.41" stroke="#d6d6d6"/><path d="m421.791 266.639v41.99" stroke="#d6d6d6"/></g><path d="m397.78 351.739c.002.272-.051.541-.153.793-.103.252-.255.48-.446.674-.191.193-.419.346-.669.452-.251.105-.52.16-.792.161h-41.36c-.272-.001-.54-.056-.791-.161-.251-.106-.478-.259-.669-.452-.192-.194-.343-.422-.446-.674s-.155-.521-.154-.793v-39.2c0-.547.217-1.072.603-1.46s.91-.607 1.457-.61h41.36c.548.003 1.072.222 1.458.61s.602.913.602 1.46v36.49" fill="#f8f8f8"/><path d="m397.78 351.739c.002.272-.051.541-.153.793-.103.252-.255.48-.446.674-.191.193-.419.346-.669.452-.251.105-.52.16-.792.161h-41.36c-.272-.001-.54-.056-.791-.161-.251-.106-.478-.259-.669-.452-.192-.194-.343-.422-.446-.674s-.155-.521-.154-.793v-39.2c0-.547.217-1.072.603-1.46s.91-.607 1.457-.61h41.36c.548.003 1.072.222 1.458.61s.602.913.602 1.46v36.49" stroke="#d6d6d6" stroke-linecap="round" stroke-linejoin="round" stroke-width="2"/><path d="m271.92 363.909c0 .547-.216 1.072-.602 1.46s-.91.607-1.458.61h-41.35c-.549 0-1.075-.218-1.463-.606s-.607-.915-.607-1.464v-49.2c0-.55.218-1.077.606-1.467s.915-.61 1.464-.613h41.35c.272.001.541.056.792.161.25.106.478.259.669.452.192.194.343.422.446.674.102.252.155.521.153.793v46.52" fill="#f8f8f8"/><path d="m271.92 363.909c0 .547-.216 1.072-.602 1.46s-.91.607-1.458.61h-41.35c-.549 0-1.075-.218-1.463-.606s-.607-.915-.607-1.464v-49.2c0-.55.218-1.077.606-1.467s.915-.61 1.464-.613h41.35c.272.001.541.056.792.161.25.106.478.259.669.452.192.194.343.422.446.674.102.252.155.521.153.793v46.52" stroke="#d6d6d6" stroke-linecap="round" stroke-linejoin="round" stroke-width="2"/><path d="m218.32 133.119h-27.44l-3.52-11.46h236.33l-2.34 11.46h-184.72" fill="#f6f6f6"/><path d="m218.32 133.119h-27.44l-3.52-11.46h236.33l-2.34 11.46h-184.72" stroke="#d6d6d6" stroke-linecap="round" stroke-linejoin="round" stroke-width="2"/><path d="m228.191 133.119h-3.181" stroke="#d6d6d6" stroke-linecap="round" stroke-linejoin="round" stroke-width="2"/><path d="m421.35 133.119 54.25 51.25 3.36-8.72-55.27-53.99z" fill="#f6f6f6" stroke="#d6d6d6" stroke-linecap="round" stroke-linejoin="round" stroke-width="2"/><path d="m418.45 278.099h-227.57l-3.52-11.46h237.29l-2.85 11.46" fill="#f6f6f6"/><path d="m418.45 278.099h-227.57l-3.52-11.46h237.29l-2.85 11.46" stroke="#d6d6d6" stroke-linecap="round" stroke-linejoin="round" stroke-width="2"/><path d="m429.25 160.219 25.81 71.84" stroke="#d6d6d6" stroke-linecap="round" stroke-linejoin="round" stroke-width="2"/><path d="m437.96 184.369h20.95" stroke="#d6d6d6" stroke-linecap="round" stroke-linejoin="round" stroke-width="2"/><path d="m446.23 207.039h18.93" stroke="#d6d6d6" stroke-linecap="round" stroke-linejoin="round" stroke-width="2"/><path d="m446.58 160.219 24.44 71.84" stroke="#d6d6d6" stroke-linecap="round" stroke-linejoin="round" stroke-width="2"/><path d="m478.01 261.249-16.19-.31-32.57-23.17h17.331z" fill="#ebebeb" stroke="#d6d6d6" stroke-linecap="round" stroke-linejoin="round" stroke-width="2"/><path d="m478.01 232.739-16.19-.31-32.57-23.17h17.331z" fill="#ebebeb" stroke="#d6d6d6" stroke-linecap="round" stroke-linejoin="round" stroke-width="2"/><path d="m429.25 237.769 25.81 71.84" stroke="#d6d6d6" stroke-linecap="round" stroke-linejoin="round" stroke-width="2"/><path d="m437.96 261.919h18.87" stroke="#d6d6d6" stroke-linecap="round" stroke-linejoin="round" stroke-width="2"/><path d="m446.23 284.589h21.19" stroke="#d6d6d6" stroke-linecap="round" stroke-linejoin="round" stroke-width="2"/><path d="m446.58 237.769 24.44 71.84" stroke="#d6d6d6" stroke-linecap="round" stroke-linejoin="round" stroke-width="2"/><path d="m478.01 261.249v-28.51l-31.43-23.48v28.51z" fill="#fff" stroke="#d6d6d6" stroke-linecap="round" stroke-linejoin="round" stroke-width="2"/><path d="m446.581 209.259h-17.331v28.51h17.331z" fill="#ebebeb" stroke="#d6d6d6" stroke-linecap="round" stroke-linejoin="round" stroke-width="2"/><path d="m446.581 297.629h-17.331v22.26h17.331z" fill="#f6f6f6" stroke="#d6d6d6" stroke-linecap="round" stroke-linejoin="round" stroke-width="2"/><path d="m446.58 319.889 31.43 14.01v-20.02l-31.43-16.25z" fill="#fff" stroke="#d6d6d6" stroke-linecap="round" stroke-linejoin="round" stroke-width="2"/><path d="m478.01 333.899-16.19-.61-32.57-13.4h17.331z" fill="#ebebeb" stroke="#d6d6d6" stroke-linecap="round" stroke-linejoin="round" stroke-width="2"/><path d="m429.25 320.109 25.81 71.84" stroke="#d6d6d6" stroke-linecap="round" stroke-linejoin="round" stroke-width="2"/><path d="m437.96 344.269h20.95" stroke="#d6d6d6" stroke-linecap="round" stroke-linejoin="round" stroke-width="2"/><path d="m446.23 366.929h21.19" stroke="#d6d6d6" stroke-linecap="round" stroke-linejoin="round" stroke-width="2"/><path d="m446.58 320.109 24.44 71.84" stroke="#d6d6d6" stroke-linecap="round" stroke-linejoin="round" stroke-width="2"/><path d="m350.01 167.889v-9.23c0-.76 1.001-1.38 2.201-1.38h47.06c1.21 0 2.19.62 2.19 1.38v61c0 .77-1 1.39-2.19 1.39h-47.07c-1.22 0-2.201-.62-2.201-1.39v-47.72" fill="#f8f8f8"/><path d="m350.01 167.889v-9.23c0-.76 1.001-1.38 2.201-1.38h47.06c1.21 0 2.19.62 2.19 1.38v61c0 .77-1 1.39-2.19 1.39h-47.07c-1.22 0-2.201-.62-2.201-1.39v-47.72" stroke="#d6d6d6" stroke-linecap="round" stroke-linejoin="round" stroke-width="2"/><path d="m375.74 157.279v52.97" stroke="#d6d6d6" stroke-linecap="round" stroke-linejoin="round" stroke-width="2"/><path d="m350.86 188.059h49.75" stroke="#d6d6d6" stroke-linecap="round" stroke-linejoin="round" stroke-width="2"/><path d="m223.45 174.889v-9.23c0-.76 1-1.38 2.2-1.38h47.06c1.22 0 2.2.62 2.2 1.38v61c0 .77-1 1.39-2.2 1.39h-47.06c-1.21 0-2.2-.62-2.2-1.39v-44.56" fill="#f8f8f8"/><path d="m223.45 174.889v-9.23c0-.76 1-1.38 2.2-1.38h47.06c1.22 0 2.2.62 2.2 1.38v61c0 .77-1 1.39-2.2 1.39h-47.06c-1.21 0-2.2-.62-2.2-1.39v-44.56" stroke="#d6d6d6" stroke-linecap="round" stroke-linejoin="round" stroke-width="2"/><path d="m249.18 164.279v52.97" stroke="#d6d6d6" stroke-linecap="round" stroke-linejoin="round" stroke-width="2"/><path d="m274.06 193.059h-49.75" stroke="#d6d6d6" stroke-linecap="round" stroke-linejoin="round" stroke-width="2"/><path d="m421.791 151.239v110.68" stroke="#d6d6d6" stroke-linecap="round" stroke-linejoin="round" stroke-width="2"/><path d="m217.92 344.639v11.85" stroke="#f6f6f6" stroke-linecap="round" stroke-linejoin="round" stroke-width="2"/><path d="m205.82 343.569 59.33-.14" stroke="#f6f6f6" stroke-linecap="round" stroke-linejoin="round" stroke-width="2"/><path d="m229.28 371.529v-13.08" stroke="#f6f6f6" stroke-linecap="round" stroke-linejoin="round" stroke-width="2"/><path d="m276.51 343.429h39.351" stroke="#f6f6f6" stroke-linecap="round" stroke-linejoin="round" stroke-width="2"/><path d="m276.51 371.379v-12.64" stroke="#f6f6f6" stroke-linecap="round" stroke-linejoin="round" stroke-width="2"/><path d="m300.28 343.429v-8.41" stroke="#f6f6f6" stroke-linecap="round" stroke-linejoin="round" stroke-width="2"/><path d="m208.63 388.589v11.84" stroke="#f6f6f6" stroke-linecap="round" stroke-linejoin="round" stroke-width="2"/><path d="m196.54 387.519 59.32-.15" stroke="#f6f6f6" stroke-linecap="round" stroke-linejoin="round" stroke-width="2"/><path d="m219.99 415.469v-13.07" stroke="#f6f6f6" stroke-linecap="round" stroke-linejoin="round" stroke-width="2"/><path d="m267.22 387.369h28.17" stroke="#f6f6f6" stroke-linecap="round" stroke-linejoin="round" stroke-width="2"/><path d="m267.22 415.329v-12.64" stroke="#f6f6f6" stroke-linecap="round" stroke-linejoin="round" stroke-width="2"/><path d="m290.99 387.369v-3.72" stroke="#f6f6f6" stroke-linecap="round" stroke-linejoin="round" stroke-width="2"/><path d="m310.18 353.489v-10.13" stroke="#f6f6f6" stroke-linecap="round" stroke-linejoin="round" stroke-width="2"/><path d="m474.19 183.069v46.62" stroke="#d6d6d6" stroke-linecap="round" stroke-linejoin="round" stroke-width="2"/><path d="m474.19 334.269v88.14" stroke="#d6d6d6" stroke-linecap="round" stroke-linejoin="round" stroke-width="2"/><path d="m419.11 427.349h174.35" stroke="#e5e5e5" stroke-linecap="round" stroke-linejoin="round" stroke-width="2"/><path d="m509.22 422.879 8.85 4.54-2.1-168.51h-4.64z" fill="#fff"/><path d="m509.22 422.879 8.85 4.54-2.1-168.51h-4.64z" stroke="#dfdfdf" stroke-linecap="round" stroke-linejoin="round" stroke-width="2"/><path d="m518.98 417.379-4.41 5.83-6.25-5.83-1.87-57.8h14.39z" fill="#f6f6f6"/><path d="m518.98 417.379-4.41 5.83-6.25-5.83-1.87-57.8h14.39z" stroke="#dfdfdf" stroke-linecap="round" stroke-linejoin="round" stroke-width="2"/><path d="m508.56 416.579c-1.591 0-3.117.632-4.242 1.757-1.126 1.126-1.758 2.652-1.758 4.243h22.19c0-1.591-.632-3.117-1.757-4.243-1.125-1.125-2.651-1.757-4.243-1.757h-6.07" fill="#f6f6f6"/><path d="m508.56 416.579c-1.591 0-3.117.632-4.242 1.757-1.126 1.126-1.758 2.652-1.758 4.243h22.19c0-1.591-.632-3.117-1.757-4.243-1.125-1.125-2.651-1.757-4.243-1.757h-6.07" stroke="#dfdfdf" stroke-linecap="round" stroke-linejoin="round" stroke-width="2"/><path d="m528.74 427.349h-30.18l.77-3.43c.197-.556.573-1.032 1.069-1.352.495-.32 1.083-.467 1.671-.418h23.13c.587-.049 1.173.099 1.667.419.495.32.868.795 1.063 1.351z" fill="#f6f6f6" stroke="#dfdfdf" stroke-linecap="round" stroke-linejoin="round" stroke-width="2"/><path d="m513.8 363.479h-5.92c-.856.008-1.683-.308-2.315-.885-.633-.577-1.024-1.372-1.095-2.225v-.36c0-.618.246-1.211.683-1.648s1.03-.682 1.647-.682h14.06c.309-.001.615.059.9.176.285.118.544.291.762.51.217.219.389.478.506.764.116.286.175.591.172.9-.002.897-.359 1.756-.992 2.391s-1.491.994-2.388.999h-2.07" fill="#f6f6f6"/><path d="m513.8 363.479h-5.92c-.856.008-1.683-.308-2.315-.885-.633-.577-1.024-1.372-1.095-2.225v-.36c0-.618.246-1.211.683-1.648s1.03-.682 1.647-.682h14.06c.309-.001.615.059.9.176.285.118.544.291.762.51.217.219.389.478.506.764.116.286.175.591.172.9-.002.897-.359 1.756-.992 2.391s-1.491.994-2.388.999h-2.07" stroke="#dfdfdf" stroke-linecap="round" stroke-linejoin="round" stroke-width="2"/><path d="m514.35 320.929h2.74c.621 0 1.216-.247 1.655-.685.439-.439.685-1.034.685-1.655s-.246-1.216-.685-1.655c-.439-.438-1.034-.685-1.655-.685h-6.89c-.307-.001-.612.058-.897.175-.284.118-.543.29-.76.507-.218.218-.39.476-.507.761-.117.284-.177.589-.176.897 0 .621.247 1.216.686 1.655.439.438 1.034.685 1.654.685h1" fill="#f6f6f6"/><path d="m514.35 320.929h2.74c.621 0 1.216-.247 1.655-.685.439-.439.685-1.034.685-1.655s-.246-1.216-.685-1.655c-.439-.438-1.034-.685-1.655-.685h-6.89c-.307-.001-.612.058-.897.175-.284.118-.543.29-.76.507-.218.218-.39.476-.507.761-.117.284-.177.589-.176.897 0 .621.247 1.216.686 1.655.439.438 1.034.685 1.654.685h1" stroke="#dfdfdf" stroke-linecap="round" stroke-linejoin="round" stroke-width="2"/><path d="m517.29 288.159h-7.28c-1.032 0-1.87.837-1.87 1.87v.72c0 1.033.838 1.87 1.87 1.87h7.28c1.033 0 1.87-.837 1.87-1.87v-.72c0-1.033-.837-1.87-1.87-1.87z" fill="#fff"/><path d="m513.78 288.729c1.38.19 1.73 2.65 0 3.27-2.94 1.08 5 .62 5 .62l-.21-4.46h-4.89" fill="#d6d6d6" opacity=".2"/><path d="m517.29 288.159h-7.28c-1.032 0-1.87.837-1.87 1.87v.72c0 1.033.838 1.87 1.87 1.87h7.28c1.033 0 1.87-.837 1.87-1.87v-.72c0-1.033-.837-1.87-1.87-1.87z" stroke="#dfdfdf" stroke-linecap="round" stroke-linejoin="round" stroke-width="2"/><path d="m516.79 287.919h-6.29l-3.49-6.23-4.81-16.39 4.7-4.86c.879-.909 1.933-1.631 3.098-2.123 1.165-.491 2.418-.742 3.682-.737 1.25.004 2.487.259 3.636.75 1.149.492 2.188 1.209 3.054 2.11l4.74 4.9-4.8 16.31z" fill="#f6f6f6"/><path d="m520.3 281.649h-13.29l-4.82-16.35 22.91.04z" fill="#fff"/><path d="m512.49 257.649s2.73 2 3 4.85 4 3.22 4 3.22l-2.699 15.93-3.06 6.51h3.639l3-6.51s4.831-14.62 4.731-16.31-3.5-4.42-4-4.86-8.57-2.83-8.57-2.83" fill="#d6d6d6" opacity=".2"/><path d="m516.79 287.919h-6.29l-3.49-6.23-4.81-16.39 4.7-4.86c.879-.909 1.933-1.631 3.098-2.123 1.165-.491 2.418-.742 3.682-.737 1.25.004 2.487.259 3.636.75 1.149.492 2.188 1.209 3.054 2.11l4.74 4.9-4.8 16.31z" stroke="#dfdfdf" stroke-linecap="round" stroke-linejoin="round" stroke-width="2"/><path d="m501 265.339h25.291" stroke="#dfdfdf" stroke-linecap="round" stroke-linejoin="round" stroke-width="2"/><path d="m506.2 281.649h14.83z" fill="#fff"/><path d="m506.2 281.649h14.83" stroke="#dfdfdf" stroke-linecap="round" stroke-linejoin="round" stroke-width="2"/><path d="m506.2 368.509c.78.5 10.19.18 10.19.18v48.26s2.46.95 2.56.43.8-53.94.8-53.94l-13.55.08z" fill="#d6d6d6" opacity=".2"/><path d="m396.33 236.029-20.59-.34c-1.12 0-1.06.66-1.06 1.77v201.71h27.84l-.18-195.14" fill="#f6f6f6"/><path d="m396.33 236.029-20.59-.34c-1.12 0-1.06.66-1.06 1.77v201.71h27.84l-.18-195.14" stroke="#d6d6d6" stroke-linecap="round" stroke-linejoin="round" stroke-width="2"/><path d="m396.33 242.529v196.64h85.71v-150.51l-85.71-52.6" fill="#ebebeb"/><path d="m396.33 242.529v196.64h85.71v-150.51l-85.71-52.6" stroke="#d6d6d6" stroke-linecap="round" stroke-linejoin="round" stroke-width="2"/><path d="m411.31 439.169h58.96v-137.36l-58.96-35.43z" fill="#f6f6f6" stroke="#d6d6d6" stroke-linecap="round" stroke-linejoin="round" stroke-width="2"/><path d="m416.31 306.229 52.07 22.61" stroke="#d6d6d6" stroke-linecap="round" stroke-linejoin="round" stroke-width="2"/><path d="m416.31 325.019 52.07 20.52" stroke="#d6d6d6" stroke-linecap="round" stroke-linejoin="round" stroke-width="2"/><path d="m416.31 343.809 51.78 18.32" stroke="#d6d6d6" stroke-linecap="round" stroke-linejoin="round" stroke-width="2"/><path d="m416.31 362.599 52.07 16.34" stroke="#d6d6d6" stroke-linecap="round" stroke-linejoin="round" stroke-width="2"/><path d="m416.31 381.399 52.07 14.23" stroke="#d6d6d6" stroke-linecap="round" stroke-linejoin="round" stroke-width="2"/><path d="m416.31 400.189 52.07 12.14" stroke="#d6d6d6" stroke-linecap="round" stroke-linejoin="round" stroke-width="2"/><path d="m418.13 289.409 48.49 26.84" stroke="#d6d6d6" stroke-linecap="round" stroke-linejoin="round" stroke-width="2"/><path d="m5.17037 183.659-32.53997-.62 183.4896-154.93 198.18 204.59" fill="#e5e5e5"/><path d="m5.17037 183.659-32.53997-.62 183.4896-154.93 198.18 204.59" stroke="#4a4a4a" stroke-linecap="round" stroke-linejoin="round" stroke-width="2"/><path d="m375.36 245.189v-28.22l-84.43-55.77v278h84.43v-188.86" fill="#e5e5e5"/><path d="m375.36 245.189v-28.22l-84.43-55.77v278h84.43v-188.86" stroke="#4a4a4a" stroke-linecap="round" stroke-linejoin="round" stroke-width="2"/><path d="m166.95 38.159 123.98 123.04v40.36 8.15 229.46h-278.7796v-277.06l141.5596-114.83" fill="#fff"/><path d="m166.95 38.159 123.98 123.04v40.36 8.15 229.46h-278.7796v-277.06l141.5596-114.83" stroke="#4a4a4a" stroke-linecap="round" stroke-linejoin="round" stroke-width="2"/><path d="m156.42 45.079 1.12-.91" stroke="#4a4a4a" stroke-linecap="round" stroke-linejoin="round" stroke-width="2"/><path d="m12.4504 162.899v24.6l148.2696-119.7 132.35 130.42 81.59 44.31-.16-22.69-126.4-118.21-85.88-63.47z" fill="#4a4a4a" opacity=".04"/><path d="m238.65 178.289h10.67" stroke="#f6f6f6" stroke-linecap="round" stroke-linejoin="round" stroke-width="2"/><path d="m198.62 178.289h24.48" stroke="#f6f6f6" stroke-linecap="round" stroke-linejoin="round" stroke-width="2"/><path d="m201.42 155.899h77.51" stroke="#f6f6f6" stroke-linecap="round" stroke-linejoin="round" stroke-width="2"/><path d="m133.82 196.769h99.05" stroke="#f6f6f6" stroke-linecap="round" stroke-linejoin="round" stroke-width="2"/><path d="m124.9 196.769h3.06" stroke="#f6f6f6" stroke-linecap="round" stroke-linejoin="round" stroke-width="2"/><path d="m91.6304 196.769h26.1096" stroke="#f6f6f6" stroke-linecap="round" stroke-linejoin="round" stroke-width="2"/><path d="m44.2104 196.769h40.8901" stroke="#f6f6f6" stroke-linecap="round" stroke-linejoin="round" stroke-width="2"/><path d="m268.58 216.739h3.48" stroke="#f6f6f6" stroke-linecap="round" stroke-linejoin="round" stroke-width="2"/><path d="m218.57 216.739h42.64" stroke="#f6f6f6" stroke-linecap="round" stroke-linejoin="round" stroke-width="2"/><path d="m122.2 216.739h87.95" stroke="#f6f6f6" stroke-linecap="round" stroke-linejoin="round" stroke-width="2"/><path d="m48.4304 239.469h47.88" stroke="#f6f6f6" stroke-linecap="round" stroke-linejoin="round" stroke-width="2"/><path d="m20.2405 239.469h11.48" stroke="#f6f6f6" stroke-linecap="round" stroke-linejoin="round" stroke-width="2"/><path d="m102.18 216.739h5.16" stroke="#f6f6f6" stroke-linecap="round" stroke-linejoin="round" stroke-width="2"/><path d="m31.7205 216.739h56.37" stroke="#f6f6f6" stroke-linecap="round" stroke-linejoin="round" stroke-width="2"/><path d="m79.9504 258.219h26.2396" stroke="#f6f6f6" stroke-linecap="round" stroke-linejoin="round" stroke-width="2"/><path d="m31.7205 258.219h41.85" stroke="#f6f6f6" stroke-linecap="round" stroke-linejoin="round" stroke-width="2"/><path d="m218.57 256.439h27.05" stroke="#f6f6f6" stroke-linecap="round" stroke-linejoin="round" stroke-width="2"/><path d="m218.57 239.469h36.9" stroke="#f6f6f6" stroke-linecap="round" stroke-linejoin="round" stroke-width="2"/><path d="m242.25 196.769h34.63" stroke="#f6f6f6" stroke-linecap="round" stroke-linejoin="round" stroke-width="2"/><path d="m47.4004 153.339h77.4996" stroke="#f6f6f6" stroke-linecap="round" stroke-linejoin="round" stroke-width="2"/><path d="m88.0903 108.599h31.6897" stroke="#f6f6f6" stroke-linecap="round" stroke-linejoin="round" stroke-width="2"/><path d="m60.0603 131.569h31.69" stroke="#f6f6f6" stroke-linecap="round" stroke-linejoin="round" stroke-width="2"/><path d="m79.9504 176.389h16.36" stroke="#f6f6f6" stroke-linecap="round" stroke-linejoin="round" stroke-width="2"/><path d="m20.1104 176.389h46.7199" stroke="#f6f6f6" stroke-linecap="round" stroke-linejoin="round" stroke-width="2"/><path d="m199.29 108.599h31.69" stroke="#f6f6f6" stroke-linecap="round" stroke-linejoin="round" stroke-width="2"/><path d="m164.92 83.339h27.16" stroke="#f6f6f6" stroke-linecap="round" stroke-linejoin="round" stroke-width="2"/><path d="m120.41 83.339h37.49" stroke="#f6f6f6" stroke-linecap="round" stroke-linejoin="round" stroke-width="2"/><path d="m212.14 371.869h36.89" stroke="#f6f6f6" stroke-linecap="round" stroke-linejoin="round" stroke-width="2"/><path d="m205.35 292.589h15.18" stroke="#f6f6f6" stroke-linecap="round" stroke-linejoin="round" stroke-width="2"/><path d="m266.13 310.409h14.55" stroke="#f6f6f6" stroke-linecap="round" stroke-linejoin="round" stroke-width="2"/><path d="m269.82 284.719h14.55" stroke="#f6f6f6" stroke-linecap="round" stroke-linejoin="round" stroke-width="2"/><path d="m273.41 256.989h12.94" stroke="#f6f6f6" stroke-linecap="round" stroke-linejoin="round" stroke-width="2"/><path d="m20.2405 370.529h56.38" stroke="#f6f6f6" stroke-linecap="round" stroke-linejoin="round" stroke-width="2"/><path d="m85.7903 370.529h17.2997" stroke="#f6f6f6" stroke-linecap="round" stroke-linejoin="round" stroke-width="2"/><path d="m18.8203 281.539h17.29" stroke="#f6f6f6" stroke-linecap="round" stroke-linejoin="round" stroke-width="2"/><path d="m115.08 335.499v-96.36c0-.265.106-.52.293-.707.188-.188.442-.293.707-.293h81.36c.531 0 1.039.211 1.415.586.375.375.585.884.585 1.414v153l-84.36-1" fill="#ebebeb"/><path d="m115.08 335.499v-96.36c0-.265.106-.52.293-.707.188-.188.442-.293.707-.293h81.36c.531 0 1.039.211 1.415.586.375.375.585.884.585 1.414v153l-84.36-1" stroke="#4b4a4b" stroke-linecap="round" stroke-linejoin="round" stroke-width="2"/><path d="m115.08 385.379v-45.55" stroke="#4b4a4b" stroke-linecap="round" stroke-linejoin="round" stroke-width="2"/><path d="m155.55 89.839c5.599-.0052 11.145 1.093 16.319 3.232s9.876 5.2768 13.837 9.234c3.961 3.957 7.103 8.656 9.247 13.829 2.144 5.172 3.247 10.716 3.247 16.315v31.74h-85.27v-31.74c0-5.596 1.103-11.138 3.245-16.308 2.142-5.171 5.281-9.869 9.239-13.825 3.958-3.9572 8.656-7.0956 13.827-9.2364 5.171-2.1407 10.713-3.2419 16.309-3.2406z" fill="#e5e5e5" stroke="#4a4a4a" stroke-linecap="round" stroke-linejoin="round" stroke-width="2"/><path d="m187.2 103.939-26.34 60.25h37.34l.46-33.78c-2.7-16.81-8.86-23.36-11.41-26.47z" fill="#fff" opacity=".6"/><path d="m110.4 410.539v-19.4h81.55v25.47l-89.55 4.95" fill="#fff"/><path d="m110.4 410.539v-19.4h81.55v25.47l-89.55 4.95" stroke="#4a4a4a" stroke-linecap="round" stroke-linejoin="round" stroke-width="2"/><path d="m202.88 393.759v45.41h-32.2v-24.19l20.69.38.58-24.22z" fill="#ebebeb" stroke="#4b4a4b" stroke-linecap="round" stroke-linejoin="round" stroke-width="2"/><path d="m136.7 414.879h33.98v24.29h-76.6097v-24.29h29.5197" fill="#fff"/><path d="m136.7 414.879h33.98v24.29h-76.6097v-24.29h29.5197" stroke="#4a4a4a" stroke-linecap="round" stroke-linejoin="round" stroke-width="2"/><path d="m127.99 414.449h1.73" stroke="#4a4a4a" stroke-linecap="round" stroke-linejoin="round" stroke-width="2"/><path d="m-1.88965 147.489 158.34965-131.35 150.94 124.13 86.32 78.99-6.67 6.67-94.76-62.6-136.14-134.26-150.56965 126.83z" fill="#e5e5e5" stroke="#4a4a4a" stroke-linecap="round" stroke-linejoin="round" stroke-width="2"/><path d="m156.46 16.139 157.61 117.46 79.65 85.66-94.76-62.6z" fill="#fff" stroke="#4a4a4a" stroke-linecap="round" stroke-linejoin="round" stroke-width="2"/><path d="m305.72 356.629 8.94 2.08" stroke="#dfdfdf" stroke-linecap="round" stroke-linejoin="round" stroke-width="2"/><path d="m295.72 371.459 17.47 4.07" stroke="#dfdfdf" stroke-linecap="round" stroke-linejoin="round" stroke-width="2"/><path d="m243.29 244.529c5.474 0 10.724 2.175 14.595 6.045 3.871 3.871 6.045 9.121 6.045 14.595v52h-41.28v-52c0-5.474 2.175-10.724 6.046-14.595 3.87-3.87 9.12-6.045 14.594-6.045z" fill="#e5e5e5" stroke="#4a4a4a" stroke-linecap="round" stroke-linejoin="round" stroke-width="2"/><path d="m257.27 250.029-17.38 71.13h-10l.73-55.94s.71-16.2 16.68-20.25c-.04-.05 7.74 2.6 9.97 5.06z" fill="#fff" opacity=".6"/><path d="m243.29 244.529c-5.474 0-10.724 2.175-14.594 6.045-3.871 3.871-6.046 9.121-6.046 14.595v52h7.93v-52c.002-4.786 1.666-9.422 4.709-13.116s7.275-6.216 11.971-7.134c-1.317-.259-2.657-.389-4-.39z" fill="#e5e5e5"/><path d="m293.46 262.619 13.72 5.69" stroke="#dfdfdf" stroke-linecap="round" stroke-linejoin="round" stroke-width="2"/><path d="m301.3 297.999 5.72 2.37" stroke="#dfdfdf" stroke-linecap="round" stroke-linejoin="round" stroke-width="2"/><path d="m293.29 294.679 4.53 1.88" stroke="#dfdfdf" stroke-linecap="round" stroke-linejoin="round" stroke-width="2"/><path d="m302.33 208.439 24.66 13.44" stroke="#dfdfdf" stroke-linecap="round" stroke-linejoin="round" stroke-width="2"/><path d="m515.39 439.169h2.68" stroke="#4a4a4a" stroke-linecap="round" stroke-linejoin="round" stroke-width="2"/><path d="m467.72 439.169h43.15" stroke="#4a4a4a" stroke-linecap="round" stroke-linejoin="round" stroke-width="2"/><path d="m176.031 263.919h-39.26v43.97h39.26z" fill="#f6f6f6" stroke="#4b4a4b" stroke-linecap="round" stroke-linejoin="round" stroke-width="2"/><path d="m156.4 286.509v15.99" stroke="#4b4a4b" stroke-linecap="round" stroke-linejoin="round" stroke-width="2"/><path d="m156.4 268.309v14.17" stroke="#4b4a4b" stroke-linecap="round" stroke-linejoin="round" stroke-width="2"/><path d="m140.82 285.909h30.5" stroke="#4b4a4b" stroke-linecap="round" stroke-linejoin="round" stroke-width="2"/><path d="m157.39 89.879-32.49 74.31h-3v-31.74l.15-2.6c.535-9.665 4.309-18.869 10.716-26.126 6.406-7.2572 15.07-12.1447 24.594-13.874z" fill="#fff" opacity=".6"/><path d="m121.93 164.189v-31.74l.15-2.6c.535-9.665 4.309-18.869 10.716-26.126 6.406-7.2572 15.07-12.1447 24.594-13.874" stroke="#4a4a4a" stroke-linecap="round" stroke-linejoin="round" stroke-width="2"/><path d="m158.26 97.659v58.35" stroke="#4a4a4a" stroke-linecap="round" stroke-linejoin="round" stroke-width="2"/><path d="m130.47 129.639h63.5" stroke="#4a4a4a" stroke-linecap="round" stroke-linejoin="round" stroke-width="2"/><path d="m155.55 89.839c5.599-.0052 11.145 1.093 16.319 3.232s9.876 5.2768 13.837 9.234c3.961 3.957 7.103 8.656 9.247 13.829 2.144 5.172 3.247 10.716 3.247 16.315v31.74h-85.27v-31.74c0-5.596 1.103-11.138 3.245-16.308 2.142-5.171 5.281-9.869 9.239-13.825 3.958-3.9572 8.656-7.0956 13.827-9.2364 5.171-2.1407 10.713-3.2419 16.309-3.2406z" stroke="#4a4a4a" stroke-linecap="round" stroke-linejoin="round" stroke-width="2"/><path d="m230.45 299.279v-31.47c0-11.4 7.27-20.88 16.86-22.89" stroke="#4a4a4a" stroke-linecap="round" stroke-linejoin="round" stroke-width="2"/><path d="m243.29 244.529c5.474 0 10.724 2.175 14.595 6.045 3.871 3.871 6.045 9.121 6.045 14.595v52h-41.28v-52c0-5.474 2.175-10.724 6.046-14.595 3.87-3.87 9.12-6.045 14.594-6.045z" stroke="#4a4a4a" stroke-linecap="round" stroke-linejoin="round" stroke-width="2"/><path d="m252.921 346.279h-39.32c-1.315.01-2.608-.337-3.741-1.005s-2.063-1.63-2.692-2.785c-.628-1.156-.931-2.46-.876-3.773.055-1.314.466-2.588 1.189-3.687l3.49-5.27c.67-1.009 1.579-1.837 2.647-2.409 1.068-.573 2.261-.872 3.473-.871h44.349c1.315-.012 2.608.333 3.742 1 1.133.666 2.064 1.628 2.693 2.783.628 1.154.931 2.458.876 3.772s-.467 2.587-1.191 3.685l-.729 1.11c-1.525 2.293-3.592 4.173-6.019 5.473s-5.138 1.979-7.891 1.977z" fill="#4a4a4a" opacity=".04"/><path d="m263.53 310.229c-1.092.023-2.157.343-3.08.926s-1.67 1.408-2.16 2.384v-.88c0-6.17-4.5-11.16-10.06-11.16-4.58 0-8.44 3.41-9.65 8.07-.694-1.253-1.707-2.301-2.936-3.037-1.229-.735-2.631-1.133-4.064-1.153-4.13 0-7.56 3.36-8.19 7.76h-1.72c-3.45 0-6.26 3.11-6.26 6.95v3.73h54.2v-6.79c.04-3.76-2.7-6.8-6.08-6.8z" fill="#fff"/><path d="m263.53 310.229c-1.092.023-2.157.343-3.08.926s-1.67 1.408-2.16 2.384v-.88c0-6.17-4.5-11.16-10.06-11.16-4.58 0-8.44 3.41-9.65 8.07-.694-1.253-1.707-2.301-2.936-3.037-1.229-.735-2.631-1.133-4.064-1.153-4.13 0-7.56 3.36-8.19 7.76h-1.72c-3.45 0-6.26 3.11-6.26 6.95v3.73h54.2v-6.79c.04-3.76-2.7-6.8-6.08-6.8z" stroke="#4a4a4a" stroke-linecap="round" stroke-linejoin="round" stroke-width="2"/><path d="m211.98 321.109h59.85c.266 0 .52.105.708.293.187.187.292.442.292.707v4.61c0 2.148-.853 4.208-2.372 5.728-1.519 1.519-3.579 2.372-5.728 2.372h-44.66c-2.148 0-4.208-.853-5.727-2.372-1.519-1.52-2.373-3.58-2.373-5.728v-5.61z" fill="#e5e5e5"/><path d="m211.98 321.109h59.85c.266 0 .52.105.708.293.187.187.292.442.292.707v4.61c0 2.148-.853 4.208-2.372 5.728-1.519 1.519-3.579 2.372-5.728 2.372h-44.66c-2.148 0-4.208-.853-5.727-2.372-1.519-1.52-2.373-3.58-2.373-5.728v-5.61z" stroke="#4a4a4a" stroke-linecap="round" stroke-linejoin="round" stroke-width="2"/><path d="m210.45 321.109h52c.266 0 .52.105.708.293.187.187.292.442.292.707v4.61c0 2.148-.853 4.208-2.372 5.728-1.519 1.519-3.579 2.372-5.728 2.372h-37.81c-2.148 0-4.208-.853-5.727-2.372-1.519-1.52-2.373-3.58-2.373-5.728v-4.61c0-.132.027-.263.077-.385.051-.122.126-.233.22-.326s.205-.166.328-.216c.122-.049.253-.074.385-.073z" fill="#fff"/><path d="m210.45 321.109h52c.266 0 .52.105.708.293.187.187.292.442.292.707v4.61c0 2.148-.853 4.208-2.372 5.728-1.519 1.519-3.579 2.372-5.728 2.372h-37.81c-2.148 0-4.208-.853-5.727-2.372-1.519-1.52-2.373-3.58-2.373-5.728v-4.61c0-.132.027-.263.077-.385.051-.122.126-.233.22-.326s.205-.166.328-.216c.122-.049.253-.074.385-.073z" stroke="#4a4a4a" stroke-linecap="round" stroke-linejoin="round" stroke-width="2"/><path d="m115.08 247.919h75.99v143.22l8.38 2v-154.58l-83.37-.42z" fill="#4a4a4a" opacity=".04"/><path d="m215.94 317.409h48.47s.87-4.27-4.37-4.27c.203-.901.675-1.718 1.353-2.345.677-.627 1.529-1.033 2.443-1.165.913-.133 1.845.016 2.673.425s1.511 1.059 1.961 1.865l1.18 2.13v7.42l-56-.36 2.2-3.7" fill="#4a4a4a" opacity=".04"/><path d="m305.72 356.629 29.28 6.81" stroke="#dfdfdf" stroke-linecap="round" stroke-linejoin="round" stroke-width="2"/><path d="m324.36 378.309 29.28 6.81" stroke="#dfdfdf" stroke-linecap="round" stroke-linejoin="round" stroke-width="2"/><path d="m361.78 346.899 11.21 2.4" stroke="#dfdfdf" stroke-linecap="round" stroke-linejoin="round" stroke-width="2"/><path d="m318 376.649 3 .69" stroke="#dfdfdf" stroke-linecap="round" stroke-linejoin="round" stroke-width="2"/><path d="m295.72 371.459 17.47 4.07" stroke="#dfdfdf" stroke-linecap="round" stroke-linejoin="round" stroke-width="2"/><path d="m353.28 360.999 11.21 2.39" stroke="#dfdfdf" stroke-linecap="round" stroke-linejoin="round" stroke-width="2"/><path d="m293.46 262.619 13.72 5.69" stroke="#dfdfdf" stroke-linecap="round" stroke-linejoin="round" stroke-width="2"/><path d="m359.27 352.469-49.68-12.48v-118.11l49.68 27.23v99.31" fill="#f6f6f6"/><path d="m309.59 230.639 40.68 20.8v99.12l-40.68-10.57z" fill="#e5e5e5"/><path d="m321.16 236.549-11.57 28.79v53.25l29.53-73.32z" fill="#fff" opacity=".41"/><path d="m350.01 277.009-26.47 65.9 26.73 7.65z" fill="#fff" opacity=".41"/><path d="m309.59 230.639 40.68 20.8v92.54" stroke="#4a4a4a" stroke-linecap="round" stroke-linejoin="round" stroke-width="2"/><path d="m359.27 352.469-49.68-12.48v-118.11l49.68 27.23v99.31" stroke="#4a4a4a" stroke-linecap="round" stroke-linejoin="round" stroke-width="2"/><path d="m332 245.269v99.92" stroke="#4a4a4a" stroke-linecap="round" stroke-linejoin="round" stroke-width="2"/><path d="m312.89 286.009 32.67 12.62" stroke="#4a4a4a" stroke-linecap="round" stroke-linejoin="round" stroke-width="2"/><path d="m-33.5697 331.849c-20.12 11.91-77.9103 2.58-77.3403-34.88-37.65-17.55-28.11-66.12-5.26-72.51-7.74-60.12 74.2903-97.84 112.16033-44.19 35.90997.81 63.17997 43.29 37.88997 80.59 16.14 32.81-23.79 56.34-23.79 56.34" fill="#fff"/><path d="m-33.5697 331.849c-20.12 11.91-77.9103 2.58-77.3403-34.88-37.65-17.55-28.11-66.12-5.26-72.51-7.74-60.12 74.2903-97.84 112.16033-44.19 35.90997.81 63.17997 43.29 37.88997 80.59 16.14 32.81-23.79 56.34-23.79 56.34" stroke="#4a4a4a" stroke-linecap="round" stroke-linejoin="round" stroke-width="2"/><path d="m52.6003 316.739c9.5899 1.39 21.4199 0 28.8399-12 33.1498 1.21 48.9998-32.39 35.4898-55.11 14.93-35.6-16.88-63.6-48.7297-62.18 1.52-1.79 1.22-20.63-15.36-26.33-11.79-24-35.37-35.83-73.06-19.48-56.55-31.21-118.4903 29.48-96.0003 82.89" fill="#fff"/><path d="m52.6003 316.739c9.59 1.39 21.4199 0 28.8399-12 33.1498 1.21 48.9998-32.39 35.4898-55.11 14.93-35.6-16.88-63.6-48.7297-62.18 1.52-1.79 1.22-20.63-15.36-26.33-11.79-24-35.37-35.83-73.06-19.48-56.55-31.21-118.4903 29.48-96.0003 82.89" stroke="#4a4a4a" stroke-linecap="round" stroke-linejoin="round" stroke-width="2"/><path d="m-29.7096 442.909s15.91-56.76 10.91-97.55c-5.4-44.13-39.59-86-39.59-86l7.16-3.18 17.77 14.23-12.05-43 12.36-1.73 16.58 43.74 5-10.95 9.84995 3.19s-3 15.39.25 28.36c3.35 13.23 14.70995 17.42 22.27995 5.84 3-4.55 4.3801-17.76 2.7701-25.11.806-.441 1.5085-1.049 2.0604-1.784s.9404-1.579 1.1395-2.476c1.335.968 2.9637 1.445 4.6101 1.35l5.22 16.6 23.65-29.64c2.6794 2.995 6.2527 5.046 10.1899 5.85.351.076.6764.241.9453.48.269.238.4723.541.5907.88s.1478.703.0855 1.056c-.0623.354-.2143.686-.4414.964-8.28 10.23-35.1101 46-38.7101 85.09-4 43.2 8 94.43 8 94.43" fill="#f6f6f6"/><path d="m42.8703 311.599c-4.89 11.57-8.73 24.35-10 37.51-4 43.2 8 94.43 8 94.43" stroke="#4a4a4a" stroke-linecap="round" stroke-linejoin="round" stroke-width="2"/><path d="m-29.7096 442.909s15.91-56.76 10.91-97.55c-5.4-44.13-39.59-86-39.59-86l7.16-3.18 17.77 14.23-12.05-43 12.36-1.73 16.58 43.74 5-10.95 8.76995 4.32c-.09 0-.12 11.42-.14 12.22-.11 7.28.43 15.85 4.72 22 .9976 1.467 2.31716 2.686 3.85791 3.564 1.54075.879 3.26192 1.394 5.03204 1.506 1.8934.074 3.7754-.323 5.4784-1.153 1.703-.831 3.174-2.07 4.2817-3.607 4.7699-6.42 2.55-14.69 1.45-22.29-.15-1.05-.33-2.09-.56-3.12 1.3499-.9 5.18-3.37 5.47-5.4 1.335.968 2.9636 1.445 4.61 1.35l5.2199 16.6 23.6501-29.64c2.6794 2.995 6.2527 5.046 10.19 5.85.3466.079.6673.245.9322.483.2648.237.4651.538.5821.873.1169.336.1466.696.0864 1.047-.0602.35-.2084.679-.4307.957-9.7149 12.104-18.0748 25.236-24.9301 39.16" fill="#f6f6f6"/><path d="m-29.7096 442.909s15.91-56.76 10.91-97.55c-5.4-44.13-39.59-86-39.59-86l7.16-3.18 17.77 14.23-12.05-43 12.36-1.73 16.58 43.74 5-10.95 8.76995 4.32c-.09 0-.12 11.42-.14 12.22-.11 7.28.43 15.85 4.72 22 .9976 1.467 2.31716 2.686 3.85791 3.564 1.54075.879 3.26192 1.394 5.03204 1.506 1.8934.074 3.7754-.323 5.4784-1.153 1.703-.831 3.174-2.07 4.2817-3.607 4.77-6.42 2.55-14.69 1.45-22.29-.15-1.05-.33-2.09-.56-3.12 1.35-.9 5.18-3.37 5.47-5.4 1.335.968 2.9636 1.445 4.61 1.35l5.2199 16.6 23.6501-29.64c2.6794 2.995 6.2527 5.046 10.19 5.85.3466.079.6673.245.9322.483.2648.237.4651.538.5821.873.1169.336.1466.696.0864 1.047-.0602.35-.2084.679-.4307.957-9.7149 12.104-18.0748 25.236-24.9301 39.16" stroke="#4a4a4a" stroke-linecap="round" stroke-linejoin="round" stroke-width="2"/><path d="m49.7104 242.269c0-.21.0501-.43.0801-.66z" fill="#fff"/><path d="m49.7104 242.269c0-.21.0501-.43.0801-.66" stroke="#4a4a4a" stroke-linecap="round" stroke-linejoin="round" stroke-width="2"/><path d="m83.3504 267.149c-12.29 5-17.15-6.52-17.15-6.52s-15.7-1.19-16.54-15" fill="#fff"/><path d="m83.3504 267.149c-12.29 5-17.15-6.52-17.15-6.52s-15.7-1.19-16.54-15" stroke="#4a4a4a" stroke-linecap="round" stroke-linejoin="round" stroke-width="2"/><path d="m40.5203 260.169c-1.87 10.19-11.25 8.46-14.1 5.93-.89 4.05-6.34 8.63-12.65 7.33" fill="#fff"/><path d="m40.5203 260.169c-1.87 10.19-11.25 8.46-14.1 5.93-.89 4.05-6.34 8.63-12.65 7.33" stroke="#4a4a4a" stroke-linecap="round" stroke-linejoin="round" stroke-width="2"/><path d="m7.12039 226.199c-.04398.743-.04398 1.487 0 2.23z" fill="#fff"/><path d="m7.12039 226.199c-.04398.743-.04398 1.487 0 2.23" stroke="#4a4a4a" stroke-linecap="round" stroke-linejoin="round" stroke-width="2"/><path d="m64.0903 187.819c-9.67 1.51-21.79 9.34-27.83 17.31-19.72-2.22-26.15 8-28.23003 15.65" stroke="#4a4a4a" stroke-linecap="round" stroke-linejoin="round" stroke-width="2"/><path d="m-13.0596 255.659s4.63003 10.09 16.10003 4.92z" fill="#fff"/><path d="m-13.0596 255.659s4.63003 10.09 16.10003 4.92" stroke="#4a4a4a" stroke-linecap="round" stroke-linejoin="round" stroke-width="2"/><path d="m73.2003 187.469c-1.68-.08-3.37-.09-5.06 0 1.52-1.79 1.22-20.63-15.36-26.34-11.79-23.94-35.37-35.82-73.06-19.47-48-26.48-99.8503 13.21-100.7103 58.48.16-.59 19.45-73.16 101.8003-45.53 22.74996-11.53 51.2399-6 62.8199 13.72 6.4401 1.28 10.1801 7.93 12.3201 14.39-22.6 11.79-17.67 20-19.71 22.43 16.41-20.67 36.96-17.68 36.96-17.68z" fill="#4a4a4a" opacity=".04"/><path d="m36.2604 205.129c-11.9-.83-19 3-19 3s-11.70999 9.18-9.18999 22.62c.51 2.72 9.18999-20.23 33.61999-14.32 32.43-30.56 69.9096 3.8 61.7896 36.28 10.62 27.69-13.0696 40.65-26.5196 40.65-10.29 9.61-29.76 7.4-29.76 7.4l-3.42 8.84-.87 3.92 9.73 3.22c9.59 1.38 21.42 0 28.84-12 33.1496 1.21 48.9996-32.39 35.4896-55.11 10.79-25.75-2.84-47.51-23.2596-57.06-9.42-3.05-18.29-5.05-25.51-5.13-9.16-.09-19.86 2.28-31.94 17.69z" fill="#4a4a4a" opacity=".04"/><path d="m42.8702 311.599 3.8301-8.41c6.8552-13.924 15.2151-27.056 24.9299-39.16.2272-.278.3794-.609.4423-.962s.0343-.716-.083-1.055-.3194-.642-.5871-.881c-.2677-.238-.5921-.404-.9421-.482-3.9373-.804-7.5106-2.855-10.1901-5.85l-6.2499 7.84c2.19 1.08 5.6999 2.69 7.2899 2.69l1.2001 3.09s-29.9401 29.4-35.1701 84.77c-3.61 38.27 4.86 64.93 11.25 78.92-3.26-17.54-8.4999-52.29-5.6699-83 1.22-13.16 5.0599-25.94 9.9499-37.51z" fill="#4a4a4a" opacity=".04"/><path d="m43.1804 276.199v101.44" stroke="#4a4a4a" stroke-linecap="round" stroke-linejoin="round" stroke-width="2"/><path d="m65.4902 272.079v105.56" stroke="#4a4a4a" stroke-linecap="round" stroke-linejoin="round" stroke-width="2"/><path d="m46.8204 385.439h-16.15c-.7528.001-1.4985-.146-2.1943-.434-.6958-.287-1.328-.709-1.8603-1.241-.5324-.533-.9544-1.165-1.2419-1.861s-.4348-1.441-.4335-2.194c.0132-1.511.6227-2.956 1.6959-4.02 1.0732-1.063 2.5231-1.66 4.0341-1.66h52.53c1.5189.003 2.9748.607 4.0488 1.681 1.0741 1.074 1.6786 2.53 1.6812 4.049-.0131 1.511-.6227 2.956-1.6958 4.019-1.0732 1.064-2.5231 1.661-4.0342 1.661h-14.93" fill="#e5e5e5"/><path d="m46.8204 385.439h-16.15c-.7528.001-1.4985-.146-2.1943-.434-.6958-.287-1.328-.709-1.8603-1.241-.5324-.533-.9544-1.165-1.2419-1.861s-.4348-1.441-.4335-2.194c.0132-1.511.6227-2.956 1.6959-4.02 1.0732-1.063 2.5231-1.66 4.0341-1.66h52.53c1.5189.003 2.9748.607 4.0488 1.681 1.0741 1.074 1.6786 2.53 1.6812 4.049-.0131 1.511-.6227 2.956-1.6958 4.019-1.0732 1.064-2.5231 1.661-4.0342 1.661h-14.93" stroke="#4a4a4a" stroke-linecap="round" stroke-linejoin="round" stroke-width="2"/><path d="m50.2604 385.439h-22.32c-.7533.001-1.4995-.146-2.1958-.433-.6964-.288-1.3292-.71-1.8623-1.242-.5332-.532-.9562-1.164-1.2447-1.86-.2886-.696-.4372-1.442-.4372-2.195.0158-1.512.6276-2.957 1.7023-4.02 1.0748-1.064 2.5257-1.66 4.0377-1.66h42.48c.7525-.007 1.4989.135 2.1967.417.6977.282 1.333.698 1.8698 1.226.5367.527.9643 1.155 1.2583 1.848s.4487 1.436.4552 2.189c.0014.753-.146 1.499-.4334 2.194-.2875.696-.7096 1.328-1.2419 1.861-.5323.532-1.1645.954-1.8603 1.241-.6958.288-1.4415.435-2.1944.434h-14.93" fill="#fff"/><path d="m50.2604 385.439h-22.32c-.7533.001-1.4995-.146-2.1958-.433-.6964-.288-1.3292-.71-1.8623-1.242-.5332-.532-.9562-1.164-1.2447-1.86-.2886-.696-.4372-1.442-.4372-2.195.0158-1.512.6276-2.957 1.7023-4.02 1.0748-1.064 2.5257-1.66 4.0377-1.66h42.48c.7525-.007 1.4989.135 2.1967.417.6977.282 1.333.698 1.8698 1.226.5367.527.9643 1.155 1.2583 1.848s.4487 1.436.4552 2.189c.0014.753-.146 1.499-.4334 2.194-.2875.696-.7096 1.328-1.2419 1.861-.5323.532-1.1645.954-1.8603 1.241-.6958.288-1.4415.435-2.1944.434h-14.93" stroke="#4a4a4a" stroke-linecap="round" stroke-linejoin="round" stroke-width="2"/></g></svg>