<svg width="1561" height="257" viewBox="0 0 1561 257" fill="none" xmlns="http://www.w3.org/2000/svg">
<path d="M1526.5 84.5L1535.5 85L1546 86.5L1549.5 87.5L1551.5 88.5L1554 90L1556.5 92.5L1558 95L1559 97.5L1559.5 99.5V100.5V103.5V107L1558 110.5L1554.5 114L1526.5 142V84.5Z" fill="#FF0083" stroke="#FF0083"/>
<path fill-rule="evenodd" clip-rule="evenodd" d="M126.294 2.08724C123.487 3.79583 120.54 9.04251 106.295 37.6959C91.8582 66.7339 89.1063 71.6179 86.0493 73.6382C83.0194 75.6406 77.4147 76.7097 47.0098 81.0811C27.483 83.8888 10.0286 86.8783 8.22138 87.7246C4.2728 89.5721 0 96.4015 0 100.863C0 102.618 0.607398 105.507 1.35088 107.282C2.1354 109.157 13.4358 120.989 28.3185 135.517C42.4078 149.271 54.6308 161.854 55.4803 163.481C57.8279 167.977 57.4636 171.894 51.5337 205.906C48.5158 223.217 46.0442 239.404 46.0422 241.877C46.0371 247.267 48.6909 252.056 53.2759 254.93C55.8386 256.536 57.7158 256.883 62.0406 256.549C66.8368 256.18 71.5959 253.991 99.0649 239.52C126.312 225.167 131.196 222.916 135.088 222.917C138.97 222.918 144.076 225.257 172.113 239.878C200.38 254.62 205.236 256.84 209.239 256.851C217.634 256.875 224.482 249.908 224.313 241.515C224.266 239.182 221.734 222.908 218.686 205.353C215.638 187.797 213.146 171.859 213.148 169.936C213.149 168.012 214.16 164.819 215.396 162.84C216.632 160.861 228.45 148.748 241.658 135.923C254.867 123.096 266.712 111.002 267.979 109.046C272.5 102.072 269.432 91.2337 261.942 87.7096C260.141 86.8633 242.689 83.8698 223.158 81.0581C193.534 76.7926 187.096 75.5776 184.323 73.7312C181.564 71.8937 178.124 65.8007 164.075 37.8827C151.405 12.7005 146.415 3.72389 144.218 2.16218C140.209 -0.688467 130.917 -0.727435 126.294 2.08724ZM448.299 2.72272C446.032 4.62815 440.651 14.3621 429.105 37.4441C420.28 55.0855 412.321 70.352 411.416 71.3691C410.513 72.3873 408.555 73.8501 407.065 74.6184C405.576 75.3878 388.689 78.2844 369.538 81.0561C350.387 83.8278 333.471 86.5826 331.947 87.1791C325.519 89.692 321.415 98.3988 323.302 105.521C324.183 108.849 328.668 113.735 351.241 135.964C372.307 156.707 378.377 163.253 379.266 166.187C380.252 169.433 379.573 174.764 374.152 206.314L367.901 242.697L369.65 247.27C371.912 253.182 376.005 256.098 382.843 256.663C388.051 257.095 388.552 256.873 419.959 240.258C450.927 223.873 451.96 223.414 457.8 223.413C463.64 223.411 464.67 223.868 495.466 240.137C529.94 258.349 531.862 259 539.369 255.012C543.276 252.935 547.317 246.727 547.342 242.762C547.351 241.326 544.628 224.269 541.289 204.858C535.322 170.153 535.248 169.493 536.86 165.279C538.154 161.892 543.943 155.714 564.405 135.873C593.085 108.062 594.824 105.719 592.51 98.0072C590.969 92.8724 587.109 88.3941 583.099 87.0892C581.329 86.5126 564.435 83.7839 545.557 81.0262C526.679 78.2684 510.017 75.3838 508.53 74.6164C507.043 73.8491 505.087 72.3873 504.183 71.3691C503.279 70.352 495.319 55.0855 486.495 37.4441C467.996 0.462582 467.699 0.0759023 457.8 0.0759023C452.39 0.0759023 450.982 0.468579 448.299 2.72272ZM771.77 2.05427C769.041 3.7159 765.869 9.34326 751.562 37.9057C736.863 67.2495 734.131 72.0695 731.152 73.908C728.391 75.6116 720.731 77.0265 692.321 81.0771C668.955 84.4084 655.74 86.7265 653.428 87.9005C646.126 91.6074 643.269 102.098 647.679 109.01C648.915 110.946 660.733 123.032 673.941 135.867C687.15 148.702 698.968 160.831 700.204 162.822C701.447 164.824 702.452 168.055 702.455 170.061C702.458 172.053 699.983 188.015 696.957 205.531C693.93 223.048 691.456 239.404 691.458 241.877C691.461 247.267 694.12 252.059 698.699 254.93C701.273 256.544 703.117 256.881 707.463 256.53C712.236 256.145 717.153 253.884 744.488 239.499C771.718 225.17 776.621 222.913 780.511 222.913C784.402 222.913 789.304 225.17 816.535 239.499C843.87 253.884 848.786 256.145 853.559 256.53C857.905 256.881 859.749 256.544 862.324 254.93C866.909 252.056 869.562 247.267 869.558 241.877C869.556 239.404 867.083 222.992 864.062 205.407C861.041 187.821 858.57 171.859 858.571 169.936C858.572 168.012 859.583 164.811 860.819 162.822C862.055 160.831 873.872 148.702 887.081 135.867C900.29 123.032 912.107 110.946 913.343 109.01C916.111 104.672 916.272 98.7286 913.749 93.9825C910.269 87.4369 907.456 86.6315 868.701 81.0911C840.312 77.0314 832.629 75.6106 829.87 73.908C826.893 72.0705 824.165 67.2605 809.524 38.0316C796.762 12.5536 791.892 3.76286 789.661 2.17717C785.655 -0.671481 776.351 -0.735429 771.77 2.05427ZM1093.72 2.72272C1091.45 4.62815 1086.07 14.3621 1074.53 37.4441C1065.7 55.0855 1057.74 70.352 1056.84 71.3691C1055.94 72.3873 1053.98 73.8491 1052.49 74.6164C1051.01 75.3838 1034.34 78.2574 1015.46 81.0012C974.943 86.8913 977.566 86.3548 973.787 89.5301C969.27 93.326 967.188 99.5858 968.615 105.09C969.627 108.99 972.789 112.473 996.638 135.964C1017.35 156.367 1023.78 163.285 1024.65 166.117C1025.62 169.286 1024.95 174.645 1019.72 205.004C1016.39 224.37 1013.67 241.376 1013.68 242.795C1013.71 246.731 1017.76 252.942 1021.65 255.012C1029.16 259 1031.08 258.349 1065.56 240.137C1096.35 223.868 1097.38 223.411 1103.22 223.413C1109.06 223.414 1110.1 223.873 1141.06 240.258C1172.47 256.873 1172.97 257.095 1178.18 256.663C1185.02 256.098 1189.11 253.182 1191.37 247.27L1193.12 242.697L1186.87 206.314C1181.45 174.764 1180.77 169.433 1181.76 166.187C1182.65 163.252 1188.71 156.711 1209.79 135.964C1232.66 113.442 1236.84 108.884 1237.73 105.457C1239.65 98.0261 1235.27 89.2863 1228.52 87.0892C1226.75 86.5126 1209.86 83.7839 1190.98 81.0262C1172.1 78.2684 1155.44 75.3838 1153.95 74.6164C1152.47 73.8491 1150.51 72.3873 1149.61 71.3691C1148.7 70.352 1140.74 55.0855 1131.92 37.4441C1113.42 0.462582 1113.12 0.0759023 1103.22 0.0759023C1097.81 0.0759023 1096.41 0.468579 1093.72 2.72272ZM1417.21 2.04228C1414.51 3.68593 1411.25 9.45117 1397.01 37.7598C1382.91 65.7857 1379.46 71.8927 1376.7 73.7312C1373.93 75.5776 1367.49 76.7926 1337.86 81.0581C1318.33 83.8698 1300.88 86.8633 1299.08 87.7096C1291.59 91.2337 1288.52 102.072 1293.04 109.046C1294.31 111.002 1306.16 123.096 1319.36 135.923C1332.57 148.748 1344.39 160.861 1345.63 162.84C1346.86 164.819 1347.87 168.012 1347.87 169.936C1347.87 171.859 1345.37 187.821 1342.32 205.407C1339.26 222.992 1336.75 239.298 1336.74 241.642C1336.68 250.053 1343.43 256.875 1351.78 256.851C1355.79 256.84 1360.64 254.62 1388.91 239.878C1416.95 225.257 1422.05 222.918 1425.93 222.917C1429.83 222.916 1434.71 225.167 1461.96 239.52C1489.43 253.991 1494.19 256.18 1498.98 256.549C1503.31 256.883 1505.18 256.536 1507.75 254.93C1512.28 252.09 1514.98 247.26 1514.99 242.007C1514.99 239.606 1512.52 223.321 1509.49 205.817C1506.46 188.313 1503.98 172.36 1503.98 170.366C1503.98 164.436 1506.74 160.314 1517.14 150.669L1527 141.523V112.31V83.0984L1523.75 82.5309C1521.96 82.2192 1511.05 80.6175 1499.51 78.9728C1482.36 76.5299 1477.87 75.5547 1474.98 73.6412C1471.91 71.6169 1469.17 66.7529 1454.73 37.6959C1440.48 9.04251 1437.54 3.79583 1434.73 2.08724C1430.29 -0.615527 1421.61 -0.637509 1417.21 2.04228Z" fill="#FF0083"/>
<path d="M1527 83.5L1547 86L1552 88L1556 91L1559 94.5L1560 98.5L1560.5 102.5L1559.5 107L1557.5 111.5L1554.5 115L1527 141.5V83.5Z" fill="#FF0083" stroke="#FF0083"/>
</svg>
