<svg xmlns="http://www.w3.org/2000/svg" width="180" height="181" viewBox="0 0 180 181" fill="none">
<path d="M97.2446 84.8208L109.051 74.5801" stroke="#ECECEC" stroke-width="2" stroke-linecap="round"/>
<path d="M76.4814 84.8208L64.6748 74.5801" stroke="#ECECEC" stroke-width="2" stroke-linecap="round"/>
<path d="M97.2446 103.839L109.051 114.08" stroke="#ECECEC" stroke-width="2" stroke-linecap="round"/>
<path d="M76.4814 103.839L64.6748 114.08" stroke="#ECECEC" stroke-width="2" stroke-linecap="round"/>
<path d="M40.3311 136.773C53.4013 137.365 66.2348 137.946 66.2886 137.892C66.2886 137.892 66.1056 147.313 68.8617 154.106C70.0999 157.153 65.4811 158.596 61.939 157.605C58.2462 161.212 51.3665 161.341 41.6445 156.55" fill="#DEDEDE"/>
<path d="M40.3311 136.773C53.4013 137.365 66.2348 137.946 66.2886 137.892C66.2886 137.892 66.1056 147.313 68.8617 154.106C70.0999 157.153 65.4811 158.596 61.939 157.605C58.2462 161.212 51.3665 161.341 41.6445 156.55" stroke="#4B4B4B" stroke-width="2" stroke-linecap="round" stroke-linejoin="round"/>
<path d="M49.6547 109.082C49.3425 104.108 44.9606 99.8551 39.1899 99.2737C32.8593 98.6385 27.2823 102.644 26.7117 108.242C26.1411 113.83 30.8137 118.879 37.1443 119.525C42.6997 120.085 47.6952 117.06 49.2025 112.516" fill="#DEDEDE"/>
<path d="M49.6547 109.082C49.3425 104.108 44.9606 99.8551 39.1899 99.2737C32.8593 98.6385 27.2823 102.644 26.7117 108.242C26.1411 113.83 30.8137 118.879 37.1443 119.525C42.6997 120.085 47.6952 117.06 49.2025 112.516" stroke="#4B4B4B" stroke-width="2" stroke-linecap="round" stroke-linejoin="round"/>
<path d="M38.1237 136.773C25.0535 137.365 12.22 137.946 12.1662 137.892C12.1662 137.892 12.3492 147.313 9.59307 154.106C8.35494 157.153 12.9737 158.596 16.5158 157.605C20.2086 161.212 27.0883 161.341 36.8103 156.55" fill="#DEDEDE"/>
<path d="M38.1237 136.773C25.0535 137.365 12.22 137.946 12.1662 137.892C12.1662 137.892 12.3492 147.313 9.59307 154.106C8.35494 157.153 12.9737 158.596 16.5158 157.605C20.2086 161.212 27.0883 161.341 36.8103 156.55" stroke="#4B4B4B" stroke-width="2" stroke-linecap="round" stroke-linejoin="round"/>
<path d="M39.8145 111.935C52.3249 111.935 62.3914 125.759 62.3914 140.143C62.3914 154.526 52.5941 163.527 40.0621 163.527C27.5302 163.527 17.1084 154.591 17.1084 140.143C17.1084 125.694 22.1578 111.59 39.8145 111.935Z" fill="white"/>
<path d="M62.391 132.434C69.7336 133.92 68.4847 143.47 61.7881 143.47L61.5081 145.677C59.7748 156.723 51.1833 162.278 40.6861 162.806H38.2422C27.8635 162.257 19.3689 156.884 17.5494 146L17.1618 143.653C11.0035 143.276 9.86224 134.62 14.158 132.736" fill="white"/>
<path d="M50.5483 139.561V138.291" stroke="#4B4B4B" stroke-width="2" stroke-linecap="round" stroke-linejoin="round"/>
<path d="M28.1113 139.561V138.291" stroke="#4B4B4B" stroke-width="2" stroke-linecap="round" stroke-linejoin="round"/>
<path d="M36.1968 143.33C36.6382 144.352 37.801 145.074 39.1575 145.16C40.611 145.128 41.9029 144.406 42.452 143.33" stroke="#4B4B4B" stroke-width="2" stroke-linecap="round" stroke-linejoin="round"/>
<path d="M14.0183 132.789C9.88407 134.792 11.0684 143.276 17.1621 143.642V143.706C17.5604 146.086 18.2602 148.411 19.4015 150.532C23.891 158.854 32.7194 162.58 39.4698 162.58C46.8555 162.58 56.4483 159.307 60.6471 148.336C61.2393 146.796 61.5838 145.171 61.7884 143.534V143.459C67.2684 143.459 69.1094 137.085 65.5889 133.941" stroke="#4B4B4B" stroke-width="2" stroke-linecap="round" stroke-linejoin="round"/>
<path d="M14.104 132.725C14.104 132.725 13.1135 110.503 38.059 110.18C62.52 109.9 63.4674 127.611 65.4484 133.446C65.4484 133.446 59.5054 136.278 49.6866 133.93C39.8677 131.583 29.0045 123.326 28.9184 121.42C27.9602 125.414 18.8412 133.586 14.104 132.714V132.725Z" fill="#DEDEDE"/>
<path d="M14.104 132.725C14.104 132.725 13.1135 110.503 38.059 110.18C62.52 109.9 63.4674 127.611 65.4484 133.446" stroke="#4B4B4B" stroke-width="2" stroke-linecap="round" stroke-linejoin="round"/>
<path d="M62.9402 134.167C53.735 136.234 40.0403 133.79 29.1556 122.389C25.0859 129.365 19.9181 131.637 16.8174 132.38" stroke="#4B4B4B" stroke-width="2" stroke-linecap="round" stroke-linejoin="round"/>
<path d="M29.1555 122.378C28.9402 121.732 28.8648 120.516 28.9725 118.847L29.1555 122.378Z" fill="#E6E6E6"/>
<path d="M29.1555 122.378C28.9402 121.732 28.8648 120.516 28.9725 118.847" stroke="#4B4B4B" stroke-width="2" stroke-linecap="round" stroke-linejoin="round"/>
<path opacity="0.07" d="M40.0623 99.7261C40.0623 99.7261 35.3574 100.727 32.752 105.023C32.0737 106.132 32.6336 107.575 33.8824 107.908C37.5537 108.899 47.491 110.611 47.491 110.611L27.0889 112.258C27.0889 112.258 26.2168 105.938 28.1763 103.968C30.1358 101.998 34.4961 99.177 40.0623 99.7261Z" fill="#4B4B4B"/>
<path opacity="0.07" d="M45.7462 111.547C45.7462 111.547 25.0104 107.682 19.498 128.397C18.9059 132.531 27.3574 128.634 19.8318 131.444L12.3062 134.243L16.5804 122.001C16.5804 122.001 23.9337 107.919 45.7355 111.547H45.7462Z" fill="#4B4B4B"/>
<path opacity="0.07" d="M60.0441 135.298C60.0441 135.298 41.3108 138.409 29.7693 127.449C26.5071 132.617 22.9543 134.706 21.3931 135.89C20.0904 136.88 20.2304 137.709 20.4242 139.335C21.3824 158.822 43.5825 162.623 43.5825 162.623C43.5825 162.623 25.915 164.388 15.5901 143.179C10.9391 143.179 11.5958 136.385 11.5958 136.385C11.5958 136.385 12.1557 132.111 18.2924 132.111C24.4292 132.111 28.9403 121.42 28.9403 121.42C28.9403 121.42 35.3247 135.685 60.0657 135.298H60.0441Z" fill="#4B4B4B"/>
<path opacity="0.07" d="M21.6945 157.832C21.6945 157.832 16.5267 154.247 14.2227 149.499C11.9187 144.751 13.2861 142.458 13.2861 142.458L17.1512 143.631C17.1512 143.631 21.1132 156.098 26.3563 158.176C23.5571 159.468 21.6838 157.821 21.6838 157.821L21.6945 157.832Z" fill="#4B4B4B"/>
<path fill-rule="evenodd" clip-rule="evenodd" d="M160.191 135.388C160.191 145.605 150.124 164.08 137.118 164.08C124.113 164.08 114.725 148.157 114.725 137.939C114.725 127.722 123.801 122.608 136.806 122.608C149.812 122.608 160.191 120.423 160.191 135.388Z" fill="#E6E6E6"/>
<path fill-rule="evenodd" clip-rule="evenodd" d="M117.836 133.127C117.836 133.127 116.932 144.83 115.629 145.982C114.703 144.539 116.566 144.292 114.725 142.526C107.447 138.273 101.87 130.285 106.747 124.514C103.313 119.486 107.619 111.519 111.818 110.755C112.184 102.529 121.034 102.788 124.673 105.565C126.546 103.089 130.401 102.992 133.738 105.35C135.493 102.378 140.726 101.797 142.448 105.813C144.365 102.389 149.554 101.862 151.46 105.673C156.326 101.819 164.239 105.673 163.098 110.927C167.361 110.927 171.431 117.031 167.62 124.482C169.052 127.098 170.236 127.453 170.042 129.908C169.59 135.84 163.647 139.522 158.845 141.072C158.845 141.072 160.999 140.491 159.696 133.601C159.362 131.835 156.078 133.827 154.754 133.159C151.966 133.471 149.166 133.622 146.367 133.601C141.748 133.202 141.544 132.093 139.714 132.093C136.979 132.093 132.888 133.353 128.355 131.028C124.146 133.805 120.636 134.516 117.847 133.138L117.836 133.127Z" fill="#C1C1C1"/>
<path d="M113.422 141.395C109.719 136.744 101.364 133.364 106.737 124.503C102.699 118 108.255 112.036 111.807 111.368C112.809 104.026 121.034 102.787 124.673 105.77C126.557 103.11 130.401 103.013 133.738 105.533C135.493 102.346 140.726 101.711 142.448 106.039C144.365 102.357 149.554 101.743 151.46 105.888C156.326 101.732 164.239 105.888 163.098 111.53C166.543 111.53 172.529 117.096 167.534 124.525C175.447 130.101 165.951 136.131 163.033 139.36" stroke="#4B4B4B" stroke-width="2" stroke-linecap="round" stroke-linejoin="round"/>
<path d="M127.235 140.943V141.858" stroke="#4B4B4B" stroke-width="2" stroke-linecap="round" stroke-linejoin="round"/>
<path d="M148.908 140.943V141.858" stroke="#4B4B4B" stroke-width="2" stroke-linecap="round" stroke-linejoin="round"/>
<path d="M134.74 143.506C135.493 144.453 136.667 144.959 137.873 144.841C138.992 144.938 140.08 144.432 140.726 143.506" stroke="#4B4B4B" stroke-width="2" stroke-linecap="round" stroke-linejoin="round"/>
<path opacity="0.07" fill-rule="evenodd" clip-rule="evenodd" d="M133.738 110.593C130.207 107.622 126.654 108.612 124.178 111.982C121.4 110.001 115.715 111.196 115.037 117.193C112.367 119.066 112.539 121.586 113.853 125.009C110.763 129.51 114.251 133.515 116.038 135.14C115.834 139.748 113.605 140.34 117.147 139.221C116.555 143.689 112.432 143.172 111.678 141.331C110.924 139.877 109.923 138.586 108.707 137.487C108.707 137.487 102.774 131.986 105.735 124.471C105.735 121.941 103.829 119.529 105.315 116.558C110.106 111.465 111.646 111.616 111.646 111.616C111.646 111.616 114.079 104.758 117.696 104.51C120.011 104.381 122.347 104.553 124.619 105.027C124.619 105.027 125.168 103.143 127.784 103.638C129.819 104.101 131.8 104.747 133.717 105.555C133.717 105.555 137.453 101.194 142.513 106.287C142.567 106.244 135.267 105.016 133.738 110.593Z" fill="#4B4B4B"/>
<path fill-rule="evenodd" clip-rule="evenodd" d="M136.871 163.542C142.05 163.542 155.809 162.153 158.92 143.861C161.235 143.635 163.001 141.708 163.022 139.382C163.141 137.52 162.086 135.775 160.385 135.022" fill="#E6E6E6"/>
<path d="M136.871 163.542C142.05 163.542 155.809 162.153 158.92 143.861C161.235 143.635 163.001 141.708 163.022 139.382C163.141 137.52 162.086 135.775 160.385 135.022" stroke="#4B4B4B" stroke-width="2" stroke-linecap="round" stroke-linejoin="round"/>
<path fill-rule="evenodd" clip-rule="evenodd" d="M138.303 163.542C133.157 163.585 119.516 162.164 116.307 144.055C111.043 142.537 111.872 135.151 117.212 135.151" fill="#E6E6E6"/>
<path d="M138.303 163.542C133.157 163.585 119.516 162.164 116.307 144.055C111.043 142.537 111.872 135.151 117.212 135.151" stroke="#4B4B4B" stroke-width="2" stroke-linecap="round" stroke-linejoin="round"/>
<path d="M160.115 132.287C157.725 133.622 154.808 133.622 152.418 132.287C148.628 133.913 144.343 133.913 140.553 132.287C135.256 133.859 131.994 133.482 128.021 131.792C124.716 133.913 120.528 134.096 117.05 132.287" stroke="#4B4B4B" stroke-width="2" stroke-linecap="round" stroke-linejoin="round"/>
<path opacity="0.05" fill-rule="evenodd" clip-rule="evenodd" d="M113.982 138.532C114.488 139.673 111.215 142.149 116.447 144.776C118.224 152.528 122.692 163.671 139.929 163.143C119.893 159.289 121.938 138.596 122.821 138.23C125.039 138.144 127.095 137.057 128.409 135.259C128.409 135.259 133.351 138.424 138.185 135.829C143.643 137.444 149.36 135.259 152.321 133.127C150.76 133.062 149.198 132.847 147.67 132.481C145.495 133.956 142.62 133.859 140.553 132.255C140.553 132.255 133.943 135.474 128.613 131.986C125.362 134.839 124.027 134.473 119.71 132.976C117.244 135.948 117.955 134.785 116.404 135.786C113.982 137.423 113.971 137.423 113.971 138.521L113.982 138.532Z" fill="#4B4B4B"/>
<path d="M153.565 56.7338C153.565 70.4285 143.38 78.5786 130.741 78.5786C118.101 78.5786 107.927 70.3639 107.927 56.7338C107.927 43.1037 118.133 32.0251 130.751 32.0251C143.369 32.0251 153.576 43.0821 153.576 56.7338H153.565Z" fill="white"/>
<path d="M155.363 49.4021C161.037 50.0804 160.23 59.6624 153.511 60.05L153.124 62.2786C151.294 72.5927 142.724 79.6984 132.27 80.2152H129.804C119.221 79.7092 110.554 72.442 108.81 61.9771L108.53 59.8885C101.779 59.8885 100.52 50.8448 107.927 49.4236" fill="white"/>
<path d="M155.363 49.4021C161.037 50.0804 160.23 59.6624 153.511 60.05L153.124 62.2786C151.294 72.5927 142.724 79.6984 132.27 80.2152H129.804C119.221 79.7092 110.554 72.442 108.81 61.9771L108.53 59.8885C101.779 59.8885 100.52 50.8448 107.927 49.4236" stroke="#4B4B4B" stroke-width="2" stroke-linecap="round" stroke-linejoin="round"/>
<path d="M155.072 44.6109C155.072 44.4601 154.975 44.3417 154.922 44.2018C154.351 42.5868 153.059 41.3164 151.423 40.7781L149.129 44.4279C149.129 44.4279 149.614 52.2872 152.962 55.0757C153.285 55.3341 153.716 55.4095 154.103 55.2803C154.502 55.1618 154.803 54.8496 154.922 54.4513C155.621 52.3518 155.88 50.1232 155.697 47.9161" fill="#C4C4C4"/>
<path d="M155.072 44.6109C155.072 44.4601 154.975 44.3417 154.922 44.2018C154.351 42.5868 153.059 41.3164 151.423 40.7781L149.129 44.4279C149.129 44.4279 149.614 52.2872 152.962 55.0757C153.285 55.3341 153.716 55.4095 154.103 55.2803C154.502 55.1618 154.803 54.8496 154.922 54.4513C155.621 52.3518 155.88 50.1232 155.697 47.9161" fill="#ECECEC"/>
<path d="M155.072 44.6109C155.072 44.4601 154.975 44.3417 154.922 44.2018C154.351 42.5868 153.059 41.3164 151.423 40.7781L149.129 44.4279C149.129 44.4279 149.614 52.2872 152.962 55.0757C153.285 55.3341 153.716 55.4095 154.103 55.2803C154.502 55.1618 154.803 54.8496 154.922 54.4513C155.621 52.3518 155.88 50.1232 155.697 47.9161" stroke="#4B4B4B" stroke-width="2" stroke-linecap="round" stroke-linejoin="round"/>
<path opacity="0.05" d="M133.109 79.5583C133.109 79.5583 107.636 75.5747 113.859 47.3455C114.225 46.5596 115.151 46.2043 115.948 46.5488C119.694 48.2929 127.188 50.6077 134.67 45.2784C141.776 48.4114 147.676 50.2524 155.331 47.2271L150.884 37.6451L112.179 35.6533L106.215 45.4506C106.29 48.4652 101.413 51.2106 101.908 54.1821C102.159 55.8441 107.571 58.0394 108.003 60.1036C108.646 63.1742 109.682 66.5265 111.684 69.6748C116.184 76.9743 124.614 80.8717 133.098 79.5583H133.109Z" fill="#4B4B4B"/>
<path d="M112.955 45.8168C112.266 48.2931 111.092 50.6078 109.51 52.6319C109.111 53.1487 108.465 53.3855 107.83 53.2563C107.195 53.1271 106.689 52.6534 106.517 52.0182C104.062 42.6192 110.08 20.2146 125.142 29.1291C138.395 13.884 161.123 20.1715 151.563 32.7142C162.921 34.4907 161.231 53.9131 134.832 42.5116C127.726 46.915 118.596 46.2475 112.201 40.8643" fill="#ECECEC"/>
<path d="M112.955 45.8168C112.266 48.2931 111.092 50.6078 109.51 52.6319C109.111 53.1487 108.465 53.3855 107.83 53.2563C107.195 53.1271 106.689 52.6534 106.517 52.0182C104.062 42.6192 110.08 20.2146 125.142 29.1291C138.395 13.884 161.123 20.1715 151.563 32.7142C162.921 34.4907 161.231 53.9131 134.832 42.5116C127.726 46.915 118.596 46.2475 112.201 40.8643" stroke="#4B4B4B" stroke-width="2" stroke-linecap="round" stroke-linejoin="round"/>
<path d="M120.416 54.979V56.2494" stroke="#4B4B4B" stroke-width="2" stroke-linecap="round" stroke-linejoin="round"/>
<path d="M143.025 54.979V56.2494" stroke="#4B4B4B" stroke-width="2" stroke-linecap="round" stroke-linejoin="round"/>
<path d="M127.5 58.9839C128.049 60.0497 129.341 60.7711 130.794 60.8034C132.151 60.7173 133.313 60.0067 133.755 58.9839" stroke="#4B4B4B" stroke-width="2" stroke-linecap="round" stroke-linejoin="round"/>
<path opacity="0.05" d="M125.121 29.7319C121.913 28.6122 118.36 29.1182 115.593 31.0885C114.118 32.2512 113.063 33.8554 112.557 35.6641C112.018 37.1714 112.503 38.851 113.763 39.8522C116.605 42.0916 124.83 44.6971 134.111 40.5413C134.52 40.369 134.983 40.369 135.392 40.5413C139.257 42.0162 151.488 47.8623 158.217 40.692C150.562 53.3101 135.607 42.5223 135.144 43.1252C120.739 48.7344 112.137 41.2949 112.697 41.6179C114.042 42.2962 113.978 44.2987 109.564 49.3804L106.678 53.6438C106.678 53.6438 104.805 34.4368 113.235 29.0106C121.665 23.5844 125.121 29.7319 125.121 29.7319Z" fill="#4B4B4B"/>
<path d="M20.8162 32.0651C20.6332 28.7814 22.5711 25.7669 25.295 25.2393C25.1981 20.5237 29.5477 18.0367 33.0575 19.5117C35.2754 14.613 43.5869 15.9049 45.0619 19.1456C47.4413 17.3369 54.7193 18.8764 54.6654 25.8853C58.6382 28.7491 58.7351 33.5401 56.6034 35.6719L24.4014 44.3495L20.2456 39.0202" fill="#C1C1C1"/>
<path d="M20.8162 32.0651C20.6332 28.7814 22.5711 25.7669 25.295 25.2393C25.1981 20.5237 29.5477 18.0367 33.0575 19.5117C35.2754 14.613 43.5869 15.9049 45.0619 19.1456C47.4413 17.3369 54.7193 18.8764 54.6654 25.8853C58.6382 28.7491 58.7351 33.5401 56.6034 35.6719L24.4014 44.3495L20.2456 39.0202" stroke="#4B4B4B" stroke-width="2" stroke-linecap="round" stroke-linejoin="round"/>
<path d="M64.7752 62.7705C69.1786 59.7022 70.5674 48.8174 63.4294 43.1005C60.4579 30.1379 48.3781 29.5888 43.1888 31.5268C29.2895 26.3051 21.9038 34.3045 20.2458 39.0093C9.68406 41.2703 6.26038 58.8516 15.9931 62.7813" fill="#C1C1C1"/>
<path d="M64.7752 62.7705C69.1786 59.7022 70.5674 48.8174 63.4294 43.1005C60.4579 30.1379 48.3781 29.5888 43.1888 31.5268C29.2895 26.3051 21.9038 34.3045 20.2458 39.0093C9.68406 41.2703 6.26038 58.8516 15.9931 62.7813" stroke="#4B4B4B" stroke-width="2" stroke-linecap="round" stroke-linejoin="round"/>
<path d="M39.4208 40.8181C50.973 40.8181 60.3182 51.2076 60.3182 63.9872C60.3182 76.7668 50.9838 83.4096 39.4208 83.4096C27.847 83.4096 18.5234 76.8206 18.5234 63.9872C18.5234 51.1861 27.8686 40.8181 39.4208 40.8181Z" fill="#E6E6E6"/>
<path d="M60.3181 57.1292C67.1008 58.4535 65.9381 66.9373 59.7582 66.9373L59.4998 68.8968C57.8956 78.7156 49.9716 83.3882 40.2712 83.8619H38.0103C28.4283 83.3667 20.5904 78.8556 18.9109 69.1874L18.5556 67.0988C12.4081 66.7327 11.6652 57.7536 16.8653 57.1077" fill="#E6E6E6"/>
<path d="M60.3181 57.1292C67.1008 58.4535 65.9381 66.9373 59.7582 66.9373L59.4998 68.8968C57.8956 78.7156 49.9716 83.3882 40.2712 83.8619H38.0103C28.4283 83.3667 20.5904 78.8556 18.9109 69.1874L18.5556 67.0988C12.4081 66.7327 11.6652 57.7536 16.8653 57.1077" stroke="#4B4B4B" stroke-width="2" stroke-linecap="round" stroke-linejoin="round"/>
<path opacity="0.04" d="M56.6033 53.6193C56.6033 53.6193 52.3075 53.6732 51.2524 53.5655C48.1194 55.8264 39.7433 55.3635 37.0732 53.8562C34.5862 56.6554 30.2582 57.2799 26.8775 56.7308C24.5197 56.6339 16.5527 75.1304 34.8231 84.131C22.7433 78.8663 19.5026 72.3958 19.2765 67.2387C19.2227 65.9898 10.4805 65.8822 15.0346 58.2381C15.1746 57.5598 19.8795 62.4262 20.0732 61.8556C20.8377 59.6162 21.8497 58.2166 21.8497 58.2166L23.3031 53.221C23.3031 53.221 40.3246 43.5206 40.5615 43.456C40.7984 43.3914 56.5387 48.2254 56.5387 48.2254L56.5925 53.6301L56.6033 53.6193Z" fill="#4B4B4B"/>
<path d="M49.8208 62.6306V61.4355" stroke="#4B4B4B" stroke-width="2" stroke-linecap="round" stroke-linejoin="round"/>
<path d="M29.5156 62.6306V61.4355" stroke="#4B4B4B" stroke-width="2" stroke-linecap="round" stroke-linejoin="round"/>
<path d="M36.4702 65.2253C36.9224 66.1943 38.1175 66.8726 39.5063 66.948C40.9921 66.9157 42.3163 66.2374 42.8762 65.2253" stroke="#4B4B4B" stroke-width="2" stroke-linecap="round" stroke-linejoin="round"/>
<path d="M16.4668 54.1469C16.4668 54.1469 16.4238 63.6751 20.2781 61.8986C21.7423 61.2204 21.7531 58.3673 21.9146 56.1602C22.0976 53.6301 23.691 53.1241 24.8968 53.5332C31.6904 55.8695 35.7492 49.4528 35.7492 49.4528C35.7492 49.4528 41.0355 54.8682 52.114 50.3572C53.7936 51.8214 57.7663 53.4794 57.7663 53.4794C57.7663 53.4794 57.4649 61.4465 60.1995 61.2957C62.9341 61.145 62.665 54.6206 62.665 54.6206L58.5953 48.4946C58.5953 48.4946 58.9829 37.4699 41.3693 35.0906C36.2445 34.4015 22.9158 44.4357 22.9158 44.4357L16.4668 54.1469Z" fill="#C1C1C1"/>
<path d="M16.6821 57.129C17.0482 59.6914 17.9848 62.9536 20.2781 61.8985C21.7423 61.2202 21.7531 58.3671 21.9145 56.16C22.0976 53.63 23.691 53.1239 24.8968 53.5331C31.6903 55.8693 35.7492 49.4526 35.7492 49.4526C35.7492 49.4526 41.0355 54.8681 52.114 50.357C53.7935 51.8212 57.7663 53.4792 57.7663 53.4792C57.7663 53.4792 57.4648 61.4463 60.1995 61.2956C61.4268 61.2202 62.0513 59.3684 62.3635 57.9042" stroke="#4B4B4B" stroke-width="2" stroke-linecap="round" stroke-linejoin="round"/>
<path opacity="0.07" d="M40.7016 16.9925C40.7016 16.9925 36.2336 19.8348 35.523 23.1401C35.3831 23.7753 34.8448 24.249 34.1988 24.2382C30.8935 24.1521 28.8479 26.9513 29.5908 29.9767C21.6668 36.458 20.7302 37.2655 20.7302 37.2655C20.7302 37.2655 20.6225 30.5796 21.4515 28.5125C22.2805 26.4453 25.3058 25.2287 25.3058 25.2287C25.3058 25.2287 25.3274 19.0381 33.0683 19.5011C36.2767 15.9482 41.423 16.6695 41.423 16.6695" fill="#4B4B4B"/>
<path opacity="0.07" d="M43.1889 31.5377C43.1889 31.5377 28.6436 31.57 26.1566 41.5288C25.9198 42.4654 25.1338 43.1868 24.1756 43.359C15.1319 45.0493 16.79 58.0873 16.79 58.0873L12.2143 60.5636C12.2143 60.5636 8.61834 53.8239 10.6424 48.4946C12.6665 43.1652 19.7076 39.2033 19.7076 39.2033C19.7076 39.2033 24.3156 31.5484 29.5803 29.9873C34.845 28.4262 43.1781 31.5377 43.1781 31.5377H43.1889Z" fill="#4B4B4B"/>
<g filter="url(#filter0_d_2345_4204)">
<rect x="77.2061" y="83.657" width="20.4138" height="20.4138" rx="10.2069" fill="#FF0083"/>
</g>
<path fill-rule="evenodd" clip-rule="evenodd" d="M87.5134 91.1929C87.0686 90.6261 86.1054 90.0204 85.1393 90.2082C84.3352 90.3637 83.6135 90.9111 83.2983 91.6043C82.4942 93.3826 83.4515 95.0152 84.6592 96.2266C85.2601 96.8291 85.914 97.3182 86.4177 97.6583C86.671 97.8267 86.8831 97.9596 87.0333 98.0503C87.1099 98.0956 87.1688 98.128 87.21 98.1507C87.2277 98.1604 87.2424 98.1669 87.2513 98.1733C87.263 98.1701 87.2778 98.1636 87.2954 98.1539C87.3367 98.1345 87.3985 98.1053 87.4781 98.0697C87.6342 97.9952 87.8581 97.8818 88.1232 97.7361C88.6504 97.4445 89.3397 97.0137 89.9818 96.4663C91.2779 95.3682 92.3559 93.8296 91.6873 91.9833C91.4251 91.2642 90.7477 90.652 89.9582 90.4252C89.0098 90.1532 87.8934 90.6617 87.5164 91.1897L87.5134 91.1929Z" fill="white"/>
<defs>
<filter id="filter0_d_2345_4204" x="67.2061" y="77.657" width="40.4136" height="40.4138" filterUnits="userSpaceOnUse" color-interpolation-filters="sRGB">
<feFlood flood-opacity="0" result="BackgroundImageFix"/>
<feColorMatrix in="SourceAlpha" type="matrix" values="0 0 0 0 0 0 0 0 0 0 0 0 0 0 0 0 0 0 127 0" result="hardAlpha"/>
<feOffset dy="4"/>
<feGaussianBlur stdDeviation="5"/>
<feComposite in2="hardAlpha" operator="out"/>
<feColorMatrix type="matrix" values="0 0 0 0 1 0 0 0 0 0 0 0 0 0 0.513726 0 0 0 0.2 0"/>
<feBlend mode="normal" in2="BackgroundImageFix" result="effect1_dropShadow_2345_4204"/>
<feBlend mode="normal" in="SourceGraphic" in2="effect1_dropShadow_2345_4204" result="shape"/>
</filter>
</defs>
</svg>