<svg xmlns="http://www.w3.org/2000/svg" width="180" height="180" viewBox="0 0 180 180" fill="none">
<path d="M94.9508 93.2606C77.1669 87.8146 60.0196 92.3218 56.6475 103.333L52.7736 115.984C49.4037 126.988 61.0848 140.331 78.8687 145.777C96.6526 151.223 113.8 146.716 117.172 135.704L121.046 123.054C124.425 112.044 112.742 98.7086 94.9508 93.2606Z" fill="#ECECEC"/>
<path d="M83.0533 132.147C100.444 137.472 117.161 133.239 120.391 122.692C123.621 112.145 112.141 99.277 94.7498 93.9513C77.3586 88.6257 60.6419 92.8587 57.412 103.406C54.1821 113.953 65.6621 126.821 83.0533 132.147Z" fill="white"/>
<path d="M116.683 127.943C110.212 134.63 96.4776 136.712 82.3357 132.381C69.4982 128.444 59.8948 120.319 57.0277 111.997" stroke="#4A4A4A" stroke-width="1.5" stroke-linecap="round" stroke-linejoin="round"/>
<path d="M84.5085 127.359C98.6968 131.704 112.141 128.884 114.536 121.061C116.932 113.238 107.372 103.373 93.1841 99.0286C78.9958 94.6837 65.5518 97.5035 63.1561 105.327C60.7604 113.15 70.3202 123.014 84.5085 127.359Z" fill="white"/>
<path opacity="0.9" d="M84.5085 127.359C98.6968 131.704 112.141 128.884 114.536 121.061C116.932 113.238 107.372 103.373 93.1841 99.0286C78.9958 94.6837 65.5518 97.5035 63.1561 105.327C60.7604 113.15 70.3202 123.014 84.5085 127.359Z" fill="#F2F2F2"/>
<path d="M84.5915 126.469C98.0578 130.593 110.797 127.984 113.045 120.642C115.293 113.3 106.199 104.006 92.7332 99.882C79.2669 95.7582 66.5278 98.367 64.2795 105.709C62.0312 113.051 71.1252 122.345 84.5915 126.469Z" fill="#F7F7F7"/>
<path d="M88.7807 111.282C89.2669 111.224 89.7698 111.174 90.2811 111.133C90.7924 111.092 91.3037 111.067 91.815 111.067C92.3347 111.067 92.846 111.092 93.3573 111.158C93.8686 111.224 94.3799 111.323 94.8828 111.471C95.3857 111.619 95.8802 111.825 96.358 112.081C96.8358 112.336 97.3052 112.666 97.7662 113.061C98.4451 113.646 98.9564 114.248 99.2917 114.866C99.627 115.475 99.7779 116.077 99.736 116.662C99.694 117.247 99.451 117.799 99.0067 118.318C98.5625 118.837 97.9087 119.298 97.0286 119.702L98.2104 120.905C98.3948 121.086 98.4787 121.276 98.4535 121.482C98.4284 121.688 98.2775 121.844 97.9925 121.952L96.6011 122.462L94.6397 120.46C93.5668 120.691 92.4436 120.806 91.2534 120.831C90.0632 120.856 88.94 120.757 87.8755 120.559L87.5569 118.837C87.5318 118.697 87.5569 118.557 87.6491 118.425C87.733 118.293 87.8671 118.194 88.0599 118.12C88.2527 118.046 88.4957 118.013 88.7891 118.013C89.0825 118.013 89.4094 118.03 89.7782 118.046C90.1386 118.063 90.5325 118.079 90.9516 118.087C91.3707 118.096 91.8066 118.071 92.2592 118.005L88.6718 114.338C87.9425 114.429 87.1965 114.503 86.417 114.544C85.6459 114.594 84.858 114.561 84.07 114.445C83.2821 114.33 82.4859 114.108 81.6896 113.778C80.8933 113.449 80.1138 112.946 79.351 112.287C78.7894 111.801 78.3703 111.273 78.0937 110.713C77.7919 110.153 77.6914 109.592 77.7668 109.04C77.8422 108.488 78.1021 107.953 78.5547 107.442C79.0073 106.931 79.6863 106.486 80.5831 106.099L79.527 105.02C79.3426 104.838 79.2588 104.649 79.2839 104.443C79.3091 104.237 79.46 104.08 79.7449 103.973L81.1364 103.462L83.0055 105.366C84.0281 105.168 85.0088 105.086 85.9644 105.135C86.9115 105.184 87.7916 105.283 88.5963 105.44L88.8645 106.816C88.9064 107.022 88.8981 107.187 88.8394 107.31C88.7807 107.434 88.655 107.533 88.4538 107.607C88.3281 107.648 88.1604 107.681 87.9425 107.697C87.7246 107.714 87.4815 107.722 87.2049 107.73C86.9367 107.73 86.6433 107.747 86.3416 107.755C86.0314 107.763 85.7213 107.788 85.4112 107.829L88.7891 111.29L88.7807 111.282ZM83.0307 108.596C82.7038 108.777 82.4691 108.958 82.3098 109.139C82.1506 109.321 82.0668 109.502 82.0416 109.675C82.0165 109.848 82.0584 110.029 82.1506 110.194C82.2428 110.367 82.3853 110.532 82.5697 110.697C82.9888 111.059 83.4833 111.298 84.0533 111.413C84.6233 111.529 85.2435 111.57 85.9057 111.545L83.0223 108.596L83.0307 108.596ZM94.5978 117.23C95.7461 116.571 95.7713 115.764 94.6649 114.808C94.2541 114.445 93.7764 114.223 93.2399 114.124C92.7035 114.025 92.1084 113.992 91.4546 114.034L94.5894 117.239L94.5978 117.23Z" fill="white"/>
<path d="M57.2472 119.831L55.7998 124.558" stroke="#ECECEC" stroke-opacity="0.53" stroke-width="1.5" stroke-linecap="round" stroke-linejoin="round"/>
<path d="M66.2738 128.896L64.6034 134.351" stroke="#ECECEC" stroke-opacity="0.53" stroke-width="1.5" stroke-linecap="round" stroke-linejoin="round"/>
<path d="M100.714 139.443L99.0433 144.898" stroke="#ECECEC" stroke-opacity="0.53" stroke-width="1.5" stroke-linecap="round" stroke-linejoin="round"/>
<path d="M113.746 133.476L112.073 138.938" stroke="#ECECEC" stroke-opacity="0.53" stroke-width="1.5" stroke-linecap="round" stroke-linejoin="round"/>
<path d="M76.2281 134.956L74.5577 140.411" stroke="#ECECEC" stroke-opacity="0.53" stroke-width="1.5" stroke-linecap="round" stroke-linejoin="round"/>
<path d="M87.9388 138.542L86.2684 143.997" stroke="#ECECEC" stroke-opacity="0.53" stroke-width="1.5" stroke-linecap="round" stroke-linejoin="round"/>
<path d="M84.5085 127.359C98.6968 131.704 112.141 128.884 114.536 121.061C116.932 113.238 107.372 103.373 93.1841 99.0286C78.9958 94.6837 65.5518 97.5035 63.1561 105.327C60.7604 113.15 70.3202 123.014 84.5085 127.359Z" stroke="#ECECEC" stroke-width="1.5" stroke-linecap="round" stroke-linejoin="round"/>
<path d="M94.9508 93.2606C77.1669 87.8146 60.0196 92.3218 56.6475 103.333L52.7736 115.984C49.4037 126.988 61.0848 140.331 78.8687 145.777C96.6526 151.223 113.8 146.716 117.172 135.704L121.046 123.054C124.425 112.044 112.742 98.7086 94.9508 93.2606Z" stroke="#4A4A4A" stroke-width="1.5" stroke-linecap="round" stroke-linejoin="round"/>
<path d="M59.5797 134.431L63.5983 121.764L67.8537 119.146C68.37 118.828 69.038 118.914 69.4573 119.351C69.8766 119.789 70.5446 119.875 71.0609 119.557L96.4966 103.908C97.1869 103.483 97.6419 102.763 97.7289 101.957C97.816 101.151 98.271 100.431 98.9613 100.006L104.292 96.7264C104.039 96.5583 100.112 95.2686 86.4321 91.4551C72.7526 87.6416 62.2657 95.1442 58.7323 99.3722L53.0724 113.689L53.2294 125.84L59.5797 134.431Z" fill="#4A4A4A" fill-opacity="0.02"/>
<path d="M67.9478 139.98L71.9664 127.312L76.2218 124.694C76.7381 124.376 77.4061 124.462 77.8254 124.9C78.2447 125.337 78.9127 125.423 79.429 125.106L104.865 109.456C105.555 109.031 106.01 108.311 106.097 107.505C106.184 106.7 106.639 105.979 107.329 105.555L112.66 102.275C112.658 102.273 112.658 102.273 112.66 102.275L112.66 102.275C112.754 102.364 118.579 106.986 118.754 109.601L113.322 113.665L113.202 116.323L93.1851 129.449L90.0704 128.912L83.2448 132.6L79.7547 146.165L67.9478 139.98Z" fill="#4A4A4A" fill-opacity="0.02"/>
<path opacity="0.03" d="M80.1395 114.283C91.2306 113.026 99.7501 107.846 99.1682 102.714C98.5863 97.582 89.1235 94.4411 78.0323 95.6986C66.9411 96.9562 58.4217 102.136 59.0035 107.268C59.5854 112.4 69.0483 115.541 80.1395 114.283Z" fill="#4A4A4A"/>
<path d="M88.1125 41.3243C69.5809 42.9074 55.3538 53.4872 56.334 64.9619L57.4601 78.144C58.4398 89.6111 74.2559 97.632 92.7875 96.0489C111.319 94.4658 125.546 83.8859 124.566 72.4113L123.44 59.2292C122.467 47.7539 106.651 39.7406 88.1125 41.3243Z" fill="#ECECEC"/>
<path d="M91.5839 81.8413C109.706 80.2932 123.636 70.1283 122.697 59.1376C121.758 48.1468 106.306 40.492 88.1838 42.0402C70.0614 43.5884 56.1315 53.7532 57.0704 64.7439C58.0094 75.7347 73.4616 83.3895 91.5839 81.8413Z" fill="white"/>
<path d="M56.3154 64.7417C57.2775 76.0038 72.8121 83.873 91.0055 82.3264C103.255 81.2799 113.591 76.2275 118.745 69.6016M121.216 65.3925C121.105 65.666 120.985 65.938 120.857 66.2083" stroke="#4A4A4A" stroke-width="1.5" stroke-linecap="round" stroke-linejoin="round"/>
<path d="M91.1475 76.8561C105.932 75.5931 117.353 67.9606 116.657 59.8085C115.96 51.6564 103.41 46.0717 88.6256 47.3348C73.8408 48.5978 62.4199 56.2303 63.1163 64.3824C63.8127 72.5345 76.3628 78.1192 91.1475 76.8561Z" fill="white"/>
<path opacity="0.9" d="M91.1475 76.8561C105.932 75.5931 117.353 67.9606 116.657 59.8085C115.96 51.6564 103.41 46.0717 88.6256 47.3348C73.8408 48.5978 62.4199 56.2303 63.1163 64.3824C63.8127 72.5345 76.3628 78.1192 91.1475 76.8561Z" fill="#F2F2F2"/>
<path d="M90.8923 75.9997C104.925 74.8009 115.767 67.5847 115.109 59.8818C114.451 52.1789 102.542 46.9062 88.5093 48.105C74.4768 49.3037 63.6348 56.52 64.2928 64.2229C64.9509 71.9258 76.8598 77.1985 90.8923 75.9997Z" fill="#F7F7F7"/>
<g clip-path="url(#clip0_2473_2470)">
<path d="M93.0468 63.4437C92.9678 63.8495 92.8592 64.2652 92.7506 64.6809C92.6322 65.0966 92.4841 65.5024 92.2965 65.8983C92.109 66.2942 91.872 66.6703 91.5956 67.0266C91.3192 67.3829 90.9539 67.7194 90.5295 68.0164C90.0951 68.3133 89.5817 68.5706 88.9894 68.7884C88.3971 69.0061 87.6863 69.1744 86.867 69.2932C85.6527 69.4713 84.4681 69.5109 83.3328 69.402C82.1975 69.303 81.1511 69.0655 80.2034 68.6894C79.2557 68.3133 78.4265 67.7986 77.7256 67.1553C77.0246 66.5119 76.5014 65.73 76.1559 64.8194L73.7373 65.0174C73.372 65.057 73.0265 64.9976 72.6909 64.8689C72.3552 64.7303 72.1578 64.5225 72.0887 64.2454L71.7432 62.8795L75.761 62.543C75.7709 61.5928 75.9782 60.6525 76.383 59.732C76.7877 58.8116 77.3405 58 78.0612 57.2972L81.0228 58.0593C81.2696 58.1187 81.4769 58.2276 81.6645 58.3662C81.852 58.5047 81.9705 58.673 82.0198 58.8512C82.0692 59.0293 82.0396 59.2471 81.931 59.4747C81.8224 59.7023 81.6842 59.9399 81.5164 60.2071C81.3486 60.4744 81.1807 60.7713 81.0228 61.088C80.8648 61.4047 80.7365 61.7611 80.6773 62.1372L88.0417 61.5334C88.1503 60.9198 88.3083 60.3061 88.5156 59.6826C88.7229 59.059 89.0585 58.4849 89.5324 57.9406C90.0062 57.3962 90.6677 56.9211 91.5068 56.5054C92.3459 56.0897 93.4515 55.7829 94.8237 55.5849C95.8405 55.4365 96.8574 55.4266 97.884 55.5354C98.9107 55.6542 99.8683 55.9017 100.757 56.2778C101.645 56.6539 102.435 57.1686 103.106 57.8218C103.778 58.4651 104.271 59.2471 104.577 60.1675L106.749 59.9894C107.114 59.9498 107.46 60.0092 107.795 60.1378C108.131 60.2764 108.329 60.4843 108.398 60.7614L108.743 62.1273L104.913 62.444C104.873 63.3447 104.636 64.1464 104.222 64.8491C103.797 65.5518 103.314 66.1655 102.771 66.6901L100.411 66.0863C100.056 65.9972 99.7893 65.8884 99.6018 65.7696C99.4241 65.6508 99.3056 65.4925 99.2562 65.3044C99.2266 65.1856 99.2365 65.0372 99.2957 64.859C99.355 64.6809 99.4241 64.4829 99.5129 64.2751C99.6018 64.0672 99.6906 63.8396 99.7794 63.5921C99.8683 63.3546 99.9473 63.0972 99.9966 62.83L93.0665 63.3942L93.0468 63.4437ZM99.5721 60.603C99.3944 60.2467 99.1773 59.9597 98.9403 59.732C98.6935 59.5044 98.4369 59.3361 98.1506 59.2075C97.8643 59.0788 97.5681 59.0095 97.2522 58.9798C96.9363 58.9501 96.6106 58.96 96.2749 59.0095C95.5148 59.1184 94.9422 59.3559 94.5473 59.732C94.1524 60.1082 93.8563 60.5535 93.6589 61.0781L99.5721 60.5931L99.5721 60.603ZM81.1116 64.4235C81.7829 65.6904 83.1156 66.1853 85.09 65.8983C85.8304 65.7894 86.3832 65.5617 86.7386 65.2054C87.094 64.8491 87.3606 64.4136 87.5383 63.889L81.1116 64.4235Z" fill="white"/>
</g>
<path d="M63.0463 80.0442L63.467 84.9695" stroke="#ECECEC" stroke-opacity="0.53" stroke-width="1.5" stroke-linecap="round" stroke-linejoin="round"/>
<path d="M74.8036 85.0865L75.2892 90.7707" stroke="#ECECEC" stroke-opacity="0.53" stroke-width="1.5" stroke-linecap="round" stroke-linejoin="round"/>
<path d="M110.691 82.0208L111.177 87.7049" stroke="#ECECEC" stroke-opacity="0.53" stroke-width="1.5" stroke-linecap="round" stroke-linejoin="round"/>
<path d="M120.556 71.6224L121.042 77.3142" stroke="#ECECEC" stroke-opacity="0.53" stroke-width="1.5" stroke-linecap="round" stroke-linejoin="round"/>
<path d="M86.2999 86.994L86.7855 92.6782" stroke="#ECECEC" stroke-opacity="0.53" stroke-width="1.5" stroke-linecap="round" stroke-linejoin="round"/>
<path d="M98.5029 85.9515L98.9885 91.6357" stroke="#ECECEC" stroke-opacity="0.53" stroke-width="1.5" stroke-linecap="round" stroke-linejoin="round"/>
<path d="M91.1475 76.8561C105.932 75.5931 117.353 67.9606 116.657 59.8085C115.96 51.6564 103.41 46.0717 88.6256 47.3348C73.8408 48.5978 62.4199 56.2303 63.1163 64.3824C63.8127 72.5345 76.3628 78.1192 91.1475 76.8561Z" stroke="#ECECEC" stroke-width="1.5" stroke-linecap="round" stroke-linejoin="round"/>
<path d="M88.1125 41.3243C69.5809 42.9074 55.3538 53.4872 56.334 64.9619L57.4601 78.144C58.4398 89.6111 74.2559 97.632 92.7875 96.0489C111.319 94.4658 125.546 83.8859 124.566 72.4113L123.44 59.2292C122.467 47.7539 106.651 39.7406 88.1125 41.3243Z" stroke="#4A4A4A" stroke-width="1.5" stroke-linecap="round" stroke-linejoin="round"/>
<path d="M70.6581 92.7195L69.6598 79.4674L72.631 75.4505C72.9915 74.9632 73.6432 74.7935 74.1956 75.0432C74.748 75.2929 75.3997 75.1232 75.7602 74.6358L93.5196 50.6257C94.0016 49.9741 94.1549 49.1361 93.9351 48.3561C93.7152 47.576 93.8686 46.738 94.3505 46.0864L98.0727 41.0541C97.7747 40.9928 93.6501 41.2616 79.5355 42.8278C65.4209 44.394 58.491 55.2677 56.7903 60.5088L56.8813 75.9038L61.5609 87.1184L70.6581 92.7195Z" fill="#4A4A4A" fill-opacity="0.02"/>
<path d="M80.492 94.7448L79.4937 81.4927L82.4649 77.4758C82.8253 76.9885 83.4771 76.8188 84.0295 77.0685C84.5818 77.3182 85.2336 77.1485 85.5941 76.6611L103.353 52.651C103.835 51.9994 103.989 51.1614 103.769 50.3814C103.549 49.6013 103.702 48.7633 104.184 48.1117L107.906 43.08C107.904 43.0791 107.904 43.0789 107.907 43.0794L107.906 43.08C108.027 43.1272 115.155 45.2419 116.294 47.6025L112.77 53.4L113.651 55.9111L99.9774 75.5581L96.8871 76.2219L91.9306 82.1903L93.7543 96.0784L80.492 94.7448Z" fill="#4A4A4A" fill-opacity="0.02"/>
<path d="M136.45 32.1435L137.9 37.9335C138.41 39.9635 140 41.5535 142.03 42.0635L147.82 43.5135C148.81 43.7635 148.81 45.1635 147.82 45.4135L142.03 46.8635C140 47.3735 138.41 48.9635 137.9 50.9935L136.45 56.7835C136.2 57.7735 134.8 57.7735 134.55 56.7835L133.1 50.9935C132.59 48.9635 131 47.3735 128.97 46.8635L123.18 45.4135C122.19 45.1635 122.19 43.7635 123.18 43.5135L128.97 42.0635C131 41.5535 132.59 39.9635 133.1 37.9335L134.55 32.1435C134.8 31.1535 136.2 31.1535 136.45 32.1435V32.1435Z" fill="#FF0083"/>
<path d="M88.9466 8.7989L89.7236 11.9017C89.9969 12.9895 90.849 13.8416 91.9368 14.1149L95.0396 14.8919C95.5701 15.0259 95.5701 15.7761 95.0396 15.9101L91.9368 16.6871C90.849 16.9604 89.9969 17.8125 89.7236 18.9003L88.9466 22.0031C88.8126 22.5336 88.0624 22.5336 87.9284 22.0031L87.1514 18.9003C86.8781 17.8125 86.026 16.9604 84.9382 16.6871L81.8354 15.9101C81.3049 15.7761 81.3049 15.0259 81.8354 14.8919L84.9382 14.1149C86.026 13.8416 86.8781 12.9895 87.1514 11.9017L87.9284 8.7989C88.0624 8.26837 88.8126 8.26837 88.9466 8.7989V8.7989Z" fill="#FF0083" fill-opacity="0.25"/>
<path d="M42.7011 33.9978L43.8667 38.652C44.2766 40.2838 45.5547 41.5619 47.1865 41.9718L51.8407 43.1374C52.6364 43.3383 52.6364 44.4637 51.8407 44.6646L47.1865 45.8302C45.5547 46.2401 44.2766 47.5182 43.8667 49.15L42.7011 53.8042C42.5002 54.5999 41.3748 54.5999 41.1739 53.8042L40.0083 49.15C39.5984 47.5182 38.3203 46.2401 36.6885 45.8302L32.0343 44.6646C31.2386 44.4637 31.2386 43.3383 32.0343 43.1374L36.6885 41.9718C38.3203 41.5619 39.5984 40.2838 40.0083 38.652L41.1739 33.9978C41.3748 33.2021 42.5002 33.2021 42.7011 33.9978V33.9978Z" fill="#FF0083" fill-opacity="0.55"/>
<circle cx="74.5" cy="32.5001" r="2.5" fill="#FF0083" fill-opacity="0.53"/>
<circle cx="59" cy="19.0001" r="2" fill="#FF0083" fill-opacity="0.11"/>
<circle cx="114" cy="25.0001" r="3" fill="#FF0083" fill-opacity="0.11"/>
<defs>
<clipPath id="clip0_2473_2470">
<rect width="37.47" height="14.12" fill="white" transform="translate(71.7432 55.4624)"/>
</clipPath>
</defs>
</svg>