<svg xmlns="http://www.w3.org/2000/svg" width="1132" height="474" viewBox="0 0 1132 474" fill="none">
<path opacity="0.04" fill-rule="evenodd" clip-rule="evenodd" d="M358.701 277.883C366.38 295.207 353.08 308.934 343.58 305.884C267.864 281.566 180.673 255.5 106.227 229.511C106.227 229.511 -6.65153 200.263 40.494 146.442C87.6368 92.6211 308.523 206.01 308.523 206.01L358.701 277.883Z" fill="#494949"/>
<path fill-rule="evenodd" clip-rule="evenodd" d="M272.712 190.985L310.039 209.666L351.115 276.269C353.078 279.861 358.312 281.006 358.962 285.014C359.65 289.262 360.871 291.04 359.128 294.989C357.366 298.978 352.401 302.884 348.259 301.829C316.457 293.758 189.61 252.377 118.452 227.334" fill="#E7E7E7"/>
<path opacity="0.04" fill-rule="evenodd" clip-rule="evenodd" d="M129.268 258.676L131.085 257.475C132.589 256.482 134.514 256.128 136.234 256.532L138.439 257.049C140.975 257.642 142.472 259.727 141.989 261.994C141.695 263.394 140.676 264.665 139.212 265.458L136.353 267.015C134.407 268.073 132.001 268.111 130.233 267.115L129.153 266.508C128.143 265.94 127.428 265.079 127.122 264.073L127.044 263.809C126.486 261.969 127.371 259.93 129.268 258.676" fill="#494949"/>
<path fill-rule="evenodd" clip-rule="evenodd" d="M125.676 256.632L127.155 255.516C128.378 254.592 129.98 254.32 131.443 254.787L133.316 255.384C135.474 256.075 136.813 258.196 136.5 260.421C136.305 261.796 135.5 263.013 134.304 263.742L131.962 265.169C130.369 266.139 128.349 266.083 126.822 265.027L125.892 264.381C125.021 263.78 124.384 262.899 124.088 261.889L124.009 261.625C123.469 259.785 124.131 257.798 125.676 256.632" fill="#E6E6E6"/>
<path fill-rule="evenodd" clip-rule="evenodd" d="M125.676 256.632L127.155 255.516C128.378 254.592 129.98 254.32 131.443 254.787L133.316 255.384C135.474 256.075 136.813 258.196 136.5 260.421C136.305 261.796 135.5 263.013 134.304 263.742L131.962 265.169C130.369 266.139 128.349 266.083 126.822 265.027L125.892 264.381C125.021 263.78 124.384 262.899 124.088 261.889L124.009 261.625C123.469 259.785 124.131 257.798 125.676 256.632Z" stroke="#494949" stroke-width="2" stroke-linecap="round" stroke-linejoin="round"/>
<path opacity="0.04" fill-rule="evenodd" clip-rule="evenodd" d="M79.1387 256.048L81.8337 254.268C84.0645 252.795 86.9173 252.272 89.4688 252.87L92.7347 253.637C96.4981 254.518 98.7179 257.609 98.003 260.968C97.5618 263.044 96.0528 264.929 93.8875 266.108L89.6442 268.414C86.7576 269.981 83.1929 270.039 80.5685 268.562L78.9661 267.663C77.4713 266.82 76.4076 265.545 75.9566 264.051L75.8367 263.659C75.0111 260.934 76.3237 257.908 79.1387 256.048" fill="#494949"/>
<path fill-rule="evenodd" clip-rule="evenodd" d="M72.6805 254.073L74.8726 252.418C76.6883 251.046 79.0643 250.641 81.2321 251.335L84.0091 252.222C87.2077 253.245 89.1963 256.393 88.7294 259.691C88.4407 261.729 87.2465 263.536 85.4741 264.615L82.0006 266.73C79.6391 268.17 76.6445 268.088 74.3797 266.52L72.9964 265.565C71.7067 264.672 70.7647 263.367 70.3253 261.868L70.2082 261.478C69.4063 258.747 70.3878 255.804 72.6805 254.073" fill="#E6E6E6"/>
<path fill-rule="evenodd" clip-rule="evenodd" d="M72.6805 254.073L74.8726 252.418C76.6883 251.046 79.0643 250.641 81.2321 251.335L84.0091 252.222C87.2077 253.245 89.1963 256.393 88.7294 259.691C88.4407 261.729 87.2465 263.536 85.4741 264.615L82.0006 266.73C79.6391 268.17 76.6445 268.088 74.3797 266.52L72.9964 265.565C71.7067 264.672 70.7647 263.367 70.3253 261.868L70.2082 261.478C69.4063 258.747 70.3878 255.804 72.6805 254.073Z" stroke="#494949" stroke-width="2" stroke-linecap="round" stroke-linejoin="round"/>
<mask id="mask0_2473_2099" style="mask-type:luminance" maskUnits="userSpaceOnUse" x="23" y="19" width="283" height="213">
<path fill-rule="evenodd" clip-rule="evenodd" d="M214.046 20.5701C198.895 26.4689 180.077 35.0173 160.084 44.8576V44.8576C153.186 48.253 145.321 50.5366 138.248 54.1863V54.1863C131.747 57.5407 126.047 62.2448 119.565 65.7199V65.7199C106.025 72.9842 92.7026 80.4213 80.317 87.6437V87.6437C76.4069 89.9209 72.4416 91.8354 68.7464 94.0582V94.0582C66.2811 95.5413 64.0212 97.3505 61.6649 98.7987V98.7987C54.2988 103.328 47.5049 107.672 41.4912 111.724V111.724C31.5462 118.418 23.495 131.063 23.7753 144.381V144.381C24.2513 167.024 40.4227 192.134 58.6528 199.76V199.76C58.6528 199.76 77.2022 211.255 133.431 231.402V231.402L305.666 179.73L294.777 155.783L272.86 116.502L253.938 84.3603C257.928 70.4419 250.325 25.6804 223.047 19.713V19.713C221.126 19.2929 219.146 19.304 217.218 19.6607V19.6607C216.137 19.8607 215.072 20.17 214.046 20.5701" fill="white"/>
</mask>
<g mask="url(#mask0_2473_2099)">
<path fill-rule="evenodd" clip-rule="evenodd" d="M225.231 6.05307C233.038 8.73495 245.19 8.11784 267.706 68.3413C231.096 98.8964 79.7575 180.025 79.7575 180.025C53.054 169.935 -2.04394 137.192 11.3832 111.994C11.3832 111.994 161.217 -15.9419 225.231 6.05307" fill="#ECECEC"/>
</g>
<mask id="mask1_2473_2099" style="mask-type:luminance" maskUnits="userSpaceOnUse" x="22" y="20" width="233" height="161">
<path fill-rule="evenodd" clip-rule="evenodd" d="M213.108 21.2583C197.944 27.1648 179.111 35.7247 159.102 45.5785V45.5785C152.198 48.9786 144.327 51.2649 137.248 54.9197V54.9197C130.742 58.2788 125.037 62.99 118.55 66.47V66.47C104.999 73.7445 91.6663 81.1921 79.2708 88.4248V88.4248C75.3577 90.7053 71.3892 92.6225 67.691 94.8484V94.8484C65.2238 96.3336 62.9621 98.1455 60.6039 99.5958V99.5958C53.2321 104.132 46.4328 108.482 40.4144 112.54V112.54C30.4617 119.244 22.4054 131.909 22.688 145.249V145.249C22.6992 145.71 22.7142 146.175 22.7379 146.64V146.64C38.4512 161.76 63.3105 175.132 78.7236 180.962V180.962C78.7236 180.962 203.553 114.003 253.975 78.7643V78.7643C254.872 60.8055 246.071 25.6503 222.116 20.4011V20.4011C220.194 19.98 218.209 19.9914 216.282 20.3478V20.3478C215.2 20.548 214.135 20.8577 213.108 21.2583" fill="white"/>
</mask>
<g mask="url(#mask1_2473_2099)">
<path opacity="0.04" fill-rule="evenodd" clip-rule="evenodd" d="M245.229 38.0568C245.229 38.0568 259.712 68.4873 246.115 73.0159C232.517 77.5445 72.7638 154.739 72.7638 154.739L50.5816 210.741L320.566 112.399L245.229 38.0568" fill="#494949"/>
</g>
<mask id="mask2_2473_2099" style="mask-type:luminance" maskUnits="userSpaceOnUse" x="23" y="19" width="283" height="213">
<path fill-rule="evenodd" clip-rule="evenodd" d="M214.048 20.5694C198.897 26.4682 180.079 35.0166 160.086 44.8568C153.188 48.2522 145.323 50.5358 138.25 54.1856C131.749 57.54 126.049 62.2441 119.567 65.7192C106.027 72.9835 92.7045 80.4206 80.3189 87.6429C76.4088 89.9202 72.4435 91.8347 68.7483 94.0574C66.283 95.5406 64.0231 97.3498 61.6668 98.7979C54.3007 103.328 47.5068 107.672 41.4931 111.723C31.5481 118.417 23.497 131.062 23.7772 144.38C24.2532 167.024 35.5735 190.609 58.6547 199.76C58.6547 199.76 77.2041 211.255 133.433 231.401L305.668 179.729L294.779 155.783L272.862 116.502L253.94 84.3596C257.93 70.4411 250.327 25.6797 223.049 19.7123C221.128 19.2921 219.148 19.3033 217.22 19.6599C216.138 19.86 215.074 20.1693 214.048 20.5694Z" fill="white"/>
</mask>
<g mask="url(#mask2_2473_2099)">
<path fill-rule="evenodd" clip-rule="evenodd" d="M75.9474 136.985C90.5104 177.836 69.528 186.134 158.873 214.649C247.039 242.79 368.273 288.123 368.273 288.123L368.444 317.036C368.444 317.036 198.568 257.491 112.583 224.94C95.3075 218.4 58.6616 199.761 58.6616 199.761C43.1518 193.902 31.0615 180.065 24.5159 160.323C18.411 141.923 31.891 112.54 43.7255 113.728C52.2689 114.347 71.7609 125.245 75.9474 136.985Z" fill="#E7E7E7"/>
</g>
<path fill-rule="evenodd" clip-rule="evenodd" d="M356.041 275.6C359.28 287.747 357.409 286.268 356.851 286.11C349.378 283.995 335.661 278.587 332.22 277.421C325.69 275.207 313.413 268.762 306.87 266.598C300.159 264.382 286.13 262.086 279.372 260.012C266.022 255.916 251.751 248.193 238.332 244.332C236.71 243.864 233.562 246.05 231.792 245.525C230.165 245.042 229.931 241.854 228.11 241.309C225.2 240.439 222 239.482 218.375 238.412C216.355 237.816 213.394 243.069 211.086 242.398C208.58 241.67 206.701 235.01 203.798 234.183C197.966 232.52 191.274 230.645 183.478 228.512C172.331 223.719 155.975 217.538 139.885 212.269C133.883 210.304 136.585 222.153 126.867 222.153C113.91 220.534 118.613 204.442 109.051 198.669C101.317 194.001 85.8703 186.322 81.6537 182.988C78.9419 180.843 77.9339 177.945 80.7069 176.122C129.303 144.17 189.142 107.308 253.126 82.9613" fill="white"/>
<path d="M135.463 233.002C79.0823 212.911 50.3042 195.764 50.3042 195.764C31.8898 185.454 24.4465 168.285 23.9879 145.657C23.7167 132.351 26.6524 122.28 36.629 115.584C42.6636 111.531 54.6319 104.61 62.0203 100.079C64.3876 98.6297 66.6527 96.8207 69.1293 95.3363C72.8349 93.1159 76.8157 91.1965 80.7362 88.9185C93.1641 81.6923 106.534 74.2504 120.118 66.9848C126.621 63.5046 132.345 58.7992 138.865 55.4459C145.962 51.7936 153.852 49.506 160.773 46.1081C180.832 36.2547 199.713 27.7017 214.914 21.7961C217.785 20.6794 220.937 20.2797 223.942 20.9333C251.301 26.8798 258.895 71.6028 254.883 85.5146L272.367 115.13C273.346 116.788 274.132 118.552 274.709 120.388V120.388C275.605 123.24 277.002 125.909 278.832 128.272L279.835 129.566C281.478 131.687 282.867 133.993 283.974 136.437L287.798 144.882C289.038 147.62 290.599 150.202 292.448 152.572V152.572C294.668 155.416 296.47 158.563 297.801 161.917L300.712 169.25L306.696 180.784" stroke="#494949" stroke-width="2" stroke-linecap="round" stroke-linejoin="round"/>
<path d="M355.825 284.788C348.913 283.104 335.432 277.751 331.743 276.508C325.231 274.313 312.989 267.917 306.462 265.771C299.77 263.574 285.776 261.302 279.035 259.246C270.524 256.65 261.639 252.582 252.841 248.985C247.874 246.955 243.676 247.228 238.847 245.847C234.018 244.466 234.428 246.583 231.482 245.847C229.273 245.11 228.937 241.65 227.063 240.933C224.6 239.991 221.972 239.102 219.581 238.533C215.704 237.61 215.449 244.905 210.775 243.693C205.999 242.455 205.852 234.537 201.058 233.373C196.699 232.314 192.095 231.779 188.029 230.38C185.147 229.389 182.758 227.597 179.927 226.509C177.305 225.501 174.47 225.528 171.826 224.488C168.856 223.32 166.07 221.084 162.988 219.94C160.117 218.875 156.422 218.924 153.413 217.86C148.742 216.207 144.687 213.454 139.919 211.901C133.932 209.953 135.464 221.666 127.365 221.666C113.599 220.856 117.56 203.869 108.025 198.139C100.313 193.506 86.0523 186.155 81.8482 182.845C79.1445 180.715 78.1411 177.835 80.9087 176.021C83.4593 174.35 85.2867 172.019 87.8649 170.34C91.0344 168.275 94.9619 166.859 98.1759 164.787C99.9776 163.625 101.455 162.169 103.053 160.813C103.975 160.03 105.034 159.432 106.142 158.948L112.906 155.994M246.612 86.4435C240.714 88.683 234.26 89.5289 228.536 91.9185M222.249 96.3374C219.414 97.5635 216.6 98.0247 213.806 99.2834C210.837 100.621 207.892 102.758 204.968 104.13C201.999 105.523 199.054 106.151 196.13 107.577C193.435 108.892 190.759 111.001 188.101 112.341C183.994 114.53 165.605 125.04 161.515 127.27C156.612 129.945 151.439 131.91 146.626 134.635C141.039 137.798 135.833 141.729 130.472 144.946C127.619 146.659 124.509 147.641 121.744 149.365M222.249 96.3374C224.546 95.3442 226.211 92.889 228.536 91.9185M222.249 96.3374L228.536 91.9185M112.906 155.994C116.343 153.855 118.303 151.511 121.744 149.365M112.906 155.994L121.744 149.365" stroke="#494949" stroke-width="2" stroke-linecap="round" stroke-linejoin="round"/>
<path fill-rule="evenodd" clip-rule="evenodd" d="M222.124 186.413C226.673 199.077 232.272 199.041 230.848 202.056C228.756 206.477 207.242 214.11 202.985 209.078C202.076 208.004 200.013 203.414 195.372 195.167L194.652 194.256C193.783 193.152 192.343 192.741 191.016 193.187C185.219 195.141 177.144 195.497 171.932 194.336C162.864 192.314 157.358 187.521 155.784 178.426C154.034 165.133 172.439 148.527 203.659 151.313C225.269 153.24 236.248 160.514 240.726 170.702C242.902 177.606 239.43 183.367 228.663 185.264" fill="#F7F7F7"/>
<path fill-rule="evenodd" clip-rule="evenodd" d="M220.808 184.002C221.561 185.132 222.749 192.573 221.736 197.404C219.91 206.108 199.187 209.162 190.388 206.755C188.96 206.366 187.775 205.382 187.09 204.043L181.385 193.727C180.641 192.537 179.621 192.385 178.348 192.957C169.787 196.813 153.042 195.284 146.321 186.06C141.468 179.4 141.753 164.268 142.821 159.783C144.072 154.527 146.461 153.694 151.548 152.237C160.109 149.789 174.081 151.16 190.081 150.969C210.802 150.721 228.933 149.362 229.706 157.042C229.706 157.042 228.669 169.656 228.439 173.089C228.17 177.101 225.736 179.339 221.622 180.199C218.343 180.887 215.29 182.614 212.205 182.243" fill="#E0E0E0"/>
<path d="M228.994 157.386C229.514 164.411 228.729 169.882 228.438 173.09C228.169 177.102 225.735 179.339 221.621 180.2M142.375 172.416C142.798 177.499 143.942 182.798 146.32 186.061C153.041 195.285 169.786 196.814 178.347 192.958C179.62 192.386 180.64 192.538 181.384 193.728L187.089 204.043C187.774 205.382 188.959 206.367 190.387 206.756C199.186 209.162 219.556 205.979 221.382 197.275C221.758 195.483 221.881 193.538 221.855 191.714" stroke="#494949" stroke-width="2" stroke-linecap="round" stroke-linejoin="round"/>
<path fill-rule="evenodd" clip-rule="evenodd" d="M209.667 168.236C215.008 180.587 222.102 183.037 220.872 186.136C219.064 190.68 196.568 196.821 192.002 192.068C191.026 191.053 188.677 186.604 183.523 178.668L182.746 177.804C181.809 176.757 180.346 176.437 179.05 176.967C173.388 179.284 165.352 180.151 160.077 179.322C150.899 177.879 145.101 173.444 142.954 164.467C140.365 151.312 157.681 133.573 189.015 134.376C210.704 134.931 223.09 142.367 228.204 152.252C230.813 159.003 226.745 164.1 216.119 166.675" fill="white"/>
<path d="M146.183 171.818C149.215 176.005 153.874 178.347 160.077 179.322C165.352 180.151 173.388 179.284 179.05 176.967C180.346 176.438 181.809 176.757 182.746 177.804L183.523 178.668C188.677 186.604 191.026 191.054 192.002 192.068C195.888 196.113 212.757 192.269 218.813 188.233M142.365 172.537C141.603 163.64 142.563 159.427 143.424 157.159C146.954 145.599 163.243 133.716 189.015 134.376C210.704 134.931 223.006 143.415 228.12 153.299C230.729 160.051 226.745 164.101 216.119 166.675L211.975 167.678C210.769 167.97 210.115 169.282 210.657 170.398C215.088 179.521 219.903 182.63 220.964 184.989C221.527 186.241 222.083 188.495 221.848 191.422" stroke="#494949" stroke-width="2" stroke-linecap="round" stroke-linejoin="round"/>
<path d="M51.1039 117.63C49.4557 117.124 46.5632 115.526 40.9992 117.014" stroke="#494949" stroke-width="2" stroke-linecap="round" stroke-linejoin="round"/>
<path d="M80.2735 164.669C79.8201 157.433 77.8316 149.805 76.0169 144.877C72.2107 134.546 64.8602 125.753 57.0624 120.527" stroke="#494949" stroke-width="2" stroke-linecap="round" stroke-linejoin="round"/>
<path fill-rule="evenodd" clip-rule="evenodd" d="M57.2654 140.977C57.7677 143.276 56.9653 145.406 55.4682 145.732C53.9689 146.063 52.3438 144.465 51.842 142.169C51.3339 139.87 52.1392 137.741 53.6362 137.414C55.1328 137.084 56.7607 138.681 57.2654 140.977" fill="#494949" fill-opacity="0.04"/>
<path fill-rule="evenodd" clip-rule="evenodd" d="M59.4238 166.532C60.1095 169.647 59.0176 172.532 56.9859 172.978C54.9595 173.421 52.7565 171.26 52.0736 168.145C51.3879 165.03 52.4798 162.145 54.5086 161.699C56.5373 161.253 58.738 163.418 59.4238 166.532" fill="#494949" fill-opacity="0.04"/>
<path fill-rule="evenodd" clip-rule="evenodd" d="M43.1157 154.371C43.3968 155.643 42.9493 156.819 42.1225 157.001C41.2916 157.184 40.3928 156.302 40.1117 155.03C39.8306 153.758 40.2774 152.578 41.105 152.4C41.9398 152.216 42.8346 153.099 43.1157 154.371" fill="#494949" fill-opacity="0.04"/>
<path fill-rule="evenodd" clip-rule="evenodd" d="M300.627 190.861C290.986 191.526 283.224 194.091 279.056 197.017C271.346 202.436 267.645 216.414 286.997 222.821C297.547 226.312 307.789 226.996 316.387 226.143L319.814 225.796L313.777 213.65C310.522 214.511 305.871 214.706 301.028 213.102C294.658 210.995 295.877 206.395 298.412 204.612C300.263 203.313 304.266 202.23 309.032 202.606L300.627 190.861Z" fill="#F7F7F7"/>
<path fill-rule="evenodd" clip-rule="evenodd" d="M298.442 195.83L298.184 189.704L287.536 185.538L278.446 188.665C278.446 188.665 278.615 186.408 278.855 183.229C272.221 187.384 271.438 198.056 267.278 200.979C265.332 202.345 263.52 190.183 262.389 192.379C261.671 193.771 261.305 209.351 261.119 210.905C260.429 216.63 263.84 223.015 275.218 226.78C283.965 229.677 292.502 230.641 300.064 230.401C302.92 230.308 305.749 229.889 308.538 229.269L308.968 212.891" fill="#E0E0E0"/>
<path fill-rule="evenodd" clip-rule="evenodd" d="M289.783 177.96C280.143 178.625 272.381 181.19 268.212 184.115C260.502 189.534 256.801 203.513 276.153 209.919C286.703 213.411 296.946 214.095 305.543 213.242L308.97 212.894L302.933 200.749C299.678 201.609 295.027 201.804 290.185 200.201C283.814 198.094 285.033 193.494 287.569 191.711C289.419 190.412 293.422 189.329 298.189 189.704L289.783 177.96Z" fill="white"/>
<path d="M305.546 213.242C296.949 214.095 286.706 213.411 276.156 209.919C271.069 208.235 267.575 206.028 265.328 203.59M308.9 214.342C308.43 211.598 305.623 205.902 304.033 202.826C303.399 201.599 301.998 201.017 300.629 201.204C297.651 201.609 293.978 201.456 290.188 200.2C283.817 198.094 285.036 193.493 287.571 191.711C288.858 190.808 291.185 190.009 294.085 189.732M262.063 194.008C262.557 190.012 265.048 186.341 268.215 184.115C271.975 181.477 278.658 179.131 287.005 178.209C288.73 178.018 290.401 178.819 291.411 180.23L297.258 188.399C297.865 189.248 298.192 190.265 298.192 191.309L298.192 197.237" stroke="#494949" stroke-width="2" stroke-linecap="round" stroke-linejoin="round"/>
<path d="M262.384 192.378C261.667 193.771 260.632 206.072 261.115 210.904C261.654 214.701 262.888 218.665 270.696 223.981C273.611 225.966 276.921 227.303 280.355 228.102C289.217 230.163 297.788 230.929 306.644 229.159C307.313 229.025 307.852 228.545 308.014 227.881C308.468 226.013 309.248 221.611 308.892 214.341" stroke="#494949" stroke-width="2" stroke-linecap="round" stroke-linejoin="round"/>
<path d="M308.077 183.244L308.658 184.696C312.187 193.521 316.686 201.926 322.07 209.758V209.758L328.7 223.015L335.327 234.062L342.846 248.894L349.32 259.84L355.281 271.642C357.245 275.234 359.894 278.381 360.544 282.389C361.232 286.637 360.875 291.04 359.132 294.989C357.37 298.978 355.012 303.7 350.87 302.645C319.068 294.574 209.86 258.855 138.702 233.812" stroke="#494949" stroke-width="2" stroke-linecap="round" stroke-linejoin="round"/>
<path opacity="0.04" fill-rule="evenodd" clip-rule="evenodd" d="M513.113 225.635L515.041 225.021C516.638 224.513 518.444 224.69 519.875 225.496L521.708 226.527C523.817 227.713 524.619 229.972 523.609 231.89C522.984 233.076 521.75 233.957 520.244 234.299L517.295 234.961C515.287 235.416 513.134 234.833 511.81 233.482L511.003 232.659C510.25 231.89 509.828 230.929 509.817 229.946V229.689C509.791 227.895 511.099 226.281 513.118 225.64" fill="#494949"/>
<path fill-rule="evenodd" clip-rule="evenodd" d="M507.777 224.241L509.385 223.616C510.715 223.098 512.216 223.264 513.396 224.059L514.913 225.08C516.66 226.255 517.311 228.509 516.462 230.432C515.933 231.618 514.908 232.51 513.652 232.857L511.195 233.541C509.523 234.005 507.739 233.439 506.644 232.093L505.977 231.276C505.357 230.512 505.01 229.556 505.004 228.568V228.311C504.994 226.517 506.094 224.898 507.771 224.241" fill="#E6E6E6"/>
<path d="M507.777 224.241L509.385 223.616C510.715 223.098 512.216 223.264 513.396 224.059L514.913 225.08C516.66 226.255 517.311 228.509 516.462 230.432C515.933 231.618 514.908 232.51 513.652 232.857L511.195 233.541C509.523 234.005 507.739 233.439 506.644 232.093L505.977 231.276C505.357 230.512 505.01 229.556 505.004 228.568V228.311C504.994 226.517 506.094 224.898 507.771 224.241H507.777Z" stroke="#494949" stroke-width="2" stroke-linecap="round" stroke-linejoin="round"/>
<path opacity="0.04" fill-rule="evenodd" clip-rule="evenodd" d="M486.005 261.901L486.881 261.622C487.607 261.391 488.428 261.471 489.078 261.838L489.911 262.307C490.87 262.846 491.234 263.873 490.776 264.744C490.491 265.283 489.931 265.684 489.246 265.839L487.906 266.14C486.993 266.347 486.014 266.082 485.412 265.468L485.046 265.094C484.703 264.744 484.511 264.307 484.507 263.86V263.744C484.494 262.928 485.089 262.195 486.007 261.903" fill="#494949"/>
<path fill-rule="evenodd" clip-rule="evenodd" d="M483.577 261.267L484.308 260.983C484.912 260.748 485.595 260.823 486.131 261.185L486.821 261.649C487.615 262.183 487.911 263.207 487.525 264.081C487.285 264.62 486.818 265.026 486.248 265.184L485.131 265.495C484.371 265.706 483.56 265.448 483.062 264.837L482.759 264.465C482.477 264.118 482.319 263.683 482.317 263.234V263.118C482.312 262.302 482.812 261.566 483.575 261.267" fill="#E6E6E6"/>
<path d="M483.577 261.267L484.308 260.983C484.912 260.748 485.595 260.823 486.131 261.185L486.821 261.649C487.615 262.183 487.911 263.207 487.525 264.081C487.285 264.62 486.818 265.026 486.248 265.184L485.131 265.495C484.371 265.706 483.56 265.448 483.062 264.837L482.759 264.465C482.477 264.118 482.319 263.683 482.317 263.234V263.118C482.312 262.302 482.812 261.566 483.575 261.267H483.577Z" stroke="#494949" stroke-width="2" stroke-linecap="round" stroke-linejoin="round"/>
<path fill-rule="evenodd" clip-rule="evenodd" d="M694.228 207.523L694.26 225.194L690.754 223.714C690.754 223.714 497.841 134.919 447.369 111.951C433.247 105.742 421.034 67.8696 437.783 57.9832C598.356 -8.13339 696.684 5.64536 696.684 5.64536C696.684 5.64536 695.654 34.7041 696.684 62.1972C694.26 192.511 694.228 207.523 694.228 207.523Z" fill="white"/>
<path fill-rule="evenodd" clip-rule="evenodd" d="M694.228 207.523L694.26 225.194L690.754 223.714C690.754 223.714 497.841 134.919 447.369 111.951C433.247 105.742 421.034 67.8696 437.783 57.9832C598.356 -8.13339 696.684 5.64536 696.684 5.64536C696.684 5.64536 695.654 34.7041 696.684 62.1972C694.26 192.511 694.228 207.523 694.228 207.523Z" fill="white"/>
<path fill-rule="evenodd" clip-rule="evenodd" d="M463.452 130.083C454.359 125.783 450.767 124.69 445.019 121.912C430.897 115.318 418.684 66.9154 435.433 56.4071C596.006 -13.8485 696.683 4.11212 696.683 4.11212C696.683 4.11212 710.708 49.8447 692.082 71.3546C632.164 67.8804 492.392 88.6182 463.462 130.083H463.452Z" fill="#ECECEC"/>
<path fill-rule="evenodd" clip-rule="evenodd" d="M435.637 56.9111C418.888 66.7975 430.029 113.249 444.151 119.457C494.612 142.425 687.525 231.22 687.525 231.22L694.249 225.194L694.216 207.523C694.216 207.523 636.597 180.695 581.733 155.13C579.057 153.883 575.388 157.831 572.733 156.594C570.05 155.343 568.381 148.908 565.733 147.674C526.054 129.183 491.104 112.881 485.176 110.075C485.176 110.075 483.857 37.7924 435.637 56.9218V56.9111Z" fill="#E7E7E7"/>
<path d="M495.911 106.44C499.749 104.82 502.602 102.783 506.591 101.26C511.834 99.2553 518.268 97.797 523.747 95.9527C531.264 93.4329 537.933 90.602 545.868 88.4039C549.46 87.4067 554.157 86.9241 557.824 86.002C562.917 84.726 572.364 83.5143 577.607 82.3777" stroke="#494949" stroke-width="2" stroke-linecap="round" stroke-linejoin="round"/>
<path d="M636.067 207.319C575.14 179.987 478.581 136.646 445.019 121.376C430.897 115.168 416.968 61.018 444.065 51.4318C455.645 46.7996 461.972 44.2154 472.877 40.4088C479.01 38.275 489.948 34.6293 495.856 32.7421C499.566 31.5518 498.311 32.0344 501.936 30.9406C509.817 28.5495 522.395 24.7536 529.847 22.7806C540.763 19.8855 546.285 19.0169 556.246 16.9045C567.816 14.4383 583.643 10.8462 593.862 9.28064C602.815 7.90813 606.322 8.45499 614.203 7.64006C642.232 4.72347 668.181 3.36167 681.231 4.13371" stroke="#494949" stroke-width="2" stroke-linecap="round" stroke-linejoin="round"/>
<path d="M457.372 53.6941C455.399 53.0829 453.373 52.7183 451.303 52.6218" stroke="#494949" stroke-width="2" stroke-linecap="round" stroke-linejoin="round"/>
<path d="M690.155 205.636C686.863 204.103 681.695 200.639 675.111 197.583C669.17 194.827 662.083 192.608 654.18 188.941C647.114 185.659 639.393 180.995 631.265 177.221C627.223 175.344 623.084 176.486 618.87 174.535C614.42 172.465 609.895 167.291 605.327 165.168C602.432 163.828 599.526 163.538 596.599 162.187C593.221 160.611 589.822 157.963 586.434 156.386C581.201 153.952 576.979 158.59 571.81 156.189C567.704 154.269 567.618 147.299 563.608 145.433C557.228 142.463 545.987 138.629 540.015 135.841C535.79 133.868 531.683 130.877 527.748 129.043C523.545 127.081 518.534 126.277 514.749 124.508C509.881 122.234 506.399 119.06 502.388 117.173C496.695 114.503 491.966 113.334 488.46 111.672C486.487 110.739 485.254 108.734 485.296 106.547C485.693 82.5172 475.914 63.4628 462.661 56.0105" stroke="#494949" stroke-width="2" stroke-linecap="round" stroke-linejoin="round"/>
<path fill-rule="evenodd" clip-rule="evenodd" d="M749.983 263.443C751.09 298.692 400.815 342.74 434.69 369.923C501.019 423.146 620.573 456.443 755.921 452.185C960.417 445.748 1123.53 356.026 1120.25 251.777C1116.96 147.54 948.529 68.2527 744.033 74.6901C715.366 100.775 746.696 159.195 749.971 263.433" fill="#494949" fill-opacity="0.04"/>
<path fill-rule="evenodd" clip-rule="evenodd" d="M696.681 241.267L697.893 205.561C697.893 205.561 693.164 100.167 685.09 66.0896C681.54 59.0233 672.716 22.2656 684.94 4.98053C686.913 2.19261 695.491 4.28355 696.863 4.32644C699.844 4.4015 712.862 3.37212 717.719 3.53296C728.485 3.90826 738.671 5.98847 749.062 6.83557C834.898 13.8054 916.283 44.0865 962.295 71.4939C970.916 76.6301 980.867 83.1817 988.544 88.7897C996.597 94.6657 1002.25 101.657 1009.22 107.994C1026.43 123.66 1040.26 140.656 1050.34 158.606C1052.03 161.629 1055.11 169.21 1056.59 172.288C1059.08 177.445 1061.38 182.925 1063.26 188.211C1069.2 204.992 1070.39 217.592 1069.78 235.327C1068.98 258.467 1062.39 280.77 1050.68 301.572C1048.3 305.797 1046.78 310.225 1043.98 314.322C1040.82 318.954 1036.32 323.254 1032.64 327.704C1024.85 337.118 1015.93 346.115 1005.93 354.628C997.669 361.652 990.86 365.962 981.199 372.278C972.503 377.961 964.128 385.188 954.349 390.239C947.047 394.002 936.41 398.12 928.539 401.498C900.725 413.454 869.553 418.354 835.273 424.83C831.423 425.56 827.842 427.018 823.917 427.661C819.006 428.476 813.741 428.455 808.713 429.141C800.863 430.224 796.113 431.972 787.996 432.744C782.324 433.28 773.338 432.905 767.537 433.291C747.893 434.577 735.444 435.135 714.47 434.535C713.108 434.492 703.19 435.993 701.828 435.95C699.555 435.875 686.73 433.452 684.479 433.355C661.886 432.347 651.345 430.835 630.479 427.736C623.734 426.739 616.603 427.522 610.052 426.321C600.433 424.552 591.523 420.681 582.333 418.493C523.905 404.586 474.227 387.011 436.118 359.454C414.072 338.04 435.582 307.32 455.987 296.222C463 292.404 471.406 292.061 478.752 295.224L487.062 298.795L696.692 241.278L696.681 241.267Z" fill="#ECECEC"/>
<path opacity="0.04" fill-rule="evenodd" clip-rule="evenodd" d="M679.891 40.5162C739.467 40.2053 811.159 48.7084 884.524 77.9923C1070.17 152.087 994.047 266.177 971.84 278.186C949.633 290.196 689.263 137.804 689.263 137.804" fill="#494949"/>
<path d="M684.943 4.98061C687.152 3.73677 695.044 4.27291 696.405 4.3158C699.386 4.39086 712.425 3.35075 717.283 3.52232C728.07 3.89761 738.256 5.98855 748.657 6.83565C834.59 13.8162 916.072 44.1402 962.148 71.6119C970.779 76.7588 980.741 83.3211 988.418 88.9399C996.471 94.8267 1002.14 101.839 1009.11 108.187C1026.34 123.875 1040.19 140.913 1050.28 158.895C1051.98 161.93 1055.05 169.521 1056.54 172.599C1059.03 177.767 1061.33 183.257 1063.21 188.554C1069.16 205.368 1070.35 217.999 1069.73 235.756C1068.91 258.939 1062.33 281.285 1050.6 302.13C1048.22 306.365 1046.7 310.794 1043.89 314.901C1040.71 319.544 1036.22 323.843 1032.53 328.315C1024.74 337.751 1015.8 346.769 1005.79 355.293C997.533 362.338 990.713 366.649 981.03 372.986C972.324 378.68 963.938 385.928 954.138 390.989C946.836 394.764 936.177 398.881 928.296 402.27C900.438 414.247 869.246 419.158 834.922 425.645C831.062 426.375 827.48 427.833 823.556 428.487C818.634 429.302 813.369 429.28 808.34 429.977C800.48 431.06 795.73 432.819 787.602 433.591C781.919 434.127 772.923 433.763 767.122 434.138C747.456 435.425 734.986 435.993 713.991 435.382C712.629 435.339 702.689 436.851 701.327 436.797C699.054 436.722 686.219 434.299 683.956 434.192C661.342 433.173 650.78 431.672 629.892 428.562C623.147 427.554 616.006 428.348 609.444 427.136C599.815 425.367 590.893 421.485 581.693 419.298C523.19 405.369 473.458 387.751 435.317 360.14C413.239 338.684 434.781 307.899 455.218 296.779C462.242 292.951 470.659 292.608 478.015 295.771L486.336 299.353" stroke="#494949" stroke-width="2" stroke-linecap="round" stroke-linejoin="round"/>
<path fill-rule="evenodd" clip-rule="evenodd" d="M701.155 203.952C708.489 201.422 718.44 198.569 723.737 196.146C726.664 194.816 731.983 190.967 734.953 189.766C737.612 188.683 743.413 188.147 746.019 186.925C747.595 186.185 760.505 181.531 764.248 179.633C765.674 178.904 769.727 175.966 772.783 174.111C775.131 172.685 779.828 172.513 780.996 172.202C786.583 170.722 793.07 165.543 798.485 163.474C801.52 162.316 820.006 154.703 823.169 153.255C831.415 149.491 848.797 144.441 857.139 140.935C863.873 138.104 877.394 131.263 883.538 128.271" fill="white"/>
<path fill-rule="evenodd" clip-rule="evenodd" d="M684.62 71.6122C685.124 71.6015 689.37 71.1082 690.249 70.9689C691.461 70.7758 692.694 70.5507 692.994 70.5507C695.879 70.5507 698.71 70.0145 701.519 69.3497C703.717 68.8243 705.701 69.1138 707.599 69.6714C710.129 70.4005 712.713 70.9045 715.341 71.0117C731.285 71.6766 746.898 72.974 762.07 74.8612C764.118 75.1186 766.199 75.0542 768.236 74.7325C774.948 73.671 778.38 75.0542 783.366 77.2631C784.964 77.9708 786.658 78.4855 788.373 78.7857C861.953 91.6316 922.965 118.481 958.683 152.408C961.707 155.282 965.706 161.19 968.355 164.16C972.162 168.428 974.424 169.801 977.426 174.24C983.656 183.44 988.117 193.005 990.605 202.816C991.345 205.743 992.792 209.603 993.178 212.574C993.693 216.552 993.017 219.661 992.878 223.704C992.02 247.798 979.26 270.091 957.439 289.284C955.445 291.043 953.461 293.938 951.316 295.643C948.732 297.691 945.944 298.549 943.146 300.511C901.649 329.784 837.451 350.061 762.982 355.669C742.941 357.181 729.795 355.165 708.51 354.447C692.812 353.911 669.801 355.197 654.821 353.482C637.29 351.455 619.608 346.994 603.352 343.509C582.389 339.006 563.324 335.006 545.063 328.369C523.103 320.38 503.33 310.966 486.313 300.447L506.579 289.263C521.494 283.205 542.393 274.616 551.658 270.348C556.343 268.193 565.318 262.971 570.069 260.998C574.883 258.993 584.995 256.451 589.82 254.5C595.707 252.13 606.794 245.653 612.756 243.487C615.018 242.662 619.844 242.04 622.074 241.107C624.572 240.067 628.947 236.614 631.424 235.52C640.163 231.682 658.789 227.403 667.646 223.886C675.098 220.937 675.666 218.182 688.437 212.08C690.003 211.33 692.038 208.858 694 208" fill="white"/>
<path d="M831.502 88.3611C885.32 102.89 929.562 125.365 957.881 152.322C960.894 155.196 964.883 161.094 967.531 164.064C971.327 168.321 973.579 169.693 976.581 174.132C982.79 183.333 987.24 192.887 989.717 202.687C990.457 205.615 991.893 209.475 992.28 212.434C992.794 216.412 992.119 219.511 991.979 223.554C991.121 247.626 978.394 269.908 956.648 289.091C954.653 290.85 952.68 293.745 950.547 295.45C947.973 297.498 945.185 298.345 942.397 300.318C901.029 329.57 837.003 349.836 762.759 355.444C742.782 356.956 729.668 354.95 708.448 354.221C692.793 353.685 669.846 354.972 654.92 353.256C637.442 351.24 619.814 346.78 603.611 343.295C582.713 338.791 563.701 334.802 545.505 328.165C523.609 320.187 503.9 310.783 486.926 300.264L507.139 289.091C522.011 283.044 542.845 274.455 552.078 270.187C556.742 268.032 565.696 262.82 570.435 260.837C575.228 258.832 585.308 256.29 590.133 254.339C596.009 251.969 607.064 245.492 613.005 243.326C615.267 242.501 620.071 241.879 622.301 240.946C624.789 239.906 629.153 236.453 631.63 235.359C640.337 231.521 658.919 227.242 667.744 223.736C675.175 220.787 674.772 217.601 687.5 211.5C688.004 211.264 691.464 208.747 692 208.5" stroke="#494949" stroke-width="2" stroke-linecap="round" stroke-linejoin="round"/>
<path d="M684.094 9.26978C681.553 25.3432 683.461 54.4662 685.038 66.6687" stroke="#494949" stroke-width="2" stroke-linecap="round" stroke-linejoin="round"/>
<path fill-rule="evenodd" clip-rule="evenodd" d="M694.388 207.318L693.713 206.783Z" fill="white"/>
<path fill-rule="evenodd" clip-rule="evenodd" d="M758.64 254.413L746.663 246.8L733.163 235.166L715.492 224.111L694.389 207.319" fill="white"/>
<path fill-rule="evenodd" clip-rule="evenodd" d="M870.351 335.006L838.461 311.802L802.379 284.287" fill="white"/>
<path d="M870.35 335.006L859.263 325.87L847.575 318.439L838.461 310.729L827.406 303.374L815.954 293.562" stroke="#494949" stroke-width="2" stroke-linecap="round" stroke-linejoin="round"/>
<path d="M918.987 394.399C918.89 395.718 918.73 396.994 918.504 398.195" stroke="#494949" stroke-width="2" stroke-linecap="round" stroke-linejoin="round"/>
<path d="M887.538 337.601C905.723 344.742 917.207 368.279 918.87 386.818" stroke="#494949" stroke-width="2" stroke-linecap="round" stroke-linejoin="round"/>
<path fill-rule="evenodd" clip-rule="evenodd" d="M715.685 296.908C715.159 311.995 738.653 325.056 768.162 326.096C797.671 327.125 822.023 315.727 822.548 300.651C823.073 285.564 799.58 272.503 770.071 271.463C740.562 270.434 716.21 281.832 715.685 296.908Z" fill="#494949" fill-opacity="0.04"/>
<path fill-rule="evenodd" clip-rule="evenodd" d="M806.806 290.131C807.268 307.277 789.65 319.683 758.726 318.611C727.801 317.528 711.009 303.921 712.661 286.85C712.864 284.802 715.288 269.512 715.288 269.512C720.66 258.456 738.138 269.951 760.355 270.734C780.975 271.452 801.295 264.804 807.364 274.133C807.364 274.133 806.721 287.054 806.806 290.131Z" fill="#E0E0E0"/>
<path d="M806.806 290.131C807.268 307.277 789.65 319.683 758.726 318.611C727.801 317.528 711.009 303.921 712.661 286.85C712.864 284.802 715.288 269.512 715.288 269.512C720.66 258.456 738.138 269.951 760.355 270.734C780.975 271.452 801.295 264.804 807.364 274.133C807.364 274.133 806.721 287.054 806.806 290.131Z" stroke="#494949" stroke-width="2" stroke-linecap="round" stroke-linejoin="round"/>
<path fill-rule="evenodd" clip-rule="evenodd" d="M763.721 302.645C762.274 302.677 760.794 302.666 759.282 302.613C728.358 301.53 711.566 287.923 713.217 270.852C714.354 259.1 728.915 258.049 744.474 257.266V252.731C749.557 252.613 755.175 254.543 760.912 254.736C765.898 254.907 772.546 254.114 777.039 254.489L776.256 259.003C793.22 260.687 807.031 261.641 807.363 274.144C807.706 286.958 798.024 295.311 780.127 300.34" fill="#F7F7F7"/>
<path d="M763.721 302.645C762.274 302.677 760.794 302.666 759.282 302.613C728.358 301.53 711.566 287.923 713.217 270.852C714.354 259.1 728.915 258.049 744.474 257.266V252.731C749.557 252.613 755.175 254.543 760.912 254.736C765.898 254.907 772.546 254.114 777.039 254.489L776.256 259.003C793.22 260.687 807.031 261.641 807.363 274.144C807.706 286.958 798.024 295.311 780.127 300.34" stroke="#494949" stroke-width="2" stroke-linecap="round" stroke-linejoin="round"/>
<path fill-rule="evenodd" clip-rule="evenodd" d="M772.784 301.895C772.398 301.948 772.012 302.013 771.626 302.055L772.784 301.895Z" fill="white"/>
<path d="M772.784 301.895C772.398 301.948 772.012 302.013 771.626 302.055" stroke="#494949" stroke-width="2" stroke-linecap="round" stroke-linejoin="round"/>
<path fill-rule="evenodd" clip-rule="evenodd" d="M744.089 261.105C744.089 261.105 744.292 244.238 745.139 241.536C747.606 233.644 777.222 235.671 778.273 242.34C778.766 245.493 776.246 259.003 776.246 259.003L775.882 262.22" fill="#F7F7F7"/>
<path d="M744.165 257.256C744.283 252.109 744.561 243.412 745.151 241.536C747.617 233.644 777.234 235.671 778.284 242.34C778.778 245.493 776.258 259.003 776.258 259.003" stroke="#494949" stroke-width="2" stroke-linecap="round" stroke-linejoin="round"/>
<path fill-rule="evenodd" clip-rule="evenodd" d="M577.52 322.675C577.52 322.675 588.489 302.709 611.897 315.158C621.719 302.677 633.236 310.022 633.236 310.022" fill="white"/>
<path d="M617.442 320.895C617.442 320.895 625.773 305.712 643.573 315.18C651.047 305.69 659.797 311.277 659.797 311.277" stroke="#494949" stroke-width="2" stroke-linecap="round" stroke-linejoin="round"/>
<path fill-rule="evenodd" clip-rule="evenodd" d="M928.477 227.682C928.477 227.682 938.589 213.925 949.515 226.374L928.477 227.682Z" fill="white"/>
<path d="M931.694 224.422C935.533 221.312 942.352 218.214 949.526 226.374" stroke="#494949" stroke-width="2" stroke-linecap="round" stroke-linejoin="round"/>
<path d="M910.271 107.383C906.529 93.9582 911.579 63.9987 941.399 61.554" stroke="#494949" stroke-width="2" stroke-linecap="round" stroke-linejoin="round"/>
<path fill-rule="evenodd" clip-rule="evenodd" d="M689.37 107.898C689.348 115.404 688.319 130.33 689.241 137.782C689.498 139.894 690.635 144.033 690.785 146.157C690.967 148.633 690.388 153.598 690.421 156.086C690.603 168.782 693.5 204.5 693.5 204.5" fill="#ECECEC"/>
<path d="M835.252 149.105C839.509 147.336 843.295 145.738 844.571 145.149C852.795 141.385 870.123 136.335 878.444 132.839C885.156 130.019 898.635 123.178 904.768 120.186" stroke="#494949" stroke-width="2" stroke-linecap="round" stroke-linejoin="round"/>
<path d="M696.212 208.767L694.828 207.662C694.335 207.266 694.453 206.483 695.043 206.247L701.101 203.856C708.414 201.325 718.343 198.473 723.619 196.06C726.536 194.731 731.843 190.892 734.803 189.68C737.451 188.608 743.242 188.061 745.837 186.839C747.402 186.099 760.28 181.456 764.012 179.547C765.427 178.818 769.47 175.88 772.526 174.025C774.874 172.61 779.549 172.427 780.718 172.116C786.294 170.637 792.759 165.458 798.164 163.399C799.965 162.713 807.214 159.742 813.454 157.137" stroke="#494949" stroke-width="2" stroke-linecap="round" stroke-linejoin="round"/>
<path d="M738.193 239.498L733.164 235.166L715.493 224.111L696.5 209" stroke="#494949" stroke-width="2" stroke-linecap="round" stroke-linejoin="round"/>
<path d="M686.153 75.7295C686.153 78.3995 687.482 87.0206 687.879 95.9634C688.051 99.8021 687.171 103.909 687.375 107.994C688.029 121.14 688.791 134.115 689.241 137.782C689.498 139.895 690.635 144.034 690.785 146.157C690.967 148.634 690.388 153.598 690.421 156.086C690.571 166.691 692.282 194.971 693 204" stroke="#494949" stroke-width="2" stroke-linecap="round" stroke-linejoin="round"/>
<path opacity="0.04" fill-rule="evenodd" clip-rule="evenodd" d="M784.824 94.9876C784.545 103.062 796.812 110.042 812.231 110.578C827.65 111.115 840.378 105.013 840.657 96.9391C840.936 88.8649 828.669 81.8844 813.25 81.3482C797.83 80.8121 785.102 86.9133 784.824 94.9876Z" fill="#494949"/>
<path opacity="0.04" fill-rule="evenodd" clip-rule="evenodd" d="M888.324 255.904C888.045 263.978 900.312 270.959 915.731 271.495C931.15 272.031 943.878 265.93 944.157 257.856C944.436 249.781 932.169 242.801 916.75 242.265C901.33 241.729 888.602 247.83 888.324 255.904Z" fill="#494949"/>
<path fill-rule="evenodd" clip-rule="evenodd" d="M875.809 248.87C877.589 255.775 894.166 256.462 901.286 265.748C901.597 266.541 901.436 269.479 903.227 269.79C905.168 270.133 908.181 269.715 910.015 269.254C920.18 266.702 932.05 259.957 935.385 254.928C940.188 247.68 934.827 239.23 933.508 234.115C931.278 225.441 916.555 221.709 900.621 225.784C884.687 229.858 873.579 240.195 875.809 248.87Z" fill="#E0E0E0"/>
<path d="M908.17 268.535C918.7 268.021 932.039 259.936 935.385 254.918C938.923 248.902 934.645 237.472 933.508 234.105C931.278 225.43 916.555 221.698 900.621 225.773C884.687 229.848 873.579 240.184 875.809 248.859C877.589 255.765 889.041 256.451 896.161 265.737" stroke="#494949" stroke-width="2" stroke-linecap="round" stroke-linejoin="round"/>
<path fill-rule="evenodd" clip-rule="evenodd" d="M904.503 258.102C905.886 257.866 907.291 257.566 908.696 257.202C924.63 253.127 935.739 241.718 933.508 233.043C931.278 224.368 916.555 221.709 900.621 225.784C884.687 229.859 873.579 240.195 875.809 248.87C877.235 254.435 883.819 257.963 892.547 258.703" fill="#F7F7F7"/>
<path d="M935.75 241.493L933.498 234.115C931.268 225.441 916.545 221.709 900.611 225.784C884.677 229.858 873.569 240.195 875.799 248.87C877.225 254.435 883.809 257.963 892.537 258.703" stroke="#494949" stroke-width="2" stroke-linecap="round" stroke-linejoin="round"/>
<path d="M903.614 257.352C904.997 257.084 906.38 256.751 907.785 256.354C918.819 253.256 927.45 247.165 930.828 240.839" stroke="#494949" stroke-width="2" stroke-linecap="round" stroke-linejoin="round"/>
<path fill-rule="evenodd" clip-rule="evenodd" d="M894.82 242.929C895.581 245.889 900.599 247.154 906.025 245.771C911.451 244.388 915.246 240.86 914.485 237.9C913.724 234.941 908.706 233.676 903.28 235.059C897.854 236.442 894.069 239.97 894.83 242.929" fill="#E0E0E0"/>
<path d="M894.82 242.929C895.581 245.889 900.599 247.154 906.025 245.771C911.451 244.388 915.246 240.86 914.485 237.9C913.724 234.941 908.706 233.676 903.28 235.059C897.854 236.442 894.069 239.97 894.83 242.929H894.82Z" stroke="#494949" stroke-width="2" stroke-linecap="round" stroke-linejoin="round"/>
<path fill-rule="evenodd" clip-rule="evenodd" d="M902.67 270.23C901.083 263.86 892.891 255.625 882.211 255.979C875.563 245.117 865.419 241.461 849.549 249.288" fill="white"/>
<path d="M902.67 270.23C901.083 263.86 892.891 255.625 882.211 255.979C875.563 245.117 865.419 241.461 849.549 249.288" stroke="#494949" stroke-width="2" stroke-linecap="round" stroke-linejoin="round"/>
<path fill-rule="evenodd" clip-rule="evenodd" d="M628.219 240.914C627.897 250.2 642.008 258.231 659.744 258.842C677.479 259.453 692.116 252.441 692.448 243.155C692.77 233.869 678.659 225.837 660.923 225.226C643.188 224.604 628.551 231.628 628.219 240.914Z" fill="#494949" fill-opacity="0.04"/>
<path fill-rule="evenodd" clip-rule="evenodd" d="M653.75 252.677C638.073 251.433 625.903 243.509 626.589 234.974C626.696 233.665 626.396 222.964 627.05 221.795C630.685 215.329 642.92 220.702 656.205 221.752C669.802 222.825 681.65 217.839 683.881 225.001C684.224 226.095 683.462 238.319 683.366 239.456C682.83 246.211 674.423 251.326 663.175 252.548" fill="#E0E0E0"/>
<path d="M630.332 219.168C635.78 217.377 645.666 220.927 656.206 221.763C669.803 222.835 681.652 217.849 683.882 225.012C684.225 226.106 683.464 238.33 683.367 239.466C682.938 244.871 677.47 249.224 669.546 251.379C666.468 252.216 663.273 252.559 660.077 252.602L656.249 252.655C654.33 252.677 652.411 252.602 650.513 252.334C636.434 250.339 625.958 242.93 626.579 234.984C626.633 234.244 626.569 230.513 626.612 227.189" stroke="#494949" stroke-width="2" stroke-linecap="round" stroke-linejoin="round"/>
<path fill-rule="evenodd" clip-rule="evenodd" d="M654.201 239.499C638.524 238.265 626.354 230.331 627.04 221.795C627.715 213.26 640.979 207.341 656.656 208.585C672.333 209.818 684.492 217.753 683.817 226.288C683.281 233.043 674.874 238.158 663.626 239.381" fill="#F7F7F7"/>
<path d="M626.621 227.178V222.181C627.297 213.646 640.979 207.341 656.667 208.585C672.343 209.818 684.503 217.753 683.827 226.288C683.291 233.043 674.885 238.158 663.636 239.381" stroke="#494949" stroke-width="2" stroke-linecap="round" stroke-linejoin="round"/>
<path d="M654.203 239.499C643.426 238.652 634.301 234.63 629.883 229.43" stroke="#494949" stroke-width="2" stroke-linecap="round" stroke-linejoin="round"/>
<path fill-rule="evenodd" clip-rule="evenodd" d="M655.852 218.771C661.203 219.2 665.342 221.892 665.117 224.808C664.881 227.714 660.367 229.73 655.016 229.312C649.676 228.894 645.526 226.192 645.762 223.275" fill="#E0E0E0"/>
<path d="M655.852 218.771C661.203 219.2 665.342 221.892 665.117 224.808C664.881 227.714 660.367 229.73 655.016 229.312C649.676 228.894 645.526 226.192 645.762 223.275" stroke="#494949" stroke-width="2" stroke-linecap="round" stroke-linejoin="round"/>
<path fill-rule="evenodd" clip-rule="evenodd" d="M649.301 219.597C649.526 219.511 649.773 219.425 650.02 219.35L649.301 219.597Z" fill="#E0E0E0"/>
<path d="M649.301 219.597C649.526 219.511 649.773 219.425 650.02 219.35" stroke="#494949" stroke-width="2" stroke-linecap="round" stroke-linejoin="round"/>
<path fill-rule="evenodd" clip-rule="evenodd" d="M815.47 81.477C822.59 83.1069 825.721 73.8424 826.815 76.9735C827.254 78.2709 827.555 91.7709 827.329 93.0683C826.847 95.8563 825.067 98.4833 822.987 100.231C817.604 104.756 802.957 109.324 786.647 105.378C777.962 103.276 775.035 98.73 775.185 94.4194C775.228 93.2506 774.52 81.6057 774.959 80.512C775.656 78.8071 777.769 87.7606 779.131 86.624C784.513 82.099 799.118 77.7348 815.47 81.477Z" fill="#E0E0E0"/>
<path d="M815.47 81.477C822.59 83.1069 825.721 73.8424 826.815 76.9735C827.254 78.2709 827.555 91.7709 827.329 93.0683C826.847 95.8563 825.067 98.4833 822.987 100.231C817.604 104.756 802.957 109.324 786.647 105.378C777.962 103.276 775.035 98.73 775.185 94.4194C775.228 93.2506 774.52 81.6057 774.959 80.512C775.656 78.8071 777.769 87.7606 779.131 86.624C784.513 82.099 799.118 77.7348 815.47 81.477Z" stroke="#494949" stroke-width="2" stroke-linecap="round" stroke-linejoin="round"/>
<path fill-rule="evenodd" clip-rule="evenodd" d="M813.057 92.2426C806.023 94.3443 796.469 95.2021 786.282 92.7359C771.517 89.1652 773.383 78.5067 778.766 73.9817C784.148 69.4567 798.753 65.0926 815.105 68.8348C831.457 72.5663 828.005 83.0639 822.622 87.5889C821.817 88.2645 820.788 88.9507 819.587 89.6048" fill="#F7F7F7"/>
<path d="M813.057 92.2426C806.023 94.3443 796.469 95.2021 786.282 92.7359C771.517 89.1652 773.383 78.5067 778.766 73.9817C784.148 69.4567 798.753 65.0926 815.105 68.8348C831.457 72.5663 828.005 83.0639 822.622 87.5889C821.817 88.2645 820.788 88.9507 819.587 89.6048" stroke="#494949" stroke-width="2" stroke-linecap="round" stroke-linejoin="round"/>
<path fill-rule="evenodd" clip-rule="evenodd" d="M805.56 76.7483C810.943 77.9814 809.807 81.4341 808.037 82.9246C806.268 84.415 801.443 85.9162 796.081 84.6188C791.224 83.45 791.835 79.9329 793.605 78.4425C795.374 76.952 800.178 75.5151 805.56 76.7483Z" fill="#E0E0E0"/>
<path d="M805.56 76.7483C810.943 77.9814 809.807 81.4341 808.037 82.9246C806.268 84.415 801.443 85.9162 796.081 84.6188C791.224 83.45 791.835 79.9329 793.605 78.4425C795.374 76.952 800.178 75.5151 805.56 76.7483Z" stroke="#494949" stroke-width="2" stroke-linecap="round" stroke-linejoin="round"/>
<path opacity="0.04" fill-rule="evenodd" clip-rule="evenodd" d="M653.403 73.4458C678.837 81.7452 675.642 103.931 674.087 108.327C670.377 118.792 656.652 128.057 642.23 126.288C638.037 125.773 630.467 123.843 626.693 120.637C626.575 120.712 626.435 120.808 626.435 120.808L601.837 136.882C597.548 139.155 592.519 138.844 589.195 136.099L579.995 128.132C578.73 127.092 577.325 125.065 577.657 123.585L577.797 107.737L622.328 84.8977L638.455 76.5876" fill="#494949"/>
<path fill-rule="evenodd" clip-rule="evenodd" d="M655.345 88.2538C656.675 90.1303 660.685 95.556 660.685 97.8399C660.696 102.612 659.784 107.587 658.605 111.726C655.796 121.58 644.687 128.722 631.348 126.223C627.466 125.494 619.767 122.813 614.449 118.964C614.341 119.028 612.915 119.918 612.915 119.918L597.378 129.633C594.29 131.22 590.966 132.239 586.73 130.577C585.004 129.901 583.47 128.807 582.119 127.542L574.249 120.122C573.906 119.811 573.573 119.446 573.284 119.028C572.254 117.57 571.836 115.779 571.89 114.01L572.094 106.965C572.136 105.592 572.898 104.327 574.099 103.641L585.015 97.3896L585.143 78.4746" fill="#E0E0E0"/>
<path d="M583.952 97.3788L584.08 78.4639" stroke="#494949" stroke-width="2" stroke-linecap="round" stroke-linejoin="round"/>
<path fill-rule="evenodd" clip-rule="evenodd" d="M613.151 106.418L593.218 118.331C588.435 121.033 585.379 120.99 581.573 116.884C581.573 116.884 568.813 105.582 571.794 104.274L590.408 94.0869C592.178 93.1219 592.467 90.72 590.998 89.3475C588.628 87.1386 585.615 84.104 584.833 82.3133C578.796 68.3952 609.205 50.07 639.594 68.6418C673.113 89.133 659.795 114.953 636.259 113.978C632.056 113.806 627.981 112.487 624.292 110.493L620.046 108.198" fill="#F7F7F7"/>
<path d="M655.087 107.147C650.916 111.597 644.257 114.267 636.451 113.999C632.247 113.849 628.14 112.605 624.441 110.6L620.023 108.209L617.632 106.922C616.42 106.268 615.016 106.054 613.665 106.322C613.322 106.386 612.989 106.515 612.689 106.697L593.206 118.331C588.423 121.033 586.986 122.148 583.169 118.042C583.169 118.042 577.293 112.959 573.84 108.938" stroke="#494949" stroke-width="2" stroke-linecap="round" stroke-linejoin="round"/>
<path d="M659.613 96.7676C659.623 101.539 658.712 107.587 657.533 111.726C654.723 121.58 643.614 128.721 630.275 126.223C626.394 125.494 618.695 122.813 613.376 118.964C613.269 119.028 611.843 119.918 611.843 119.918L596.306 129.633C593.217 131.22 589.893 132.239 585.658 130.576C583.931 129.901 582.398 128.807 581.047 127.542L573.177 120.122C572.833 119.811 572.501 119.446 572.211 119.028C571.182 117.57 570.764 115.779 570.818 114.01L571.021 109.174C571.107 107.04 572.265 105.088 574.099 103.973L590.655 93.9582C592.295 93.0575 592.574 90.8272 591.202 89.5512C588.8 87.3209 585.626 84.1576 584.821 82.3133C578.785 68.3952 609.194 50.07 639.583 68.6418C654.359 77.6704 660.031 87.739 659.741 96.0921" stroke="#494949" stroke-width="2" stroke-linecap="round" stroke-linejoin="round"/>
<path fill-rule="evenodd" clip-rule="evenodd" d="M643.957 128.678C637.577 116.401 620.699 121.569 618.909 133.504L643.957 128.678Z" fill="white"/>
<path d="M643.957 128.678C637.577 116.401 620.699 121.569 618.909 133.504" stroke="#494949" stroke-width="2" stroke-linecap="round" stroke-linejoin="round"/>
<path opacity="0.04" fill-rule="evenodd" clip-rule="evenodd" d="M855.377 168.224L858.509 168.578L852.89 189.401L862.83 194.816C866.572 196.854 871.033 197.122 874.989 195.545L878.11 194.763C881.498 193.905 884.072 191.128 884.651 187.686L886.999 173.832C887.106 172.266 888.532 171.119 890.076 171.398C898.687 172.931 915.382 171.226 916.165 161.597C917.044 150.724 907.029 134.147 876.469 130.587C844.698 126.888 831.101 145.524 830.211 156.397C829.654 163.206 837.181 166.047 848.837 167.688" fill="#494949"/>
<path fill-rule="evenodd" clip-rule="evenodd" d="M836.312 174.078C822.426 172.792 817.729 169.339 817.172 164.02C816.979 162.144 818.491 147.786 818.491 147.786C822.973 137.557 837.063 136.066 863.43 138.2C891.33 140.463 902.589 141.932 904.444 152.976C904.444 152.976 903.297 165.993 903.19 167.355C902.6 174.625 896.445 179.772 880.479 177.274" fill="#E0E0E0"/>
<path d="M836.312 174.078C822.426 172.792 817.729 169.339 817.172 164.02C816.979 162.144 818.491 147.786 818.491 147.786C822.973 137.557 837.063 136.066 863.43 138.2C891.33 140.463 902.589 141.932 904.444 152.976C904.444 152.976 903.297 165.993 903.19 167.355C902.6 174.625 896.445 179.772 880.479 177.274" stroke="#494949" stroke-width="2" stroke-linecap="round" stroke-linejoin="round"/>
<path fill-rule="evenodd" clip-rule="evenodd" d="M843.625 159.635L846.756 159.989L841.137 180.812L856.985 189.444L874.088 182.614L875.257 165.232C875.364 163.667 876.79 162.519 878.334 162.798C886.945 164.331 903.64 162.627 904.423 152.998C905.302 142.125 895.287 125.547 864.727 121.987C832.955 118.288 819.359 136.924 818.469 147.797C817.911 154.606 825.439 157.447 837.094 159.088" fill="#F7F7F7"/>
<path d="M843.625 159.635L846.756 159.989L841.137 180.812L856.985 189.444L874.088 182.614L875.257 165.232C875.364 163.667 876.79 162.519 878.334 162.798C886.945 164.331 903.64 162.627 904.423 152.998C905.302 142.125 895.287 125.547 864.727 121.987C832.955 118.288 819.359 136.924 818.469 147.797C817.911 154.606 825.439 157.447 837.094 159.088" stroke="#494949" stroke-width="2" stroke-linecap="round" stroke-linejoin="round"/>
<path fill-rule="evenodd" clip-rule="evenodd" d="M853.178 178.678L844.492 177.971C842.787 177.831 841.286 179.097 841.147 180.802L840.439 188.479C840.267 190.645 841.844 192.886 843.967 193.358C850.454 194.805 861.777 195.234 868.576 195.245C871.149 195.245 873.272 193.283 873.487 190.731L874.162 183.471C874.302 181.767 873.026 180.276 871.321 180.137L861.734 179.354" fill="#E0E0E0"/>
<path d="M853.178 178.678L844.492 177.971C842.787 177.831 841.286 179.097 841.147 180.802L840.439 188.479C840.267 190.645 841.844 192.886 843.967 193.358C850.454 194.805 861.777 195.234 868.576 195.245C871.149 195.245 873.272 193.283 873.487 190.731L874.162 183.471C874.302 181.767 873.026 180.276 871.321 180.137L861.734 179.354" stroke="#494949" stroke-width="2" stroke-linecap="round" stroke-linejoin="round"/>
<path d="M649.985 71.5264C651.057 71.4514 652.129 71.3763 653.202 71.312C655.818 71.1404 658.392 70.5721 660.89 69.7679C662.777 69.1674 664.75 68.8243 666.948 69.3068C669.758 69.9287 672.599 70.4005 675.473 70.3362C675.773 70.3362 679.151 70.5292 680.373 70.7008L687.311 71.2155C688.147 71.119 689.949 71.0225 690.249 70.9689C691.461 70.7758 692.694 70.5507 692.994 70.5507C695.868 70.5507 698.698 70.0145 701.497 69.3497C703.684 68.8243 705.657 69.1138 707.555 69.6714C710.075 70.4005 712.659 70.9045 715.276 71.0117C731.167 71.6766 746.715 72.974 761.823 74.8505C763.882 75.1078 765.962 75.0542 768.01 74.7325C769.683 74.4645 771.152 74.3573 772.492 74.368" stroke="#494949" stroke-width="2" stroke-linecap="round" stroke-linejoin="round"/>
<path opacity="0.04" fill-rule="evenodd" clip-rule="evenodd" d="M706.1 176.245C709.306 176.909 712.888 177.21 716.716 177.102C731.953 176.631 745.249 169.575 746.418 161.319C747.587 153.073 736.178 146.768 720.941 147.229C715.225 147.4 709.789 148.505 705.157 150.253" fill="#494949"/>
<path fill-rule="evenodd" clip-rule="evenodd" d="M701.747 161.168L702.218 172.888C707.408 173.189 715.247 173.06 721.198 171.516C730.065 169.221 732.982 164.503 732.746 160.075C732.682 158.874 733.207 146.918 732.725 145.824C731.974 144.087 729.969 153.309 728.564 152.161C725.54 149.706 725.497 141.492 720.651 137.975C720.672 140.42 720.683 142.157 720.683 142.157L713.917 139.294L702.379 141.621L703.226 146.843" fill="#E0E0E0"/>
<path fill-rule="evenodd" clip-rule="evenodd" d="M701.747 161.168L702.218 172.888C707.408 173.189 715.247 173.06 721.198 171.516C730.065 169.221 732.982 164.503 732.746 160.075C732.682 158.874 733.207 146.918 732.725 145.824C731.974 144.087 729.969 153.309 728.564 152.161C725.54 149.706 725.497 141.492 720.651 137.975C720.672 140.42 720.683 142.157 720.683 142.157L713.917 139.294L702.379 141.621L703.226 146.843" fill="#E0E0E0"/>
<path d="M701.747 161.168L702.122 170.615C702.175 171.913 703.216 172.942 704.513 172.974C709.542 173.114 716.072 172.835 721.187 171.505C730.055 169.21 732.971 164.492 732.735 160.064C732.671 158.863 733.196 146.907 732.714 145.813C731.963 144.076 729.958 153.298 728.553 152.151C725.53 149.695 725.487 141.481 720.64 137.964C720.662 140.409 720.672 142.146 720.672 142.146L713.906 139.283L702.368 141.61L703.216 146.832" stroke="#494949" stroke-width="2" stroke-linecap="round" stroke-linejoin="round"/>
<path fill-rule="evenodd" clip-rule="evenodd" d="M705.693 141.514C709.649 141.685 712.233 142.929 713.574 144.023C715.418 145.524 716.104 149.105 711.15 150.392C709.585 150.8 706.872 151.057 704.695 151.003L701.747 159.935C707.29 160.407 714.861 160.236 721.348 158.552C736.424 154.638 734.322 143.744 728.725 139.198C726.291 137.225 722.077 135.316 716.726 134.115C716.147 133.986 715.568 133.879 714.979 133.772C711.161 133.107 707.783 132.914 704.728 132.871L702.519 141.128L705.703 141.514H705.693Z" fill="#F7F7F7"/>
<path d="M705.693 141.513C709.649 141.685 712.233 142.929 713.574 144.023C715.418 145.524 716.104 149.105 711.15 150.392C709.585 150.799 706.872 151.057 704.695 151.003L701.747 159.935C707.29 160.407 714.861 160.235 721.348 158.552C736.424 154.638 734.322 143.744 728.725 139.197C726.291 137.224 722.077 135.316 716.726 134.115C716.147 133.986 715.568 133.879 714.979 133.772C711.665 133.193 708.695 132.978 705.961 132.892C705.232 132.871 704.588 133.364 704.406 134.061L702.519 141.117L705.703 141.503L705.693 141.513Z" stroke="#494949" stroke-width="2" stroke-linecap="round" stroke-linejoin="round"/>
<path d="M770.68 135.005C770.68 135.005 780.341 131.702 786.925 137.364" stroke="#494949" stroke-width="2" stroke-linecap="round" stroke-linejoin="round"/>
<path d="M249.49 118.069L244.326 128.151H233.652L256.592 87.7285L274.667 121.943L249.49 118.069Z" fill="#4A4A4A" fill-opacity="0.05"/>
<rect x="236.931" y="94.0598" width="4.51227" height="32.714" fill="#F01E8A" stroke="#DC0073" stroke-width="2" stroke-linejoin="round"/>
<path d="M299.413 90.7705L238.749 98.5574C237.746 98.6867 236.931 97.9478 236.931 96.9132V52.0763C236.931 51.0418 237.746 50.0903 238.749 49.961L299.413 42.1834C300.417 42.0541 301.231 42.793 301.231 43.8276V88.6645C301.231 89.699 300.417 90.6505 299.413 90.7798V90.7705Z" fill="#FF2C98" stroke="#DC0073" stroke-width="2" stroke-linejoin="round"/>
<path fill-rule="evenodd" clip-rule="evenodd" d="M269.79 60.9461C271.069 58.954 273.832 56.6299 276.595 56.8477C278.894 57.0241 280.967 58.4974 281.864 60.5829C284.173 65.9574 281.42 71.5602 277.956 75.9283C276.234 78.0968 274.358 79.9332 272.914 81.2198C272.192 81.8631 271.574 82.3715 271.151 82.7139C270.935 82.8903 270.759 83.0148 270.646 83.1081C270.594 83.1496 270.553 83.1808 270.532 83.2015C270.502 83.1912 270.46 83.1808 270.409 83.16C270.285 83.1185 270.11 83.0459 269.883 82.9629C269.429 82.7865 268.79 82.5167 268.037 82.1536C266.522 81.4273 264.552 80.3275 262.707 78.8334C258.995 75.8245 255.912 71.3319 257.82 65.1481C258.562 62.741 260.511 60.5103 262.779 59.4727C265.501 58.2173 268.697 59.4105 269.78 60.9564L269.79 60.9461Z" fill="white"/>
<path d="M250.307 126.176C241.796 122.912 235.181 124.984 231.974 127.062C231.227 127.546 230.867 128.417 230.892 129.307L230.963 131.867C230.993 132.927 231.581 133.893 232.509 134.407L243.892 140.712C245.475 141.589 247.469 140.875 248.135 139.192L251.828 129.864C252.404 128.409 251.767 126.737 250.307 126.176Z" fill="white"/>
<path d="M248.816 126.732C241.643 123.147 235.782 124.695 232.454 126.732" stroke="#494949" stroke-width="2" stroke-linecap="round" stroke-linejoin="round"/>
</svg>