<svg xmlns="http://www.w3.org/2000/svg" width="180" height="180" viewBox="0 0 180 180" fill="none">
<path d="M30.1259 57.4931C27.8098 51.4443 29.0632 43.9113 36.7206 38.3985C37.4886 37.9394 38.3044 37.556 39.149 37.2601L39.9111 37.0428L88.2573 24.0763C90.477 23.5619 92.8095 23.7698 94.9004 24.6754C96.9914 25.581 98.7443 27.1235 99.8975 29.0982L149.996 121.735C150.207 122.136 150.389 122.54 150.542 122.967C154.391 132.168 148.178 140.36 140.847 142.916L91.479 155.814C88.4575 156.65 85.2464 156.4 82.3851 155.129C79.5228 153.849 77.2074 151.609 75.82 148.804L30.4975 58.491C30.3451 58.1746 30.2206 57.8354 30.1269 57.5031L30.1259 57.4931Z" fill="#E6E6E6"/>
<path d="M147.554 125.84C146.842 128.655 145.539 131.289 142.315 132.115L94.3026 145.802C92.057 146.258 89.7265 145.97 87.6484 144.993C85.5803 144.014 83.8801 142.396 82.8016 140.364L37.0865 46.7439C36.6135 45.9371 36.3405 45.0198 36.2973 44.0895C36.2431 43.1502 36.4208 42.2178 36.8075 41.3648C37.1942 40.5119 37.772 39.7604 38.4971 39.175C39.2322 38.5886 40.0858 38.1813 41.0011 37.9888L91.4962 24.103C91.4962 24.103 98.8098 26.5744 100.536 30.5518C102.028 34 137.634 98.5146 147.489 116.289C148.241 117.771 148.636 119.4 148.653 121.066C148.668 122.723 148.311 124.367 147.597 125.866L147.557 125.87L147.554 125.84Z" fill="white"/>
<path d="M41.7429 41.8741C40.8475 42.0645 40.0029 42.4609 39.2867 43.0353C38.5705 43.6098 38.0017 44.3504 37.6239 45.1923C37.2462 46.0343 37.0764 46.9458 37.1286 47.8652C37.1807 48.7846 37.4408 49.6731 37.9029 50.4709L83.0738 139.874C84.1374 141.858 85.8037 143.439 87.8301 144.402C89.8663 145.363 92.1451 145.636 94.3519 145.194L142.67 132.753C144.084 132.42 145.34 131.61 146.23 130.465" fill="white"/>
<path d="M147.865 127.657L147.855 127.556" stroke="#4A4A4A" stroke-width="2" stroke-linecap="round" stroke-linejoin="round"/>
<path d="M41.0378 40.5807C40.1311 40.7735 39.2759 41.1749 38.5508 41.7565C37.8256 42.3382 37.2496 43.0881 36.8671 43.9406C36.4846 44.7931 36.3127 45.7161 36.3655 46.647C36.4183 47.578 36.6817 48.4776 37.1495 49.2854L82.8876 139.811C83.9646 141.82 85.6519 143.421 87.7036 144.395C89.7655 145.369 92.0728 145.646 94.3073 145.198L143.233 132.6C144.664 132.263 145.935 131.443 146.837 130.284" stroke="#4A4A4A" stroke-width="2" stroke-linecap="round" stroke-linejoin="round"/>
<path d="M66.2608 70.4962C67.4674 68.111 65.9687 64.9244 62.9133 63.3787C59.8578 61.833 56.4027 62.5135 55.1961 64.8987C53.9894 67.2839 55.4881 70.4706 58.5436 72.0163C61.599 73.562 65.0541 72.8815 66.2608 70.4962Z" fill="#F4F4F4" stroke="#F4F4F4" stroke-miterlimit="10"/>
<path d="M73.5766 67.2297L106.846 58.7524" stroke="#F4F4F4" stroke-width="3" stroke-miterlimit="10" stroke-linecap="round"/>
<path d="M71.0149 62.4416L85.695 58.7058" stroke="#F4F4F4" stroke-width="3" stroke-miterlimit="10" stroke-linecap="round"/>
<g filter="url(#filter0_d_2345_4175)">
<path d="M75.4815 85.9792C76.9644 83.0479 75.1225 79.1316 71.3675 77.232C67.6125 75.3323 63.3663 76.1687 61.8833 79.1C60.4004 82.0314 62.2423 85.9477 65.9973 87.8473C69.7523 89.7469 73.9986 88.9106 75.4815 85.9792Z" fill="#FF0083"/>
<path d="M75.4815 85.9792C76.9644 83.0479 75.1225 79.1316 71.3675 77.232C67.6125 75.3323 63.3663 76.1687 61.8833 79.1C60.4004 82.0314 62.2423 85.9477 65.9973 87.8473C69.7523 89.7469 73.9986 88.9106 75.4815 85.9792Z" stroke="#FF0083" stroke-width="2"/>
</g>
<path d="M81.5204 82.08L114.8 73.6017" stroke="#DBDBDB" stroke-width="3" stroke-miterlimit="10" stroke-linecap="round"/>
<path d="M78.9587 77.292L93.6488 73.5552" stroke="#DBDBDB" stroke-width="3" stroke-miterlimit="10" stroke-linecap="round"/>
<path d="M82.1636 100.192C83.3703 97.8064 81.8715 94.6197 78.8161 93.074C75.7607 91.5283 72.3056 92.2088 71.0989 94.594C69.8922 96.9792 71.391 100.166 74.4464 101.712C77.5019 103.257 80.957 102.577 82.1636 100.192Z" fill="#F4F4F4" stroke="#F4F4F4" stroke-miterlimit="10"/>
<path d="M89.4741 96.9294L122.753 88.4511" stroke="#F4F4F4" stroke-width="3" stroke-miterlimit="10" stroke-linecap="round"/>
<path d="M86.9128 92.1416L101.603 88.4048" stroke="#F4F4F4" stroke-width="3" stroke-miterlimit="10" stroke-linecap="round"/>
<path d="M90.1197 115.034C91.3263 112.648 89.8276 109.462 86.7722 107.916C83.7167 106.37 80.2616 107.051 79.055 109.436C77.8483 111.821 79.347 115.008 82.4025 116.554C85.4579 118.099 88.913 117.419 90.1197 115.034Z" fill="#F4F4F4" stroke="#F4F4F4" stroke-miterlimit="10"/>
<path d="M97.4282 111.779L130.707 103.301" stroke="#F4F4F4" stroke-width="3" stroke-miterlimit="10" stroke-linecap="round"/>
<path d="M94.8665 106.991L109.557 103.254" stroke="#F4F4F4" stroke-width="3" stroke-miterlimit="10" stroke-linecap="round"/>
<path d="M70.236 80.4825L69.1932 84.7225L66.4543 83.5946" stroke="white" stroke-width="2.2" stroke-linecap="round" stroke-linejoin="round"/>
<path opacity="0.05" d="M38.0454 48.3861L143.473 112.421L145.509 113.583L125.102 72.3057L59.4472 33.7239L40.777 37.5589C39.8816 37.7494 39.0369 38.1458 38.3218 38.7302C37.6056 39.3046 37.0368 40.0452 36.669 40.8862C36.3012 41.7271 36.1314 42.6387 36.1736 43.559C36.2158 44.4794 36.4858 45.3669 36.9578 46.1637L38.0464 48.3961L38.0454 48.3861Z" fill="#4A4A4A"/>
<path opacity="0.05" d="M82.3421 139.098C83.4046 141.1 85.085 142.695 87.1374 143.654C89.1898 144.613 91.4888 144.899 93.7031 144.444L142.399 131.901C143.242 131.715 144.046 131.35 144.744 130.834C145.442 130.318 146.025 129.662 146.445 128.9L46.3091 67.5261L82.3431 139.109L82.3421 139.098Z" fill="#4A4A4A"/>
<path d="M35.4275 39.2319C36.5584 38.3847 37.8189 37.7254 39.16 37.2691L88.2623 24.1261C90.482 23.6117 92.8145 23.8196 94.9054 24.7252C96.9964 25.6308 98.7494 27.1733 99.9025 29.148L150.001 121.785C150.212 122.186 150.395 122.6 150.547 123.017C154.396 132.218 147.292 140.64 140.035 143.238L92.1357 155.748C84.5007 157.882 77.2321 153.456 75.0381 149.123L30.1359 59.7937C28.3781 56.3019 27.9465 52.305 28.923 48.5185C29.8994 44.7319 32.2015 41.4354 35.4275 39.2319Z" stroke="#4A4A4A" stroke-width="2" stroke-linecap="round" stroke-linejoin="round"/>
<path d="M69.609 35.3364L63.4345 37.0018" stroke="#4A4A4A" stroke-width="2" stroke-linecap="round" stroke-linejoin="round"/>
<defs>
<filter id="filter0_d_2345_4175" x="50.3618" y="69.2197" width="36.6411" height="34.6396" filterUnits="userSpaceOnUse" color-interpolation-filters="sRGB">
<feFlood flood-opacity="0" result="BackgroundImageFix"/>
<feColorMatrix in="SourceAlpha" type="matrix" values="0 0 0 0 0 0 0 0 0 0 0 0 0 0 0 0 0 0 127 0" result="hardAlpha"/>
<feOffset dy="4"/>
<feGaussianBlur stdDeviation="5"/>
<feComposite in2="hardAlpha" operator="out"/>
<feColorMatrix type="matrix" values="0 0 0 0 1 0 0 0 0 0 0 0 0 0 0.513726 0 0 0 0.2 0"/>
<feBlend mode="normal" in2="BackgroundImageFix" result="effect1_dropShadow_2345_4175"/>
<feBlend mode="normal" in="SourceGraphic" in2="effect1_dropShadow_2345_4175" result="shape"/>
</filter>
</defs>
</svg>