<svg xmlns="http://www.w3.org/2000/svg" width="96" height="96" viewBox="0 0 96 96" fill="none">
<path fill-rule="evenodd" clip-rule="evenodd" d="M47.9739 78.0911C47.9932 78.0822 48.0154 78.0822 48.0347 78.0909C48.0427 78.0946 48.0502 78.098 48.0572 78.1011C48.0941 78.1178 48.1358 78.0914 48.1366 78.0509C48.137 78.0292 48.1432 78.0128 48.1628 78.0037C51.9134 76.2552 88.6453 58.4047 78.2878 34.576C74.049 24.8241 57.9263 18.7446 48.2547 29.69C48.0476 29.9244 47.6706 29.9243 47.4635 29.6898C37.7927 18.7345 21.6638 24.8145 17.4241 34.5685C7.06895 58.3917 44.0329 76.2385 47.8237 77.9941C47.846 78.0044 47.8531 78.0231 47.8538 78.0476C47.855 78.0937 47.9025 78.1237 47.9445 78.1045C47.9536 78.1003 47.9634 78.0959 47.9739 78.0911Z" fill="#F7F7F7"/>
<path opacity="0.04" fill-rule="evenodd" clip-rule="evenodd" d="M20.5745 36.5192C11.2412 57.9914 46.8455 73.7882 46.8455 73.7882L46.8461 73.7801L46.8464 73.7905C46.8464 73.7905 82.2118 57.993 72.8785 36.5207C69.3335 28.365 56.0721 23.2121 47.7501 31.7349C39.1609 23.2099 24.1197 28.3631 20.5745 36.5192Z" fill="#4A4A4A"/>
<path d="M48.1353 78.144C48.1353 78.144 6.51387 59.6776 17.4245 34.5764M19.0614 31.7372C19.2003 31.5464 19.3439 31.3579 19.492 31.1719M47.778 30.0623C40.1495 20.992 28.2528 22.9357 21.5049 29.0355" stroke="#4A4A4A" stroke-width="2" stroke-linecap="round"/>
<path d="M48.1347 78.1403C48.1347 78.1403 89.4769 59.6729 78.5662 34.5718C74.2687 24.6847 57.7555 18.5726 48.1347 30.1509" stroke="#4A4A4A" stroke-width="2" stroke-linecap="round"/>
</svg>