<svg width="1979" height="551" viewBox="0 0 1979 551" fill="none" xmlns="http://www.w3.org/2000/svg">
<g clip-path="url(#clip0_11_2)">
<mask id="mask0_11_2" style="mask-type:luminance" maskUnits="userSpaceOnUse" x="0" y="0" width="1979" height="551">
<path d="M1979 0H0V551H1979V0Z" fill="white"/>
</mask>
<g mask="url(#mask0_11_2)">
<path d="M1465.03 526.13C1461.6 500.989 1493.29 492.792 1493.29 492.792C1493.29 492.792 1495 459.453 1545.53 447.427C1555.39 415.902 1576.68 402.635 1633.79 396.081C1673.61 346.23 1746.77 365.995 1746.77 365.995V525.693L1465.03 526.13Z" fill="#F7F7F7"/>
<path d="M1932.55 526.13C1935.48 500.989 1908.4 492.792 1908.4 492.792C1908.4 492.792 1906.93 459.453 1863.76 447.427C1855.33 415.902 1837.13 402.635 1788.33 396.081C1754.29 346.23 1691.77 365.995 1691.77 365.995V525.693L1932.55 526.13Z" fill="#F7F7F7"/>
<path d="M477.683 501.129C480.858 475.99 470.294 434.477 423.517 422.43C414.377 390.907 394.725 377.64 341.801 371.108C304.927 321.21 237.204 341.002 237.204 341.002V500.693L477.683 501.129Z" fill="#F7F7F7"/>
<path d="M46.723 501.129C43.548 475.99 54.112 434.477 100.889 422.43C110.029 390.907 129.681 377.64 182.605 371.108C219.479 321.21 287.202 341.002 287.202 341.002V500.693L46.723 501.129Z" fill="#F7F7F7"/>
<path d="M20 470.411H1999V550.411H20V470.411Z" fill="#F7F7F7"/>
<path d="M848.384 474.15C848.384 454.462 861.006 425.675 886.959 423.699C888.189 405.381 896.448 388.769 915.978 383.968C919.637 383.084 923.405 382.731 927.165 382.924C939.206 383.464 950.568 388.654 958.86 397.401C958.86 397.401 974.055 389.263 984.179 402.445C989.185 379.689 1016.9 356.766 1052.65 370.171C1069.86 338.99 1125.28 353.718 1132.99 370.516C1153.64 349.869 1227.14 340.621 1249.3 393.551C1259.39 392.712 1267.4 394.484 1273.68 397.401C1306.75 396.991 1328.47 420.352 1333.58 445.084C1346.55 444.543 1357.81 459.178 1357.81 471.716H1365.79" fill="#F7F7F7"/>
<path d="M477.377 472.602C477.377 452.914 489.999 424.127 515.96 422.161C517.191 403.833 525.451 387.231 544.98 382.42C548.639 381.536 552.407 381.183 556.167 381.376C568.207 381.917 579.569 387.107 587.861 395.854C587.861 395.854 603.066 387.715 613.189 400.897C618.195 378.151 645.91 355.219 681.66 368.624C698.868 337.452 754.288 352.18 761.997 368.978C782.646 348.321 856.149 339.074 878.299 392.003C888.395 391.164 896.402 392.936 902.694 395.863C935.76 395.453 957.48 418.804 962.589 443.536C975.565 443.004 986.826 457.631 986.826 470.178H994.815" fill="#F7F7F7"/>
<path d="M1436.14 471.026C1430.48 460.045 1410.68 456.632 1402.86 469.488C1399.89 463.344 1387.01 463.028 1381.3 471.715V480.888L1435.68 478.222L1436.14 471.026Z" fill="#F7F7F7"/>
<path d="M292.385 494.193L869.556 494.136M973.341 494.272L1190.68 494.193M1271.48 494.193H1535.35M1550.27 494.193H1719.73M1723.11 494.373H1727.68" stroke="#494949" stroke-width="2" stroke-linecap="round"/>
<path d="M1674.25 150.893C1674.25 119.663 1650.65 93.784 1619.81 89.112C1620.83 86.403 1621.38 83.479 1621.38 80.43C1621.38 66.365 1609.63 54.963 1595.13 54.963C1592.6 54.963 1590.16 55.316 1587.85 55.964C1587.87 55.041 1587.89 54.118 1587.89 53.198C1587.89 29.091 1567.75 9.549 1542.9 9.549C1531.35 9.549 1520.83 13.772 1512.86 20.708C1504.82 8.84099 1490.98 1 1475.25 1C1457.86 1 1442.79 10.572 1435.3 24.575C1426.75 20.628 1417.19 18.414 1407.1 18.414C1370.8 18.414 1341.38 46.961 1341.38 82.175C1341.38 92.224 1343.78 101.725 1348.05 110.18C1327.7 111.539 1311.62 127.972 1311.62 148.058C1311.62 161.611 1318.95 173.497 1329.96 180.219C1320.94 190.459 1315.48 203.739 1315.48 218.263C1315.48 242.939 1331.21 264.039 1353.46 272.684C1351.2 276.429 1349.9 280.785 1349.9 285.438C1349.9 299.421 1361.58 310.755 1375.99 310.755C1380.1 310.755 1383.98 309.833 1387.44 308.193C1389.9 337.659 1415.31 360.83 1446.32 360.83C1457.46 360.83 1467.87 357.837 1476.76 352.64C1483.96 353.67 1491.33 354.211 1498.83 354.211C1503.41 354.211 1507.93 354 1512.41 353.61C1520.66 357.859 1530.07 360.276 1540.06 360.276C1565.57 360.276 1587.31 344.594 1595.58 322.625C1596.36 322.66 1597.14 322.683 1597.93 322.683C1625.5 322.683 1647.86 300.992 1647.86 274.238C1647.86 267.025 1646.22 260.187 1643.31 254.036C1653.04 247.379 1659.4 236.398 1659.4 223.967C1659.4 214.689 1655.85 206.218 1650.01 199.748C1664.78 188.289 1674.25 170.669 1674.25 150.893Z" fill="white"/>
<path d="M1674.25 150.893C1674.25 119.663 1650.65 93.784 1619.81 89.112C1620.83 86.403 1621.38 83.479 1621.38 80.43C1621.38 66.365 1609.63 54.963 1595.13 54.963C1592.6 54.963 1590.16 55.316 1587.85 55.964C1587.87 55.041 1587.89 54.118 1587.89 53.198C1587.89 29.091 1567.75 9.549 1542.9 9.549C1531.35 9.549 1520.83 13.772 1512.86 20.708C1504.82 8.84099 1490.98 1 1475.25 1C1457.86 1 1442.79 10.572 1435.3 24.575C1426.75 20.628 1417.19 18.414 1407.1 18.414C1370.8 18.414 1341.38 46.961 1341.38 82.175C1341.38 92.224 1343.78 101.725 1348.05 110.18C1327.7 111.539 1311.62 127.972 1311.62 148.058C1311.62 161.611 1318.95 173.497 1329.96 180.219C1320.94 190.459 1315.48 203.739 1315.48 218.263C1315.48 242.939 1331.21 264.039 1353.46 272.684C1351.2 276.429 1349.9 280.785 1349.9 285.438C1349.9 299.421 1361.58 310.755 1375.99 310.755C1380.1 310.755 1383.98 309.833 1387.44 308.193C1389.9 337.659 1415.31 360.83 1446.32 360.83C1457.46 360.83 1467.87 357.837 1476.76 352.64C1483.96 353.67 1491.33 354.211 1498.83 354.211C1503.41 354.211 1507.93 354 1512.41 353.61C1520.66 357.859 1530.07 360.276 1540.06 360.276C1565.57 360.276 1587.31 344.594 1595.58 322.625C1596.36 322.66 1597.14 322.683 1597.93 322.683C1625.5 322.683 1647.86 300.992 1647.86 274.238C1647.86 267.025 1646.22 260.187 1643.31 254.036C1653.04 247.379 1659.4 236.398 1659.4 223.967C1659.4 214.689 1655.85 206.218 1650.01 199.748C1664.78 188.289 1674.25 170.669 1674.25 150.893Z" stroke="#4A494A" stroke-width="2" stroke-linecap="round" stroke-linejoin="round"/>
<g opacity="0.05">
<path d="M1650 200.543C1655.84 207.016 1659.39 215.49 1659.39 224.781C1659.39 237.21 1653.02 248.202 1643.29 254.862C1646.2 261.016 1647.84 267.855 1647.84 275.07C1647.84 301.835 1625.47 323.537 1597.87 323.537C1597.09 323.537 1596.31 323.518 1595.53 323.48C1587.24 345.454 1565.5 361.143 1539.97 361.143C1529.97 361.143 1520.56 358.728 1512.3 354.482C1507.82 354.868 1503.3 355.074 1498.71 355.074C1491.21 355.074 1483.84 354.539 1476.63 353.505C1467.74 358.71 1457.32 361.697 1446.17 361.697C1425.31 361.697 1406.97 351.222 1396.46 335.392C1406.12 346.055 1419.76 352.697 1434.86 352.697C1444.89 352.697 1454.26 349.766 1462.26 344.684C1468.75 345.689 1475.38 346.215 1482.13 346.215C1486.24 346.215 1490.32 346.008 1494.35 345.632C1501.77 349.785 1510.24 352.152 1519.24 352.152C1542.19 352.152 1561.77 336.811 1569.21 315.316C1569.91 315.354 1570.61 315.373 1571.32 315.373C1596.15 315.373 1616.27 294.16 1616.27 267.986C1616.27 262.325 1615.32 256.899 1613.59 251.87C1612.84 249.686 1613.49 247.294 1615.18 245.714C1622.22 239.12 1626.66 229.518 1626.66 218.815C1626.66 210.242 1623.81 202.38 1619.07 196.209C1618.59 195.584 1618.71 194.699 1619.3 194.176C1631.97 182.958 1640.02 166.139 1640.02 147.333C1640.02 118.079 1620.55 93.622 1594.52 87.589C1592.68 87.162 1591.58 85.317 1591.95 83.465C1592.27 81.831 1592.43 80.136 1592.43 78.404C1592.43 64.642 1581.85 53.49 1568.8 53.49C1566.54 53.49 1564.36 53.834 1562.28 54.459V51.762C1562.28 32.71 1550.45 16.57 1534.11 11.074C1536.93 10.538 1539.83 10.256 1542.81 10.256C1567.67 10.256 1587.83 29.816 1587.83 53.932V56.684C1590.13 56.042 1592.56 55.698 1595.08 55.698C1609.58 55.698 1621.34 67.103 1621.34 81.176C1621.34 84.229 1620.8 87.151 1619.78 89.856C1650.64 94.535 1674.25 120.426 1674.25 151.673C1674.25 171.458 1664.77 189.082 1650 200.543Z" fill="#4A494A"/>
</g>
<path d="M1433.74 509.051C1474.88 391.742 1478.28 139.325 1478.89 134.397C1493.63 133.188 1496.89 124.173 1504.19 127.634C1504.99 142.8 1507.65 391.742 1549.34 509.051" fill="#F7F7F7"/>
<path d="M1503.66 127.78C1504.73 187.804 1512.11 408.238 1549.34 509.05" stroke="#4A494A" stroke-width="2" stroke-linecap="round" stroke-linejoin="round"/>
<path d="M1475.69 207.017C1477.21 176.731 1478.96 151.219 1479.42 134.305" stroke="#4A494A" stroke-width="2" stroke-linecap="round" stroke-linejoin="round"/>
<path d="M1437.47 498.797C1459.77 426.161 1470.07 302.37 1474.76 214.475" stroke="#4A494A" stroke-width="2" stroke-linecap="round" stroke-linejoin="round"/>
<path d="M1433.74 509.05C1434.06 508.131 1434.37 507.199 1434.68 506.254" stroke="#4A494A" stroke-width="2" stroke-linecap="round" stroke-linejoin="round"/>
<path d="M1405.42 207.254C1406.03 207.268 1406.64 207.27 1407.26 207.258Z" fill="white"/>
<path d="M1405.42 207.254C1406.03 207.268 1406.64 207.27 1407.26 207.258" stroke="#4A494A" stroke-width="2" stroke-linecap="round" stroke-linejoin="round"/>
<path d="M1458.11 169.148C1464.54 158.568 1457.89 116.614 1418.63 131.803C1397.27 118.544 1373.44 140.634 1386.39 163.154C1367.12 179.392 1376.61 203.001 1400.15 206.756" fill="white"/>
<path d="M1458.11 169.148C1464.54 158.568 1457.89 116.614 1418.63 131.803C1397.27 118.544 1373.44 140.634 1386.39 163.154C1367.12 179.392 1376.61 203.001 1400.15 206.756" stroke="#4A494A" stroke-width="2" stroke-linecap="round" stroke-linejoin="round"/>
<path d="M1429.68 168.796C1430.04 168.998 1478.49 215.933 1478.49 215.933L1474.23 257.356C1474.23 257.356 1424.35 190.061 1424.42 190.222C1431.03 182.424 1424.36 170.321 1429.68 168.796Z" fill="#F7F7F7"/>
<path d="M1471.96 254.559L1424.42 189.305" stroke="#4A494A" stroke-width="2" stroke-linecap="round" stroke-linejoin="round"/>
<path d="M1429.08 167.864L1475.69 211.678" stroke="#4A494A" stroke-width="2" stroke-linecap="round" stroke-linejoin="round"/>
<path d="M1546 216.338C1545.71 216.502 1506.45 254.556 1506.45 254.556L1509.91 285.322C1509.91 285.322 1550.33 233.58 1550.27 233.711C1544.91 227.388 1550.32 217.575 1546 216.338Z" fill="#F7F7F7"/>
<path d="M1532.95 211.866C1528.64 205.625 1531.23 179.741 1555.77 187.638C1569.75 175.106 1585.3 190.176 1576.59 205.666C1590.18 215.837 1582.81 232.687 1565.17 233.382" fill="white"/>
<path d="M1532.95 211.866C1528.64 205.625 1531.23 179.741 1555.77 187.638C1569.75 175.106 1585.3 190.176 1576.59 205.666C1590.18 215.837 1582.81 232.687 1565.17 233.382" stroke="#4A494A" stroke-width="2" stroke-linecap="round" stroke-linejoin="round"/>
<path d="M1512.98 283.458L1550.27 233.12" stroke="#4A494A" stroke-width="2" stroke-linecap="round" stroke-linejoin="round"/>
<path d="M1540.95 220.067L1508.32 251.763" stroke="#4A494A" stroke-width="2" stroke-linecap="round" stroke-linejoin="round"/>
<path d="M1545.61 216.339L1543.74 217.271" stroke="#4A494A" stroke-width="2" stroke-linecap="round" stroke-linejoin="round"/>
<path d="M424.324 381.783C415.273 379.485 407.551 373.964 402.508 366.549C402.113 366.554 401.722 366.578 401.326 366.578C367.098 366.578 338.449 343.285 330.979 312.022C303.821 300.129 284.888 273.476 284.888 242.479C284.888 222.45 292.801 204.236 305.718 190.638C305.595 189.133 305.514 187.615 305.514 186.078C305.514 159.539 324.245 137.293 349.472 131.272C357.866 99.766 387.137 76.509 421.966 76.509C438.237 76.509 453.285 81.602 465.571 90.225C465.601 90.227 465.632 90.228 465.662 90.23C472.945 87.472 480.854 85.942 489.133 85.942C509.845 85.942 528.282 95.425 540.198 110.181C543.539 109.69 546.95 109.421 550.423 109.421C590.16 109.421 622.375 142.677 622.375 183.7C622.375 187.662 622.1 191.483 621.605 195.175C632.69 206.592 639.506 222.014 639.506 239.004C639.506 262.126 626.907 282.366 608.063 293.516C608.078 294.07 608.106 294.622 608.106 295.179C608.106 330.34 578.977 358.843 543.043 358.843C542.335 358.843 541.634 358.812 540.931 358.791C533.072 373.945 517.006 384.339 498.449 384.339C487.266 384.339 476.992 380.557 468.865 374.242C465.029 374.601 461.148 374.816 457.232 374.885C450.805 379.931 442.649 382.956 433.767 382.956C430.506 382.956 427.341 382.549 424.324 381.783Z" fill="white"/>
<path d="M494.302 384.164C484.732 383.353 475.976 379.768 468.865 374.241C465.03 374.601 461.15 374.815 457.233 374.883C450.806 379.93 442.649 382.957 433.767 382.957C430.506 382.957 427.342 382.549 424.325 381.783" stroke="#4A494A" stroke-width="2" stroke-linecap="round" stroke-linejoin="round"/>
<path d="M424.324 381.783C415.273 379.485 407.551 373.964 402.508 366.549C402.113 366.554 401.722 366.578 401.326 366.578C367.098 366.578 338.449 343.285 330.979 312.022C303.821 300.129 284.888 273.476 284.888 242.479C284.888 222.45 292.801 204.236 305.718 190.638C305.595 189.133 305.514 187.615 305.514 186.078C305.514 159.539 324.245 137.293 349.472 131.272C357.866 99.766 387.137 76.509 421.966 76.509C438.237 76.509 453.285 81.602 465.571 90.225C465.601 90.227 465.632 90.228 465.662 90.23C472.945 87.472 480.854 85.942 489.133 85.942C509.845 85.942 528.282 95.425 540.198 110.181C543.539 109.69 546.95 109.421 550.423 109.421C590.16 109.421 622.375 142.677 622.375 183.7C622.375 187.662 622.1 191.483 621.605 195.175C632.69 206.592 639.506 222.014 639.506 239.004C639.506 262.126 626.907 282.367 608.063 293.517C608.078 294.071 608.106 294.622 608.106 295.179C608.106 330.34 578.977 358.843 543.043 358.843C542.335 358.843 541.634 358.812 540.931 358.791C533.916 372.317 520.365 382.05 504.339 383.985" stroke="#4A494A" stroke-width="2" stroke-linecap="round" stroke-linejoin="round"/>
<g opacity="0.05">
<path d="M458.206 354.666C452.314 359.625 445.229 362.245 437.716 362.245C426.753 362.245 416.564 356.503 410.374 346.863C410.169 346.873 409.974 346.873 409.768 346.873C395.469 346.873 381.467 341.624 370.336 332.098C359.486 322.794 351.739 309.79 348.495 295.434C324.295 283.707 308.681 257.894 308.681 229.555C308.681 211.349 315.038 193.982 326.598 180.586C326.495 179.151 326.448 177.855 326.448 176.624C326.448 158.614 334.736 142.375 347.898 132.55C323.475 139.094 305.511 160.963 305.511 186.944C305.511 188.482 305.595 190.001 305.716 191.502C292.805 205.104 284.891 223.318 284.891 243.342C284.891 274.347 303.824 300.999 330.979 312.885C338.446 344.15 367.102 367.446 401.323 367.446C401.724 367.446 402.115 367.419 402.507 367.419C409.228 377.3 420.722 383.825 433.773 383.825C442.647 383.825 450.804 380.796 457.236 375.753" fill="#4A494A"/>
</g>
<path d="M487.918 212.042C488.118 212.44 508.599 508.313 508.599 508.313H419.689C419.689 508.313 438.306 213.038 438.837 212.44C459.028 218.218 480.746 192.316 487.918 212.042Z" fill="#F7F7F7"/>
<path d="M492.289 274.403L488.205 212.743" stroke="#4A494A" stroke-width="2" stroke-linecap="round" stroke-linejoin="round"/>
<path d="M507.781 508.312L492.699 280.608" stroke="#4A494A" stroke-width="2" stroke-linecap="round" stroke-linejoin="round"/>
<path d="M423.119 456.898L419.876 508.312" stroke="#4A494A" stroke-width="2" stroke-linecap="round" stroke-linejoin="round"/>
<path d="M423.729 447.237L423.619 448.963" stroke="#4A494A" stroke-width="2" stroke-linecap="round" stroke-linejoin="round"/>
<path d="M438.52 212.743L423.968 443.435" stroke="#4A494A" stroke-width="2" stroke-linecap="round" stroke-linejoin="round"/>
<path d="M534.317 248.865C533.961 249.065 487.123 281.748 487.123 281.748L490.21 336.987C490.21 336.987 539.599 270.025 539.528 270.185C532.98 262.426 539.589 250.383 534.317 248.865Z" fill="#F7F7F7"/>
<path d="M496.137 329.809L539.529 270.185" stroke="#4A494A" stroke-width="2" stroke-linecap="round" stroke-linejoin="round"/>
<path d="M534.317 248.865L490.141 281.319" stroke="#4A494A" stroke-width="2" stroke-linecap="round" stroke-linejoin="round"/>
<path d="M387.206 252.593C387.594 252.811 439.477 293.947 439.477 293.947L435.195 344.706C435.195 344.706 381.458 275.615 381.534 275.789C388.659 267.347 381.469 254.244 387.206 252.593Z" fill="#F7F7F7"/>
<path d="M430.713 340.573L381.535 275.79" stroke="#4A494A" stroke-width="2" stroke-linecap="round" stroke-linejoin="round"/>
<path d="M394.115 259.152L437.589 293.192" stroke="#4A494A" stroke-width="2" stroke-linecap="round" stroke-linejoin="round"/>
</g>
<rect y="471" width="22" height="80" fill="#F7F7F7"/>
</g>
<defs>
<clipPath id="clip0_11_2">
<rect width="1979" height="551" fill="white"/>
</clipPath>
</defs>
</svg>
