<svg xmlns="http://www.w3.org/2000/svg" width="130" height="131" viewBox="0 0 130 131" fill="none">
<path fill-rule="evenodd" clip-rule="evenodd" d="M36.5067 69.2914L35.8057 92.8554L52.5127 126.165L80.2837 119.41L78.2097 81.2954L55.5347 69.2914H36.5067Z" fill="white"/>
<path fill-rule="evenodd" clip-rule="evenodd" d="M83.3549 82.0306C85.0369 70.0796 92.4369 67.3086 97.9879 68.3946C103.122 69.3986 103.083 76.4566 97.9779 77.4816C94.3709 78.2056 91.2699 80.8936 93.6669 98.0146C95.0259 107.857 93.9709 114.853 91.5259 121.424C89.7009 126.329 85.0179 129.577 79.7839 129.567L70.0439 129.548" fill="white"/>
<path d="M83.3549 82.0306C85.0369 70.0796 92.4369 67.3086 97.9879 68.3946C103.122 69.3986 103.083 76.4566 97.9779 77.4816C94.3709 78.2056 91.2699 80.8936 93.6669 98.0146C95.0259 107.857 93.9709 114.853 91.5259 121.424C89.7009 126.329 85.0179 129.577 79.7839 129.567L70.0439 129.548" stroke="#4A4A4A" stroke-width="2" stroke-linecap="round" stroke-linejoin="round"/>
<path fill-rule="evenodd" clip-rule="evenodd" d="M36.1732 75.7187C37.1992 80.6667 34.6082 83.3657 34.1942 87.7687C33.0332 99.7897 39.2762 103.022 38.6392 122.153C39.5192 121.931 38.9652 122.07 38.4972 122.315C37.3972 122.893 34.4752 125.518 35.7362 128.509C36.0112 129.159 36.6582 129.58 37.3642 129.58H43.7932C45.9582 129.58 47.7122 127.867 47.7122 125.754" fill="white"/>
<path d="M36.1732 75.7187C37.1992 80.6667 34.6082 83.3657 34.1942 87.7687C33.0332 99.7897 39.2762 103.022 38.6392 122.153C39.5192 121.931 38.9652 122.07 38.4972 122.315C37.3972 122.893 34.4752 125.518 35.7362 128.509C36.0112 129.159 36.6582 129.58 37.3642 129.58H43.7932C45.9582 129.58 47.7122 127.867 47.7122 125.754" stroke="#4A4A4A" stroke-width="2" stroke-linecap="round" stroke-linejoin="round"/>
<path fill-rule="evenodd" clip-rule="evenodd" d="M60.1443 98.4951C58.6193 111.601 59.4313 125.942 60.2743 129.566L45.8953 129.58C44.4993 129.58 43.2833 127.863 43.8643 125.766C44.3243 123.772 46.0723 121.953 46.0723 121.953C46.2263 113.844 45.0733 111.886 43.4673 99.3961" fill="white"/>
<mask id="mask0" mask-type="alpha" maskUnits="userSpaceOnUse" x="43" y="98" width="18" height="32">
<path fill-rule="evenodd" clip-rule="evenodd" d="M43.4678 99.3968C45.0728 111.886 46.2258 113.844 46.0718 121.954V121.954C46.0718 121.954 44.3238 123.772 43.8638 125.767V125.767C43.2828 127.864 44.4988 129.58 45.8958 129.58V129.58L60.2738 129.567C59.4318 125.942 58.6188 111.601 60.1448 98.4948V98.4948" fill="white"/>
</mask>
<g mask="url(#mask0)">
<path fill-rule="evenodd" clip-rule="evenodd" d="M63.6647 94.8876C62.1967 94.0726 57.6827 98.0436 57.0567 98.4946C53.1067 101.341 49.8577 101.68 49.4317 106.922C48.6147 116.971 53.8907 122.191 53.8907 122.191C53.8907 122.191 49.8507 125.735 51.7937 129.58C52.2977 128.45 59.2637 129.852 59.9017 128.966C63.5557 123.897 62.4437 120.203 62.4437 120.203C62.4437 120.203 56.9897 118.396 55.2387 112.292C53.1767 106.315 54.6037 100.531 64.2207 95.5696C64.9447 93.0766 58.5007 96.1036 58.5007 96.1036" fill="#F7F7F7"/>
</g>
<path d="M60.1443 98.4951C58.6193 111.601 59.4313 125.942 60.2743 129.566L45.8953 129.58C44.4993 129.58 43.2833 127.863 43.8643 125.766C44.3243 123.772 46.0723 121.953 46.0723 121.953C46.2263 113.844 45.0733 111.886 43.4673 99.3961" stroke="#4A4A4A" stroke-width="2" stroke-linecap="round" stroke-linejoin="round"/>
<path fill-rule="evenodd" clip-rule="evenodd" d="M59.6611 63.2202C59.6611 63.2202 58.1661 68.8712 62.7841 71.8752C69.2511 76.0822 92.8431 76.5062 89.2591 118.042" fill="white"/>
<path d="M59.6611 63.2202C59.6611 63.2202 58.1661 68.8712 62.7841 71.8752C69.2511 76.0822 92.8431 76.5062 89.2591 118.042" stroke="#4A4A4A" stroke-width="2" stroke-linecap="round" stroke-linejoin="round"/>
<path fill-rule="evenodd" clip-rule="evenodd" d="M35.8052 55.0507C35.8052 55.0507 35.7692 44.0777 39.5352 43.5437C41.4182 43.2767 42.1112 44.2677 42.8052 45.6047" fill="#ECECEC"/>
<path d="M35.8052 55.0507C35.8052 55.0507 35.7692 44.0777 39.5352 43.5437C41.4182 43.2767 42.1112 44.2677 42.8052 45.6047" stroke="#4A4A4A" stroke-width="2" stroke-linecap="round" stroke-linejoin="round"/>
<path fill-rule="evenodd" clip-rule="evenodd" d="M62.7839 71.8753C64.7469 69.4523 66.7289 62.6783 63.5759 56.9233C63.8589 53.2883 62.6089 54.2223 61.6369 52.6433C59.9319 49.8753 56.7939 48.6843 53.6079 48.0433C45.0999 46.3333 38.7269 48.6033 34.5849 54.8183C29.2129 62.8773 33.5149 71.6233 35.8439 74.5903C36.9989 76.0613 38.7659 77.9263 39.4219 78.3803" fill="white"/>
<path d="M62.7839 71.8753C64.7469 69.4523 66.7289 62.6783 63.5759 56.9233C63.8589 53.2883 62.6089 54.2223 61.6369 52.6433C59.9319 49.8753 56.7939 48.6843 53.6079 48.0433C45.0999 46.3333 38.7269 48.6033 34.5849 54.8183C29.2129 62.8773 33.5149 71.6233 35.8439 74.5903C36.9989 76.0613 38.7659 77.9263 39.4219 78.3803" stroke="#4A4A4A" stroke-width="2" stroke-linecap="round" stroke-linejoin="round"/>
<path fill-rule="evenodd" clip-rule="evenodd" d="M53.4053 50.4868C55.6723 47.8198 60.2523 43.3448 62.8993 45.2458C65.3223 46.9868 63.5223 53.5558 63.5753 56.9238" fill="white"/>
<path d="M53.4053 50.4868C55.6723 47.8198 60.2523 43.3448 62.8993 45.2458C65.3223 46.9868 63.5223 53.5558 63.5753 56.9238" stroke="#4A4A4A" stroke-width="2" stroke-linecap="round" stroke-linejoin="round"/>
<path fill-rule="evenodd" clip-rule="evenodd" d="M65.5249 95.5698C65.5249 95.5698 55.4929 97.4378 53.1029 106.799C50.1649 118.304 59.1509 120.059 59.1509 120.059C59.1509 120.059 56.7309 121.713 55.9139 124.842C55.3499 127.005 56.4899 129.45 58.7229 129.58H76.5619" fill="white"/>
<mask id="mask1" mask-type="alpha" maskUnits="userSpaceOnUse" x="52" y="95" width="25" height="35">
<path fill-rule="evenodd" clip-rule="evenodd" d="M53.1029 106.798C50.1649 118.304 59.1519 120.059 59.1519 120.059V120.059C59.1519 120.059 56.7309 121.713 55.9149 124.842V124.842C55.3499 127.005 56.4909 129.45 58.7229 129.58V129.58H76.5619L65.5249 95.5698C65.5249 95.5698 55.4929 97.4368 53.1029 106.798" fill="white"/>
</mask>
<g mask="url(#mask1)">
<path fill-rule="evenodd" clip-rule="evenodd" d="M65.8062 94.8876C64.3382 94.0726 63.3192 93.7816 61.7042 94.0466C61.2292 94.1236 60.3882 91.6646 59.9142 91.8226C59.4972 91.9626 58.9502 91.1666 58.5392 91.3646C57.0372 91.8986 56.2982 96.7956 55.6722 97.2466C51.7232 100.093 49.4292 101.138 49.4312 106.922C49.4342 117.968 53.8902 123.262 53.8902 123.262C53.8902 123.262 51.9932 125.735 53.9352 129.58C54.6712 124.813 57.7342 122.459 60.3872 121.303C61.7402 120.713 61.9862 118.9 60.8892 117.913C59.5192 116.68 58.1192 114.869 57.3802 112.292C55.3192 106.315 56.7452 100.531 66.3622 95.5696C67.0862 93.0766 60.6422 96.1036 60.6422 96.1036" fill="#F7F7F7"/>
</g>
<path d="M65.5249 95.5698C65.5249 95.5698 55.4929 97.4378 53.1029 106.799C50.1649 118.304 59.1509 120.059 59.1509 120.059C59.1509 120.059 56.7309 121.713 55.9139 124.842C55.3499 127.005 56.4899 129.45 58.7229 129.58H76.5619" stroke="#4A4A4A" stroke-width="2" stroke-linecap="round" stroke-linejoin="round"/>
<path fill-rule="evenodd" clip-rule="evenodd" d="M47.9218 121.953L46.4438 121.981Z" fill="white"/>
<path d="M47.9218 121.953L46.4438 121.981" stroke="#4A4A4A" stroke-width="2" stroke-linecap="round" stroke-linejoin="round"/>
<g style="mix-blend-mode:darken">
<path fill-rule="evenodd" clip-rule="evenodd" d="M51.3539 48.2362C51.3539 48.2362 30.0759 55.0032 42.2729 73.6982C47.7169 78.8502 44.1949 80.2382 41.5409 80.6062C40.0469 80.8132 38.9439 82.6212 38.6259 84.0952C37.8989 87.4712 37.2839 93.4782 40.2249 104.146C42.2419 111.46 41.2619 117.128 41.3319 120.203C44.7949 121.981 42.1929 122.258 42.1929 122.258C42.1929 122.258 35.5529 122.726 35.0409 126.165C34.9949 125.241 42.6159 118.967 37.7359 106.727C32.3909 93.3192 36.5059 81.6152 36.5059 81.6152L35.4809 72.1102C35.4809 72.1102 31.9219 65.1602 33.3869 61.2102C34.8519 57.2602 40.1129 48.4142 44.7539 48.2362C49.3949 48.0582 51.3539 48.2362 51.3539 48.2362" fill="#F7F7F7"/>
</g>
<g style="mix-blend-mode:darken">
<path fill-rule="evenodd" clip-rule="evenodd" d="M62.8979 46.3372C61.6809 46.3372 61.6479 53.2712 60.2269 55.2102C60.1909 55.2602 60.1469 55.3172 60.0969 55.3822C59.4859 56.1752 59.4639 57.2652 60.0419 58.0822C64.3999 62.4362 61.1029 72.5863 63.5459 71.2563C65.5639 69.5423 63.3729 55.3583 63.3729 55.1213C63.3729 54.8833 65.0969 46.3802 62.8979 46.3372" fill="#F7F7F7"/>
</g>
<path d="M36.5063 60.9608V61.8098" stroke="#4A4A4A" stroke-width="1.2" stroke-linecap="round" stroke-linejoin="round"/>
<path d="M50.2832 60.9608V61.8098" stroke="#4A4A4A" stroke-width="1.2" stroke-linecap="round" stroke-linejoin="round"/>
<path d="M42.1932 62.0605H43.0852" stroke="#4A4A4A" stroke-width="1.5" stroke-linecap="round" stroke-linejoin="round"/>
<path fill-rule="evenodd" clip-rule="evenodd" d="M35.8435 74.5903C35.8435 74.5903 34.6495 77.9563 36.3225 79.8383C41.9485 83.5813 59.0085 82.7213 64.7685 73.4393C64.7685 71.9443 63.5775 70.3043 63.5775 70.3043C63.5775 70.3043 49.3625 81.6823 35.8435 74.5903" fill="#ECECEC"/>
<path fill-rule="evenodd" clip-rule="evenodd" d="M35.8435 74.5903C35.8435 74.5903 34.6495 77.9563 36.3225 79.8383C41.9485 83.5813 59.0085 82.7213 64.7685 73.4393C64.7685 71.9443 63.5775 70.3043 63.5775 70.3043C63.5775 70.3043 49.3625 81.6823 35.8435 74.5903Z" fill="#FF0083" stroke="#B40060" stroke-width="2" stroke-linecap="round" stroke-linejoin="round"/>
<path d="M43.085 82.3661V85.3131" stroke="#B40060" stroke-width="2" stroke-linecap="round" stroke-linejoin="round"/>
<path fill-rule="evenodd" clip-rule="evenodd" d="M45.4282 87.5076C45.4282 88.8016 44.3792 89.8506 43.0852 89.8506C41.7902 89.8506 40.7412 88.8016 40.7412 87.5076C40.7412 86.2136 41.7902 85.1646 43.0852 85.1646C44.3792 85.1646 45.4282 86.2136 45.4282 87.5076" fill="#FF0083"/>
<path fill-rule="evenodd" clip-rule="evenodd" d="M45.4282 87.5076C45.4282 88.8016 44.3792 89.8506 43.0852 89.8506C41.7902 89.8506 40.7412 88.8016 40.7412 87.5076C40.7412 86.2136 41.7902 85.1646 43.0852 85.1646C44.3792 85.1646 45.4282 86.2136 45.4282 87.5076Z" stroke="#B40060" stroke-width="2" stroke-linecap="round" stroke-linejoin="round"/>
<path fill-rule="evenodd" clip-rule="evenodd" d="M60.9213 119.41C60.3163 119.559 59.5403 119.785 58.6753 120.114Z" fill="white"/>
<path d="M60.9213 119.41C60.3163 119.559 59.5403 119.785 58.6753 120.114" stroke="#4A4A4A" stroke-width="2" stroke-linecap="round" stroke-linejoin="round"/>
</svg>