<svg xmlns="http://www.w3.org/2000/svg" width="130" height="131" viewBox="0 0 130 131" fill="none">
<path fill-rule="evenodd" clip-rule="evenodd" d="M36.5067 69.2914L35.8057 92.8554L52.5127 126.165L80.2837 119.41L78.2097 81.2954L55.5347 69.2914H36.5067Z" fill="white"/>
<path fill-rule="evenodd" clip-rule="evenodd" d="M83.3547 82.0307C85.0367 70.0797 92.4367 67.3087 97.9877 68.3947C103.122 69.3987 103.083 76.4567 97.9777 77.4817C94.3707 78.2057 91.2697 80.8937 93.6667 98.0147C95.0257 107.857 93.9707 114.853 91.5257 121.424C89.7007 126.329 85.0177 129.577 79.7837 129.567L70.0437 129.548" fill="white"/>
<path d="M83.3547 82.0307C85.0367 70.0797 92.4367 67.3087 97.9877 68.3947C103.122 69.3987 103.083 76.4567 97.9777 77.4817C94.3707 78.2057 91.2697 80.8937 93.6667 98.0147C95.0257 107.857 93.9707 114.853 91.5257 121.424C89.7007 126.329 85.0177 129.577 79.7837 129.567L70.0437 129.548" stroke="#4A4A4A" stroke-width="2" stroke-linecap="round" stroke-linejoin="round"/>
<path fill-rule="evenodd" clip-rule="evenodd" d="M36.1732 75.7187C37.1992 80.6667 34.6082 83.3657 34.1942 87.7687C33.0332 99.7897 39.2762 103.022 38.6392 122.153C39.5192 121.931 38.9652 122.07 38.4972 122.315C37.3972 122.893 34.4752 125.518 35.7362 128.509C36.0112 129.159 36.6582 129.58 37.3642 129.58H43.7932C45.9582 129.58 47.7122 127.867 47.7122 125.754" fill="white"/>
<path d="M36.1732 75.7187C37.1992 80.6667 34.6082 83.3657 34.1942 87.7687C33.0332 99.7897 39.2762 103.022 38.6392 122.153C39.5192 121.931 38.9652 122.07 38.4972 122.315C37.3972 122.893 34.4752 125.518 35.7362 128.509C36.0112 129.159 36.6582 129.58 37.3642 129.58H43.7932C45.9582 129.58 47.7122 127.867 47.7122 125.754" stroke="#4A4A4A" stroke-width="2" stroke-linecap="round" stroke-linejoin="round"/>
<path fill-rule="evenodd" clip-rule="evenodd" d="M60.1443 98.4951C58.6193 111.601 59.4313 125.942 60.2743 129.566L45.8953 129.58C44.4993 129.58 43.2833 127.863 43.8643 125.766C44.3243 123.772 46.0723 121.953 46.0723 121.953C46.2263 113.844 45.0733 111.886 43.4673 99.3961" fill="white"/>
<mask id="mask0" mask-type="alpha" maskUnits="userSpaceOnUse" x="43" y="98" width="18" height="32">
<path fill-rule="evenodd" clip-rule="evenodd" d="M43.4678 99.3968C45.0728 111.886 46.2258 113.844 46.0718 121.954C46.0718 121.954 44.3238 123.772 43.8638 125.767C43.2828 127.864 44.4988 129.58 45.8958 129.58L60.2738 129.567C59.4318 125.942 58.6188 111.601 60.1448 98.4948" fill="white"/>
</mask>
<g mask="url(#mask0)">
<path fill-rule="evenodd" clip-rule="evenodd" d="M63.6647 94.8876C62.1967 94.0726 57.6827 98.0436 57.0567 98.4946C53.1067 101.341 49.8577 101.68 49.4317 106.922C48.6147 116.971 53.8907 122.191 53.8907 122.191C53.8907 122.191 49.8507 125.735 51.7937 129.58C52.2977 128.45 59.2637 129.852 59.9017 128.966C63.5557 123.897 62.4437 120.203 62.4437 120.203C62.4437 120.203 56.9897 118.396 55.2387 112.292C53.1767 106.315 54.6037 100.531 64.2207 95.5696C64.9447 93.0766 58.5007 96.1036 58.5007 96.1036" fill="#F7F7F7"/>
</g>
<path d="M60.1443 98.4951C58.6193 111.601 59.4313 125.942 60.2743 129.566L45.8953 129.58C44.4993 129.58 43.2833 127.863 43.8643 125.766C44.3243 123.772 46.0723 121.953 46.0723 121.953C46.2263 113.844 45.0733 111.886 43.4673 99.3961" stroke="#4A4A4A" stroke-width="2" stroke-linecap="round" stroke-linejoin="round"/>
<path fill-rule="evenodd" clip-rule="evenodd" d="M59.6613 63.2202C59.6613 63.2202 58.1663 68.8712 62.7843 71.8752C69.2513 76.0822 92.8433 76.5062 89.2593 118.042" fill="white"/>
<path d="M59.6613 63.2202C59.6613 63.2202 58.1663 68.8712 62.7843 71.8752C69.2513 76.0822 92.8433 76.5062 89.2593 118.042" stroke="#4A4A4A" stroke-width="2" stroke-linecap="round" stroke-linejoin="round"/>
<path fill-rule="evenodd" clip-rule="evenodd" d="M35.8054 55.0507C35.8054 55.0507 35.7694 44.0777 39.5354 43.5437C41.4184 43.2767 42.1114 44.2677 42.8054 45.6047" fill="#ECECEC"/>
<path d="M35.8054 55.0507C35.8054 55.0507 35.7694 44.0777 39.5354 43.5437C41.4184 43.2767 42.1114 44.2677 42.8054 45.6047" stroke="#4A4A4A" stroke-width="2" stroke-linecap="round" stroke-linejoin="round"/>
<path fill-rule="evenodd" clip-rule="evenodd" d="M62.7839 71.8754C64.7469 69.4524 66.7289 62.6784 63.5759 56.9234C63.8589 53.2884 62.6089 54.2224 61.6369 52.6434C59.9319 49.8754 56.7939 48.6844 53.6079 48.0434C45.0999 46.3334 38.7269 48.6034 34.5849 54.8184C29.2129 62.8774 33.5149 71.6234 35.8439 74.5904C36.9989 76.0614 38.7659 77.9264 39.4219 78.3804" fill="white"/>
<path d="M62.7839 71.8754C64.7469 69.4524 66.7289 62.6784 63.5759 56.9234C63.8589 53.2884 62.6089 54.2224 61.6369 52.6434C59.9319 49.8754 56.7939 48.6844 53.6079 48.0434C45.0999 46.3334 38.7269 48.6034 34.5849 54.8184C29.2129 62.8774 33.5149 71.6234 35.8439 74.5904C36.9989 76.0614 38.7659 77.9264 39.4219 78.3804" stroke="#4A4A4A" stroke-width="2" stroke-linecap="round" stroke-linejoin="round"/>
<path fill-rule="evenodd" clip-rule="evenodd" d="M53.4055 50.4868C55.6725 47.8198 60.2525 43.3448 62.8995 45.2458C65.3225 46.9868 63.5225 53.5558 63.5755 56.9238" fill="white"/>
<path d="M53.4055 50.4868C55.6725 47.8198 60.2525 43.3448 62.8995 45.2458C65.3225 46.9868 63.5225 53.5558 63.5755 56.9238" stroke="#4A4A4A" stroke-width="2" stroke-linecap="round" stroke-linejoin="round"/>
<path fill-rule="evenodd" clip-rule="evenodd" d="M65.5252 95.5698C65.5252 95.5698 55.4932 97.4378 53.1032 106.799C50.1652 118.304 59.1512 120.059 59.1512 120.059C59.1512 120.059 56.7312 121.713 55.9142 124.842C55.3502 127.005 56.4902 129.45 58.7232 129.58H76.5622" fill="white"/>
<mask id="mask1" mask-type="alpha" maskUnits="userSpaceOnUse" x="52" y="95" width="25" height="35">
<path fill-rule="evenodd" clip-rule="evenodd" d="M53.1029 106.798C50.1649 118.304 59.1519 120.059 59.1519 120.059C59.1519 120.059 56.7309 121.713 55.9149 124.842C55.3499 127.005 56.4909 129.45 58.7229 129.58H76.5619L65.5249 95.5698C65.5249 95.5698 55.4929 97.4368 53.1029 106.798Z" fill="white"/>
</mask>
<g mask="url(#mask1)">
<path fill-rule="evenodd" clip-rule="evenodd" d="M65.8064 94.8876C64.3384 94.0726 63.3194 93.7816 61.7044 94.0466C61.2294 94.1236 60.3884 91.6646 59.9144 91.8226C59.4974 91.9626 58.9504 91.1666 58.5394 91.3646C57.0374 91.8986 56.2984 96.7956 55.6724 97.2466C51.7234 100.093 49.4294 101.138 49.4314 106.922C49.4344 117.968 53.8904 123.262 53.8904 123.262C53.8904 123.262 51.9934 125.735 53.9354 129.58C54.6714 124.813 57.7344 122.459 60.3874 121.303C61.7404 120.713 61.9864 118.9 60.8894 117.913C59.5194 116.68 58.1194 114.869 57.3804 112.292C55.3194 106.315 56.7454 100.531 66.3624 95.5696C67.0864 93.0766 60.6424 96.1036 60.6424 96.1036" fill="#F7F7F7"/>
</g>
<path d="M65.5252 95.5698C65.5252 95.5698 55.4932 97.4378 53.1032 106.799C50.1652 118.304 59.1512 120.059 59.1512 120.059C59.1512 120.059 56.7312 121.713 55.9142 124.842C55.3502 127.005 56.4902 129.45 58.7232 129.58H76.5622" stroke="#4A4A4A" stroke-width="2" stroke-linecap="round" stroke-linejoin="round"/>
<path fill-rule="evenodd" clip-rule="evenodd" d="M47.9221 121.953L46.4441 121.981L47.9221 121.953Z" fill="white"/>
<path d="M47.9221 121.953L46.4441 121.981" stroke="#4A4A4A" stroke-width="2" stroke-linecap="round" stroke-linejoin="round"/>
<g style="mix-blend-mode:darken">
<path fill-rule="evenodd" clip-rule="evenodd" d="M51.3542 48.2363C51.3542 48.2363 30.0762 55.0033 42.2732 73.6983C47.7172 78.8503 44.1952 80.2383 41.5412 80.6063C40.0472 80.8133 38.9442 82.6213 38.6262 84.0953C37.8992 87.4713 37.2842 93.4783 40.2252 104.146C42.2422 111.46 41.2622 117.128 41.3322 120.203C44.7952 121.981 42.1932 122.258 42.1932 122.258C42.1932 122.258 35.5532 122.726 35.0412 126.165C34.9952 125.241 42.6162 118.967 37.7362 106.727C32.3912 93.3193 36.5062 81.6153 36.5062 81.6153L35.4812 72.1103C35.4812 72.1103 31.9222 65.1603 33.3872 61.2103C34.8522 57.2603 40.1132 48.4143 44.7542 48.2363C49.3952 48.0583 51.3542 48.2363 51.3542 48.2363Z" fill="#F7F7F7"/>
</g>
<g style="mix-blend-mode:darken">
<path fill-rule="evenodd" clip-rule="evenodd" d="M62.8981 46.3373C61.6811 46.3373 61.6481 53.2713 60.2271 55.2103C60.1911 55.2603 60.1471 55.3173 60.0971 55.3823C59.4861 56.1753 59.4641 57.2653 60.0421 58.0823C64.4001 62.4363 61.1031 72.5863 63.5461 71.2563C65.5641 69.5423 63.3731 55.3583 63.3731 55.1213C63.3731 54.8833 65.0971 46.3803 62.8981 46.3373Z" fill="#F7F7F7"/>
</g>
<path d="M36.5066 60.9609V61.8099" stroke="#4A4A4A" stroke-width="1.2" stroke-linecap="round" stroke-linejoin="round"/>
<path d="M50.2834 60.9609V61.8099" stroke="#4A4A4A" stroke-width="1.2" stroke-linecap="round" stroke-linejoin="round"/>
<path d="M42.1936 62.0605H43.0856" stroke="#4A4A4A" stroke-width="1.5" stroke-linecap="round" stroke-linejoin="round"/>
<path fill-rule="evenodd" clip-rule="evenodd" d="M35.844 74.5903C35.844 74.5903 34.65 77.9563 36.323 79.8383C41.949 83.5813 59.009 82.7213 64.769 73.4393C64.769 71.9443 63.578 70.3043 63.578 70.3043C63.578 70.3043 49.363 81.6823 35.844 74.5903Z" fill="#ECECEC"/>
<path fill-rule="evenodd" clip-rule="evenodd" d="M35.844 74.5903C35.844 74.5903 34.65 77.9563 36.323 79.8383C41.949 83.5813 59.009 82.7213 64.769 73.4393C64.769 71.9443 63.578 70.3043 63.578 70.3043C63.578 70.3043 49.363 81.6823 35.844 74.5903Z" stroke="#4A4A4A" stroke-width="2" stroke-linecap="round" stroke-linejoin="round"/>
<path d="M43.0852 82.3661V85.3131" stroke="#4A4A4A" stroke-width="2" stroke-linecap="round" stroke-linejoin="round"/>
<path fill-rule="evenodd" clip-rule="evenodd" d="M45.4285 87.5077C45.4285 88.8017 44.3795 89.8507 43.0855 89.8507C41.7905 89.8507 40.7415 88.8017 40.7415 87.5077C40.7415 86.2137 41.7905 85.1647 43.0855 85.1647C44.3795 85.1647 45.4285 86.2137 45.4285 87.5077Z" fill="#ECECEC"/>
<path fill-rule="evenodd" clip-rule="evenodd" d="M45.4285 87.5077C45.4285 88.8017 44.3795 89.8507 43.0855 89.8507C41.7905 89.8507 40.7415 88.8017 40.7415 87.5077C40.7415 86.2137 41.7905 85.1647 43.0855 85.1647C44.3795 85.1647 45.4285 86.2137 45.4285 87.5077Z" stroke="#4A4A4A" stroke-width="2" stroke-linecap="round" stroke-linejoin="round"/>
<path fill-rule="evenodd" clip-rule="evenodd" d="M60.9215 119.41C60.3165 119.559 59.5405 119.785 58.6755 120.114L60.9215 119.41Z" fill="white"/>
<path d="M60.9215 119.41C60.3165 119.559 59.5405 119.785 58.6755 120.114" stroke="#4A4A4A" stroke-width="2" stroke-linecap="round" stroke-linejoin="round"/>
</svg>