<svg xmlns="http://www.w3.org/2000/svg" width="130" height="131" viewBox="0 0 130 131" fill="none">
<path fill-rule="evenodd" clip-rule="evenodd" d="M77.1753 70.1241C77.1753 70.1241 87.3253 74.1841 88.8923 76.5481C90.4593 78.9121 81.2513 82.5911 81.2513 82.5911L73.9863 72.3041L77.1753 70.1241Z" fill="#ECECEC"/>
<path fill-rule="evenodd" clip-rule="evenodd" d="M87.7249 52.0249C87.7249 52.0249 89.8899 38.2729 84.0249 35.2119C83.0379 34.6959 81.8139 35.1639 81.3219 36.1639C80.9859 36.8449 80.6379 37.7149 80.2939 38.6719" fill="#F7F7F7"/>
<path d="M87.7249 52.0249C87.7249 52.0249 89.8899 38.2729 84.0249 35.2119C83.0379 34.6959 81.8139 35.1639 81.3219 36.1639C80.9859 36.8449 80.6379 37.7149 80.2939 38.6719" stroke="#4A4A4A" stroke-width="2" stroke-linecap="round" stroke-linejoin="round"/>
<path fill-rule="evenodd" clip-rule="evenodd" d="M38.5726 125.651C33.6176 119.796 32.7866 114.497 33.2556 109.055C27.8276 104.867 24.4936 97.6124 29.3596 90.9494C29.7106 96.4244 31.9536 99.8334 34.5956 101.979C37.2876 93.8484 43.9576 88.6324 53.3246 81.2514C56.6376 78.7844 66.7266 70.0324 66.0996 61.8414C65.7266 56.9704 66.3416 53.6894 66.9736 51.4174C67.8896 48.1244 68.2106 46.9994 70.1496 42.6424C70.3896 42.1014 76.4536 45.3464 77.0446 45.3214C77.0446 45.3214 94.2215 48.9664 104.666 47.8954C107.488 47.8024 108.653 49.1564 108.605 51.9784C108.517 57.1114 108.239 63.7484 101.084 67.7074C99.6245 68.5144 97.9866 68.9244 96.3216 68.8464C91.1586 68.6044 89.8156 66.3994 88.4416 64.2404C88.9946 65.0944 91.0965 68.1364 92.6265 70.5064C90.9605 71.4964 89.0516 71.5834 87.3626 71.2984L86.9516 71.5504C84.9316 72.9554 85.3156 74.9104 84.8976 82.8744" fill="white"/>
<mask id="mask0" mask-type="alpha" maskUnits="userSpaceOnUse" x="27" y="42" width="82" height="84">
<path fill-rule="evenodd" clip-rule="evenodd" d="M70.1495 42.6421C68.2105 46.9991 67.8895 48.1241 66.9735 51.4171V51.4171C66.3425 53.6891 65.7275 56.9701 66.1005 61.8411V61.8411C66.7265 70.0321 56.6385 78.7841 53.3255 81.2501V81.2501C43.9585 88.6321 37.2875 93.8491 34.5955 101.979V101.979C31.9545 99.8331 29.7115 96.4241 29.3605 90.9491V90.9491C24.4935 97.6121 27.8285 104.867 33.2555 109.056V109.056C32.7865 114.497 33.6175 119.796 38.5725 125.651V125.651L84.8985 82.8741C85.3155 74.9101 84.9315 72.9551 86.9515 71.5501V71.5501L87.3625 71.2991C89.0515 71.5831 90.9605 71.4961 92.6265 70.5071V70.5071C91.5955 68.9091 90.3035 67.0041 89.4015 65.6721V65.6721C90.6075 67.2871 92.3135 68.6591 96.3225 68.8471V68.8471C97.9865 68.9251 99.6245 68.5141 101.084 67.7071V67.7071C108.239 63.7481 108.517 57.1121 108.605 51.9791V51.9791C108.653 49.1571 107.488 47.8021 104.666 47.8961V47.8961C94.2215 48.9671 77.0445 45.3221 77.0445 45.3221V45.3221C76.7705 45.3331 75.3205 44.6431 73.8205 43.9521V43.9521C72.3315 43.2671 70.7935 42.5821 70.3025 42.5821V42.5821C70.2205 42.5821 70.1675 42.6011 70.1495 42.6421V42.6421Z" fill="white"/>
</mask>
<g mask="url(#mask0)">
<path fill-rule="evenodd" clip-rule="evenodd" d="M104.018 52.4976C104.018 52.4976 105.562 64.1396 92.64 67.0936C79.718 70.0486 106.944 77.0736 106.944 77.0736L114.196 54.1456L106.391 46.1836L104.018 52.4976Z" fill="#F7F7F7"/>
</g>
<mask id="mask1" mask-type="alpha" maskUnits="userSpaceOnUse" x="27" y="42" width="82" height="84">
<path fill-rule="evenodd" clip-rule="evenodd" d="M70.1495 42.6421C68.2105 46.9991 67.8895 48.1241 66.9735 51.4171V51.4171C66.3425 53.6891 65.7275 56.9701 66.1005 61.8411V61.8411C66.7265 70.0321 56.6385 78.7841 53.3255 81.2501V81.2501C43.9585 88.6321 37.2875 93.8491 34.5955 101.979V101.979C31.9545 99.8331 29.7115 96.4241 29.3605 90.9491V90.9491C24.4935 97.6121 27.8285 104.867 33.2555 109.056V109.056C32.7865 114.497 33.6175 119.796 38.5725 125.651V125.651L84.8985 82.8741C85.3155 74.9101 84.9315 72.9551 86.9515 71.5501V71.5501L87.3625 71.2991C89.0515 71.5831 90.9605 71.4961 92.6265 70.5071V70.5071C91.5955 68.9091 90.3035 67.0041 89.4015 65.6721V65.6721C90.6075 67.2871 92.3135 68.6591 96.3225 68.8471V68.8471C97.9865 68.9251 99.6245 68.5141 101.084 67.7071V67.7071C108.239 63.7481 108.517 57.1121 108.605 51.9791V51.9791C108.653 49.1571 107.488 47.8021 104.666 47.8961V47.8961C94.2215 48.9671 77.0445 45.3221 77.0445 45.3221V45.3221C76.7705 45.3331 75.3205 44.6431 73.8205 43.9521V43.9521C72.3315 43.2671 70.7935 42.5821 70.3025 42.5821V42.5821C70.2205 42.5821 70.1675 42.6011 70.1495 42.6421V42.6421Z" fill="white"/>
</mask>
<g mask="url(#mask1)">
<path fill-rule="evenodd" clip-rule="evenodd" d="M101.894 48.2012C101.894 48.2012 101.262 51.6772 102.441 52.5432C104.958 54.3932 108.455 54.4882 108.455 54.4882L114.695 47.2862L106.391 46.1832L100.894 48.2012H101.894Z" fill="#ECECEC"/>
</g>
<mask id="mask2" mask-type="alpha" maskUnits="userSpaceOnUse" x="27" y="42" width="82" height="84">
<path fill-rule="evenodd" clip-rule="evenodd" d="M70.1495 42.6421C68.2105 46.9991 67.8895 48.1241 66.9735 51.4171V51.4171C66.3425 53.6891 65.7275 56.9701 66.1005 61.8411V61.8411C66.7265 70.0321 56.6385 78.7841 53.3255 81.2501V81.2501C43.9585 88.6321 37.2875 93.8491 34.5955 101.979V101.979C31.9545 99.8331 29.7115 96.4241 29.3605 90.9491V90.9491C24.4935 97.6121 27.8285 104.867 33.2555 109.056V109.056C32.7865 114.497 33.6175 119.796 38.5725 125.651V125.651L84.8985 82.8741C85.3155 74.9101 84.9315 72.9551 86.9515 71.5501V71.5501L87.3625 71.2991C89.0515 71.5831 90.9605 71.4961 92.6265 70.5071V70.5071C91.5955 68.9091 90.3035 67.0041 89.4015 65.6721V65.6721C90.6075 67.2871 92.3135 68.6591 96.3225 68.8471V68.8471C97.9865 68.9251 99.6245 68.5141 101.084 67.7071V67.7071C108.239 63.7481 108.517 57.1121 108.605 51.9791V51.9791C108.653 49.1571 107.488 47.8021 104.666 47.8961V47.8961C94.2215 48.9671 77.0445 45.3221 77.0445 45.3221V45.3221C76.7705 45.3331 75.3205 44.6431 73.8205 43.9521V43.9521C72.3315 43.2671 70.7935 42.5821 70.3025 42.5821V42.5821C70.2205 42.5821 70.1675 42.6011 70.1495 42.6421V42.6421Z" fill="white"/>
</mask>
<g mask="url(#mask2)">
<path fill-rule="evenodd" clip-rule="evenodd" d="M101.894 48.2012C101.894 48.2012 101.262 51.6772 102.441 52.5432C104.958 54.3932 108.455 54.4882 108.455 54.4882L114.695 47.2862L106.391 46.1832L100.894 48.2012H101.894Z" stroke="#4A4A4A" stroke-width="2" stroke-linecap="round" stroke-linejoin="round"/>
</g>
<mask id="mask3" mask-type="alpha" maskUnits="userSpaceOnUse" x="27" y="42" width="82" height="84">
<path fill-rule="evenodd" clip-rule="evenodd" d="M70.1495 42.6421C68.2105 46.9991 67.8895 48.1241 66.9735 51.4171V51.4171C66.3425 53.6891 65.7275 56.9701 66.1005 61.8411V61.8411C66.7265 70.0321 56.6385 78.7841 53.3255 81.2501V81.2501C43.9585 88.6321 37.2875 93.8491 34.5955 101.979V101.979C31.9545 99.8331 29.7115 96.4241 29.3605 90.9491V90.9491C24.4935 97.6121 27.8285 104.867 33.2555 109.056V109.056C32.7865 114.497 33.6175 119.796 38.5725 125.651V125.651L84.8985 82.8741C85.3155 74.9101 84.9315 72.9551 86.9515 71.5501V71.5501L87.3625 71.2991C89.0515 71.5831 90.9605 71.4961 92.6265 70.5071V70.5071C91.5955 68.9091 90.3035 67.0041 89.4015 65.6721V65.6721C90.6075 67.2871 92.3135 68.6591 96.3225 68.8471V68.8471C97.9865 68.9251 99.6245 68.5141 101.084 67.7071V67.7071C108.239 63.7481 108.517 57.1121 108.605 51.9791V51.9791C108.653 49.1571 107.488 47.8021 104.666 47.8961V47.8961C94.2215 48.9671 77.0445 45.3221 77.0445 45.3221V45.3221C76.7705 45.3331 75.3205 44.6431 73.8205 43.9521V43.9521C72.3315 43.2671 70.7935 42.5821 70.3025 42.5821V42.5821C70.2205 42.5821 70.1675 42.6011 70.1495 42.6421" fill="white"/>
</mask>
<g mask="url(#mask3)">
<path fill-rule="evenodd" clip-rule="evenodd" d="M69.9458 45.1905C69.9458 45.1905 68.8108 57.4135 70.0448 60.8705C70.9608 63.4345 68.7178 67.4445 68.7178 67.4445L61.8398 61.2635L66.3908 51.3165L70.5818 44.0935" fill="#F7F7F7"/>
</g>
<mask id="mask4" mask-type="alpha" maskUnits="userSpaceOnUse" x="27" y="42" width="82" height="84">
<path fill-rule="evenodd" clip-rule="evenodd" d="M70.1495 42.6421C68.2105 46.9991 67.8895 48.1241 66.9735 51.4171V51.4171C66.3425 53.6891 65.7275 56.9701 66.1005 61.8411V61.8411C66.7265 70.0321 56.6385 78.7841 53.3255 81.2501V81.2501C43.9585 88.6321 37.2875 93.8491 34.5955 101.979V101.979C31.9545 99.8331 29.7115 96.4241 29.3605 90.9491V90.9491C24.4935 97.6121 27.8285 104.867 33.2555 109.056V109.056C32.7865 114.497 33.6175 119.796 38.5725 125.651V125.651L84.8985 82.8741C85.3155 74.9101 84.9315 72.9551 86.9515 71.5501V71.5501L87.3625 71.2991C89.0515 71.5831 90.9605 71.4961 92.6265 70.5071V70.5071C91.5955 68.9091 90.3035 67.0041 89.4015 65.6721V65.6721C90.6075 67.2871 92.3135 68.6591 96.3225 68.8471V68.8471C97.9865 68.9251 99.6245 68.5141 101.084 67.7071V67.7071C108.239 63.7481 108.517 57.1121 108.605 51.9791V51.9791C108.653 49.1571 107.488 47.8021 104.666 47.8961V47.8961C94.2215 48.9671 77.0445 45.3221 77.0445 45.3221V45.3221C76.7705 45.3331 75.3205 44.6431 73.8205 43.9521V43.9521C72.3315 43.2671 70.7935 42.5821 70.3025 42.5821V42.5821C70.2205 42.5821 70.1675 42.6011 70.1495 42.6421" fill="white"/>
</mask>
<g mask="url(#mask4)">
<path fill-rule="evenodd" clip-rule="evenodd" d="M64.3384 75.5083C64.3384 75.5083 57.0364 83.4943 48.8414 90.2143C40.6464 96.9333 34.1394 106.128 38.5124 120.943C40.9654 125.092 41.2854 128.591 41.2854 128.591L31.0464 111.226C31.0464 111.226 24.1124 98.4263 27.7394 90.9603C27.0004 101.093 33.9014 104.543 33.9014 104.543L40.7524 84.0553L65.6054 70.0543L64.3384 75.5083" fill="#F7F7F7"/>
</g>
<path d="M38.5726 126.07C33.6176 120.215 32.7866 114.916 33.2556 109.474C27.8276 105.286 24.4936 98.0309 29.3596 91.3679C29.7106 96.8429 31.9536 100.252 34.5956 102.398C37.2876 94.2669 43.9576 89.0508 53.3246 81.6698C56.6376 79.2028 66.7266 70.4509 66.0996 62.2599C65.7266 57.3889 66.3416 54.1079 66.9736 51.8359C67.8896 48.5429 68.2106 47.4179 70.1496 43.0609C70.3896 42.5199 76.4536 45.7649 77.0446 45.7399C77.0446 45.7399 94.2215 49.3849 104.666 48.3139C107.488 48.2209 108.653 49.5749 108.605 52.3969C108.517 57.5299 108.239 64.1669 101.084 68.1259C99.6245 68.9329 97.9866 69.3429 96.3216 69.2649C91.1586 69.0229 89.8156 66.8179 88.4416 64.6589C88.9946 65.5129 91.0965 68.5549 92.6265 70.9249C90.9605 71.9149 89.0516 72.0019 87.3626 71.7169L86.9516 71.9689C84.9316 73.3739 85.3156 75.3289 84.8976 83.2929" stroke="#4A4A4A" stroke-width="2" stroke-linecap="round" stroke-linejoin="round"/>
<path fill-rule="evenodd" clip-rule="evenodd" d="M62.0542 71.8575C62.0542 71.8575 67.0992 83.0185 82.3472 88.2245C83.0562 85.7715 84.8222 84.0175 84.8222 84.0175L62.0542 71.8575Z" fill="#F7F7F7"/>
<path fill-rule="evenodd" clip-rule="evenodd" d="M84.8219 84.2227C82.9619 85.6087 82.3989 89.0507 83.9889 92.0367Z" fill="#ECECEC"/>
<mask id="mask5" mask-type="alpha" maskUnits="userSpaceOnUse" x="83" y="84" width="2" height="9">
<path fill-rule="evenodd" clip-rule="evenodd" d="M83.9894 92.0371L84.8214 84.2221C82.9624 85.6091 82.3984 89.0501 83.9894 92.0371V92.0371Z" fill="white"/>
</mask>
<g mask="url(#mask5)">
<path fill-rule="evenodd" clip-rule="evenodd" d="M84.0858 67.0938C84.0858 67.0938 81.5768 71.5068 81.9458 74.3098C82.3148 77.1138 79.3638 91.7948 80.2498 93.1968C81.1348 94.5978 97.3648 93.3438 97.3648 93.3438L93.2228 78.0068L84.0858 67.0938Z" fill="#F7F7F7"/>
</g>
<path d="M84.8219 84.2227C82.9619 85.6087 82.3989 89.0507 83.9889 92.0367" stroke="#B40060" stroke-width="2" stroke-linecap="round" stroke-linejoin="round"/>
<path fill-rule="evenodd" clip-rule="evenodd" d="M73.4392 106.028C74.1042 112.552 71.0132 119.529 65.4522 122.461C66.3882 123.379 66.9392 124.432 67.2572 125.444C67.9012 127.499 66.3902 129.591 64.2372 129.591H52.1262C49.5732 129.591 48.1452 126.903 49.1822 124.852" fill="#F7F7F7"/>
<path d="M73.4392 106.028C74.1042 112.552 71.0132 119.529 65.4522 122.461C66.3882 123.379 66.9392 124.432 67.2572 125.444C67.9012 127.499 66.3902 129.591 64.2372 129.591H52.1262C49.5732 129.591 48.1452 126.903 49.1822 124.852" stroke="#4A4A4A" stroke-width="2" stroke-linecap="round" stroke-linejoin="round"/>
<path fill-rule="evenodd" clip-rule="evenodd" d="M85.6997 101.743C86.3307 107.706 87.3627 115.64 87.3627 115.64C87.3627 115.64 93.2017 121.68 93.5077 123.764C93.5237 123.868 93.5377 123.972 93.5507 124.076C93.8317 126.478 91.9607 129.591 89.5417 129.587L79.6977 129.572C78.2257 127.482 73.1157 107.436 73.1157 107.436L73.7987 101.78" fill="#F7F7F7"/>
<path d="M85.6997 101.743C86.3307 107.706 87.3627 115.64 87.3627 115.64C87.3627 115.64 93.2017 121.68 93.5077 123.764C93.5237 123.868 93.5377 123.972 93.5507 124.076C93.8317 126.478 91.9607 129.591 89.5417 129.587L79.6977 129.572C78.2257 127.482 73.1157 107.436 73.1157 107.436L73.7987 101.78" stroke="#4A4A4A" stroke-width="2" stroke-linecap="round" stroke-linejoin="round"/>
<path fill-rule="evenodd" clip-rule="evenodd" d="M78.5699 104.544C73.4229 109.957 68.3089 112.754 63.3379 114.561Z" fill="white"/>
<path d="M78.5699 104.544C73.4229 109.957 68.3089 112.754 63.3379 114.561" stroke="#4A4A4A" stroke-width="2" stroke-linecap="round" stroke-linejoin="round"/>
<path fill-rule="evenodd" clip-rule="evenodd" d="M92.6401 70.4986C92.9611 71.0056 93.1941 71.5446 93.3811 72.0896C94.0891 74.1636 94.1181 76.3276 95.7081 77.1236C96.3821 77.4606 97.1161 77.4346 97.8161 76.9966C98.4951 76.5716 98.9011 75.8136 99.0251 75.0216C99.2231 73.7556 99.2071 72.5236 98.7651 71.2596" fill="white"/>
<path d="M92.6401 70.4986C92.9611 71.0056 93.1941 71.5446 93.3811 72.0896C94.0891 74.1636 94.1181 76.3276 95.7081 77.1236C96.3821 77.4606 97.1161 77.4346 97.8161 76.9966C98.4951 76.5716 98.9011 75.8136 99.0251 75.0216C99.2231 73.7556 99.2071 72.5236 98.7651 71.2596" stroke="#4A4A4A" stroke-width="2" stroke-linecap="round" stroke-linejoin="round"/>
<path fill-rule="evenodd" clip-rule="evenodd" d="M87.5997 54.149L87.6367 55.032Z" fill="white"/>
<path d="M87.5997 54.149L87.6367 55.032" stroke="#4A4A4A" stroke-width="1.2" stroke-linecap="round" stroke-linejoin="round"/>
<path fill-rule="evenodd" clip-rule="evenodd" d="M86.2155 77.6978C76.3855 75.6678 69.1175 69.5928 65.8925 65.6948C65.3125 64.9928 65.2785 64.8918 64.5735 65.4658C63.0155 66.7348 62.4715 67.4528 61.6775 69.0028C61.1985 69.9388 61.3545 71.0728 62.0535 71.8578C69.2005 79.8708 79.6205 84.0398 85.4425 84.0398C87.2105 84.3628 90.0845 79.5878 89.5945 78.0168C89.2235 76.8258 88.6155 76.0448 87.6605 75.2378" fill="#FF0083"/>
<path d="M86.2155 77.6978C76.3855 75.6678 69.1175 69.5928 65.8925 65.6948C65.3125 64.9928 65.2785 64.8918 64.5735 65.4658C63.0155 66.7348 62.4715 67.4528 61.6775 69.0028C61.1985 69.9388 61.3545 71.0728 62.0535 71.8578C69.2005 79.8708 79.6205 84.0398 85.4425 84.0398C87.2105 84.3628 90.0845 79.5878 89.5945 78.0168C89.2235 76.8258 88.6155 76.0448 87.6605 75.2378" stroke="#B40060" stroke-width="2" stroke-linecap="round" stroke-linejoin="round"/>
<path fill-rule="evenodd" clip-rule="evenodd" d="M34.5955 101.979C34.3225 102.802 34.0915 103.655 33.9015 104.543Z" fill="white"/>
<path d="M34.5955 101.979C34.3225 102.802 34.0915 103.655 33.9015 104.543" stroke="#4A4A4A" stroke-width="2" stroke-linecap="round" stroke-linejoin="round"/>
<path fill-rule="evenodd" clip-rule="evenodd" d="M54.8134 96.3526C64.2704 102.494 64.0214 115.436 55.0234 120.178C54.0404 120.697 53.9214 120.684 54.7144 121.461C55.6504 122.379 56.4894 124.078 56.5204 125.445C56.5674 127.597 55.6534 129.592 53.5004 129.592H41.3884C38.8354 129.592 37.4074 126.904 38.4444 124.853" fill="white"/>
<mask id="mask6" mask-type="alpha" maskUnits="userSpaceOnUse" x="38" y="96" width="24" height="34">
<path fill-rule="evenodd" clip-rule="evenodd" d="M38.4433 124.853C37.4073 126.903 38.8363 129.591 41.3883 129.591V129.591H53.5003C55.6533 129.591 56.5683 127.597 56.5203 125.444V125.444C56.4883 124.077 55.6503 122.379 54.7153 121.461V121.461C53.9213 120.683 54.0403 120.697 55.0233 120.177V120.177C64.0213 115.435 64.2703 102.493 54.8133 96.3531V96.3531" fill="white"/>
</mask>
<g mask="url(#mask6)">
<path fill-rule="evenodd" clip-rule="evenodd" d="M45.8062 129.587C45.8062 129.587 52.4742 128.902 53.3002 126.675C54.4222 123.644 52.4742 120.943 52.4742 120.943C52.4742 120.943 57.1352 116.512 57.9982 112.364C58.7952 108.528 58.2882 102.094 54.3802 98.633C53.3392 96.516 55.8162 96.655 55.8162 96.655L64.3382 104.971L59.4312 133.584L45.9032 133.779" fill="#F7F7F7"/>
</g>
<path d="M54.8134 96.3526C64.2704 102.494 64.0214 115.436 55.0234 120.178C54.0404 120.697 53.9214 120.684 54.7144 121.461C55.6504 122.379 56.4894 124.078 56.5204 125.445C56.5674 127.597 55.6534 129.592 53.5004 129.592H41.3884C38.8354 129.592 37.4074 126.904 38.4444 124.853" stroke="#4A4A4A" stroke-width="2" stroke-linecap="round" stroke-linejoin="round"/>
<path fill-rule="evenodd" clip-rule="evenodd" d="M64.3384 97.5088C64.3384 97.5088 70.1584 119.654 72.9524 126.887C73.5854 128.525 76.2534 129.597 78.0084 129.592L82.3024 129.571C85.8864 129.559 88.7614 125.485 86.6374 122.598C84.3884 119.539 81.2514 116.752 81.2514 116.752L80.6034 100.111" fill="white"/>
<mask id="mask7" mask-type="alpha" maskUnits="userSpaceOnUse" x="64" y="97" width="24" height="33">
<path fill-rule="evenodd" clip-rule="evenodd" d="M72.9524 126.887C73.5854 128.525 76.2534 129.597 78.0084 129.591V129.591L82.3014 129.571C85.8864 129.559 88.7614 125.485 86.6374 122.597V122.597C84.3884 119.539 81.2514 116.752 81.2514 116.752V116.752L80.6034 100.11L64.3384 97.5091C64.3384 97.5091 70.1584 119.653 72.9524 126.887V126.887Z" fill="white"/>
</mask>
<g mask="url(#mask7)">
<path fill-rule="evenodd" clip-rule="evenodd" d="M76.6519 99.2476C76.6519 99.2476 77.6239 102.571 78.4409 103.29V118.38C78.4409 118.38 84.1659 124.546 83.8219 129.592C83.4789 134.638 96.9519 128.592 96.9519 128.592L82.8499 94.1276L76.6519 99.2476Z" fill="#F7F7F7"/>
</g>
<path d="M64.3384 97.5088C64.3384 97.5088 70.1584 119.654 72.9524 126.887C73.5854 128.525 76.2534 129.597 78.0084 129.592L82.3024 129.571C85.8864 129.559 88.7614 125.485 86.6374 122.598C84.3884 119.539 81.2514 116.752 81.2514 116.752L80.6034 100.111" stroke="#4A4A4A" stroke-width="2" stroke-linecap="round" stroke-linejoin="round"/>
<path fill-rule="evenodd" clip-rule="evenodd" d="M78.4404 117.22C79.3984 117.119 80.5364 116.917 81.2514 116.512Z" fill="white"/>
<path d="M78.4404 117.22C79.3984 117.119 80.5364 116.917 81.2514 116.512" stroke="#4A4A4A" stroke-width="2" stroke-linecap="round" stroke-linejoin="round"/>
<path fill-rule="evenodd" clip-rule="evenodd" d="M90.3054 90.7759C90.9094 91.0889 91.4154 91.7719 91.5384 92.4949C91.5654 92.6279 91.5814 92.7989 91.5774 92.9839C91.5694 93.4729 91.4224 93.9149 91.1494 94.2659C91.0344 94.4179 90.9564 94.6349 90.9524 94.8349C90.9494 95.0029 90.9924 95.1589 91.0704 95.2669C91.3774 95.7099 91.5254 96.2159 91.5174 96.7589C91.5134 96.9299 91.4984 97.1089 91.4584 97.3019C91.3054 98.0939 90.7054 98.8319 89.9814 99.0749C89.7994 99.1319 89.6474 99.1639 89.5084 99.1799C89.4004 99.1929 89.2994 99.1959 89.2004 99.1919C88.3314 99.1569 87.5814 98.5729 87.2744 97.6649C87.2204 97.5129 87.1244 97.3739 87.0034 97.2789C86.9194 97.2119 86.8144 97.1739 86.7034 97.1649L85.3884 97.2319C85.1874 97.2419 84.9504 97.3389 84.7424 97.4999C84.5164 97.6739 84.3274 97.9069 84.1984 98.1699C83.6704 99.2149 82.6074 99.9609 81.3834 100.1C81.2154 100.118 81.0454 100.128 80.8614 100.125L80.6834 100.118C79.3214 100.013 78.1944 99.0049 78.0824 97.7919C78.0554 97.5689 78.0614 97.3179 78.1014 97.0539C78.2094 96.3669 78.5634 95.7349 79.1154 95.2239C79.3674 94.9929 79.5314 94.7089 79.5684 94.4379C79.5984 94.2259 79.5454 94.0109 79.4254 93.8609C78.9704 93.2859 78.7824 92.6179 78.8884 91.9359C78.9224 91.7139 78.9804 91.5109 79.0734 91.3009C79.4404 90.4209 80.4954 89.7449 81.5434 89.6849C81.7234 89.6669 81.9684 89.6699 82.2084 89.6969C82.3284 89.7119 82.4594 89.7359 82.5844 89.7639C83.6184 90.0069 84.4364 90.7089 84.7544 91.6069C84.8164 91.7779 84.9134 91.9209 85.0374 92.0259C85.1284 92.1049 85.2374 92.1539 85.3494 92.1769" fill="#FF0083"/>
<path d="M90.3054 90.7759C90.9094 91.0889 91.4154 91.7719 91.5384 92.4949C91.5654 92.6279 91.5814 92.7989 91.5774 92.9839C91.5694 93.4729 91.4224 93.9149 91.1494 94.2659C91.0344 94.4179 90.9564 94.6349 90.9524 94.8349C90.9494 95.0029 90.9924 95.1589 91.0704 95.2669C91.3774 95.7099 91.5254 96.2159 91.5174 96.7589C91.5134 96.9299 91.4984 97.1089 91.4584 97.3019C91.3054 98.0939 90.7054 98.8319 89.9814 99.0749C89.7994 99.1319 89.6474 99.1639 89.5084 99.1799C89.4004 99.1929 89.2994 99.1959 89.2004 99.1919C88.3314 99.1569 87.5814 98.5729 87.2744 97.6649C87.2204 97.5129 87.1244 97.3739 87.0034 97.2789C86.9194 97.2119 86.8144 97.1739 86.7034 97.1649L85.3884 97.2319C85.1874 97.2419 84.9504 97.3389 84.7424 97.4999C84.5164 97.6739 84.3274 97.9069 84.1984 98.1699C83.6704 99.2149 82.6074 99.9609 81.3834 100.1C81.2154 100.118 81.0454 100.128 80.8614 100.125L80.6834 100.118C79.3214 100.013 78.1944 99.0049 78.0824 97.7919C78.0554 97.5689 78.0614 97.3179 78.1014 97.0539C78.2094 96.3669 78.5634 95.7349 79.1154 95.2239C79.3674 94.9929 79.5314 94.7089 79.5684 94.4379C79.5984 94.2259 79.5454 94.0109 79.4254 93.8609C78.9704 93.2859 78.7824 92.6179 78.8884 91.9359C78.9224 91.7139 78.9804 91.5109 79.0734 91.3009C79.4404 90.4209 80.4954 89.7449 81.5434 89.6849C81.7234 89.6669 81.9684 89.6699 82.2084 89.6969C82.3284 89.7119 82.4594 89.7359 82.5844 89.7639C83.6184 90.0069 84.4364 90.7089 84.7544 91.6069C84.8164 91.7779 84.9134 91.9209 85.0374 92.0259C85.1284 92.1049 85.2374 92.1539 85.3494 92.1769" stroke="#B40060" stroke-width="2" stroke-linecap="round"/>
<path d="M85.4429 84.0396C86.8819 84.0396 88.0479 86.3696 88.0479 88.4436C88.0479 90.5176 86.8819 92.1976 85.4429 92.1976" stroke="#B40060" stroke-width="2" stroke-linecap="round" stroke-linejoin="round"/>
<path fill-rule="evenodd" clip-rule="evenodd" d="M50.5693 120.943L54.3813 120.783Z" fill="white"/>
<path d="M50.5693 120.943L54.3813 120.783" stroke="#4A4A4A" stroke-width="2" stroke-linecap="round" stroke-linejoin="round"/>
<path fill-rule="evenodd" clip-rule="evenodd" d="M78.7416 47.6504C78.7256 46.6314 78.9166 45.3734 79.6206 44.0554C79.5106 39.3084 73.2556 38.1184 70.9376 41.1494C69.5436 42.9734 68.8896 45.5424 68.5366 46.4574" fill="white"/>
<path d="M78.7416 47.6504C78.7256 46.6314 78.9166 45.3734 79.6206 44.0554C79.5106 39.3084 73.2556 38.1184 70.9376 41.1494C69.5436 42.9734 68.8896 45.5424 68.5366 46.4574" stroke="#4A4A4A" stroke-width="2" stroke-linecap="round" stroke-linejoin="round"/>
<path fill-rule="evenodd" clip-rule="evenodd" d="M75.9263 39.6407L83.1543 42.5817C85.1773 43.6337 83.5913 46.4667 81.4573 47.2717C80.3633 47.6847 78.8173 47.8257 76.6313 47.3957" fill="white"/>
<path d="M75.9263 39.6407L83.1543 42.5817C85.1773 43.6337 83.5913 46.4667 81.4573 47.2717C80.3633 47.6847 78.8173 47.8257 76.6313 47.3957" stroke="#4A4A4A" stroke-width="2" stroke-linecap="round" stroke-linejoin="round"/>
<path fill-rule="evenodd" clip-rule="evenodd" d="M83.7178 70.0508C84.5538 70.5108 85.8738 71.0488 87.3628 71.2988Z" fill="white"/>
<path d="M83.7178 70.0508C84.5538 70.5108 85.8738 71.0488 87.3628 71.2988" stroke="#4A4A4A" stroke-width="2" stroke-linecap="round" stroke-linejoin="round"/>
</svg>